<?xml version="1.0" encoding="utf-8" standalone="no"?>
<!DOCTYPE svg PUBLIC "-//W3C//DTD SVG 1.1//EN"
  "http://www.w3.org/Graphics/SVG/1.1/DTD/svg11.dtd">
<!-- Created with matplotlib (https://matplotlib.org/) -->
<svg height="360pt" version="1.1" viewBox="0 0 720 360" width="720pt" xmlns="http://www.w3.org/2000/svg" xmlns:xlink="http://www.w3.org/1999/xlink">
 <metadata>
  <rdf:RDF xmlns:cc="http://creativecommons.org/ns#" xmlns:dc="http://purl.org/dc/elements/1.1/" xmlns:rdf="http://www.w3.org/1999/02/22-rdf-syntax-ns#">
   <cc:Work>
    <dc:type rdf:resource="http://purl.org/dc/dcmitype/StillImage"/>
    <dc:date>2021-08-10T22:09:29.279559</dc:date>
    <dc:format>image/svg+xml</dc:format>
    <dc:creator>
     <cc:Agent>
      <dc:title>Matplotlib v3.3.3, https://matplotlib.org/</dc:title>
     </cc:Agent>
    </dc:creator>
   </cc:Work>
  </rdf:RDF>
 </metadata>
 <defs>
  <style type="text/css">*{stroke-linecap:butt;stroke-linejoin:round;}</style>
 </defs>
 <g id="figure_1">
  <g id="patch_1">
   <path d="M 0 360 
L 720 360 
L 720 0 
L 0 0 
z
" style="fill:#ffffff;"/>
  </g>
  <g id="axes_1">
   <g id="patch_2">
    <path d="M 90 320.4 
L 169.714286 320.4 
L 169.714286 43.2 
L 90 43.2 
z
" style="fill:#ffffff;"/>
   </g>
   <g id="matplotlib.axis_1">
    <g id="xtick_1">
     <g id="line2d_1">
      <defs>
       <path d="M 0 0 
L 0 3.5 
" id="m82f61dceb3" style="stroke:#000000;stroke-width:0.8;"/>
      </defs>
      <g>
       <use style="stroke:#000000;stroke-width:0.8;" x="107.33426" xlink:href="#m82f61dceb3" y="320.4"/>
      </g>
     </g>
     <g id="text_1">
      <!-- $\mathdefault{10^{5}}$ -->
      <g transform="translate(95.89426 337.277969)scale(0.13 -0.13)">
       <defs>
        <path d="M 12.40625 8.296875 
L 28.515625 8.296875 
L 28.515625 63.921875 
L 10.984375 60.40625 
L 10.984375 69.390625 
L 28.421875 72.90625 
L 38.28125 72.90625 
L 38.28125 8.296875 
L 54.390625 8.296875 
L 54.390625 0 
L 12.40625 0 
z
" id="DejaVuSans-49"/>
        <path d="M 31.78125 66.40625 
Q 24.171875 66.40625 20.328125 58.90625 
Q 16.5 51.421875 16.5 36.375 
Q 16.5 21.390625 20.328125 13.890625 
Q 24.171875 6.390625 31.78125 6.390625 
Q 39.453125 6.390625 43.28125 13.890625 
Q 47.125 21.390625 47.125 36.375 
Q 47.125 51.421875 43.28125 58.90625 
Q 39.453125 66.40625 31.78125 66.40625 
z
M 31.78125 74.21875 
Q 44.046875 74.21875 50.515625 64.515625 
Q 56.984375 54.828125 56.984375 36.375 
Q 56.984375 17.96875 50.515625 8.265625 
Q 44.046875 -1.421875 31.78125 -1.421875 
Q 19.53125 -1.421875 13.0625 8.265625 
Q 6.59375 17.96875 6.59375 36.375 
Q 6.59375 54.828125 13.0625 64.515625 
Q 19.53125 74.21875 31.78125 74.21875 
z
" id="DejaVuSans-48"/>
        <path d="M 10.796875 72.90625 
L 49.515625 72.90625 
L 49.515625 64.59375 
L 19.828125 64.59375 
L 19.828125 46.734375 
Q 21.96875 47.46875 24.109375 47.828125 
Q 26.265625 48.1875 28.421875 48.1875 
Q 40.625 48.1875 47.75 41.5 
Q 54.890625 34.8125 54.890625 23.390625 
Q 54.890625 11.625 47.5625 5.09375 
Q 40.234375 -1.421875 26.90625 -1.421875 
Q 22.3125 -1.421875 17.546875 -0.640625 
Q 12.796875 0.140625 7.71875 1.703125 
L 7.71875 11.625 
Q 12.109375 9.234375 16.796875 8.0625 
Q 21.484375 6.890625 26.703125 6.890625 
Q 35.15625 6.890625 40.078125 11.328125 
Q 45.015625 15.765625 45.015625 23.390625 
Q 45.015625 31 40.078125 35.4375 
Q 35.15625 39.890625 26.703125 39.890625 
Q 22.75 39.890625 18.8125 39.015625 
Q 14.890625 38.140625 10.796875 36.28125 
z
" id="DejaVuSans-53"/>
       </defs>
       <use transform="translate(0 0.684375)" xlink:href="#DejaVuSans-49"/>
       <use transform="translate(63.623047 0.684375)" xlink:href="#DejaVuSans-48"/>
       <use transform="translate(128.203125 38.965625)scale(0.7)" xlink:href="#DejaVuSans-53"/>
      </g>
     </g>
    </g>
    <g id="xtick_2">
     <g id="line2d_2">
      <g>
       <use style="stroke:#000000;stroke-width:0.8;" x="152.880828" xlink:href="#m82f61dceb3" y="320.4"/>
      </g>
     </g>
     <g id="text_2">
      <!-- $\mathdefault{10^{6}}$ -->
      <g transform="translate(141.440828 337.277969)scale(0.13 -0.13)">
       <defs>
        <path d="M 33.015625 40.375 
Q 26.375 40.375 22.484375 35.828125 
Q 18.609375 31.296875 18.609375 23.390625 
Q 18.609375 15.53125 22.484375 10.953125 
Q 26.375 6.390625 33.015625 6.390625 
Q 39.65625 6.390625 43.53125 10.953125 
Q 47.40625 15.53125 47.40625 23.390625 
Q 47.40625 31.296875 43.53125 35.828125 
Q 39.65625 40.375 33.015625 40.375 
z
M 52.59375 71.296875 
L 52.59375 62.3125 
Q 48.875 64.0625 45.09375 64.984375 
Q 41.3125 65.921875 37.59375 65.921875 
Q 27.828125 65.921875 22.671875 59.328125 
Q 17.53125 52.734375 16.796875 39.40625 
Q 19.671875 43.65625 24.015625 45.921875 
Q 28.375 48.1875 33.59375 48.1875 
Q 44.578125 48.1875 50.953125 41.515625 
Q 57.328125 34.859375 57.328125 23.390625 
Q 57.328125 12.15625 50.6875 5.359375 
Q 44.046875 -1.421875 33.015625 -1.421875 
Q 20.359375 -1.421875 13.671875 8.265625 
Q 6.984375 17.96875 6.984375 36.375 
Q 6.984375 53.65625 15.1875 63.9375 
Q 23.390625 74.21875 37.203125 74.21875 
Q 40.921875 74.21875 44.703125 73.484375 
Q 48.484375 72.75 52.59375 71.296875 
z
" id="DejaVuSans-54"/>
       </defs>
       <use transform="translate(0 0.765625)" xlink:href="#DejaVuSans-49"/>
       <use transform="translate(63.623047 0.765625)" xlink:href="#DejaVuSans-48"/>
       <use transform="translate(128.203125 39.046875)scale(0.7)" xlink:href="#DejaVuSans-54"/>
      </g>
     </g>
    </g>
    <g id="xtick_3">
     <g id="line2d_3">
      <defs>
       <path d="M 0 0 
L 0 2 
" id="mf85e5dcb25" style="stroke:#000000;stroke-width:0.6;"/>
      </defs>
      <g>
       <use style="stroke:#000000;stroke-width:0.6;" x="93.623377" xlink:href="#mf85e5dcb25" y="320.4"/>
      </g>
     </g>
    </g>
    <g id="xtick_4">
     <g id="line2d_4">
      <g>
       <use style="stroke:#000000;stroke-width:0.6;" x="97.229811" xlink:href="#mf85e5dcb25" y="320.4"/>
      </g>
     </g>
    </g>
    <g id="xtick_5">
     <g id="line2d_5">
      <g>
       <use style="stroke:#000000;stroke-width:0.6;" x="100.279007" xlink:href="#mf85e5dcb25" y="320.4"/>
      </g>
     </g>
    </g>
    <g id="xtick_6">
     <g id="line2d_6">
      <g>
       <use style="stroke:#000000;stroke-width:0.6;" x="102.920341" xlink:href="#mf85e5dcb25" y="320.4"/>
      </g>
     </g>
    </g>
    <g id="xtick_7">
     <g id="line2d_7">
      <g>
       <use style="stroke:#000000;stroke-width:0.6;" x="105.250163" xlink:href="#mf85e5dcb25" y="320.4"/>
      </g>
     </g>
    </g>
    <g id="xtick_8">
     <g id="line2d_8">
      <g>
       <use style="stroke:#000000;stroke-width:0.6;" x="121.045143" xlink:href="#mf85e5dcb25" y="320.4"/>
      </g>
     </g>
    </g>
    <g id="xtick_9">
     <g id="line2d_9">
      <g>
       <use style="stroke:#000000;stroke-width:0.6;" x="129.065496" xlink:href="#mf85e5dcb25" y="320.4"/>
      </g>
     </g>
    </g>
    <g id="xtick_10">
     <g id="line2d_10">
      <g>
       <use style="stroke:#000000;stroke-width:0.6;" x="134.756026" xlink:href="#mf85e5dcb25" y="320.4"/>
      </g>
     </g>
    </g>
    <g id="xtick_11">
     <g id="line2d_11">
      <g>
       <use style="stroke:#000000;stroke-width:0.6;" x="139.169945" xlink:href="#mf85e5dcb25" y="320.4"/>
      </g>
     </g>
    </g>
    <g id="xtick_12">
     <g id="line2d_12">
      <g>
       <use style="stroke:#000000;stroke-width:0.6;" x="142.776379" xlink:href="#mf85e5dcb25" y="320.4"/>
      </g>
     </g>
    </g>
    <g id="xtick_13">
     <g id="line2d_13">
      <g>
       <use style="stroke:#000000;stroke-width:0.6;" x="145.825575" xlink:href="#mf85e5dcb25" y="320.4"/>
      </g>
     </g>
    </g>
    <g id="xtick_14">
     <g id="line2d_14">
      <g>
       <use style="stroke:#000000;stroke-width:0.6;" x="148.466909" xlink:href="#mf85e5dcb25" y="320.4"/>
      </g>
     </g>
    </g>
    <g id="xtick_15">
     <g id="line2d_15">
      <g>
       <use style="stroke:#000000;stroke-width:0.6;" x="150.796731" xlink:href="#mf85e5dcb25" y="320.4"/>
      </g>
     </g>
    </g>
    <g id="xtick_16">
     <g id="line2d_16">
      <g>
       <use style="stroke:#000000;stroke-width:0.6;" x="166.591711" xlink:href="#mf85e5dcb25" y="320.4"/>
      </g>
     </g>
    </g>
   </g>
   <g id="matplotlib.axis_2">
    <g id="ytick_1">
     <g id="line2d_17">
      <defs>
       <path d="M 0 0 
L -3.5 0 
" id="mf3448e4454" style="stroke:#000000;stroke-width:0.8;"/>
      </defs>
      <g>
       <use style="stroke:#000000;stroke-width:0.8;" x="90" xlink:href="#mf3448e4454" y="320.4"/>
      </g>
     </g>
     <g id="text_3">
      <!-- $\mathdefault{10^{-2}}$ -->
      <g transform="translate(52.45 325.338984)scale(0.13 -0.13)">
       <defs>
        <path d="M 10.59375 35.5 
L 73.1875 35.5 
L 73.1875 27.203125 
L 10.59375 27.203125 
z
" id="DejaVuSans-8722"/>
        <path d="M 19.1875 8.296875 
L 53.609375 8.296875 
L 53.609375 0 
L 7.328125 0 
L 7.328125 8.296875 
Q 12.9375 14.109375 22.625 23.890625 
Q 32.328125 33.6875 34.8125 36.53125 
Q 39.546875 41.84375 41.421875 45.53125 
Q 43.3125 49.21875 43.3125 52.78125 
Q 43.3125 58.59375 39.234375 62.25 
Q 35.15625 65.921875 28.609375 65.921875 
Q 23.96875 65.921875 18.8125 64.3125 
Q 13.671875 62.703125 7.8125 59.421875 
L 7.8125 69.390625 
Q 13.765625 71.78125 18.9375 73 
Q 24.125 74.21875 28.421875 74.21875 
Q 39.75 74.21875 46.484375 68.546875 
Q 53.21875 62.890625 53.21875 53.421875 
Q 53.21875 48.921875 51.53125 44.890625 
Q 49.859375 40.875 45.40625 35.40625 
Q 44.1875 33.984375 37.640625 27.21875 
Q 31.109375 20.453125 19.1875 8.296875 
z
" id="DejaVuSans-50"/>
       </defs>
       <use transform="translate(0 0.765625)" xlink:href="#DejaVuSans-49"/>
       <use transform="translate(63.623047 0.765625)" xlink:href="#DejaVuSans-48"/>
       <use transform="translate(128.203125 39.046875)scale(0.7)" xlink:href="#DejaVuSans-8722"/>
       <use transform="translate(186.855469 39.046875)scale(0.7)" xlink:href="#DejaVuSans-50"/>
      </g>
     </g>
    </g>
    <g id="ytick_2">
     <g id="line2d_18">
      <g>
       <use style="stroke:#000000;stroke-width:0.8;" x="90" xlink:href="#mf3448e4454" y="199.444607"/>
      </g>
     </g>
     <g id="text_4">
      <!-- $\mathdefault{10^{-1}}$ -->
      <g transform="translate(52.45 204.383591)scale(0.13 -0.13)">
       <use transform="translate(0 0.684375)" xlink:href="#DejaVuSans-49"/>
       <use transform="translate(63.623047 0.684375)" xlink:href="#DejaVuSans-48"/>
       <use transform="translate(128.203125 38.965625)scale(0.7)" xlink:href="#DejaVuSans-8722"/>
       <use transform="translate(186.855469 38.965625)scale(0.7)" xlink:href="#DejaVuSans-49"/>
      </g>
     </g>
    </g>
    <g id="ytick_3">
     <g id="line2d_19">
      <g>
       <use style="stroke:#000000;stroke-width:0.8;" x="90" xlink:href="#mf3448e4454" y="78.489214"/>
      </g>
     </g>
     <g id="text_5">
      <!-- $\mathdefault{10^{0}}$ -->
      <g transform="translate(60.12 83.428198)scale(0.13 -0.13)">
       <use transform="translate(0 0.765625)" xlink:href="#DejaVuSans-49"/>
       <use transform="translate(63.623047 0.765625)" xlink:href="#DejaVuSans-48"/>
       <use transform="translate(128.203125 39.046875)scale(0.7)" xlink:href="#DejaVuSans-48"/>
      </g>
     </g>
    </g>
    <g id="ytick_4">
     <g id="line2d_20">
      <defs>
       <path d="M 0 0 
L -2 0 
" id="m8206ca744e" style="stroke:#000000;stroke-width:0.6;"/>
      </defs>
      <g>
       <use style="stroke:#000000;stroke-width:0.6;" x="90" xlink:href="#m8206ca744e" y="283.988799"/>
      </g>
     </g>
    </g>
    <g id="ytick_5">
     <g id="line2d_21">
      <g>
       <use style="stroke:#000000;stroke-width:0.6;" x="90" xlink:href="#m8206ca744e" y="262.689611"/>
      </g>
     </g>
    </g>
    <g id="ytick_6">
     <g id="line2d_22">
      <g>
       <use style="stroke:#000000;stroke-width:0.6;" x="90" xlink:href="#m8206ca744e" y="247.577597"/>
      </g>
     </g>
    </g>
    <g id="ytick_7">
     <g id="line2d_23">
      <g>
       <use style="stroke:#000000;stroke-width:0.6;" x="90" xlink:href="#m8206ca744e" y="235.855808"/>
      </g>
     </g>
    </g>
    <g id="ytick_8">
     <g id="line2d_24">
      <g>
       <use style="stroke:#000000;stroke-width:0.6;" x="90" xlink:href="#m8206ca744e" y="226.27841"/>
      </g>
     </g>
    </g>
    <g id="ytick_9">
     <g id="line2d_25">
      <g>
       <use style="stroke:#000000;stroke-width:0.6;" x="90" xlink:href="#m8206ca744e" y="218.180834"/>
      </g>
     </g>
    </g>
    <g id="ytick_10">
     <g id="line2d_26">
      <g>
       <use style="stroke:#000000;stroke-width:0.6;" x="90" xlink:href="#m8206ca744e" y="211.166396"/>
      </g>
     </g>
    </g>
    <g id="ytick_11">
     <g id="line2d_27">
      <g>
       <use style="stroke:#000000;stroke-width:0.6;" x="90" xlink:href="#m8206ca744e" y="204.979222"/>
      </g>
     </g>
    </g>
    <g id="ytick_12">
     <g id="line2d_28">
      <g>
       <use style="stroke:#000000;stroke-width:0.6;" x="90" xlink:href="#m8206ca744e" y="163.033405"/>
      </g>
     </g>
    </g>
    <g id="ytick_13">
     <g id="line2d_29">
      <g>
       <use style="stroke:#000000;stroke-width:0.6;" x="90" xlink:href="#m8206ca744e" y="141.734218"/>
      </g>
     </g>
    </g>
    <g id="ytick_14">
     <g id="line2d_30">
      <g>
       <use style="stroke:#000000;stroke-width:0.6;" x="90" xlink:href="#m8206ca744e" y="126.622204"/>
      </g>
     </g>
    </g>
    <g id="ytick_15">
     <g id="line2d_31">
      <g>
       <use style="stroke:#000000;stroke-width:0.6;" x="90" xlink:href="#m8206ca744e" y="114.900415"/>
      </g>
     </g>
    </g>
    <g id="ytick_16">
     <g id="line2d_32">
      <g>
       <use style="stroke:#000000;stroke-width:0.6;" x="90" xlink:href="#m8206ca744e" y="105.323016"/>
      </g>
     </g>
    </g>
    <g id="ytick_17">
     <g id="line2d_33">
      <g>
       <use style="stroke:#000000;stroke-width:0.6;" x="90" xlink:href="#m8206ca744e" y="97.225441"/>
      </g>
     </g>
    </g>
    <g id="ytick_18">
     <g id="line2d_34">
      <g>
       <use style="stroke:#000000;stroke-width:0.6;" x="90" xlink:href="#m8206ca744e" y="90.211002"/>
      </g>
     </g>
    </g>
    <g id="ytick_19">
     <g id="line2d_35">
      <g>
       <use style="stroke:#000000;stroke-width:0.6;" x="90" xlink:href="#m8206ca744e" y="84.023829"/>
      </g>
     </g>
    </g>
    <g id="text_6">
     <!-- RMS Displacement ($\langle x_{i}\rangle^{2}$) -->
     <g transform="translate(45.72 263.44)rotate(-90)scale(0.13 -0.13)">
      <defs>
       <path d="M 44.390625 34.1875 
Q 47.5625 33.109375 50.5625 29.59375 
Q 53.5625 26.078125 56.59375 19.921875 
L 66.609375 0 
L 56 0 
L 46.6875 18.703125 
Q 43.0625 26.03125 39.671875 28.421875 
Q 36.28125 30.8125 30.421875 30.8125 
L 19.671875 30.8125 
L 19.671875 0 
L 9.8125 0 
L 9.8125 72.90625 
L 32.078125 72.90625 
Q 44.578125 72.90625 50.734375 67.671875 
Q 56.890625 62.453125 56.890625 51.90625 
Q 56.890625 45.015625 53.6875 40.46875 
Q 50.484375 35.9375 44.390625 34.1875 
z
M 19.671875 64.796875 
L 19.671875 38.921875 
L 32.078125 38.921875 
Q 39.203125 38.921875 42.84375 42.21875 
Q 46.484375 45.515625 46.484375 51.90625 
Q 46.484375 58.296875 42.84375 61.546875 
Q 39.203125 64.796875 32.078125 64.796875 
z
" id="DejaVuSans-82"/>
       <path d="M 9.8125 72.90625 
L 24.515625 72.90625 
L 43.109375 23.296875 
L 61.8125 72.90625 
L 76.515625 72.90625 
L 76.515625 0 
L 66.890625 0 
L 66.890625 64.015625 
L 48.09375 14.015625 
L 38.1875 14.015625 
L 19.390625 64.015625 
L 19.390625 0 
L 9.8125 0 
z
" id="DejaVuSans-77"/>
       <path d="M 53.515625 70.515625 
L 53.515625 60.890625 
Q 47.90625 63.578125 42.921875 64.890625 
Q 37.9375 66.21875 33.296875 66.21875 
Q 25.25 66.21875 20.875 63.09375 
Q 16.5 59.96875 16.5 54.203125 
Q 16.5 49.359375 19.40625 46.890625 
Q 22.3125 44.4375 30.421875 42.921875 
L 36.375 41.703125 
Q 47.40625 39.59375 52.65625 34.296875 
Q 57.90625 29 57.90625 20.125 
Q 57.90625 9.515625 50.796875 4.046875 
Q 43.703125 -1.421875 29.984375 -1.421875 
Q 24.8125 -1.421875 18.96875 -0.25 
Q 13.140625 0.921875 6.890625 3.21875 
L 6.890625 13.375 
Q 12.890625 10.015625 18.65625 8.296875 
Q 24.421875 6.59375 29.984375 6.59375 
Q 38.421875 6.59375 43.015625 9.90625 
Q 47.609375 13.234375 47.609375 19.390625 
Q 47.609375 24.75 44.3125 27.78125 
Q 41.015625 30.8125 33.5 32.328125 
L 27.484375 33.5 
Q 16.453125 35.6875 11.515625 40.375 
Q 6.59375 45.0625 6.59375 53.421875 
Q 6.59375 63.09375 13.40625 68.65625 
Q 20.21875 74.21875 32.171875 74.21875 
Q 37.3125 74.21875 42.625 73.28125 
Q 47.953125 72.359375 53.515625 70.515625 
z
" id="DejaVuSans-83"/>
       <path id="DejaVuSans-32"/>
       <path d="M 19.671875 64.796875 
L 19.671875 8.109375 
L 31.59375 8.109375 
Q 46.6875 8.109375 53.6875 14.9375 
Q 60.6875 21.78125 60.6875 36.53125 
Q 60.6875 51.171875 53.6875 57.984375 
Q 46.6875 64.796875 31.59375 64.796875 
z
M 9.8125 72.90625 
L 30.078125 72.90625 
Q 51.265625 72.90625 61.171875 64.09375 
Q 71.09375 55.28125 71.09375 36.53125 
Q 71.09375 17.671875 61.125 8.828125 
Q 51.171875 0 30.078125 0 
L 9.8125 0 
z
" id="DejaVuSans-68"/>
       <path d="M 9.421875 54.6875 
L 18.40625 54.6875 
L 18.40625 0 
L 9.421875 0 
z
M 9.421875 75.984375 
L 18.40625 75.984375 
L 18.40625 64.59375 
L 9.421875 64.59375 
z
" id="DejaVuSans-105"/>
       <path d="M 44.28125 53.078125 
L 44.28125 44.578125 
Q 40.484375 46.53125 36.375 47.5 
Q 32.28125 48.484375 27.875 48.484375 
Q 21.1875 48.484375 17.84375 46.4375 
Q 14.5 44.390625 14.5 40.28125 
Q 14.5 37.15625 16.890625 35.375 
Q 19.28125 33.59375 26.515625 31.984375 
L 29.59375 31.296875 
Q 39.15625 29.25 43.1875 25.515625 
Q 47.21875 21.78125 47.21875 15.09375 
Q 47.21875 7.46875 41.1875 3.015625 
Q 35.15625 -1.421875 24.609375 -1.421875 
Q 20.21875 -1.421875 15.453125 -0.5625 
Q 10.6875 0.296875 5.421875 2 
L 5.421875 11.28125 
Q 10.40625 8.6875 15.234375 7.390625 
Q 20.0625 6.109375 24.8125 6.109375 
Q 31.15625 6.109375 34.5625 8.28125 
Q 37.984375 10.453125 37.984375 14.40625 
Q 37.984375 18.0625 35.515625 20.015625 
Q 33.0625 21.96875 24.703125 23.78125 
L 21.578125 24.515625 
Q 13.234375 26.265625 9.515625 29.90625 
Q 5.8125 33.546875 5.8125 39.890625 
Q 5.8125 47.609375 11.28125 51.796875 
Q 16.75 56 26.8125 56 
Q 31.78125 56 36.171875 55.265625 
Q 40.578125 54.546875 44.28125 53.078125 
z
" id="DejaVuSans-115"/>
       <path d="M 18.109375 8.203125 
L 18.109375 -20.796875 
L 9.078125 -20.796875 
L 9.078125 54.6875 
L 18.109375 54.6875 
L 18.109375 46.390625 
Q 20.953125 51.265625 25.265625 53.625 
Q 29.59375 56 35.59375 56 
Q 45.5625 56 51.78125 48.09375 
Q 58.015625 40.1875 58.015625 27.296875 
Q 58.015625 14.40625 51.78125 6.484375 
Q 45.5625 -1.421875 35.59375 -1.421875 
Q 29.59375 -1.421875 25.265625 0.953125 
Q 20.953125 3.328125 18.109375 8.203125 
z
M 48.6875 27.296875 
Q 48.6875 37.203125 44.609375 42.84375 
Q 40.53125 48.484375 33.40625 48.484375 
Q 26.265625 48.484375 22.1875 42.84375 
Q 18.109375 37.203125 18.109375 27.296875 
Q 18.109375 17.390625 22.1875 11.75 
Q 26.265625 6.109375 33.40625 6.109375 
Q 40.53125 6.109375 44.609375 11.75 
Q 48.6875 17.390625 48.6875 27.296875 
z
" id="DejaVuSans-112"/>
       <path d="M 9.421875 75.984375 
L 18.40625 75.984375 
L 18.40625 0 
L 9.421875 0 
z
" id="DejaVuSans-108"/>
       <path d="M 34.28125 27.484375 
Q 23.390625 27.484375 19.1875 25 
Q 14.984375 22.515625 14.984375 16.5 
Q 14.984375 11.71875 18.140625 8.90625 
Q 21.296875 6.109375 26.703125 6.109375 
Q 34.1875 6.109375 38.703125 11.40625 
Q 43.21875 16.703125 43.21875 25.484375 
L 43.21875 27.484375 
z
M 52.203125 31.203125 
L 52.203125 0 
L 43.21875 0 
L 43.21875 8.296875 
Q 40.140625 3.328125 35.546875 0.953125 
Q 30.953125 -1.421875 24.3125 -1.421875 
Q 15.921875 -1.421875 10.953125 3.296875 
Q 6 8.015625 6 15.921875 
Q 6 25.140625 12.171875 29.828125 
Q 18.359375 34.515625 30.609375 34.515625 
L 43.21875 34.515625 
L 43.21875 35.40625 
Q 43.21875 41.609375 39.140625 45 
Q 35.0625 48.390625 27.6875 48.390625 
Q 23 48.390625 18.546875 47.265625 
Q 14.109375 46.140625 10.015625 43.890625 
L 10.015625 52.203125 
Q 14.9375 54.109375 19.578125 55.046875 
Q 24.21875 56 28.609375 56 
Q 40.484375 56 46.34375 49.84375 
Q 52.203125 43.703125 52.203125 31.203125 
z
" id="DejaVuSans-97"/>
       <path d="M 48.78125 52.59375 
L 48.78125 44.1875 
Q 44.96875 46.296875 41.140625 47.34375 
Q 37.3125 48.390625 33.40625 48.390625 
Q 24.65625 48.390625 19.8125 42.84375 
Q 14.984375 37.3125 14.984375 27.296875 
Q 14.984375 17.28125 19.8125 11.734375 
Q 24.65625 6.203125 33.40625 6.203125 
Q 37.3125 6.203125 41.140625 7.25 
Q 44.96875 8.296875 48.78125 10.40625 
L 48.78125 2.09375 
Q 45.015625 0.34375 40.984375 -0.53125 
Q 36.96875 -1.421875 32.421875 -1.421875 
Q 20.0625 -1.421875 12.78125 6.34375 
Q 5.515625 14.109375 5.515625 27.296875 
Q 5.515625 40.671875 12.859375 48.328125 
Q 20.21875 56 33.015625 56 
Q 37.15625 56 41.109375 55.140625 
Q 45.0625 54.296875 48.78125 52.59375 
z
" id="DejaVuSans-99"/>
       <path d="M 56.203125 29.59375 
L 56.203125 25.203125 
L 14.890625 25.203125 
Q 15.484375 15.921875 20.484375 11.0625 
Q 25.484375 6.203125 34.421875 6.203125 
Q 39.59375 6.203125 44.453125 7.46875 
Q 49.3125 8.734375 54.109375 11.28125 
L 54.109375 2.78125 
Q 49.265625 0.734375 44.1875 -0.34375 
Q 39.109375 -1.421875 33.890625 -1.421875 
Q 20.796875 -1.421875 13.15625 6.1875 
Q 5.515625 13.8125 5.515625 26.8125 
Q 5.515625 40.234375 12.765625 48.109375 
Q 20.015625 56 32.328125 56 
Q 43.359375 56 49.78125 48.890625 
Q 56.203125 41.796875 56.203125 29.59375 
z
M 47.21875 32.234375 
Q 47.125 39.59375 43.09375 43.984375 
Q 39.0625 48.390625 32.421875 48.390625 
Q 24.90625 48.390625 20.390625 44.140625 
Q 15.875 39.890625 15.1875 32.171875 
z
" id="DejaVuSans-101"/>
       <path d="M 52 44.1875 
Q 55.375 50.25 60.0625 53.125 
Q 64.75 56 71.09375 56 
Q 79.640625 56 84.28125 50.015625 
Q 88.921875 44.046875 88.921875 33.015625 
L 88.921875 0 
L 79.890625 0 
L 79.890625 32.71875 
Q 79.890625 40.578125 77.09375 44.375 
Q 74.3125 48.1875 68.609375 48.1875 
Q 61.625 48.1875 57.5625 43.546875 
Q 53.515625 38.921875 53.515625 30.90625 
L 53.515625 0 
L 44.484375 0 
L 44.484375 32.71875 
Q 44.484375 40.625 41.703125 44.40625 
Q 38.921875 48.1875 33.109375 48.1875 
Q 26.21875 48.1875 22.15625 43.53125 
Q 18.109375 38.875 18.109375 30.90625 
L 18.109375 0 
L 9.078125 0 
L 9.078125 54.6875 
L 18.109375 54.6875 
L 18.109375 46.1875 
Q 21.1875 51.21875 25.484375 53.609375 
Q 29.78125 56 35.6875 56 
Q 41.65625 56 45.828125 52.96875 
Q 50 49.953125 52 44.1875 
z
" id="DejaVuSans-109"/>
       <path d="M 54.890625 33.015625 
L 54.890625 0 
L 45.90625 0 
L 45.90625 32.71875 
Q 45.90625 40.484375 42.875 44.328125 
Q 39.84375 48.1875 33.796875 48.1875 
Q 26.515625 48.1875 22.3125 43.546875 
Q 18.109375 38.921875 18.109375 30.90625 
L 18.109375 0 
L 9.078125 0 
L 9.078125 54.6875 
L 18.109375 54.6875 
L 18.109375 46.1875 
Q 21.34375 51.125 25.703125 53.5625 
Q 30.078125 56 35.796875 56 
Q 45.21875 56 50.046875 50.171875 
Q 54.890625 44.34375 54.890625 33.015625 
z
" id="DejaVuSans-110"/>
       <path d="M 18.3125 70.21875 
L 18.3125 54.6875 
L 36.8125 54.6875 
L 36.8125 47.703125 
L 18.3125 47.703125 
L 18.3125 18.015625 
Q 18.3125 11.328125 20.140625 9.421875 
Q 21.96875 7.515625 27.59375 7.515625 
L 36.8125 7.515625 
L 36.8125 0 
L 27.59375 0 
Q 17.1875 0 13.234375 3.875 
Q 9.28125 7.765625 9.28125 18.015625 
L 9.28125 47.703125 
L 2.6875 47.703125 
L 2.6875 54.6875 
L 9.28125 54.6875 
L 9.28125 70.21875 
z
" id="DejaVuSans-116"/>
       <path d="M 31 75.875 
Q 24.46875 64.65625 21.28125 53.65625 
Q 18.109375 42.671875 18.109375 31.390625 
Q 18.109375 20.125 21.3125 9.0625 
Q 24.515625 -2 31 -13.1875 
L 23.1875 -13.1875 
Q 15.875 -1.703125 12.234375 9.375 
Q 8.59375 20.453125 8.59375 31.390625 
Q 8.59375 42.28125 12.203125 53.3125 
Q 15.828125 64.359375 23.1875 75.875 
z
" id="DejaVuSans-40"/>
       <path d="M 8.9375 31.34375 
L 22.703125 75.875 
L 31 75.875 
L 17.234375 31.34375 
L 31 -13.1875 
L 22.703125 -13.1875 
z
" id="DejaVuSans-10216"/>
       <path d="M 60.015625 54.6875 
L 34.90625 27.875 
L 50.296875 0 
L 39.984375 0 
L 28.421875 21.6875 
L 8.296875 0 
L -2.59375 0 
L 24.3125 28.8125 
L 10.015625 54.6875 
L 20.3125 54.6875 
L 30.8125 34.90625 
L 49.125 54.6875 
z
" id="DejaVuSans-Oblique-120"/>
       <path d="M 18.3125 75.984375 
L 27.296875 75.984375 
L 25.09375 64.59375 
L 16.109375 64.59375 
z
M 14.203125 54.6875 
L 23.1875 54.6875 
L 12.5 0 
L 3.515625 0 
z
" id="DejaVuSans-Oblique-105"/>
       <path d="M 30.078125 31.34375 
L 16.3125 -13.1875 
L 8.015625 -13.1875 
L 21.78125 31.34375 
L 8.015625 75.875 
L 16.3125 75.875 
z
" id="DejaVuSans-10217"/>
       <path d="M 8.015625 75.875 
L 15.828125 75.875 
Q 23.140625 64.359375 26.78125 53.3125 
Q 30.421875 42.28125 30.421875 31.390625 
Q 30.421875 20.453125 26.78125 9.375 
Q 23.140625 -1.703125 15.828125 -13.1875 
L 8.015625 -13.1875 
Q 14.5 -2 17.703125 9.0625 
Q 20.90625 20.125 20.90625 31.390625 
Q 20.90625 42.671875 17.703125 53.65625 
Q 14.5 64.65625 8.015625 75.875 
z
" id="DejaVuSans-41"/>
      </defs>
      <use transform="translate(0 0.765625)" xlink:href="#DejaVuSans-82"/>
      <use transform="translate(69.482422 0.765625)" xlink:href="#DejaVuSans-77"/>
      <use transform="translate(155.761719 0.765625)" xlink:href="#DejaVuSans-83"/>
      <use transform="translate(219.238281 0.765625)" xlink:href="#DejaVuSans-32"/>
      <use transform="translate(251.025391 0.765625)" xlink:href="#DejaVuSans-68"/>
      <use transform="translate(328.027344 0.765625)" xlink:href="#DejaVuSans-105"/>
      <use transform="translate(355.810547 0.765625)" xlink:href="#DejaVuSans-115"/>
      <use transform="translate(407.910156 0.765625)" xlink:href="#DejaVuSans-112"/>
      <use transform="translate(471.386719 0.765625)" xlink:href="#DejaVuSans-108"/>
      <use transform="translate(499.169922 0.765625)" xlink:href="#DejaVuSans-97"/>
      <use transform="translate(560.449219 0.765625)" xlink:href="#DejaVuSans-99"/>
      <use transform="translate(615.429688 0.765625)" xlink:href="#DejaVuSans-101"/>
      <use transform="translate(676.953125 0.765625)" xlink:href="#DejaVuSans-109"/>
      <use transform="translate(774.365234 0.765625)" xlink:href="#DejaVuSans-101"/>
      <use transform="translate(835.888672 0.765625)" xlink:href="#DejaVuSans-110"/>
      <use transform="translate(899.267578 0.765625)" xlink:href="#DejaVuSans-116"/>
      <use transform="translate(938.476562 0.765625)" xlink:href="#DejaVuSans-32"/>
      <use transform="translate(970.263672 0.765625)" xlink:href="#DejaVuSans-40"/>
      <use transform="translate(1009.277344 0.765625)" xlink:href="#DejaVuSans-10216"/>
      <use transform="translate(1048.291016 0.765625)" xlink:href="#DejaVuSans-Oblique-120"/>
      <use transform="translate(1107.470703 -15.640625)scale(0.7)" xlink:href="#DejaVuSans-Oblique-105"/>
      <use transform="translate(1129.65332 0.765625)" xlink:href="#DejaVuSans-10217"/>
      <use transform="translate(1169.624023 39.046875)scale(0.7)" xlink:href="#DejaVuSans-50"/>
      <use transform="translate(1216.894531 0.765625)" xlink:href="#DejaVuSans-41"/>
     </g>
    </g>
   </g>
   <g id="line2d_36">
    <path clip-path="url(#pf3fc7bdc68)" d="M 93.623377 168.400597 
L 107.33426 156.279861 
L 115.354612 157.168776 
L 121.045143 150.426847 
L 125.459062 137.402958 
L 129.065496 139.807892 
L 132.114692 126.392527 
L 134.756026 131.537947 
L 137.085848 120.64958 
L 139.169945 117.332982 
L 141.055239 139.389713 
L 142.776379 108.482622 
L 144.359673 129.616188 
L 145.825575 123.790145 
L 147.190297 130.703562 
L 148.466909 100.009074 
L 149.666102 127.026255 
L 150.796731 121.959796 
L 151.866215 116.709889 
L 152.880828 109.67016 
L 153.845928 119.54593 
L 154.766123 123.200566 
L 155.645406 121.714026 
L 156.487262 128.222846 
L 157.294746 114.198186 
L 158.070557 100.77184 
L 158.817084 100.407713 
L 159.536458 99.588332 
L 160.230587 105.473049 
L 160.90118 99.505295 
L 161.549784 98.400842 
L 162.177793 86.748681 
L 162.786475 90.163091 
L 163.376985 96.060019 
L 163.950377 97.515801 
L 164.507614 95.183567 
L 165.049583 82.449272 
L 165.577098 87.461461 
L 166.090909 87.663058 
" style="fill:none;stroke:#1f77b4;stroke-linecap:square;stroke-width:1.5;"/>
   </g>
   <g id="line2d_37">
    <path clip-path="url(#pf3fc7bdc68)" d="M 93.623377 238.885488 
L 107.33426 227.268697 
L 115.354612 216.260024 
L 121.045143 222.650152 
L 125.459062 209.497203 
L 129.065496 215.734658 
L 132.114692 213.750125 
L 134.756026 209.987791 
L 137.085848 205.544369 
L 139.169945 204.23206 
L 141.055239 205.741537 
L 142.776379 206.957222 
L 144.359673 199.552123 
L 145.825575 197.144985 
L 147.190297 201.985408 
L 148.466909 197.017573 
L 149.666102 200.655154 
L 150.796731 200.347044 
L 151.866215 193.747412 
L 152.880828 197.243429 
L 153.845928 195.288012 
L 154.766123 191.937352 
L 155.645406 187.307977 
L 156.487262 193.018327 
L 157.294746 190.326327 
L 158.070557 190.076031 
L 158.817084 186.930034 
L 159.536458 186.066458 
L 160.230587 191.564104 
L 160.90118 188.557378 
L 161.549784 183.577145 
L 162.177793 183.652118 
L 162.786475 186.787192 
L 163.376985 186.205926 
L 163.950377 188.412981 
L 164.507614 188.172961 
L 165.049583 181.932641 
L 165.577098 192.120019 
L 166.090909 183.377118 
" style="fill:none;stroke:#ff7f0e;stroke-linecap:square;stroke-width:1.5;"/>
   </g>
   <g id="line2d_38">
    <path clip-path="url(#pf3fc7bdc68)" d="M 93.623377 187.612834 
L 107.33426 153.689792 
L 115.354612 139.358446 
L 121.045143 130.730437 
L 125.459062 126.488815 
L 129.065496 117.652529 
L 132.114692 114.740765 
L 134.756026 104.221645 
L 137.085848 94.349646 
L 139.169945 87.875657 
L 141.055239 86.605315 
L 142.776379 87.549664 
L 144.359673 96.270758 
L 145.825575 74.552114 
L 147.190297 77.290067 
L 148.466909 83.060182 
L 149.666102 68.72621 
L 150.796731 69.214784 
L 151.866215 63.090901 
L 152.880828 71.097027 
L 153.845928 62.383372 
L 154.766123 66.498413 
L 155.645406 63.041681 
L 156.487262 64.264426 
L 157.294746 66.586983 
L 158.070557 66.649702 
L 158.817084 65.589945 
L 159.536458 80.042904 
L 160.230587 79.291929 
L 160.90118 72.200979 
L 161.549784 75.082052 
L 162.177793 85.543798 
L 162.786475 84.015635 
L 163.376985 71.282783 
L 163.950377 69.229039 
L 164.507614 75.653792 
L 165.049583 79.669456 
L 165.577098 83.316779 
L 166.090909 85.719385 
" style="fill:none;stroke:#2ca02c;stroke-linecap:square;stroke-width:1.5;"/>
   </g>
   <g id="patch_3">
    <path d="M 90 320.4 
L 90 43.2 
" style="fill:none;stroke:#000000;stroke-linecap:square;stroke-linejoin:miter;stroke-width:0.8;"/>
   </g>
   <g id="patch_4">
    <path d="M 169.714286 320.4 
L 169.714286 43.2 
" style="fill:none;stroke:#000000;stroke-linecap:square;stroke-linejoin:miter;stroke-width:0.8;"/>
   </g>
   <g id="patch_5">
    <path d="M 90 320.4 
L 169.714286 320.4 
" style="fill:none;stroke:#000000;stroke-linecap:square;stroke-linejoin:miter;stroke-width:0.8;"/>
   </g>
   <g id="patch_6">
    <path d="M 90 43.2 
L 169.714286 43.2 
" style="fill:none;stroke:#000000;stroke-linecap:square;stroke-linejoin:miter;stroke-width:0.8;"/>
   </g>
  </g>
  <g id="axes_2">
   <g id="patch_7">
    <path d="M 185.657143 320.4 
L 265.371429 320.4 
L 265.371429 43.2 
L 185.657143 43.2 
z
" style="fill:#ffffff;"/>
   </g>
   <g id="matplotlib.axis_3">
    <g id="xtick_17">
     <g id="line2d_39">
      <g>
       <use style="stroke:#000000;stroke-width:0.8;" x="202.991403" xlink:href="#m82f61dceb3" y="320.4"/>
      </g>
     </g>
     <g id="text_7">
      <!-- $\mathdefault{10^{5}}$ -->
      <g transform="translate(191.551403 337.277969)scale(0.13 -0.13)">
       <use transform="translate(0 0.684375)" xlink:href="#DejaVuSans-49"/>
       <use transform="translate(63.623047 0.684375)" xlink:href="#DejaVuSans-48"/>
       <use transform="translate(128.203125 38.965625)scale(0.7)" xlink:href="#DejaVuSans-53"/>
      </g>
     </g>
    </g>
    <g id="xtick_18">
     <g id="line2d_40">
      <g>
       <use style="stroke:#000000;stroke-width:0.8;" x="248.537971" xlink:href="#m82f61dceb3" y="320.4"/>
      </g>
     </g>
     <g id="text_8">
      <!-- $\mathdefault{10^{6}}$ -->
      <g transform="translate(237.097971 337.277969)scale(0.13 -0.13)">
       <use transform="translate(0 0.765625)" xlink:href="#DejaVuSans-49"/>
       <use transform="translate(63.623047 0.765625)" xlink:href="#DejaVuSans-48"/>
       <use transform="translate(128.203125 39.046875)scale(0.7)" xlink:href="#DejaVuSans-54"/>
      </g>
     </g>
    </g>
    <g id="xtick_19">
     <g id="line2d_41">
      <g>
       <use style="stroke:#000000;stroke-width:0.6;" x="189.280519" xlink:href="#mf85e5dcb25" y="320.4"/>
      </g>
     </g>
    </g>
    <g id="xtick_20">
     <g id="line2d_42">
      <g>
       <use style="stroke:#000000;stroke-width:0.6;" x="192.886953" xlink:href="#mf85e5dcb25" y="320.4"/>
      </g>
     </g>
    </g>
    <g id="xtick_21">
     <g id="line2d_43">
      <g>
       <use style="stroke:#000000;stroke-width:0.6;" x="195.93615" xlink:href="#mf85e5dcb25" y="320.4"/>
      </g>
     </g>
    </g>
    <g id="xtick_22">
     <g id="line2d_44">
      <g>
       <use style="stroke:#000000;stroke-width:0.6;" x="198.577484" xlink:href="#mf85e5dcb25" y="320.4"/>
      </g>
     </g>
    </g>
    <g id="xtick_23">
     <g id="line2d_45">
      <g>
       <use style="stroke:#000000;stroke-width:0.6;" x="200.907306" xlink:href="#mf85e5dcb25" y="320.4"/>
      </g>
     </g>
    </g>
    <g id="xtick_24">
     <g id="line2d_46">
      <g>
       <use style="stroke:#000000;stroke-width:0.6;" x="216.702286" xlink:href="#mf85e5dcb25" y="320.4"/>
      </g>
     </g>
    </g>
    <g id="xtick_25">
     <g id="line2d_47">
      <g>
       <use style="stroke:#000000;stroke-width:0.6;" x="224.722638" xlink:href="#mf85e5dcb25" y="320.4"/>
      </g>
     </g>
    </g>
    <g id="xtick_26">
     <g id="line2d_48">
      <g>
       <use style="stroke:#000000;stroke-width:0.6;" x="230.413169" xlink:href="#mf85e5dcb25" y="320.4"/>
      </g>
     </g>
    </g>
    <g id="xtick_27">
     <g id="line2d_49">
      <g>
       <use style="stroke:#000000;stroke-width:0.6;" x="234.827088" xlink:href="#mf85e5dcb25" y="320.4"/>
      </g>
     </g>
    </g>
    <g id="xtick_28">
     <g id="line2d_50">
      <g>
       <use style="stroke:#000000;stroke-width:0.6;" x="238.433522" xlink:href="#mf85e5dcb25" y="320.4"/>
      </g>
     </g>
    </g>
    <g id="xtick_29">
     <g id="line2d_51">
      <g>
       <use style="stroke:#000000;stroke-width:0.6;" x="241.482718" xlink:href="#mf85e5dcb25" y="320.4"/>
      </g>
     </g>
    </g>
    <g id="xtick_30">
     <g id="line2d_52">
      <g>
       <use style="stroke:#000000;stroke-width:0.6;" x="244.124052" xlink:href="#mf85e5dcb25" y="320.4"/>
      </g>
     </g>
    </g>
    <g id="xtick_31">
     <g id="line2d_53">
      <g>
       <use style="stroke:#000000;stroke-width:0.6;" x="246.453874" xlink:href="#mf85e5dcb25" y="320.4"/>
      </g>
     </g>
    </g>
    <g id="xtick_32">
     <g id="line2d_54">
      <g>
       <use style="stroke:#000000;stroke-width:0.6;" x="262.248854" xlink:href="#mf85e5dcb25" y="320.4"/>
      </g>
     </g>
    </g>
   </g>
   <g id="matplotlib.axis_4">
    <g id="ytick_20">
     <g id="line2d_55">
      <g>
       <use style="stroke:#000000;stroke-width:0.8;" x="185.657143" xlink:href="#mf3448e4454" y="320.4"/>
      </g>
     </g>
    </g>
    <g id="ytick_21">
     <g id="line2d_56">
      <g>
       <use style="stroke:#000000;stroke-width:0.8;" x="185.657143" xlink:href="#mf3448e4454" y="199.444607"/>
      </g>
     </g>
    </g>
    <g id="ytick_22">
     <g id="line2d_57">
      <g>
       <use style="stroke:#000000;stroke-width:0.8;" x="185.657143" xlink:href="#mf3448e4454" y="78.489214"/>
      </g>
     </g>
    </g>
    <g id="ytick_23">
     <g id="line2d_58">
      <g>
       <use style="stroke:#000000;stroke-width:0.6;" x="185.657143" xlink:href="#m8206ca744e" y="283.988799"/>
      </g>
     </g>
    </g>
    <g id="ytick_24">
     <g id="line2d_59">
      <g>
       <use style="stroke:#000000;stroke-width:0.6;" x="185.657143" xlink:href="#m8206ca744e" y="262.689611"/>
      </g>
     </g>
    </g>
    <g id="ytick_25">
     <g id="line2d_60">
      <g>
       <use style="stroke:#000000;stroke-width:0.6;" x="185.657143" xlink:href="#m8206ca744e" y="247.577597"/>
      </g>
     </g>
    </g>
    <g id="ytick_26">
     <g id="line2d_61">
      <g>
       <use style="stroke:#000000;stroke-width:0.6;" x="185.657143" xlink:href="#m8206ca744e" y="235.855808"/>
      </g>
     </g>
    </g>
    <g id="ytick_27">
     <g id="line2d_62">
      <g>
       <use style="stroke:#000000;stroke-width:0.6;" x="185.657143" xlink:href="#m8206ca744e" y="226.27841"/>
      </g>
     </g>
    </g>
    <g id="ytick_28">
     <g id="line2d_63">
      <g>
       <use style="stroke:#000000;stroke-width:0.6;" x="185.657143" xlink:href="#m8206ca744e" y="218.180834"/>
      </g>
     </g>
    </g>
    <g id="ytick_29">
     <g id="line2d_64">
      <g>
       <use style="stroke:#000000;stroke-width:0.6;" x="185.657143" xlink:href="#m8206ca744e" y="211.166396"/>
      </g>
     </g>
    </g>
    <g id="ytick_30">
     <g id="line2d_65">
      <g>
       <use style="stroke:#000000;stroke-width:0.6;" x="185.657143" xlink:href="#m8206ca744e" y="204.979222"/>
      </g>
     </g>
    </g>
    <g id="ytick_31">
     <g id="line2d_66">
      <g>
       <use style="stroke:#000000;stroke-width:0.6;" x="185.657143" xlink:href="#m8206ca744e" y="163.033405"/>
      </g>
     </g>
    </g>
    <g id="ytick_32">
     <g id="line2d_67">
      <g>
       <use style="stroke:#000000;stroke-width:0.6;" x="185.657143" xlink:href="#m8206ca744e" y="141.734218"/>
      </g>
     </g>
    </g>
    <g id="ytick_33">
     <g id="line2d_68">
      <g>
       <use style="stroke:#000000;stroke-width:0.6;" x="185.657143" xlink:href="#m8206ca744e" y="126.622204"/>
      </g>
     </g>
    </g>
    <g id="ytick_34">
     <g id="line2d_69">
      <g>
       <use style="stroke:#000000;stroke-width:0.6;" x="185.657143" xlink:href="#m8206ca744e" y="114.900415"/>
      </g>
     </g>
    </g>
    <g id="ytick_35">
     <g id="line2d_70">
      <g>
       <use style="stroke:#000000;stroke-width:0.6;" x="185.657143" xlink:href="#m8206ca744e" y="105.323016"/>
      </g>
     </g>
    </g>
    <g id="ytick_36">
     <g id="line2d_71">
      <g>
       <use style="stroke:#000000;stroke-width:0.6;" x="185.657143" xlink:href="#m8206ca744e" y="97.225441"/>
      </g>
     </g>
    </g>
    <g id="ytick_37">
     <g id="line2d_72">
      <g>
       <use style="stroke:#000000;stroke-width:0.6;" x="185.657143" xlink:href="#m8206ca744e" y="90.211002"/>
      </g>
     </g>
    </g>
    <g id="ytick_38">
     <g id="line2d_73">
      <g>
       <use style="stroke:#000000;stroke-width:0.6;" x="185.657143" xlink:href="#m8206ca744e" y="84.023829"/>
      </g>
     </g>
    </g>
   </g>
   <g id="line2d_74">
    <path clip-path="url(#p19f74c4fc1)" d="M 189.280519 184.109788 
L 202.991403 173.152095 
L 211.011755 159.73557 
L 216.702286 157.280081 
L 221.116204 139.862774 
L 224.722638 130.958293 
L 227.771835 143.28277 
L 230.413169 131.478743 
L 232.742991 133.845069 
L 234.827088 110.90126 
L 236.712382 108.294194 
L 238.433522 96.359481 
L 240.016816 103.516817 
L 241.482718 103.17858 
L 242.84744 108.071333 
L 244.124052 93.168566 
L 245.323245 101.386575 
L 246.453874 103.616657 
L 247.523357 95.097371 
L 248.537971 85.40794 
L 249.503071 94.727643 
L 250.423266 95.288001 
L 251.302549 98.729609 
L 252.144405 98.481499 
L 252.951889 96.248316 
L 253.727699 91.962501 
L 254.474227 82.557644 
L 255.193601 84.835346 
L 255.887729 91.977136 
L 256.558323 90.056719 
L 257.206926 91.523637 
L 257.834935 90.5713 
L 258.443618 84.857726 
L 259.034128 86.415001 
L 259.60752 92.22768 
L 260.164757 91.91239 
L 260.706726 88.023764 
L 261.234241 91.079011 
L 261.748052 85.069022 
" style="fill:none;stroke:#1f77b4;stroke-linecap:square;stroke-width:1.5;"/>
   </g>
   <g id="line2d_75">
    <path clip-path="url(#p19f74c4fc1)" d="M 189.280519 242.582682 
L 202.991403 228.127561 
L 211.011755 228.065946 
L 216.702286 224.942742 
L 221.116204 222.027915 
L 224.722638 216.540295 
L 227.771835 207.137393 
L 230.413169 205.667584 
L 232.742991 210.183827 
L 234.827088 212.623767 
L 236.712382 208.214683 
L 238.433522 207.720138 
L 240.016816 210.685532 
L 241.482718 208.285216 
L 242.84744 203.191224 
L 244.124052 203.102018 
L 245.323245 200.947758 
L 246.453874 201.359277 
L 247.523357 200.047203 
L 248.537971 199.019749 
L 249.503071 196.138445 
L 250.423266 200.610754 
L 251.302549 198.647129 
L 252.144405 200.554559 
L 252.951889 202.33309 
L 253.727699 195.020618 
L 254.474227 189.552952 
L 255.193601 190.413677 
L 255.887729 196.05206 
L 256.558323 194.659595 
L 257.206926 189.962876 
L 257.834935 190.666426 
L 258.443618 193.532739 
L 259.034128 190.822007 
L 259.60752 185.761274 
L 260.164757 190.827939 
L 260.706726 188.62731 
L 261.234241 191.078836 
L 261.748052 191.326778 
" style="fill:none;stroke:#ff7f0e;stroke-linecap:square;stroke-width:1.5;"/>
   </g>
   <g id="line2d_76">
    <path clip-path="url(#p19f74c4fc1)" d="M 189.280519 198.251987 
L 202.991403 158.390212 
L 211.011755 145.732245 
L 216.702286 129.846495 
L 221.116204 131.835698 
L 224.722638 128.560772 
L 227.771835 115.946448 
L 230.413169 104.358846 
L 232.742991 86.433947 
L 234.827088 94.037747 
L 236.712382 87.100787 
L 238.433522 99.590242 
L 240.016816 98.252985 
L 241.482718 84.994929 
L 242.84744 94.100113 
L 244.124052 96.168629 
L 245.323245 80.768597 
L 246.453874 81.539059 
L 247.523357 82.555992 
L 248.537971 90.811493 
L 249.503071 82.586865 
L 250.423266 88.94735 
L 251.302549 85.610418 
L 252.144405 78.949375 
L 252.951889 72.069552 
L 253.727699 73.659741 
L 254.474227 82.272619 
L 255.193601 66.004123 
L 255.887729 69.87745 
L 256.558323 69.250241 
L 257.206926 75.458827 
L 257.834935 76.440243 
L 258.443618 63.090325 
L 259.034128 61.427521 
L 259.60752 64.585241 
L 260.164757 62.334337 
L 260.706726 64.626924 
L 261.234241 65.05963 
L 261.748052 58.796115 
" style="fill:none;stroke:#2ca02c;stroke-linecap:square;stroke-width:1.5;"/>
   </g>
   <g id="patch_8">
    <path d="M 185.657143 320.4 
L 185.657143 43.2 
" style="fill:none;stroke:#000000;stroke-linecap:square;stroke-linejoin:miter;stroke-width:0.8;"/>
   </g>
   <g id="patch_9">
    <path d="M 265.371429 320.4 
L 265.371429 43.2 
" style="fill:none;stroke:#000000;stroke-linecap:square;stroke-linejoin:miter;stroke-width:0.8;"/>
   </g>
   <g id="patch_10">
    <path d="M 185.657143 320.4 
L 265.371429 320.4 
" style="fill:none;stroke:#000000;stroke-linecap:square;stroke-linejoin:miter;stroke-width:0.8;"/>
   </g>
   <g id="patch_11">
    <path d="M 185.657143 43.2 
L 265.371429 43.2 
" style="fill:none;stroke:#000000;stroke-linecap:square;stroke-linejoin:miter;stroke-width:0.8;"/>
   </g>
  </g>
  <g id="axes_3">
   <g id="patch_12">
    <path d="M 281.314286 320.4 
L 361.028571 320.4 
L 361.028571 43.2 
L 281.314286 43.2 
z
" style="fill:#ffffff;"/>
   </g>
   <g id="matplotlib.axis_5">
    <g id="xtick_33">
     <g id="line2d_77">
      <g>
       <use style="stroke:#000000;stroke-width:0.8;" x="298.648546" xlink:href="#m82f61dceb3" y="320.4"/>
      </g>
     </g>
     <g id="text_9">
      <!-- $\mathdefault{10^{5}}$ -->
      <g transform="translate(287.208546 337.277969)scale(0.13 -0.13)">
       <use transform="translate(0 0.684375)" xlink:href="#DejaVuSans-49"/>
       <use transform="translate(63.623047 0.684375)" xlink:href="#DejaVuSans-48"/>
       <use transform="translate(128.203125 38.965625)scale(0.7)" xlink:href="#DejaVuSans-53"/>
      </g>
     </g>
    </g>
    <g id="xtick_34">
     <g id="line2d_78">
      <g>
       <use style="stroke:#000000;stroke-width:0.8;" x="344.195114" xlink:href="#m82f61dceb3" y="320.4"/>
      </g>
     </g>
     <g id="text_10">
      <!-- $\mathdefault{10^{6}}$ -->
      <g transform="translate(332.755114 337.277969)scale(0.13 -0.13)">
       <use transform="translate(0 0.765625)" xlink:href="#DejaVuSans-49"/>
       <use transform="translate(63.623047 0.765625)" xlink:href="#DejaVuSans-48"/>
       <use transform="translate(128.203125 39.046875)scale(0.7)" xlink:href="#DejaVuSans-54"/>
      </g>
     </g>
    </g>
    <g id="xtick_35">
     <g id="line2d_79">
      <g>
       <use style="stroke:#000000;stroke-width:0.6;" x="284.937662" xlink:href="#mf85e5dcb25" y="320.4"/>
      </g>
     </g>
    </g>
    <g id="xtick_36">
     <g id="line2d_80">
      <g>
       <use style="stroke:#000000;stroke-width:0.6;" x="288.544096" xlink:href="#mf85e5dcb25" y="320.4"/>
      </g>
     </g>
    </g>
    <g id="xtick_37">
     <g id="line2d_81">
      <g>
       <use style="stroke:#000000;stroke-width:0.6;" x="291.593293" xlink:href="#mf85e5dcb25" y="320.4"/>
      </g>
     </g>
    </g>
    <g id="xtick_38">
     <g id="line2d_82">
      <g>
       <use style="stroke:#000000;stroke-width:0.6;" x="294.234627" xlink:href="#mf85e5dcb25" y="320.4"/>
      </g>
     </g>
    </g>
    <g id="xtick_39">
     <g id="line2d_83">
      <g>
       <use style="stroke:#000000;stroke-width:0.6;" x="296.564449" xlink:href="#mf85e5dcb25" y="320.4"/>
      </g>
     </g>
    </g>
    <g id="xtick_40">
     <g id="line2d_84">
      <g>
       <use style="stroke:#000000;stroke-width:0.6;" x="312.359429" xlink:href="#mf85e5dcb25" y="320.4"/>
      </g>
     </g>
    </g>
    <g id="xtick_41">
     <g id="line2d_85">
      <g>
       <use style="stroke:#000000;stroke-width:0.6;" x="320.379781" xlink:href="#mf85e5dcb25" y="320.4"/>
      </g>
     </g>
    </g>
    <g id="xtick_42">
     <g id="line2d_86">
      <g>
       <use style="stroke:#000000;stroke-width:0.6;" x="326.070312" xlink:href="#mf85e5dcb25" y="320.4"/>
      </g>
     </g>
    </g>
    <g id="xtick_43">
     <g id="line2d_87">
      <g>
       <use style="stroke:#000000;stroke-width:0.6;" x="330.48423" xlink:href="#mf85e5dcb25" y="320.4"/>
      </g>
     </g>
    </g>
    <g id="xtick_44">
     <g id="line2d_88">
      <g>
       <use style="stroke:#000000;stroke-width:0.6;" x="334.090664" xlink:href="#mf85e5dcb25" y="320.4"/>
      </g>
     </g>
    </g>
    <g id="xtick_45">
     <g id="line2d_89">
      <g>
       <use style="stroke:#000000;stroke-width:0.6;" x="337.139861" xlink:href="#mf85e5dcb25" y="320.4"/>
      </g>
     </g>
    </g>
    <g id="xtick_46">
     <g id="line2d_90">
      <g>
       <use style="stroke:#000000;stroke-width:0.6;" x="339.781195" xlink:href="#mf85e5dcb25" y="320.4"/>
      </g>
     </g>
    </g>
    <g id="xtick_47">
     <g id="line2d_91">
      <g>
       <use style="stroke:#000000;stroke-width:0.6;" x="342.111017" xlink:href="#mf85e5dcb25" y="320.4"/>
      </g>
     </g>
    </g>
    <g id="xtick_48">
     <g id="line2d_92">
      <g>
       <use style="stroke:#000000;stroke-width:0.6;" x="357.905997" xlink:href="#mf85e5dcb25" y="320.4"/>
      </g>
     </g>
    </g>
   </g>
   <g id="matplotlib.axis_6">
    <g id="ytick_39">
     <g id="line2d_93">
      <g>
       <use style="stroke:#000000;stroke-width:0.8;" x="281.314286" xlink:href="#mf3448e4454" y="320.4"/>
      </g>
     </g>
    </g>
    <g id="ytick_40">
     <g id="line2d_94">
      <g>
       <use style="stroke:#000000;stroke-width:0.8;" x="281.314286" xlink:href="#mf3448e4454" y="199.444607"/>
      </g>
     </g>
    </g>
    <g id="ytick_41">
     <g id="line2d_95">
      <g>
       <use style="stroke:#000000;stroke-width:0.8;" x="281.314286" xlink:href="#mf3448e4454" y="78.489214"/>
      </g>
     </g>
    </g>
    <g id="ytick_42">
     <g id="line2d_96">
      <g>
       <use style="stroke:#000000;stroke-width:0.6;" x="281.314286" xlink:href="#m8206ca744e" y="283.988799"/>
      </g>
     </g>
    </g>
    <g id="ytick_43">
     <g id="line2d_97">
      <g>
       <use style="stroke:#000000;stroke-width:0.6;" x="281.314286" xlink:href="#m8206ca744e" y="262.689611"/>
      </g>
     </g>
    </g>
    <g id="ytick_44">
     <g id="line2d_98">
      <g>
       <use style="stroke:#000000;stroke-width:0.6;" x="281.314286" xlink:href="#m8206ca744e" y="247.577597"/>
      </g>
     </g>
    </g>
    <g id="ytick_45">
     <g id="line2d_99">
      <g>
       <use style="stroke:#000000;stroke-width:0.6;" x="281.314286" xlink:href="#m8206ca744e" y="235.855808"/>
      </g>
     </g>
    </g>
    <g id="ytick_46">
     <g id="line2d_100">
      <g>
       <use style="stroke:#000000;stroke-width:0.6;" x="281.314286" xlink:href="#m8206ca744e" y="226.27841"/>
      </g>
     </g>
    </g>
    <g id="ytick_47">
     <g id="line2d_101">
      <g>
       <use style="stroke:#000000;stroke-width:0.6;" x="281.314286" xlink:href="#m8206ca744e" y="218.180834"/>
      </g>
     </g>
    </g>
    <g id="ytick_48">
     <g id="line2d_102">
      <g>
       <use style="stroke:#000000;stroke-width:0.6;" x="281.314286" xlink:href="#m8206ca744e" y="211.166396"/>
      </g>
     </g>
    </g>
    <g id="ytick_49">
     <g id="line2d_103">
      <g>
       <use style="stroke:#000000;stroke-width:0.6;" x="281.314286" xlink:href="#m8206ca744e" y="204.979222"/>
      </g>
     </g>
    </g>
    <g id="ytick_50">
     <g id="line2d_104">
      <g>
       <use style="stroke:#000000;stroke-width:0.6;" x="281.314286" xlink:href="#m8206ca744e" y="163.033405"/>
      </g>
     </g>
    </g>
    <g id="ytick_51">
     <g id="line2d_105">
      <g>
       <use style="stroke:#000000;stroke-width:0.6;" x="281.314286" xlink:href="#m8206ca744e" y="141.734218"/>
      </g>
     </g>
    </g>
    <g id="ytick_52">
     <g id="line2d_106">
      <g>
       <use style="stroke:#000000;stroke-width:0.6;" x="281.314286" xlink:href="#m8206ca744e" y="126.622204"/>
      </g>
     </g>
    </g>
    <g id="ytick_53">
     <g id="line2d_107">
      <g>
       <use style="stroke:#000000;stroke-width:0.6;" x="281.314286" xlink:href="#m8206ca744e" y="114.900415"/>
      </g>
     </g>
    </g>
    <g id="ytick_54">
     <g id="line2d_108">
      <g>
       <use style="stroke:#000000;stroke-width:0.6;" x="281.314286" xlink:href="#m8206ca744e" y="105.323016"/>
      </g>
     </g>
    </g>
    <g id="ytick_55">
     <g id="line2d_109">
      <g>
       <use style="stroke:#000000;stroke-width:0.6;" x="281.314286" xlink:href="#m8206ca744e" y="97.225441"/>
      </g>
     </g>
    </g>
    <g id="ytick_56">
     <g id="line2d_110">
      <g>
       <use style="stroke:#000000;stroke-width:0.6;" x="281.314286" xlink:href="#m8206ca744e" y="90.211002"/>
      </g>
     </g>
    </g>
    <g id="ytick_57">
     <g id="line2d_111">
      <g>
       <use style="stroke:#000000;stroke-width:0.6;" x="281.314286" xlink:href="#m8206ca744e" y="84.023829"/>
      </g>
     </g>
    </g>
   </g>
   <g id="line2d_112">
    <path clip-path="url(#p7415d6d1da)" d="M 284.937662 196.713413 
L 298.648546 186.888581 
L 306.668898 183.777618 
L 312.359429 177.771107 
L 316.773347 152.361804 
L 320.379781 151.069388 
L 323.428978 145.082352 
L 326.070312 155.633999 
L 328.400134 125.74822 
L 330.48423 116.5686 
L 332.369525 115.666827 
L 334.090664 113.053804 
L 335.673959 121.102654 
L 337.139861 123.07661 
L 338.504583 108.142917 
L 339.781195 88.16178 
L 340.980388 104.371561 
L 342.111017 104.746296 
L 343.1805 100.737472 
L 344.195114 99.51348 
L 345.160213 114.636458 
L 346.080408 112.218426 
L 346.959692 102.264606 
L 347.801548 90.632139 
L 348.609032 101.512865 
L 349.384842 112.441046 
L 350.131369 111.853014 
L 350.850744 110.2287 
L 351.544872 102.098698 
L 352.215466 106.619489 
L 352.864069 109.943644 
L 353.492078 111.029996 
L 354.100761 106.61044 
L 354.691271 96.59605 
L 355.264663 90.781463 
L 355.8219 81.39655 
L 356.363869 101.055637 
L 356.891383 98.779331 
L 357.405195 102.798627 
" style="fill:none;stroke:#1f77b4;stroke-linecap:square;stroke-width:1.5;"/>
   </g>
   <g id="line2d_113">
    <path clip-path="url(#p7415d6d1da)" d="M 284.937662 230.271158 
L 298.648546 229.345594 
L 306.668898 232.157924 
L 312.359429 225.914956 
L 316.773347 225.063965 
L 320.379781 212.984638 
L 323.428978 219.687136 
L 326.070312 215.398892 
L 328.400134 214.810084 
L 330.48423 208.406287 
L 332.369525 209.996536 
L 334.090664 210.251761 
L 335.673959 205.285839 
L 337.139861 208.568695 
L 338.504583 211.291157 
L 339.781195 205.783957 
L 340.980388 208.972771 
L 342.111017 208.087393 
L 343.1805 202.424075 
L 344.195114 203.045428 
L 345.160213 204.422899 
L 346.080408 203.923424 
L 346.959692 202.535015 
L 347.801548 198.877104 
L 348.609032 197.58577 
L 349.384842 196.552131 
L 350.131369 199.100011 
L 350.850744 201.917869 
L 351.544872 199.433652 
L 352.215466 194.747448 
L 352.864069 200.131003 
L 353.492078 199.484204 
L 354.100761 197.95735 
L 354.691271 196.800111 
L 355.264663 201.12083 
L 355.8219 200.0551 
L 356.363869 195.038749 
L 356.891383 195.081792 
L 357.405195 197.57907 
" style="fill:none;stroke:#ff7f0e;stroke-linecap:square;stroke-width:1.5;"/>
   </g>
   <g id="line2d_114">
    <path clip-path="url(#p7415d6d1da)" d="M 284.937662 184.732512 
L 298.648546 165.070316 
L 306.668898 158.605139 
L 312.359429 157.745521 
L 316.773347 141.981718 
L 320.379781 117.26241 
L 323.428978 124.604719 
L 326.070312 109.458829 
L 328.400134 100.714851 
L 330.48423 89.931065 
L 332.369525 85.041948 
L 334.090664 97.280126 
L 335.673959 104.124697 
L 337.139861 106.734525 
L 338.504583 92.563562 
L 339.781195 91.4116 
L 340.980388 72.397871 
L 342.111017 80.764687 
L 343.1805 75.099421 
L 344.195114 83.189347 
L 345.160213 79.985363 
L 346.080408 74.268805 
L 346.959692 72.405643 
L 347.801548 75.286575 
L 348.609032 70.052851 
L 349.384842 65.474055 
L 350.131369 66.005596 
L 350.850744 75.082255 
L 351.544872 68.44387 
L 352.215466 67.321299 
L 352.864069 71.708343 
L 353.492078 68.903917 
L 354.100761 69.382041 
L 354.691271 57.791957 
L 355.264663 52.694413 
L 355.8219 62.012937 
L 356.363869 65.982548 
L 356.891383 59.66186 
L 357.405195 62.290018 
" style="fill:none;stroke:#2ca02c;stroke-linecap:square;stroke-width:1.5;"/>
   </g>
   <g id="patch_13">
    <path d="M 281.314286 320.4 
L 281.314286 43.2 
" style="fill:none;stroke:#000000;stroke-linecap:square;stroke-linejoin:miter;stroke-width:0.8;"/>
   </g>
   <g id="patch_14">
    <path d="M 361.028571 320.4 
L 361.028571 43.2 
" style="fill:none;stroke:#000000;stroke-linecap:square;stroke-linejoin:miter;stroke-width:0.8;"/>
   </g>
   <g id="patch_15">
    <path d="M 281.314286 320.4 
L 361.028571 320.4 
" style="fill:none;stroke:#000000;stroke-linecap:square;stroke-linejoin:miter;stroke-width:0.8;"/>
   </g>
   <g id="patch_16">
    <path d="M 281.314286 43.2 
L 361.028571 43.2 
" style="fill:none;stroke:#000000;stroke-linecap:square;stroke-linejoin:miter;stroke-width:0.8;"/>
   </g>
  </g>
  <g id="axes_4">
   <g id="patch_17">
    <path d="M 376.971429 320.4 
L 456.685714 320.4 
L 456.685714 43.2 
L 376.971429 43.2 
z
" style="fill:#ffffff;"/>
   </g>
   <g id="matplotlib.axis_7">
    <g id="xtick_49">
     <g id="line2d_115">
      <g>
       <use style="stroke:#000000;stroke-width:0.8;" x="394.305688" xlink:href="#m82f61dceb3" y="320.4"/>
      </g>
     </g>
     <g id="text_11">
      <!-- $\mathdefault{10^{5}}$ -->
      <g transform="translate(382.865688 337.277969)scale(0.13 -0.13)">
       <use transform="translate(0 0.684375)" xlink:href="#DejaVuSans-49"/>
       <use transform="translate(63.623047 0.684375)" xlink:href="#DejaVuSans-48"/>
       <use transform="translate(128.203125 38.965625)scale(0.7)" xlink:href="#DejaVuSans-53"/>
      </g>
     </g>
    </g>
    <g id="xtick_50">
     <g id="line2d_116">
      <g>
       <use style="stroke:#000000;stroke-width:0.8;" x="439.852256" xlink:href="#m82f61dceb3" y="320.4"/>
      </g>
     </g>
     <g id="text_12">
      <!-- $\mathdefault{10^{6}}$ -->
      <g transform="translate(428.412256 337.277969)scale(0.13 -0.13)">
       <use transform="translate(0 0.765625)" xlink:href="#DejaVuSans-49"/>
       <use transform="translate(63.623047 0.765625)" xlink:href="#DejaVuSans-48"/>
       <use transform="translate(128.203125 39.046875)scale(0.7)" xlink:href="#DejaVuSans-54"/>
      </g>
     </g>
    </g>
    <g id="xtick_51">
     <g id="line2d_117">
      <g>
       <use style="stroke:#000000;stroke-width:0.6;" x="380.594805" xlink:href="#mf85e5dcb25" y="320.4"/>
      </g>
     </g>
    </g>
    <g id="xtick_52">
     <g id="line2d_118">
      <g>
       <use style="stroke:#000000;stroke-width:0.6;" x="384.201239" xlink:href="#mf85e5dcb25" y="320.4"/>
      </g>
     </g>
    </g>
    <g id="xtick_53">
     <g id="line2d_119">
      <g>
       <use style="stroke:#000000;stroke-width:0.6;" x="387.250436" xlink:href="#mf85e5dcb25" y="320.4"/>
      </g>
     </g>
    </g>
    <g id="xtick_54">
     <g id="line2d_120">
      <g>
       <use style="stroke:#000000;stroke-width:0.6;" x="389.89177" xlink:href="#mf85e5dcb25" y="320.4"/>
      </g>
     </g>
    </g>
    <g id="xtick_55">
     <g id="line2d_121">
      <g>
       <use style="stroke:#000000;stroke-width:0.6;" x="392.221592" xlink:href="#mf85e5dcb25" y="320.4"/>
      </g>
     </g>
    </g>
    <g id="xtick_56">
     <g id="line2d_122">
      <g>
       <use style="stroke:#000000;stroke-width:0.6;" x="408.016572" xlink:href="#mf85e5dcb25" y="320.4"/>
      </g>
     </g>
    </g>
    <g id="xtick_57">
     <g id="line2d_123">
      <g>
       <use style="stroke:#000000;stroke-width:0.6;" x="416.036924" xlink:href="#mf85e5dcb25" y="320.4"/>
      </g>
     </g>
    </g>
    <g id="xtick_58">
     <g id="line2d_124">
      <g>
       <use style="stroke:#000000;stroke-width:0.6;" x="421.727455" xlink:href="#mf85e5dcb25" y="320.4"/>
      </g>
     </g>
    </g>
    <g id="xtick_59">
     <g id="line2d_125">
      <g>
       <use style="stroke:#000000;stroke-width:0.6;" x="426.141373" xlink:href="#mf85e5dcb25" y="320.4"/>
      </g>
     </g>
    </g>
    <g id="xtick_60">
     <g id="line2d_126">
      <g>
       <use style="stroke:#000000;stroke-width:0.6;" x="429.747807" xlink:href="#mf85e5dcb25" y="320.4"/>
      </g>
     </g>
    </g>
    <g id="xtick_61">
     <g id="line2d_127">
      <g>
       <use style="stroke:#000000;stroke-width:0.6;" x="432.797004" xlink:href="#mf85e5dcb25" y="320.4"/>
      </g>
     </g>
    </g>
    <g id="xtick_62">
     <g id="line2d_128">
      <g>
       <use style="stroke:#000000;stroke-width:0.6;" x="435.438338" xlink:href="#mf85e5dcb25" y="320.4"/>
      </g>
     </g>
    </g>
    <g id="xtick_63">
     <g id="line2d_129">
      <g>
       <use style="stroke:#000000;stroke-width:0.6;" x="437.76816" xlink:href="#mf85e5dcb25" y="320.4"/>
      </g>
     </g>
    </g>
    <g id="xtick_64">
     <g id="line2d_130">
      <g>
       <use style="stroke:#000000;stroke-width:0.6;" x="453.56314" xlink:href="#mf85e5dcb25" y="320.4"/>
      </g>
     </g>
    </g>
    <g id="text_13">
     <!-- Time Step -->
     <g transform="translate(384.058415 353.859531)scale(0.13 -0.13)">
      <defs>
       <path d="M -0.296875 72.90625 
L 61.375 72.90625 
L 61.375 64.59375 
L 35.5 64.59375 
L 35.5 0 
L 25.59375 0 
L 25.59375 64.59375 
L -0.296875 64.59375 
z
" id="DejaVuSans-84"/>
      </defs>
      <use xlink:href="#DejaVuSans-84"/>
      <use x="57.958984" xlink:href="#DejaVuSans-105"/>
      <use x="85.742188" xlink:href="#DejaVuSans-109"/>
      <use x="183.154297" xlink:href="#DejaVuSans-101"/>
      <use x="244.677734" xlink:href="#DejaVuSans-32"/>
      <use x="276.464844" xlink:href="#DejaVuSans-83"/>
      <use x="339.941406" xlink:href="#DejaVuSans-116"/>
      <use x="379.150391" xlink:href="#DejaVuSans-101"/>
      <use x="440.673828" xlink:href="#DejaVuSans-112"/>
     </g>
    </g>
   </g>
   <g id="matplotlib.axis_8">
    <g id="ytick_58">
     <g id="line2d_131">
      <g>
       <use style="stroke:#000000;stroke-width:0.8;" x="376.971429" xlink:href="#mf3448e4454" y="320.4"/>
      </g>
     </g>
    </g>
    <g id="ytick_59">
     <g id="line2d_132">
      <g>
       <use style="stroke:#000000;stroke-width:0.8;" x="376.971429" xlink:href="#mf3448e4454" y="199.444607"/>
      </g>
     </g>
    </g>
    <g id="ytick_60">
     <g id="line2d_133">
      <g>
       <use style="stroke:#000000;stroke-width:0.8;" x="376.971429" xlink:href="#mf3448e4454" y="78.489214"/>
      </g>
     </g>
    </g>
    <g id="ytick_61">
     <g id="line2d_134">
      <g>
       <use style="stroke:#000000;stroke-width:0.6;" x="376.971429" xlink:href="#m8206ca744e" y="283.988799"/>
      </g>
     </g>
    </g>
    <g id="ytick_62">
     <g id="line2d_135">
      <g>
       <use style="stroke:#000000;stroke-width:0.6;" x="376.971429" xlink:href="#m8206ca744e" y="262.689611"/>
      </g>
     </g>
    </g>
    <g id="ytick_63">
     <g id="line2d_136">
      <g>
       <use style="stroke:#000000;stroke-width:0.6;" x="376.971429" xlink:href="#m8206ca744e" y="247.577597"/>
      </g>
     </g>
    </g>
    <g id="ytick_64">
     <g id="line2d_137">
      <g>
       <use style="stroke:#000000;stroke-width:0.6;" x="376.971429" xlink:href="#m8206ca744e" y="235.855808"/>
      </g>
     </g>
    </g>
    <g id="ytick_65">
     <g id="line2d_138">
      <g>
       <use style="stroke:#000000;stroke-width:0.6;" x="376.971429" xlink:href="#m8206ca744e" y="226.27841"/>
      </g>
     </g>
    </g>
    <g id="ytick_66">
     <g id="line2d_139">
      <g>
       <use style="stroke:#000000;stroke-width:0.6;" x="376.971429" xlink:href="#m8206ca744e" y="218.180834"/>
      </g>
     </g>
    </g>
    <g id="ytick_67">
     <g id="line2d_140">
      <g>
       <use style="stroke:#000000;stroke-width:0.6;" x="376.971429" xlink:href="#m8206ca744e" y="211.166396"/>
      </g>
     </g>
    </g>
    <g id="ytick_68">
     <g id="line2d_141">
      <g>
       <use style="stroke:#000000;stroke-width:0.6;" x="376.971429" xlink:href="#m8206ca744e" y="204.979222"/>
      </g>
     </g>
    </g>
    <g id="ytick_69">
     <g id="line2d_142">
      <g>
       <use style="stroke:#000000;stroke-width:0.6;" x="376.971429" xlink:href="#m8206ca744e" y="163.033405"/>
      </g>
     </g>
    </g>
    <g id="ytick_70">
     <g id="line2d_143">
      <g>
       <use style="stroke:#000000;stroke-width:0.6;" x="376.971429" xlink:href="#m8206ca744e" y="141.734218"/>
      </g>
     </g>
    </g>
    <g id="ytick_71">
     <g id="line2d_144">
      <g>
       <use style="stroke:#000000;stroke-width:0.6;" x="376.971429" xlink:href="#m8206ca744e" y="126.622204"/>
      </g>
     </g>
    </g>
    <g id="ytick_72">
     <g id="line2d_145">
      <g>
       <use style="stroke:#000000;stroke-width:0.6;" x="376.971429" xlink:href="#m8206ca744e" y="114.900415"/>
      </g>
     </g>
    </g>
    <g id="ytick_73">
     <g id="line2d_146">
      <g>
       <use style="stroke:#000000;stroke-width:0.6;" x="376.971429" xlink:href="#m8206ca744e" y="105.323016"/>
      </g>
     </g>
    </g>
    <g id="ytick_74">
     <g id="line2d_147">
      <g>
       <use style="stroke:#000000;stroke-width:0.6;" x="376.971429" xlink:href="#m8206ca744e" y="97.225441"/>
      </g>
     </g>
    </g>
    <g id="ytick_75">
     <g id="line2d_148">
      <g>
       <use style="stroke:#000000;stroke-width:0.6;" x="376.971429" xlink:href="#m8206ca744e" y="90.211002"/>
      </g>
     </g>
    </g>
    <g id="ytick_76">
     <g id="line2d_149">
      <g>
       <use style="stroke:#000000;stroke-width:0.6;" x="376.971429" xlink:href="#m8206ca744e" y="84.023829"/>
      </g>
     </g>
    </g>
   </g>
   <g id="line2d_150">
    <path clip-path="url(#p7b6043aa4b)" d="M 380.594805 201.695891 
L 394.305688 191.012348 
L 402.326041 173.805085 
L 408.016572 159.195984 
L 412.43049 123.180892 
L 416.036924 123.069465 
L 419.086121 122.44196 
L 421.727455 138.536428 
L 424.057277 110.096721 
L 426.141373 114.025752 
L 428.026668 104.681107 
L 429.747807 116.591731 
L 431.331102 134.245924 
L 432.797004 117.814648 
L 434.161726 118.248606 
L 435.438338 93.758312 
L 436.637531 106.601438 
L 437.76816 113.972237 
L 438.837643 109.994064 
L 439.852256 98.604094 
L 440.817356 119.660134 
L 441.737551 125.012366 
L 442.616835 130.753055 
L 443.458691 112.009635 
L 444.266175 122.938564 
L 445.041985 121.808417 
L 445.788512 120.964236 
L 446.507887 122.19921 
L 447.202015 121.541692 
L 447.872609 122.215994 
L 448.521212 120.536613 
L 449.149221 116.355372 
L 449.757904 114.677459 
L 450.348414 111.773933 
L 450.921806 111.450283 
L 451.479043 101.144304 
L 452.021012 100.116951 
L 452.548526 106.87824 
L 453.062338 109.250487 
" style="fill:none;stroke:#1f77b4;stroke-linecap:square;stroke-width:1.5;"/>
   </g>
   <g id="line2d_151">
    <path clip-path="url(#p7b6043aa4b)" d="M 380.594805 233.454393 
L 394.305688 242.160906 
L 402.326041 230.021067 
L 408.016572 225.904831 
L 412.43049 226.867502 
L 416.036924 215.788559 
L 419.086121 218.287574 
L 421.727455 215.331033 
L 424.057277 216.517956 
L 426.141373 215.955817 
L 428.026668 213.33875 
L 429.747807 215.425964 
L 431.331102 208.591809 
L 432.797004 210.257713 
L 434.161726 200.150728 
L 435.438338 209.592496 
L 436.637531 204.214957 
L 437.76816 201.198405 
L 438.837643 205.198693 
L 439.852256 204.896253 
L 440.817356 199.236255 
L 441.737551 208.530883 
L 442.616835 202.40659 
L 443.458691 205.190307 
L 444.266175 200.490305 
L 445.041985 199.399406 
L 445.788512 199.333486 
L 446.507887 198.395614 
L 447.202015 202.452012 
L 447.872609 199.233477 
L 448.521212 194.046477 
L 449.149221 194.399391 
L 449.757904 198.002899 
L 450.348414 202.659966 
L 450.921806 198.95934 
L 451.479043 195.802958 
L 452.021012 196.040293 
L 452.548526 192.014142 
L 453.062338 197.845655 
" style="fill:none;stroke:#ff7f0e;stroke-linecap:square;stroke-width:1.5;"/>
   </g>
   <g id="line2d_152">
    <path clip-path="url(#p7b6043aa4b)" d="M 380.594805 174.342104 
L 394.305688 171.458994 
L 402.326041 153.563124 
L 408.016572 149.901796 
L 412.43049 129.831062 
L 416.036924 115.142067 
L 419.086121 111.278824 
L 421.727455 99.012607 
L 424.057277 97.247023 
L 426.141373 91.599959 
L 428.026668 86.974748 
L 429.747807 101.119192 
L 431.331102 85.301408 
L 432.797004 75.151852 
L 434.161726 72.471173 
L 435.438338 83.479297 
L 436.637531 70.113381 
L 437.76816 73.268933 
L 438.837643 67.813307 
L 439.852256 74.606992 
L 440.817356 70.599063 
L 441.737551 74.639983 
L 442.616835 73.112511 
L 443.458691 71.870546 
L 444.266175 69.584797 
L 445.041985 67.304188 
L 445.788512 61.975824 
L 446.507887 65.450018 
L 447.202015 68.097926 
L 447.872609 64.188231 
L 448.521212 64.202386 
L 449.149221 74.559256 
L 449.757904 68.217926 
L 450.348414 71.68479 
L 450.921806 63.59098 
L 451.479043 68.99195 
L 452.021012 66.849014 
L 452.548526 69.30325 
L 453.062338 65.846267 
" style="fill:none;stroke:#2ca02c;stroke-linecap:square;stroke-width:1.5;"/>
   </g>
   <g id="patch_18">
    <path d="M 376.971429 320.4 
L 376.971429 43.2 
" style="fill:none;stroke:#000000;stroke-linecap:square;stroke-linejoin:miter;stroke-width:0.8;"/>
   </g>
   <g id="patch_19">
    <path d="M 456.685714 320.4 
L 456.685714 43.2 
" style="fill:none;stroke:#000000;stroke-linecap:square;stroke-linejoin:miter;stroke-width:0.8;"/>
   </g>
   <g id="patch_20">
    <path d="M 376.971429 320.4 
L 456.685714 320.4 
" style="fill:none;stroke:#000000;stroke-linecap:square;stroke-linejoin:miter;stroke-width:0.8;"/>
   </g>
   <g id="patch_21">
    <path d="M 376.971429 43.2 
L 456.685714 43.2 
" style="fill:none;stroke:#000000;stroke-linecap:square;stroke-linejoin:miter;stroke-width:0.8;"/>
   </g>
  </g>
  <g id="axes_5">
   <g id="patch_22">
    <path d="M 472.628571 320.4 
L 552.342857 320.4 
L 552.342857 43.2 
L 472.628571 43.2 
z
" style="fill:#ffffff;"/>
   </g>
   <g id="matplotlib.axis_9">
    <g id="xtick_65">
     <g id="line2d_153">
      <g>
       <use style="stroke:#000000;stroke-width:0.8;" x="489.962831" xlink:href="#m82f61dceb3" y="320.4"/>
      </g>
     </g>
     <g id="text_14">
      <!-- $\mathdefault{10^{5}}$ -->
      <g transform="translate(478.522831 337.277969)scale(0.13 -0.13)">
       <use transform="translate(0 0.684375)" xlink:href="#DejaVuSans-49"/>
       <use transform="translate(63.623047 0.684375)" xlink:href="#DejaVuSans-48"/>
       <use transform="translate(128.203125 38.965625)scale(0.7)" xlink:href="#DejaVuSans-53"/>
      </g>
     </g>
    </g>
    <g id="xtick_66">
     <g id="line2d_154">
      <g>
       <use style="stroke:#000000;stroke-width:0.8;" x="535.509399" xlink:href="#m82f61dceb3" y="320.4"/>
      </g>
     </g>
     <g id="text_15">
      <!-- $\mathdefault{10^{6}}$ -->
      <g transform="translate(524.069399 337.277969)scale(0.13 -0.13)">
       <use transform="translate(0 0.765625)" xlink:href="#DejaVuSans-49"/>
       <use transform="translate(63.623047 0.765625)" xlink:href="#DejaVuSans-48"/>
       <use transform="translate(128.203125 39.046875)scale(0.7)" xlink:href="#DejaVuSans-54"/>
      </g>
     </g>
    </g>
    <g id="xtick_67">
     <g id="line2d_155">
      <g>
       <use style="stroke:#000000;stroke-width:0.6;" x="476.251948" xlink:href="#mf85e5dcb25" y="320.4"/>
      </g>
     </g>
    </g>
    <g id="xtick_68">
     <g id="line2d_156">
      <g>
       <use style="stroke:#000000;stroke-width:0.6;" x="479.858382" xlink:href="#mf85e5dcb25" y="320.4"/>
      </g>
     </g>
    </g>
    <g id="xtick_69">
     <g id="line2d_157">
      <g>
       <use style="stroke:#000000;stroke-width:0.6;" x="482.907579" xlink:href="#mf85e5dcb25" y="320.4"/>
      </g>
     </g>
    </g>
    <g id="xtick_70">
     <g id="line2d_158">
      <g>
       <use style="stroke:#000000;stroke-width:0.6;" x="485.548913" xlink:href="#mf85e5dcb25" y="320.4"/>
      </g>
     </g>
    </g>
    <g id="xtick_71">
     <g id="line2d_159">
      <g>
       <use style="stroke:#000000;stroke-width:0.6;" x="487.878735" xlink:href="#mf85e5dcb25" y="320.4"/>
      </g>
     </g>
    </g>
    <g id="xtick_72">
     <g id="line2d_160">
      <g>
       <use style="stroke:#000000;stroke-width:0.6;" x="503.673714" xlink:href="#mf85e5dcb25" y="320.4"/>
      </g>
     </g>
    </g>
    <g id="xtick_73">
     <g id="line2d_161">
      <g>
       <use style="stroke:#000000;stroke-width:0.6;" x="511.694067" xlink:href="#mf85e5dcb25" y="320.4"/>
      </g>
     </g>
    </g>
    <g id="xtick_74">
     <g id="line2d_162">
      <g>
       <use style="stroke:#000000;stroke-width:0.6;" x="517.384598" xlink:href="#mf85e5dcb25" y="320.4"/>
      </g>
     </g>
    </g>
    <g id="xtick_75">
     <g id="line2d_163">
      <g>
       <use style="stroke:#000000;stroke-width:0.6;" x="521.798516" xlink:href="#mf85e5dcb25" y="320.4"/>
      </g>
     </g>
    </g>
    <g id="xtick_76">
     <g id="line2d_164">
      <g>
       <use style="stroke:#000000;stroke-width:0.6;" x="525.40495" xlink:href="#mf85e5dcb25" y="320.4"/>
      </g>
     </g>
    </g>
    <g id="xtick_77">
     <g id="line2d_165">
      <g>
       <use style="stroke:#000000;stroke-width:0.6;" x="528.454147" xlink:href="#mf85e5dcb25" y="320.4"/>
      </g>
     </g>
    </g>
    <g id="xtick_78">
     <g id="line2d_166">
      <g>
       <use style="stroke:#000000;stroke-width:0.6;" x="531.095481" xlink:href="#mf85e5dcb25" y="320.4"/>
      </g>
     </g>
    </g>
    <g id="xtick_79">
     <g id="line2d_167">
      <g>
       <use style="stroke:#000000;stroke-width:0.6;" x="533.425303" xlink:href="#mf85e5dcb25" y="320.4"/>
      </g>
     </g>
    </g>
    <g id="xtick_80">
     <g id="line2d_168">
      <g>
       <use style="stroke:#000000;stroke-width:0.6;" x="549.220283" xlink:href="#mf85e5dcb25" y="320.4"/>
      </g>
     </g>
    </g>
   </g>
   <g id="matplotlib.axis_10">
    <g id="ytick_77">
     <g id="line2d_169">
      <g>
       <use style="stroke:#000000;stroke-width:0.8;" x="472.628571" xlink:href="#mf3448e4454" y="320.4"/>
      </g>
     </g>
    </g>
    <g id="ytick_78">
     <g id="line2d_170">
      <g>
       <use style="stroke:#000000;stroke-width:0.8;" x="472.628571" xlink:href="#mf3448e4454" y="199.444607"/>
      </g>
     </g>
    </g>
    <g id="ytick_79">
     <g id="line2d_171">
      <g>
       <use style="stroke:#000000;stroke-width:0.8;" x="472.628571" xlink:href="#mf3448e4454" y="78.489214"/>
      </g>
     </g>
    </g>
    <g id="ytick_80">
     <g id="line2d_172">
      <g>
       <use style="stroke:#000000;stroke-width:0.6;" x="472.628571" xlink:href="#m8206ca744e" y="283.988799"/>
      </g>
     </g>
    </g>
    <g id="ytick_81">
     <g id="line2d_173">
      <g>
       <use style="stroke:#000000;stroke-width:0.6;" x="472.628571" xlink:href="#m8206ca744e" y="262.689611"/>
      </g>
     </g>
    </g>
    <g id="ytick_82">
     <g id="line2d_174">
      <g>
       <use style="stroke:#000000;stroke-width:0.6;" x="472.628571" xlink:href="#m8206ca744e" y="247.577597"/>
      </g>
     </g>
    </g>
    <g id="ytick_83">
     <g id="line2d_175">
      <g>
       <use style="stroke:#000000;stroke-width:0.6;" x="472.628571" xlink:href="#m8206ca744e" y="235.855808"/>
      </g>
     </g>
    </g>
    <g id="ytick_84">
     <g id="line2d_176">
      <g>
       <use style="stroke:#000000;stroke-width:0.6;" x="472.628571" xlink:href="#m8206ca744e" y="226.27841"/>
      </g>
     </g>
    </g>
    <g id="ytick_85">
     <g id="line2d_177">
      <g>
       <use style="stroke:#000000;stroke-width:0.6;" x="472.628571" xlink:href="#m8206ca744e" y="218.180834"/>
      </g>
     </g>
    </g>
    <g id="ytick_86">
     <g id="line2d_178">
      <g>
       <use style="stroke:#000000;stroke-width:0.6;" x="472.628571" xlink:href="#m8206ca744e" y="211.166396"/>
      </g>
     </g>
    </g>
    <g id="ytick_87">
     <g id="line2d_179">
      <g>
       <use style="stroke:#000000;stroke-width:0.6;" x="472.628571" xlink:href="#m8206ca744e" y="204.979222"/>
      </g>
     </g>
    </g>
    <g id="ytick_88">
     <g id="line2d_180">
      <g>
       <use style="stroke:#000000;stroke-width:0.6;" x="472.628571" xlink:href="#m8206ca744e" y="163.033405"/>
      </g>
     </g>
    </g>
    <g id="ytick_89">
     <g id="line2d_181">
      <g>
       <use style="stroke:#000000;stroke-width:0.6;" x="472.628571" xlink:href="#m8206ca744e" y="141.734218"/>
      </g>
     </g>
    </g>
    <g id="ytick_90">
     <g id="line2d_182">
      <g>
       <use style="stroke:#000000;stroke-width:0.6;" x="472.628571" xlink:href="#m8206ca744e" y="126.622204"/>
      </g>
     </g>
    </g>
    <g id="ytick_91">
     <g id="line2d_183">
      <g>
       <use style="stroke:#000000;stroke-width:0.6;" x="472.628571" xlink:href="#m8206ca744e" y="114.900415"/>
      </g>
     </g>
    </g>
    <g id="ytick_92">
     <g id="line2d_184">
      <g>
       <use style="stroke:#000000;stroke-width:0.6;" x="472.628571" xlink:href="#m8206ca744e" y="105.323016"/>
      </g>
     </g>
    </g>
    <g id="ytick_93">
     <g id="line2d_185">
      <g>
       <use style="stroke:#000000;stroke-width:0.6;" x="472.628571" xlink:href="#m8206ca744e" y="97.225441"/>
      </g>
     </g>
    </g>
    <g id="ytick_94">
     <g id="line2d_186">
      <g>
       <use style="stroke:#000000;stroke-width:0.6;" x="472.628571" xlink:href="#m8206ca744e" y="90.211002"/>
      </g>
     </g>
    </g>
    <g id="ytick_95">
     <g id="line2d_187">
      <g>
       <use style="stroke:#000000;stroke-width:0.6;" x="472.628571" xlink:href="#m8206ca744e" y="84.023829"/>
      </g>
     </g>
    </g>
   </g>
   <g id="line2d_188">
    <path clip-path="url(#pd35ce80de6)" d="M 476.251948 180.233122 
L 489.962831 175.35169 
L 497.983184 160.375898 
L 503.673714 156.433566 
L 508.087633 126.990981 
L 511.694067 113.137927 
L 514.743263 135.881053 
L 517.384598 134.208495 
L 519.714419 118.982229 
L 521.798516 116.289296 
L 523.683811 104.120541 
L 525.40495 114.172963 
L 526.988245 114.536131 
L 528.454147 110.490793 
L 529.818869 109.964103 
L 531.095481 94.476468 
L 532.294674 107.080991 
L 533.425303 116.380127 
L 534.494786 112.448755 
L 535.509399 108.123346 
L 536.474499 106.888705 
L 537.394694 110.276172 
L 538.273978 102.176117 
L 539.115833 107.076107 
L 539.923318 103.913079 
L 540.699128 98.981244 
L 541.445655 101.881745 
L 542.16503 99.265685 
L 542.859158 96.532308 
L 543.529752 101.386816 
L 544.178355 104.169892 
L 544.806364 97.170449 
L 545.415047 95.85053 
L 546.005557 90.787461 
L 546.578948 95.549277 
L 547.136186 90.872743 
L 547.678155 89.043235 
L 548.205669 91.755906 
L 548.719481 88.860905 
" style="fill:none;stroke:#1f77b4;stroke-linecap:square;stroke-width:1.5;"/>
   </g>
   <g id="line2d_189">
    <path clip-path="url(#pd35ce80de6)" d="M 476.251948 226.916998 
L 489.962831 232.895848 
L 497.983184 223.255392 
L 503.673714 217.461224 
L 508.087633 213.781972 
L 511.694067 213.383216 
L 514.743263 213.203171 
L 517.384598 209.938891 
L 519.714419 208.18828 
L 521.798516 214.859684 
L 523.683811 203.483043 
L 525.40495 206.726159 
L 526.988245 208.580275 
L 528.454147 211.018968 
L 529.818869 207.349831 
L 531.095481 202.516869 
L 532.294674 202.015992 
L 533.425303 201.337532 
L 534.494786 204.957238 
L 535.509399 205.610249 
L 536.474499 201.486741 
L 537.394694 202.505127 
L 538.273978 194.025578 
L 539.115833 200.507393 
L 539.923318 200.77369 
L 540.699128 191.505018 
L 541.445655 197.671875 
L 542.16503 191.490245 
L 542.859158 196.160772 
L 543.529752 193.459901 
L 544.178355 195.939839 
L 544.806364 190.375969 
L 545.415047 186.402004 
L 546.005557 191.85539 
L 546.578948 194.2273 
L 547.136186 189.581283 
L 547.678155 190.698806 
L 548.205669 192.753874 
L 548.719481 192.949733 
" style="fill:none;stroke:#ff7f0e;stroke-linecap:square;stroke-width:1.5;"/>
   </g>
   <g id="line2d_190">
    <path clip-path="url(#pd35ce80de6)" d="M 476.251948 177.306785 
L 489.962831 150.551327 
L 497.983184 138.881917 
L 503.673714 133.762547 
L 508.087633 119.068279 
L 511.694067 109.832664 
L 514.743263 112.320792 
L 517.384598 94.878964 
L 519.714419 90.173856 
L 521.798516 88.002672 
L 523.683811 78.67024 
L 525.40495 96.430322 
L 526.988245 99.010915 
L 528.454147 84.104407 
L 529.818869 70.656192 
L 531.095481 78.969367 
L 532.294674 66.841791 
L 533.425303 69.659683 
L 534.494786 76.323872 
L 535.509399 72.078101 
L 536.474499 75.857268 
L 537.394694 71.086972 
L 538.273978 72.161547 
L 539.115833 71.71082 
L 539.923318 66.046268 
L 540.699128 69.234182 
L 541.445655 65.035297 
L 542.16503 69.815542 
L 542.859158 65.767051 
L 543.529752 68.978663 
L 544.178355 61.787005 
L 544.806364 65.267881 
L 545.415047 63.817675 
L 546.005557 59.905349 
L 546.578948 63.312958 
L 547.136186 64.751588 
L 547.678155 66.660587 
L 548.205669 63.202709 
L 548.719481 65.506081 
" style="fill:none;stroke:#2ca02c;stroke-linecap:square;stroke-width:1.5;"/>
   </g>
   <g id="patch_23">
    <path d="M 472.628571 320.4 
L 472.628571 43.2 
" style="fill:none;stroke:#000000;stroke-linecap:square;stroke-linejoin:miter;stroke-width:0.8;"/>
   </g>
   <g id="patch_24">
    <path d="M 552.342857 320.4 
L 552.342857 43.2 
" style="fill:none;stroke:#000000;stroke-linecap:square;stroke-linejoin:miter;stroke-width:0.8;"/>
   </g>
   <g id="patch_25">
    <path d="M 472.628571 320.4 
L 552.342857 320.4 
" style="fill:none;stroke:#000000;stroke-linecap:square;stroke-linejoin:miter;stroke-width:0.8;"/>
   </g>
   <g id="patch_26">
    <path d="M 472.628571 43.2 
L 552.342857 43.2 
" style="fill:none;stroke:#000000;stroke-linecap:square;stroke-linejoin:miter;stroke-width:0.8;"/>
   </g>
  </g>
  <g id="axes_6">
   <g id="patch_27">
    <path d="M 568.285714 320.4 
L 648 320.4 
L 648 43.2 
L 568.285714 43.2 
z
" style="fill:#ffffff;"/>
   </g>
   <g id="matplotlib.axis_11">
    <g id="xtick_81">
     <g id="line2d_191">
      <g>
       <use style="stroke:#000000;stroke-width:0.8;" x="585.619974" xlink:href="#m82f61dceb3" y="320.4"/>
      </g>
     </g>
     <g id="text_16">
      <!-- $\mathdefault{10^{5}}$ -->
      <g transform="translate(574.179974 337.277969)scale(0.13 -0.13)">
       <use transform="translate(0 0.684375)" xlink:href="#DejaVuSans-49"/>
       <use transform="translate(63.623047 0.684375)" xlink:href="#DejaVuSans-48"/>
       <use transform="translate(128.203125 38.965625)scale(0.7)" xlink:href="#DejaVuSans-53"/>
      </g>
     </g>
    </g>
    <g id="xtick_82">
     <g id="line2d_192">
      <g>
       <use style="stroke:#000000;stroke-width:0.8;" x="631.166542" xlink:href="#m82f61dceb3" y="320.4"/>
      </g>
     </g>
     <g id="text_17">
      <!-- $\mathdefault{10^{6}}$ -->
      <g transform="translate(619.726542 337.277969)scale(0.13 -0.13)">
       <use transform="translate(0 0.765625)" xlink:href="#DejaVuSans-49"/>
       <use transform="translate(63.623047 0.765625)" xlink:href="#DejaVuSans-48"/>
       <use transform="translate(128.203125 39.046875)scale(0.7)" xlink:href="#DejaVuSans-54"/>
      </g>
     </g>
    </g>
    <g id="xtick_83">
     <g id="line2d_193">
      <g>
       <use style="stroke:#000000;stroke-width:0.6;" x="571.909091" xlink:href="#mf85e5dcb25" y="320.4"/>
      </g>
     </g>
    </g>
    <g id="xtick_84">
     <g id="line2d_194">
      <g>
       <use style="stroke:#000000;stroke-width:0.6;" x="575.515525" xlink:href="#mf85e5dcb25" y="320.4"/>
      </g>
     </g>
    </g>
    <g id="xtick_85">
     <g id="line2d_195">
      <g>
       <use style="stroke:#000000;stroke-width:0.6;" x="578.564721" xlink:href="#mf85e5dcb25" y="320.4"/>
      </g>
     </g>
    </g>
    <g id="xtick_86">
     <g id="line2d_196">
      <g>
       <use style="stroke:#000000;stroke-width:0.6;" x="581.206056" xlink:href="#mf85e5dcb25" y="320.4"/>
      </g>
     </g>
    </g>
    <g id="xtick_87">
     <g id="line2d_197">
      <g>
       <use style="stroke:#000000;stroke-width:0.6;" x="583.535877" xlink:href="#mf85e5dcb25" y="320.4"/>
      </g>
     </g>
    </g>
    <g id="xtick_88">
     <g id="line2d_198">
      <g>
       <use style="stroke:#000000;stroke-width:0.6;" x="599.330857" xlink:href="#mf85e5dcb25" y="320.4"/>
      </g>
     </g>
    </g>
    <g id="xtick_89">
     <g id="line2d_199">
      <g>
       <use style="stroke:#000000;stroke-width:0.6;" x="607.35121" xlink:href="#mf85e5dcb25" y="320.4"/>
      </g>
     </g>
    </g>
    <g id="xtick_90">
     <g id="line2d_200">
      <g>
       <use style="stroke:#000000;stroke-width:0.6;" x="613.04174" xlink:href="#mf85e5dcb25" y="320.4"/>
      </g>
     </g>
    </g>
    <g id="xtick_91">
     <g id="line2d_201">
      <g>
       <use style="stroke:#000000;stroke-width:0.6;" x="617.455659" xlink:href="#mf85e5dcb25" y="320.4"/>
      </g>
     </g>
    </g>
    <g id="xtick_92">
     <g id="line2d_202">
      <g>
       <use style="stroke:#000000;stroke-width:0.6;" x="621.062093" xlink:href="#mf85e5dcb25" y="320.4"/>
      </g>
     </g>
    </g>
    <g id="xtick_93">
     <g id="line2d_203">
      <g>
       <use style="stroke:#000000;stroke-width:0.6;" x="624.11129" xlink:href="#mf85e5dcb25" y="320.4"/>
      </g>
     </g>
    </g>
    <g id="xtick_94">
     <g id="line2d_204">
      <g>
       <use style="stroke:#000000;stroke-width:0.6;" x="626.752624" xlink:href="#mf85e5dcb25" y="320.4"/>
      </g>
     </g>
    </g>
    <g id="xtick_95">
     <g id="line2d_205">
      <g>
       <use style="stroke:#000000;stroke-width:0.6;" x="629.082446" xlink:href="#mf85e5dcb25" y="320.4"/>
      </g>
     </g>
    </g>
    <g id="xtick_96">
     <g id="line2d_206">
      <g>
       <use style="stroke:#000000;stroke-width:0.6;" x="644.877425" xlink:href="#mf85e5dcb25" y="320.4"/>
      </g>
     </g>
    </g>
   </g>
   <g id="matplotlib.axis_12">
    <g id="ytick_96">
     <g id="line2d_207">
      <g>
       <use style="stroke:#000000;stroke-width:0.8;" x="568.285714" xlink:href="#mf3448e4454" y="320.4"/>
      </g>
     </g>
    </g>
    <g id="ytick_97">
     <g id="line2d_208">
      <g>
       <use style="stroke:#000000;stroke-width:0.8;" x="568.285714" xlink:href="#mf3448e4454" y="199.444607"/>
      </g>
     </g>
    </g>
    <g id="ytick_98">
     <g id="line2d_209">
      <g>
       <use style="stroke:#000000;stroke-width:0.8;" x="568.285714" xlink:href="#mf3448e4454" y="78.489214"/>
      </g>
     </g>
    </g>
    <g id="ytick_99">
     <g id="line2d_210">
      <g>
       <use style="stroke:#000000;stroke-width:0.6;" x="568.285714" xlink:href="#m8206ca744e" y="283.988799"/>
      </g>
     </g>
    </g>
    <g id="ytick_100">
     <g id="line2d_211">
      <g>
       <use style="stroke:#000000;stroke-width:0.6;" x="568.285714" xlink:href="#m8206ca744e" y="262.689611"/>
      </g>
     </g>
    </g>
    <g id="ytick_101">
     <g id="line2d_212">
      <g>
       <use style="stroke:#000000;stroke-width:0.6;" x="568.285714" xlink:href="#m8206ca744e" y="247.577597"/>
      </g>
     </g>
    </g>
    <g id="ytick_102">
     <g id="line2d_213">
      <g>
       <use style="stroke:#000000;stroke-width:0.6;" x="568.285714" xlink:href="#m8206ca744e" y="235.855808"/>
      </g>
     </g>
    </g>
    <g id="ytick_103">
     <g id="line2d_214">
      <g>
       <use style="stroke:#000000;stroke-width:0.6;" x="568.285714" xlink:href="#m8206ca744e" y="226.27841"/>
      </g>
     </g>
    </g>
    <g id="ytick_104">
     <g id="line2d_215">
      <g>
       <use style="stroke:#000000;stroke-width:0.6;" x="568.285714" xlink:href="#m8206ca744e" y="218.180834"/>
      </g>
     </g>
    </g>
    <g id="ytick_105">
     <g id="line2d_216">
      <g>
       <use style="stroke:#000000;stroke-width:0.6;" x="568.285714" xlink:href="#m8206ca744e" y="211.166396"/>
      </g>
     </g>
    </g>
    <g id="ytick_106">
     <g id="line2d_217">
      <g>
       <use style="stroke:#000000;stroke-width:0.6;" x="568.285714" xlink:href="#m8206ca744e" y="204.979222"/>
      </g>
     </g>
    </g>
    <g id="ytick_107">
     <g id="line2d_218">
      <g>
       <use style="stroke:#000000;stroke-width:0.6;" x="568.285714" xlink:href="#m8206ca744e" y="163.033405"/>
      </g>
     </g>
    </g>
    <g id="ytick_108">
     <g id="line2d_219">
      <g>
       <use style="stroke:#000000;stroke-width:0.6;" x="568.285714" xlink:href="#m8206ca744e" y="141.734218"/>
      </g>
     </g>
    </g>
    <g id="ytick_109">
     <g id="line2d_220">
      <g>
       <use style="stroke:#000000;stroke-width:0.6;" x="568.285714" xlink:href="#m8206ca744e" y="126.622204"/>
      </g>
     </g>
    </g>
    <g id="ytick_110">
     <g id="line2d_221">
      <g>
       <use style="stroke:#000000;stroke-width:0.6;" x="568.285714" xlink:href="#m8206ca744e" y="114.900415"/>
      </g>
     </g>
    </g>
    <g id="ytick_111">
     <g id="line2d_222">
      <g>
       <use style="stroke:#000000;stroke-width:0.6;" x="568.285714" xlink:href="#m8206ca744e" y="105.323016"/>
      </g>
     </g>
    </g>
    <g id="ytick_112">
     <g id="line2d_223">
      <g>
       <use style="stroke:#000000;stroke-width:0.6;" x="568.285714" xlink:href="#m8206ca744e" y="97.225441"/>
      </g>
     </g>
    </g>
    <g id="ytick_113">
     <g id="line2d_224">
      <g>
       <use style="stroke:#000000;stroke-width:0.6;" x="568.285714" xlink:href="#m8206ca744e" y="90.211002"/>
      </g>
     </g>
    </g>
    <g id="ytick_114">
     <g id="line2d_225">
      <g>
       <use style="stroke:#000000;stroke-width:0.6;" x="568.285714" xlink:href="#m8206ca744e" y="84.023829"/>
      </g>
     </g>
    </g>
   </g>
   <g id="line2d_226">
    <path clip-path="url(#p3f38fc1ac3)" d="M 571.909091 200.857722 
L 585.619974 183.128707 
L 593.640327 173.468962 
L 599.330857 168.906033 
L 603.744776 131.585976 
L 607.35121 125.956874 
L 610.400406 151.974877 
L 613.04174 146.456668 
L 615.371562 131.627788 
L 617.455659 121.72886 
L 619.340954 109.780443 
L 621.062093 103.21845 
L 622.645388 108.143317 
L 624.11129 99.080371 
L 625.476012 106.432112 
L 626.752624 87.89153 
L 627.951816 97.366465 
L 629.082446 102.155206 
L 630.151929 92.707173 
L 631.166542 95.496517 
L 632.131642 102.075421 
L 633.051837 105.505787 
L 633.931121 104.753104 
L 634.772976 108.065578 
L 635.580461 106.468146 
L 636.356271 114.941484 
L 637.102798 120.187425 
L 637.822173 115.655317 
L 638.516301 103.864581 
L 639.186895 118.393116 
L 639.835498 116.948693 
L 640.463507 114.268765 
L 641.072189 107.758795 
L 641.6627 108.451018 
L 642.236091 103.225983 
L 642.793329 98.033281 
L 643.335298 93.616719 
L 643.862812 93.446525 
L 644.376623 96.370434 
" style="fill:none;stroke:#1f77b4;stroke-linecap:square;stroke-width:1.5;"/>
   </g>
   <g id="line2d_227">
    <path clip-path="url(#p3f38fc1ac3)" d="M 571.909091 235.779147 
L 585.619974 234.528175 
L 593.640327 227.749137 
L 599.330857 223.624319 
L 603.744776 217.856757 
L 607.35121 212.992422 
L 610.400406 211.71905 
L 613.04174 210.720491 
L 615.371562 212.787341 
L 617.455659 207.600021 
L 619.340954 204.978538 
L 621.062093 205.689786 
L 622.645388 202.942609 
L 624.11129 201.183428 
L 625.476012 205.911307 
L 626.752624 195.25143 
L 627.951816 198.639704 
L 629.082446 196.977341 
L 630.151929 198.725911 
L 631.166542 197.646006 
L 632.131642 187.675705 
L 633.051837 198.513867 
L 633.931121 188.088524 
L 634.772976 191.269727 
L 635.580461 187.558 
L 636.356271 193.380118 
L 637.102798 188.185854 
L 637.822173 191.966575 
L 638.516301 193.998998 
L 639.186895 192.378716 
L 639.835498 188.086523 
L 640.463507 189.839968 
L 641.072189 187.071063 
L 641.6627 188.53238 
L 642.236091 187.555624 
L 642.793329 186.402511 
L 643.335298 183.227437 
L 643.862812 187.056844 
L 644.376623 183.205613 
" style="fill:none;stroke:#ff7f0e;stroke-linecap:square;stroke-width:1.5;"/>
   </g>
   <g id="line2d_228">
    <path clip-path="url(#p3f38fc1ac3)" d="M 571.909091 187.68523 
L 585.619974 167.819371 
L 593.640327 166.390529 
L 599.330857 155.443759 
L 603.744776 133.817522 
L 607.35121 127.20987 
L 610.400406 121.399814 
L 613.04174 114.096906 
L 615.371562 105.423353 
L 617.455659 93.242867 
L 619.340954 81.180042 
L 621.062093 87.054299 
L 622.645388 88.089492 
L 624.11129 81.568551 
L 625.476012 74.597211 
L 626.752624 77.906316 
L 627.951816 63.658398 
L 629.082446 71.341542 
L 630.151929 70.733151 
L 631.166542 82.0463 
L 632.131642 69.983106 
L 633.051837 71.719858 
L 633.931121 74.476876 
L 634.772976 76.847016 
L 635.580461 65.842111 
L 636.356271 73.021827 
L 637.102798 68.677211 
L 637.822173 77.603869 
L 638.516301 84.485683 
L 639.186895 83.20801 
L 639.835498 86.458364 
L 640.463507 85.440269 
L 641.072189 80.297262 
L 641.6627 75.351464 
L 642.236091 60.717964 
L 642.793329 65.19216 
L 643.335298 68.608897 
L 643.862812 67.149141 
L 644.376623 73.802621 
" style="fill:none;stroke:#2ca02c;stroke-linecap:square;stroke-width:1.5;"/>
   </g>
   <g id="patch_28">
    <path d="M 568.285714 320.4 
L 568.285714 43.2 
" style="fill:none;stroke:#000000;stroke-linecap:square;stroke-linejoin:miter;stroke-width:0.8;"/>
   </g>
   <g id="patch_29">
    <path d="M 648 320.4 
L 648 43.2 
" style="fill:none;stroke:#000000;stroke-linecap:square;stroke-linejoin:miter;stroke-width:0.8;"/>
   </g>
   <g id="patch_30">
    <path d="M 568.285714 320.4 
L 648 320.4 
" style="fill:none;stroke:#000000;stroke-linecap:square;stroke-linejoin:miter;stroke-width:0.8;"/>
   </g>
   <g id="patch_31">
    <path d="M 568.285714 43.2 
L 648 43.2 
" style="fill:none;stroke:#000000;stroke-linecap:square;stroke-linejoin:miter;stroke-width:0.8;"/>
   </g>
  </g>
  <g id="legend_1">
   <g id="patch_32">
    <path d="M 661.605625 210.572344 
L 710.9 210.572344 
Q 713.5 210.572344 713.5 207.972344 
L 713.5 152.027656 
Q 713.5 149.427656 710.9 149.427656 
L 661.605625 149.427656 
Q 659.005625 149.427656 659.005625 152.027656 
L 659.005625 207.972344 
Q 659.005625 210.572344 661.605625 210.572344 
z
" style="fill:#ffffff;opacity:0.8;stroke:#cccccc;stroke-linejoin:miter;"/>
   </g>
   <g id="line2d_229">
    <path d="M 664.205625 159.955625 
L 690.205625 159.955625 
" style="fill:none;stroke:#1f77b4;stroke-linecap:square;stroke-width:1.5;"/>
   </g>
   <g id="line2d_230"/>
   <g id="text_18">
    <!-- x -->
    <g transform="translate(700.605625 164.505625)scale(0.13 -0.13)">
     <defs>
      <path d="M 54.890625 54.6875 
L 35.109375 28.078125 
L 55.90625 0 
L 45.3125 0 
L 29.390625 21.484375 
L 13.484375 0 
L 2.875 0 
L 24.125 28.609375 
L 4.6875 54.6875 
L 15.28125 54.6875 
L 29.78125 35.203125 
L 44.28125 54.6875 
z
" id="DejaVuSans-120"/>
     </defs>
     <use xlink:href="#DejaVuSans-120"/>
    </g>
   </g>
   <g id="line2d_231">
    <path d="M 664.205625 179.037187 
L 690.205625 179.037187 
" style="fill:none;stroke:#ff7f0e;stroke-linecap:square;stroke-width:1.5;"/>
   </g>
   <g id="line2d_232"/>
   <g id="text_19">
    <!-- y -->
    <g transform="translate(700.605625 183.587187)scale(0.13 -0.13)">
     <defs>
      <path d="M 32.171875 -5.078125 
Q 28.375 -14.84375 24.75 -17.8125 
Q 21.140625 -20.796875 15.09375 -20.796875 
L 7.90625 -20.796875 
L 7.90625 -13.28125 
L 13.1875 -13.28125 
Q 16.890625 -13.28125 18.9375 -11.515625 
Q 21 -9.765625 23.484375 -3.21875 
L 25.09375 0.875 
L 2.984375 54.6875 
L 12.5 54.6875 
L 29.59375 11.921875 
L 46.6875 54.6875 
L 56.203125 54.6875 
z
" id="DejaVuSans-121"/>
     </defs>
     <use xlink:href="#DejaVuSans-121"/>
    </g>
   </g>
   <g id="line2d_233">
    <path d="M 664.205625 198.11875 
L 690.205625 198.11875 
" style="fill:none;stroke:#2ca02c;stroke-linecap:square;stroke-width:1.5;"/>
   </g>
   <g id="line2d_234"/>
   <g id="text_20">
    <!-- z -->
    <g transform="translate(700.605625 202.66875)scale(0.13 -0.13)">
     <defs>
      <path d="M 5.515625 54.6875 
L 48.1875 54.6875 
L 48.1875 46.484375 
L 14.40625 7.171875 
L 48.1875 7.171875 
L 48.1875 0 
L 4.296875 0 
L 4.296875 8.203125 
L 38.09375 47.515625 
L 5.515625 47.515625 
z
" id="DejaVuSans-122"/>
     </defs>
     <use xlink:href="#DejaVuSans-122"/>
    </g>
   </g>
  </g>
 </g>
 <defs>
  <clipPath id="pf3fc7bdc68">
   <rect height="277.2" width="79.714286" x="90" y="43.2"/>
  </clipPath>
  <clipPath id="p19f74c4fc1">
   <rect height="277.2" width="79.714286" x="185.657143" y="43.2"/>
  </clipPath>
  <clipPath id="p7415d6d1da">
   <rect height="277.2" width="79.714286" x="281.314286" y="43.2"/>
  </clipPath>
  <clipPath id="p7b6043aa4b">
   <rect height="277.2" width="79.714286" x="376.971429" y="43.2"/>
  </clipPath>
  <clipPath id="pd35ce80de6">
   <rect height="277.2" width="79.714286" x="472.628571" y="43.2"/>
  </clipPath>
  <clipPath id="p3f38fc1ac3">
   <rect height="277.2" width="79.714286" x="568.285714" y="43.2"/>
  </clipPath>
 </defs>
</svg>
