<?xml version="1.0" encoding="utf-8" standalone="no"?>
<!DOCTYPE svg PUBLIC "-//W3C//DTD SVG 1.1//EN"
  "http://www.w3.org/Graphics/SVG/1.1/DTD/svg11.dtd">
<!-- Created with matplotlib (https://matplotlib.org/) -->
<svg height="360pt" version="1.1" viewBox="0 0 720 360" width="720pt" xmlns="http://www.w3.org/2000/svg" xmlns:xlink="http://www.w3.org/1999/xlink">
 <metadata>
  <rdf:RDF xmlns:cc="http://creativecommons.org/ns#" xmlns:dc="http://purl.org/dc/elements/1.1/" xmlns:rdf="http://www.w3.org/1999/02/22-rdf-syntax-ns#">
   <cc:Work>
    <dc:type rdf:resource="http://purl.org/dc/dcmitype/StillImage"/>
    <dc:date>2021-08-10T22:55:15.209386</dc:date>
    <dc:format>image/svg+xml</dc:format>
    <dc:creator>
     <cc:Agent>
      <dc:title>Matplotlib v3.3.3, https://matplotlib.org/</dc:title>
     </cc:Agent>
    </dc:creator>
   </cc:Work>
  </rdf:RDF>
 </metadata>
 <defs>
  <style type="text/css">*{stroke-linecap:butt;stroke-linejoin:round;}</style>
 </defs>
 <g id="figure_1">
  <g id="patch_1">
   <path d="M 0 360 
L 720 360 
L 720 0 
L 0 0 
z
" style="fill:#ffffff;"/>
  </g>
  <g id="axes_1">
   <g id="patch_2">
    <path d="M 90 320.4 
L 169.714286 320.4 
L 169.714286 43.2 
L 90 43.2 
z
" style="fill:#ffffff;"/>
   </g>
   <g id="matplotlib.axis_1">
    <g id="xtick_1">
     <g id="line2d_1">
      <defs>
       <path d="M 0 0 
L 0 3.5 
" id="ma2f8c12c64" style="stroke:#000000;stroke-width:0.8;"/>
      </defs>
      <g>
       <use style="stroke:#000000;stroke-width:0.8;" x="107.33426" xlink:href="#ma2f8c12c64" y="320.4"/>
      </g>
     </g>
     <g id="text_1">
      <!-- $\mathdefault{10^{5}}$ -->
      <g transform="translate(95.89426 337.277969)scale(0.13 -0.13)">
       <defs>
        <path d="M 12.40625 8.296875 
L 28.515625 8.296875 
L 28.515625 63.921875 
L 10.984375 60.40625 
L 10.984375 69.390625 
L 28.421875 72.90625 
L 38.28125 72.90625 
L 38.28125 8.296875 
L 54.390625 8.296875 
L 54.390625 0 
L 12.40625 0 
z
" id="DejaVuSans-49"/>
        <path d="M 31.78125 66.40625 
Q 24.171875 66.40625 20.328125 58.90625 
Q 16.5 51.421875 16.5 36.375 
Q 16.5 21.390625 20.328125 13.890625 
Q 24.171875 6.390625 31.78125 6.390625 
Q 39.453125 6.390625 43.28125 13.890625 
Q 47.125 21.390625 47.125 36.375 
Q 47.125 51.421875 43.28125 58.90625 
Q 39.453125 66.40625 31.78125 66.40625 
z
M 31.78125 74.21875 
Q 44.046875 74.21875 50.515625 64.515625 
Q 56.984375 54.828125 56.984375 36.375 
Q 56.984375 17.96875 50.515625 8.265625 
Q 44.046875 -1.421875 31.78125 -1.421875 
Q 19.53125 -1.421875 13.0625 8.265625 
Q 6.59375 17.96875 6.59375 36.375 
Q 6.59375 54.828125 13.0625 64.515625 
Q 19.53125 74.21875 31.78125 74.21875 
z
" id="DejaVuSans-48"/>
        <path d="M 10.796875 72.90625 
L 49.515625 72.90625 
L 49.515625 64.59375 
L 19.828125 64.59375 
L 19.828125 46.734375 
Q 21.96875 47.46875 24.109375 47.828125 
Q 26.265625 48.1875 28.421875 48.1875 
Q 40.625 48.1875 47.75 41.5 
Q 54.890625 34.8125 54.890625 23.390625 
Q 54.890625 11.625 47.5625 5.09375 
Q 40.234375 -1.421875 26.90625 -1.421875 
Q 22.3125 -1.421875 17.546875 -0.640625 
Q 12.796875 0.140625 7.71875 1.703125 
L 7.71875 11.625 
Q 12.109375 9.234375 16.796875 8.0625 
Q 21.484375 6.890625 26.703125 6.890625 
Q 35.15625 6.890625 40.078125 11.328125 
Q 45.015625 15.765625 45.015625 23.390625 
Q 45.015625 31 40.078125 35.4375 
Q 35.15625 39.890625 26.703125 39.890625 
Q 22.75 39.890625 18.8125 39.015625 
Q 14.890625 38.140625 10.796875 36.28125 
z
" id="DejaVuSans-53"/>
       </defs>
       <use transform="translate(0 0.684375)" xlink:href="#DejaVuSans-49"/>
       <use transform="translate(63.623047 0.684375)" xlink:href="#DejaVuSans-48"/>
       <use transform="translate(128.203125 38.965625)scale(0.7)" xlink:href="#DejaVuSans-53"/>
      </g>
     </g>
    </g>
    <g id="xtick_2">
     <g id="line2d_2">
      <g>
       <use style="stroke:#000000;stroke-width:0.8;" x="152.880828" xlink:href="#ma2f8c12c64" y="320.4"/>
      </g>
     </g>
     <g id="text_2">
      <!-- $\mathdefault{10^{6}}$ -->
      <g transform="translate(141.440828 337.277969)scale(0.13 -0.13)">
       <defs>
        <path d="M 33.015625 40.375 
Q 26.375 40.375 22.484375 35.828125 
Q 18.609375 31.296875 18.609375 23.390625 
Q 18.609375 15.53125 22.484375 10.953125 
Q 26.375 6.390625 33.015625 6.390625 
Q 39.65625 6.390625 43.53125 10.953125 
Q 47.40625 15.53125 47.40625 23.390625 
Q 47.40625 31.296875 43.53125 35.828125 
Q 39.65625 40.375 33.015625 40.375 
z
M 52.59375 71.296875 
L 52.59375 62.3125 
Q 48.875 64.0625 45.09375 64.984375 
Q 41.3125 65.921875 37.59375 65.921875 
Q 27.828125 65.921875 22.671875 59.328125 
Q 17.53125 52.734375 16.796875 39.40625 
Q 19.671875 43.65625 24.015625 45.921875 
Q 28.375 48.1875 33.59375 48.1875 
Q 44.578125 48.1875 50.953125 41.515625 
Q 57.328125 34.859375 57.328125 23.390625 
Q 57.328125 12.15625 50.6875 5.359375 
Q 44.046875 -1.421875 33.015625 -1.421875 
Q 20.359375 -1.421875 13.671875 8.265625 
Q 6.984375 17.96875 6.984375 36.375 
Q 6.984375 53.65625 15.1875 63.9375 
Q 23.390625 74.21875 37.203125 74.21875 
Q 40.921875 74.21875 44.703125 73.484375 
Q 48.484375 72.75 52.59375 71.296875 
z
" id="DejaVuSans-54"/>
       </defs>
       <use transform="translate(0 0.765625)" xlink:href="#DejaVuSans-49"/>
       <use transform="translate(63.623047 0.765625)" xlink:href="#DejaVuSans-48"/>
       <use transform="translate(128.203125 39.046875)scale(0.7)" xlink:href="#DejaVuSans-54"/>
      </g>
     </g>
    </g>
    <g id="xtick_3">
     <g id="line2d_3">
      <defs>
       <path d="M 0 0 
L 0 2 
" id="m16313ebec9" style="stroke:#000000;stroke-width:0.6;"/>
      </defs>
      <g>
       <use style="stroke:#000000;stroke-width:0.6;" x="93.623377" xlink:href="#m16313ebec9" y="320.4"/>
      </g>
     </g>
    </g>
    <g id="xtick_4">
     <g id="line2d_4">
      <g>
       <use style="stroke:#000000;stroke-width:0.6;" x="97.229811" xlink:href="#m16313ebec9" y="320.4"/>
      </g>
     </g>
    </g>
    <g id="xtick_5">
     <g id="line2d_5">
      <g>
       <use style="stroke:#000000;stroke-width:0.6;" x="100.279007" xlink:href="#m16313ebec9" y="320.4"/>
      </g>
     </g>
    </g>
    <g id="xtick_6">
     <g id="line2d_6">
      <g>
       <use style="stroke:#000000;stroke-width:0.6;" x="102.920341" xlink:href="#m16313ebec9" y="320.4"/>
      </g>
     </g>
    </g>
    <g id="xtick_7">
     <g id="line2d_7">
      <g>
       <use style="stroke:#000000;stroke-width:0.6;" x="105.250163" xlink:href="#m16313ebec9" y="320.4"/>
      </g>
     </g>
    </g>
    <g id="xtick_8">
     <g id="line2d_8">
      <g>
       <use style="stroke:#000000;stroke-width:0.6;" x="121.045143" xlink:href="#m16313ebec9" y="320.4"/>
      </g>
     </g>
    </g>
    <g id="xtick_9">
     <g id="line2d_9">
      <g>
       <use style="stroke:#000000;stroke-width:0.6;" x="129.065496" xlink:href="#m16313ebec9" y="320.4"/>
      </g>
     </g>
    </g>
    <g id="xtick_10">
     <g id="line2d_10">
      <g>
       <use style="stroke:#000000;stroke-width:0.6;" x="134.756026" xlink:href="#m16313ebec9" y="320.4"/>
      </g>
     </g>
    </g>
    <g id="xtick_11">
     <g id="line2d_11">
      <g>
       <use style="stroke:#000000;stroke-width:0.6;" x="139.169945" xlink:href="#m16313ebec9" y="320.4"/>
      </g>
     </g>
    </g>
    <g id="xtick_12">
     <g id="line2d_12">
      <g>
       <use style="stroke:#000000;stroke-width:0.6;" x="142.776379" xlink:href="#m16313ebec9" y="320.4"/>
      </g>
     </g>
    </g>
    <g id="xtick_13">
     <g id="line2d_13">
      <g>
       <use style="stroke:#000000;stroke-width:0.6;" x="145.825575" xlink:href="#m16313ebec9" y="320.4"/>
      </g>
     </g>
    </g>
    <g id="xtick_14">
     <g id="line2d_14">
      <g>
       <use style="stroke:#000000;stroke-width:0.6;" x="148.466909" xlink:href="#m16313ebec9" y="320.4"/>
      </g>
     </g>
    </g>
    <g id="xtick_15">
     <g id="line2d_15">
      <g>
       <use style="stroke:#000000;stroke-width:0.6;" x="150.796731" xlink:href="#m16313ebec9" y="320.4"/>
      </g>
     </g>
    </g>
    <g id="xtick_16">
     <g id="line2d_16">
      <g>
       <use style="stroke:#000000;stroke-width:0.6;" x="166.591711" xlink:href="#m16313ebec9" y="320.4"/>
      </g>
     </g>
    </g>
   </g>
   <g id="matplotlib.axis_2">
    <g id="ytick_1">
     <g id="line2d_17">
      <defs>
       <path d="M 0 0 
L -3.5 0 
" id="m15ef3ee49e" style="stroke:#000000;stroke-width:0.8;"/>
      </defs>
      <g>
       <use style="stroke:#000000;stroke-width:0.8;" x="90" xlink:href="#m15ef3ee49e" y="255.057711"/>
      </g>
     </g>
     <g id="text_3">
      <!-- $\mathdefault{10^{-1}}$ -->
      <g transform="translate(52.45 259.996696)scale(0.13 -0.13)">
       <defs>
        <path d="M 10.59375 35.5 
L 73.1875 35.5 
L 73.1875 27.203125 
L 10.59375 27.203125 
z
" id="DejaVuSans-8722"/>
       </defs>
       <use transform="translate(0 0.684375)" xlink:href="#DejaVuSans-49"/>
       <use transform="translate(63.623047 0.684375)" xlink:href="#DejaVuSans-48"/>
       <use transform="translate(128.203125 38.965625)scale(0.7)" xlink:href="#DejaVuSans-8722"/>
       <use transform="translate(186.855469 38.965625)scale(0.7)" xlink:href="#DejaVuSans-49"/>
      </g>
     </g>
    </g>
    <g id="ytick_2">
     <g id="line2d_18">
      <g>
       <use style="stroke:#000000;stroke-width:0.8;" x="90" xlink:href="#m15ef3ee49e" y="90.856356"/>
      </g>
     </g>
     <g id="text_4">
      <!-- $\mathdefault{10^{0}}$ -->
      <g transform="translate(60.12 95.795341)scale(0.13 -0.13)">
       <use transform="translate(0 0.765625)" xlink:href="#DejaVuSans-49"/>
       <use transform="translate(63.623047 0.765625)" xlink:href="#DejaVuSans-48"/>
       <use transform="translate(128.203125 39.046875)scale(0.7)" xlink:href="#DejaVuSans-48"/>
      </g>
     </g>
    </g>
    <g id="ytick_3">
     <g id="line2d_19">
      <defs>
       <path d="M 0 0 
L -2 0 
" id="m7c124d8442" style="stroke:#000000;stroke-width:0.6;"/>
      </defs>
      <g>
       <use style="stroke:#000000;stroke-width:0.6;" x="90" xlink:href="#m7c124d8442" y="320.4"/>
      </g>
     </g>
    </g>
    <g id="ytick_4">
     <g id="line2d_20">
      <g>
       <use style="stroke:#000000;stroke-width:0.6;" x="90" xlink:href="#m7c124d8442" y="304.487245"/>
      </g>
     </g>
    </g>
    <g id="ytick_5">
     <g id="line2d_21">
      <g>
       <use style="stroke:#000000;stroke-width:0.6;" x="90" xlink:href="#m7c124d8442" y="291.485577"/>
      </g>
     </g>
    </g>
    <g id="ytick_6">
     <g id="line2d_22">
      <g>
       <use style="stroke:#000000;stroke-width:0.6;" x="90" xlink:href="#m7c124d8442" y="280.492823"/>
      </g>
     </g>
    </g>
    <g id="ytick_7">
     <g id="line2d_23">
      <g>
       <use style="stroke:#000000;stroke-width:0.6;" x="90" xlink:href="#m7c124d8442" y="270.970467"/>
      </g>
     </g>
    </g>
    <g id="ytick_8">
     <g id="line2d_24">
      <g>
       <use style="stroke:#000000;stroke-width:0.6;" x="90" xlink:href="#m7c124d8442" y="262.571153"/>
      </g>
     </g>
    </g>
    <g id="ytick_9">
     <g id="line2d_25">
      <g>
       <use style="stroke:#000000;stroke-width:0.6;" x="90" xlink:href="#m7c124d8442" y="205.628178"/>
      </g>
     </g>
    </g>
    <g id="ytick_10">
     <g id="line2d_26">
      <g>
       <use style="stroke:#000000;stroke-width:0.6;" x="90" xlink:href="#m7c124d8442" y="176.713755"/>
      </g>
     </g>
    </g>
    <g id="ytick_11">
     <g id="line2d_27">
      <g>
       <use style="stroke:#000000;stroke-width:0.6;" x="90" xlink:href="#m7c124d8442" y="156.198645"/>
      </g>
     </g>
    </g>
    <g id="ytick_12">
     <g id="line2d_28">
      <g>
       <use style="stroke:#000000;stroke-width:0.6;" x="90" xlink:href="#m7c124d8442" y="140.285889"/>
      </g>
     </g>
    </g>
    <g id="ytick_13">
     <g id="line2d_29">
      <g>
       <use style="stroke:#000000;stroke-width:0.6;" x="90" xlink:href="#m7c124d8442" y="127.284221"/>
      </g>
     </g>
    </g>
    <g id="ytick_14">
     <g id="line2d_30">
      <g>
       <use style="stroke:#000000;stroke-width:0.6;" x="90" xlink:href="#m7c124d8442" y="116.291468"/>
      </g>
     </g>
    </g>
    <g id="ytick_15">
     <g id="line2d_31">
      <g>
       <use style="stroke:#000000;stroke-width:0.6;" x="90" xlink:href="#m7c124d8442" y="106.769112"/>
      </g>
     </g>
    </g>
    <g id="ytick_16">
     <g id="line2d_32">
      <g>
       <use style="stroke:#000000;stroke-width:0.6;" x="90" xlink:href="#m7c124d8442" y="98.369798"/>
      </g>
     </g>
    </g>
    <g id="text_5">
     <!-- RMS Displacement ($\langle x_{i}\rangle^{2}$) -->
     <g transform="translate(45.72 263.44)rotate(-90)scale(0.13 -0.13)">
      <defs>
       <path d="M 44.390625 34.1875 
Q 47.5625 33.109375 50.5625 29.59375 
Q 53.5625 26.078125 56.59375 19.921875 
L 66.609375 0 
L 56 0 
L 46.6875 18.703125 
Q 43.0625 26.03125 39.671875 28.421875 
Q 36.28125 30.8125 30.421875 30.8125 
L 19.671875 30.8125 
L 19.671875 0 
L 9.8125 0 
L 9.8125 72.90625 
L 32.078125 72.90625 
Q 44.578125 72.90625 50.734375 67.671875 
Q 56.890625 62.453125 56.890625 51.90625 
Q 56.890625 45.015625 53.6875 40.46875 
Q 50.484375 35.9375 44.390625 34.1875 
z
M 19.671875 64.796875 
L 19.671875 38.921875 
L 32.078125 38.921875 
Q 39.203125 38.921875 42.84375 42.21875 
Q 46.484375 45.515625 46.484375 51.90625 
Q 46.484375 58.296875 42.84375 61.546875 
Q 39.203125 64.796875 32.078125 64.796875 
z
" id="DejaVuSans-82"/>
       <path d="M 9.8125 72.90625 
L 24.515625 72.90625 
L 43.109375 23.296875 
L 61.8125 72.90625 
L 76.515625 72.90625 
L 76.515625 0 
L 66.890625 0 
L 66.890625 64.015625 
L 48.09375 14.015625 
L 38.1875 14.015625 
L 19.390625 64.015625 
L 19.390625 0 
L 9.8125 0 
z
" id="DejaVuSans-77"/>
       <path d="M 53.515625 70.515625 
L 53.515625 60.890625 
Q 47.90625 63.578125 42.921875 64.890625 
Q 37.9375 66.21875 33.296875 66.21875 
Q 25.25 66.21875 20.875 63.09375 
Q 16.5 59.96875 16.5 54.203125 
Q 16.5 49.359375 19.40625 46.890625 
Q 22.3125 44.4375 30.421875 42.921875 
L 36.375 41.703125 
Q 47.40625 39.59375 52.65625 34.296875 
Q 57.90625 29 57.90625 20.125 
Q 57.90625 9.515625 50.796875 4.046875 
Q 43.703125 -1.421875 29.984375 -1.421875 
Q 24.8125 -1.421875 18.96875 -0.25 
Q 13.140625 0.921875 6.890625 3.21875 
L 6.890625 13.375 
Q 12.890625 10.015625 18.65625 8.296875 
Q 24.421875 6.59375 29.984375 6.59375 
Q 38.421875 6.59375 43.015625 9.90625 
Q 47.609375 13.234375 47.609375 19.390625 
Q 47.609375 24.75 44.3125 27.78125 
Q 41.015625 30.8125 33.5 32.328125 
L 27.484375 33.5 
Q 16.453125 35.6875 11.515625 40.375 
Q 6.59375 45.0625 6.59375 53.421875 
Q 6.59375 63.09375 13.40625 68.65625 
Q 20.21875 74.21875 32.171875 74.21875 
Q 37.3125 74.21875 42.625 73.28125 
Q 47.953125 72.359375 53.515625 70.515625 
z
" id="DejaVuSans-83"/>
       <path id="DejaVuSans-32"/>
       <path d="M 19.671875 64.796875 
L 19.671875 8.109375 
L 31.59375 8.109375 
Q 46.6875 8.109375 53.6875 14.9375 
Q 60.6875 21.78125 60.6875 36.53125 
Q 60.6875 51.171875 53.6875 57.984375 
Q 46.6875 64.796875 31.59375 64.796875 
z
M 9.8125 72.90625 
L 30.078125 72.90625 
Q 51.265625 72.90625 61.171875 64.09375 
Q 71.09375 55.28125 71.09375 36.53125 
Q 71.09375 17.671875 61.125 8.828125 
Q 51.171875 0 30.078125 0 
L 9.8125 0 
z
" id="DejaVuSans-68"/>
       <path d="M 9.421875 54.6875 
L 18.40625 54.6875 
L 18.40625 0 
L 9.421875 0 
z
M 9.421875 75.984375 
L 18.40625 75.984375 
L 18.40625 64.59375 
L 9.421875 64.59375 
z
" id="DejaVuSans-105"/>
       <path d="M 44.28125 53.078125 
L 44.28125 44.578125 
Q 40.484375 46.53125 36.375 47.5 
Q 32.28125 48.484375 27.875 48.484375 
Q 21.1875 48.484375 17.84375 46.4375 
Q 14.5 44.390625 14.5 40.28125 
Q 14.5 37.15625 16.890625 35.375 
Q 19.28125 33.59375 26.515625 31.984375 
L 29.59375 31.296875 
Q 39.15625 29.25 43.1875 25.515625 
Q 47.21875 21.78125 47.21875 15.09375 
Q 47.21875 7.46875 41.1875 3.015625 
Q 35.15625 -1.421875 24.609375 -1.421875 
Q 20.21875 -1.421875 15.453125 -0.5625 
Q 10.6875 0.296875 5.421875 2 
L 5.421875 11.28125 
Q 10.40625 8.6875 15.234375 7.390625 
Q 20.0625 6.109375 24.8125 6.109375 
Q 31.15625 6.109375 34.5625 8.28125 
Q 37.984375 10.453125 37.984375 14.40625 
Q 37.984375 18.0625 35.515625 20.015625 
Q 33.0625 21.96875 24.703125 23.78125 
L 21.578125 24.515625 
Q 13.234375 26.265625 9.515625 29.90625 
Q 5.8125 33.546875 5.8125 39.890625 
Q 5.8125 47.609375 11.28125 51.796875 
Q 16.75 56 26.8125 56 
Q 31.78125 56 36.171875 55.265625 
Q 40.578125 54.546875 44.28125 53.078125 
z
" id="DejaVuSans-115"/>
       <path d="M 18.109375 8.203125 
L 18.109375 -20.796875 
L 9.078125 -20.796875 
L 9.078125 54.6875 
L 18.109375 54.6875 
L 18.109375 46.390625 
Q 20.953125 51.265625 25.265625 53.625 
Q 29.59375 56 35.59375 56 
Q 45.5625 56 51.78125 48.09375 
Q 58.015625 40.1875 58.015625 27.296875 
Q 58.015625 14.40625 51.78125 6.484375 
Q 45.5625 -1.421875 35.59375 -1.421875 
Q 29.59375 -1.421875 25.265625 0.953125 
Q 20.953125 3.328125 18.109375 8.203125 
z
M 48.6875 27.296875 
Q 48.6875 37.203125 44.609375 42.84375 
Q 40.53125 48.484375 33.40625 48.484375 
Q 26.265625 48.484375 22.1875 42.84375 
Q 18.109375 37.203125 18.109375 27.296875 
Q 18.109375 17.390625 22.1875 11.75 
Q 26.265625 6.109375 33.40625 6.109375 
Q 40.53125 6.109375 44.609375 11.75 
Q 48.6875 17.390625 48.6875 27.296875 
z
" id="DejaVuSans-112"/>
       <path d="M 9.421875 75.984375 
L 18.40625 75.984375 
L 18.40625 0 
L 9.421875 0 
z
" id="DejaVuSans-108"/>
       <path d="M 34.28125 27.484375 
Q 23.390625 27.484375 19.1875 25 
Q 14.984375 22.515625 14.984375 16.5 
Q 14.984375 11.71875 18.140625 8.90625 
Q 21.296875 6.109375 26.703125 6.109375 
Q 34.1875 6.109375 38.703125 11.40625 
Q 43.21875 16.703125 43.21875 25.484375 
L 43.21875 27.484375 
z
M 52.203125 31.203125 
L 52.203125 0 
L 43.21875 0 
L 43.21875 8.296875 
Q 40.140625 3.328125 35.546875 0.953125 
Q 30.953125 -1.421875 24.3125 -1.421875 
Q 15.921875 -1.421875 10.953125 3.296875 
Q 6 8.015625 6 15.921875 
Q 6 25.140625 12.171875 29.828125 
Q 18.359375 34.515625 30.609375 34.515625 
L 43.21875 34.515625 
L 43.21875 35.40625 
Q 43.21875 41.609375 39.140625 45 
Q 35.0625 48.390625 27.6875 48.390625 
Q 23 48.390625 18.546875 47.265625 
Q 14.109375 46.140625 10.015625 43.890625 
L 10.015625 52.203125 
Q 14.9375 54.109375 19.578125 55.046875 
Q 24.21875 56 28.609375 56 
Q 40.484375 56 46.34375 49.84375 
Q 52.203125 43.703125 52.203125 31.203125 
z
" id="DejaVuSans-97"/>
       <path d="M 48.78125 52.59375 
L 48.78125 44.1875 
Q 44.96875 46.296875 41.140625 47.34375 
Q 37.3125 48.390625 33.40625 48.390625 
Q 24.65625 48.390625 19.8125 42.84375 
Q 14.984375 37.3125 14.984375 27.296875 
Q 14.984375 17.28125 19.8125 11.734375 
Q 24.65625 6.203125 33.40625 6.203125 
Q 37.3125 6.203125 41.140625 7.25 
Q 44.96875 8.296875 48.78125 10.40625 
L 48.78125 2.09375 
Q 45.015625 0.34375 40.984375 -0.53125 
Q 36.96875 -1.421875 32.421875 -1.421875 
Q 20.0625 -1.421875 12.78125 6.34375 
Q 5.515625 14.109375 5.515625 27.296875 
Q 5.515625 40.671875 12.859375 48.328125 
Q 20.21875 56 33.015625 56 
Q 37.15625 56 41.109375 55.140625 
Q 45.0625 54.296875 48.78125 52.59375 
z
" id="DejaVuSans-99"/>
       <path d="M 56.203125 29.59375 
L 56.203125 25.203125 
L 14.890625 25.203125 
Q 15.484375 15.921875 20.484375 11.0625 
Q 25.484375 6.203125 34.421875 6.203125 
Q 39.59375 6.203125 44.453125 7.46875 
Q 49.3125 8.734375 54.109375 11.28125 
L 54.109375 2.78125 
Q 49.265625 0.734375 44.1875 -0.34375 
Q 39.109375 -1.421875 33.890625 -1.421875 
Q 20.796875 -1.421875 13.15625 6.1875 
Q 5.515625 13.8125 5.515625 26.8125 
Q 5.515625 40.234375 12.765625 48.109375 
Q 20.015625 56 32.328125 56 
Q 43.359375 56 49.78125 48.890625 
Q 56.203125 41.796875 56.203125 29.59375 
z
M 47.21875 32.234375 
Q 47.125 39.59375 43.09375 43.984375 
Q 39.0625 48.390625 32.421875 48.390625 
Q 24.90625 48.390625 20.390625 44.140625 
Q 15.875 39.890625 15.1875 32.171875 
z
" id="DejaVuSans-101"/>
       <path d="M 52 44.1875 
Q 55.375 50.25 60.0625 53.125 
Q 64.75 56 71.09375 56 
Q 79.640625 56 84.28125 50.015625 
Q 88.921875 44.046875 88.921875 33.015625 
L 88.921875 0 
L 79.890625 0 
L 79.890625 32.71875 
Q 79.890625 40.578125 77.09375 44.375 
Q 74.3125 48.1875 68.609375 48.1875 
Q 61.625 48.1875 57.5625 43.546875 
Q 53.515625 38.921875 53.515625 30.90625 
L 53.515625 0 
L 44.484375 0 
L 44.484375 32.71875 
Q 44.484375 40.625 41.703125 44.40625 
Q 38.921875 48.1875 33.109375 48.1875 
Q 26.21875 48.1875 22.15625 43.53125 
Q 18.109375 38.875 18.109375 30.90625 
L 18.109375 0 
L 9.078125 0 
L 9.078125 54.6875 
L 18.109375 54.6875 
L 18.109375 46.1875 
Q 21.1875 51.21875 25.484375 53.609375 
Q 29.78125 56 35.6875 56 
Q 41.65625 56 45.828125 52.96875 
Q 50 49.953125 52 44.1875 
z
" id="DejaVuSans-109"/>
       <path d="M 54.890625 33.015625 
L 54.890625 0 
L 45.90625 0 
L 45.90625 32.71875 
Q 45.90625 40.484375 42.875 44.328125 
Q 39.84375 48.1875 33.796875 48.1875 
Q 26.515625 48.1875 22.3125 43.546875 
Q 18.109375 38.921875 18.109375 30.90625 
L 18.109375 0 
L 9.078125 0 
L 9.078125 54.6875 
L 18.109375 54.6875 
L 18.109375 46.1875 
Q 21.34375 51.125 25.703125 53.5625 
Q 30.078125 56 35.796875 56 
Q 45.21875 56 50.046875 50.171875 
Q 54.890625 44.34375 54.890625 33.015625 
z
" id="DejaVuSans-110"/>
       <path d="M 18.3125 70.21875 
L 18.3125 54.6875 
L 36.8125 54.6875 
L 36.8125 47.703125 
L 18.3125 47.703125 
L 18.3125 18.015625 
Q 18.3125 11.328125 20.140625 9.421875 
Q 21.96875 7.515625 27.59375 7.515625 
L 36.8125 7.515625 
L 36.8125 0 
L 27.59375 0 
Q 17.1875 0 13.234375 3.875 
Q 9.28125 7.765625 9.28125 18.015625 
L 9.28125 47.703125 
L 2.6875 47.703125 
L 2.6875 54.6875 
L 9.28125 54.6875 
L 9.28125 70.21875 
z
" id="DejaVuSans-116"/>
       <path d="M 31 75.875 
Q 24.46875 64.65625 21.28125 53.65625 
Q 18.109375 42.671875 18.109375 31.390625 
Q 18.109375 20.125 21.3125 9.0625 
Q 24.515625 -2 31 -13.1875 
L 23.1875 -13.1875 
Q 15.875 -1.703125 12.234375 9.375 
Q 8.59375 20.453125 8.59375 31.390625 
Q 8.59375 42.28125 12.203125 53.3125 
Q 15.828125 64.359375 23.1875 75.875 
z
" id="DejaVuSans-40"/>
       <path d="M 8.9375 31.34375 
L 22.703125 75.875 
L 31 75.875 
L 17.234375 31.34375 
L 31 -13.1875 
L 22.703125 -13.1875 
z
" id="DejaVuSans-10216"/>
       <path d="M 60.015625 54.6875 
L 34.90625 27.875 
L 50.296875 0 
L 39.984375 0 
L 28.421875 21.6875 
L 8.296875 0 
L -2.59375 0 
L 24.3125 28.8125 
L 10.015625 54.6875 
L 20.3125 54.6875 
L 30.8125 34.90625 
L 49.125 54.6875 
z
" id="DejaVuSans-Oblique-120"/>
       <path d="M 18.3125 75.984375 
L 27.296875 75.984375 
L 25.09375 64.59375 
L 16.109375 64.59375 
z
M 14.203125 54.6875 
L 23.1875 54.6875 
L 12.5 0 
L 3.515625 0 
z
" id="DejaVuSans-Oblique-105"/>
       <path d="M 30.078125 31.34375 
L 16.3125 -13.1875 
L 8.015625 -13.1875 
L 21.78125 31.34375 
L 8.015625 75.875 
L 16.3125 75.875 
z
" id="DejaVuSans-10217"/>
       <path d="M 19.1875 8.296875 
L 53.609375 8.296875 
L 53.609375 0 
L 7.328125 0 
L 7.328125 8.296875 
Q 12.9375 14.109375 22.625 23.890625 
Q 32.328125 33.6875 34.8125 36.53125 
Q 39.546875 41.84375 41.421875 45.53125 
Q 43.3125 49.21875 43.3125 52.78125 
Q 43.3125 58.59375 39.234375 62.25 
Q 35.15625 65.921875 28.609375 65.921875 
Q 23.96875 65.921875 18.8125 64.3125 
Q 13.671875 62.703125 7.8125 59.421875 
L 7.8125 69.390625 
Q 13.765625 71.78125 18.9375 73 
Q 24.125 74.21875 28.421875 74.21875 
Q 39.75 74.21875 46.484375 68.546875 
Q 53.21875 62.890625 53.21875 53.421875 
Q 53.21875 48.921875 51.53125 44.890625 
Q 49.859375 40.875 45.40625 35.40625 
Q 44.1875 33.984375 37.640625 27.21875 
Q 31.109375 20.453125 19.1875 8.296875 
z
" id="DejaVuSans-50"/>
       <path d="M 8.015625 75.875 
L 15.828125 75.875 
Q 23.140625 64.359375 26.78125 53.3125 
Q 30.421875 42.28125 30.421875 31.390625 
Q 30.421875 20.453125 26.78125 9.375 
Q 23.140625 -1.703125 15.828125 -13.1875 
L 8.015625 -13.1875 
Q 14.5 -2 17.703125 9.0625 
Q 20.90625 20.125 20.90625 31.390625 
Q 20.90625 42.671875 17.703125 53.65625 
Q 14.5 64.65625 8.015625 75.875 
z
" id="DejaVuSans-41"/>
      </defs>
      <use transform="translate(0 0.765625)" xlink:href="#DejaVuSans-82"/>
      <use transform="translate(69.482422 0.765625)" xlink:href="#DejaVuSans-77"/>
      <use transform="translate(155.761719 0.765625)" xlink:href="#DejaVuSans-83"/>
      <use transform="translate(219.238281 0.765625)" xlink:href="#DejaVuSans-32"/>
      <use transform="translate(251.025391 0.765625)" xlink:href="#DejaVuSans-68"/>
      <use transform="translate(328.027344 0.765625)" xlink:href="#DejaVuSans-105"/>
      <use transform="translate(355.810547 0.765625)" xlink:href="#DejaVuSans-115"/>
      <use transform="translate(407.910156 0.765625)" xlink:href="#DejaVuSans-112"/>
      <use transform="translate(471.386719 0.765625)" xlink:href="#DejaVuSans-108"/>
      <use transform="translate(499.169922 0.765625)" xlink:href="#DejaVuSans-97"/>
      <use transform="translate(560.449219 0.765625)" xlink:href="#DejaVuSans-99"/>
      <use transform="translate(615.429688 0.765625)" xlink:href="#DejaVuSans-101"/>
      <use transform="translate(676.953125 0.765625)" xlink:href="#DejaVuSans-109"/>
      <use transform="translate(774.365234 0.765625)" xlink:href="#DejaVuSans-101"/>
      <use transform="translate(835.888672 0.765625)" xlink:href="#DejaVuSans-110"/>
      <use transform="translate(899.267578 0.765625)" xlink:href="#DejaVuSans-116"/>
      <use transform="translate(938.476562 0.765625)" xlink:href="#DejaVuSans-32"/>
      <use transform="translate(970.263672 0.765625)" xlink:href="#DejaVuSans-40"/>
      <use transform="translate(1009.277344 0.765625)" xlink:href="#DejaVuSans-10216"/>
      <use transform="translate(1048.291016 0.765625)" xlink:href="#DejaVuSans-Oblique-120"/>
      <use transform="translate(1107.470703 -15.640625)scale(0.7)" xlink:href="#DejaVuSans-Oblique-105"/>
      <use transform="translate(1129.65332 0.765625)" xlink:href="#DejaVuSans-10217"/>
      <use transform="translate(1169.624023 39.046875)scale(0.7)" xlink:href="#DejaVuSans-50"/>
      <use transform="translate(1216.894531 0.765625)" xlink:href="#DejaVuSans-41"/>
     </g>
    </g>
   </g>
   <g id="line2d_33">
    <path clip-path="url(#p31e1009e1d)" d="M 93.623377 204.979171 
L 107.33426 185.206731 
L 115.354612 165.466564 
L 121.045143 154.246115 
L 125.459062 144.744647 
L 129.065496 137.053231 
L 132.114692 127.898385 
L 134.756026 117.218468 
L 137.085848 106.290693 
L 139.169945 99.877926 
L 141.055239 96.580858 
L 142.776379 100.340447 
L 144.359673 94.123291 
L 145.825575 90.842497 
L 147.190297 84.89423 
L 148.466909 82.361194 
L 149.666102 78.650678 
L 150.796731 71.515375 
L 151.866215 71.845331 
L 152.880828 68.881384 
L 153.845928 70.549196 
L 154.766123 67.715436 
L 155.645406 68.784924 
L 156.487262 68.519475 
L 157.294746 69.222998 
L 158.070557 68.753003 
L 158.817084 73.092088 
L 159.536458 78.35364 
L 160.230587 81.30831 
L 160.90118 79.315781 
L 161.549784 80.380962 
L 162.177793 84.463116 
L 162.786475 82.641683 
L 163.376985 77.012275 
L 163.950377 74.402399 
L 164.507614 76.690383 
L 165.049583 81.57055 
L 165.577098 84.888764 
L 166.090909 87.62631 
" style="fill:none;stroke:#1f77b4;stroke-linecap:square;stroke-width:1.5;"/>
   </g>
   <g id="line2d_34">
    <path clip-path="url(#p31e1009e1d)" d="M 93.623377 302.946949 
L 107.33426 292.008738 
L 115.354612 285.493959 
L 121.045143 277.343983 
L 125.459062 277.107256 
L 129.065496 273.363453 
L 132.114692 273.599726 
L 134.756026 268.916686 
L 137.085848 264.677552 
L 139.169945 262.827931 
L 141.055239 263.45701 
L 142.776379 261.217797 
L 144.359673 257.243392 
L 145.825575 255.165056 
L 147.190297 254.000223 
L 148.466909 255.599641 
L 149.666102 254.880303 
L 150.796731 253.302836 
L 151.866215 251.79797 
L 152.880828 249.576284 
L 153.845928 248.721335 
L 154.766123 244.148903 
L 155.645406 243.180648 
L 156.487262 242.461281 
L 157.294746 243.761426 
L 158.070557 240.998121 
L 158.817084 239.06343 
L 159.536458 239.700378 
L 160.230587 240.44615 
L 160.90118 239.243905 
L 161.549784 235.735182 
L 162.177793 234.974848 
L 162.786475 236.169036 
L 163.376985 238.33623 
L 163.950377 238.961862 
L 164.507614 236.92304 
L 165.049583 238.489601 
L 165.577098 236.291499 
L 166.090909 236.986509 
" style="fill:none;stroke:#ff7f0e;stroke-linecap:square;stroke-width:1.5;"/>
   </g>
   <g id="line2d_35">
    <path clip-path="url(#p31e1009e1d)" d="M 93.623377 223.286406 
L 107.33426 223.118203 
L 115.354612 220.311661 
L 121.045143 211.938399 
L 125.459062 205.646388 
L 129.065496 193.094565 
L 132.114692 193.932678 
L 134.756026 186.62985 
L 137.085848 186.522292 
L 139.169945 196.491268 
L 141.055239 187.480385 
L 142.776379 194.278576 
L 144.359673 188.634591 
L 145.825575 214.227207 
L 147.190297 188.131262 
L 148.466909 193.143202 
L 149.666102 190.350227 
L 150.796731 222.304549 
L 151.866215 201.234961 
L 152.880828 203.031972 
L 153.845928 207.348205 
L 154.766123 228.750991 
L 155.645406 238.920178 
L 156.487262 225.425925 
L 157.294746 196.297316 
L 158.070557 172.456194 
L 158.817084 157.671483 
L 159.536458 157.462401 
L 160.230587 154.852993 
L 160.90118 155.199227 
L 161.549784 140.713949 
L 162.177793 132.731417 
L 162.786475 132.1739 
L 163.376985 142.357995 
L 163.950377 147.688432 
L 164.507614 135.886195 
L 165.049583 127.29705 
L 165.577098 121.614683 
L 166.090909 123.937662 
" style="fill:none;stroke:#2ca02c;stroke-linecap:square;stroke-width:1.5;"/>
   </g>
   <g id="patch_3">
    <path d="M 90 320.4 
L 90 43.2 
" style="fill:none;stroke:#000000;stroke-linecap:square;stroke-linejoin:miter;stroke-width:0.8;"/>
   </g>
   <g id="patch_4">
    <path d="M 169.714286 320.4 
L 169.714286 43.2 
" style="fill:none;stroke:#000000;stroke-linecap:square;stroke-linejoin:miter;stroke-width:0.8;"/>
   </g>
   <g id="patch_5">
    <path d="M 90 320.4 
L 169.714286 320.4 
" style="fill:none;stroke:#000000;stroke-linecap:square;stroke-linejoin:miter;stroke-width:0.8;"/>
   </g>
   <g id="patch_6">
    <path d="M 90 43.2 
L 169.714286 43.2 
" style="fill:none;stroke:#000000;stroke-linecap:square;stroke-linejoin:miter;stroke-width:0.8;"/>
   </g>
  </g>
  <g id="axes_2">
   <g id="patch_7">
    <path d="M 185.657143 320.4 
L 265.371429 320.4 
L 265.371429 43.2 
L 185.657143 43.2 
z
" style="fill:#ffffff;"/>
   </g>
   <g id="matplotlib.axis_3">
    <g id="xtick_17">
     <g id="line2d_36">
      <g>
       <use style="stroke:#000000;stroke-width:0.8;" x="202.991403" xlink:href="#ma2f8c12c64" y="320.4"/>
      </g>
     </g>
     <g id="text_6">
      <!-- $\mathdefault{10^{5}}$ -->
      <g transform="translate(191.551403 337.277969)scale(0.13 -0.13)">
       <use transform="translate(0 0.684375)" xlink:href="#DejaVuSans-49"/>
       <use transform="translate(63.623047 0.684375)" xlink:href="#DejaVuSans-48"/>
       <use transform="translate(128.203125 38.965625)scale(0.7)" xlink:href="#DejaVuSans-53"/>
      </g>
     </g>
    </g>
    <g id="xtick_18">
     <g id="line2d_37">
      <g>
       <use style="stroke:#000000;stroke-width:0.8;" x="248.537971" xlink:href="#ma2f8c12c64" y="320.4"/>
      </g>
     </g>
     <g id="text_7">
      <!-- $\mathdefault{10^{6}}$ -->
      <g transform="translate(237.097971 337.277969)scale(0.13 -0.13)">
       <use transform="translate(0 0.765625)" xlink:href="#DejaVuSans-49"/>
       <use transform="translate(63.623047 0.765625)" xlink:href="#DejaVuSans-48"/>
       <use transform="translate(128.203125 39.046875)scale(0.7)" xlink:href="#DejaVuSans-54"/>
      </g>
     </g>
    </g>
    <g id="xtick_19">
     <g id="line2d_38">
      <g>
       <use style="stroke:#000000;stroke-width:0.6;" x="189.280519" xlink:href="#m16313ebec9" y="320.4"/>
      </g>
     </g>
    </g>
    <g id="xtick_20">
     <g id="line2d_39">
      <g>
       <use style="stroke:#000000;stroke-width:0.6;" x="192.886953" xlink:href="#m16313ebec9" y="320.4"/>
      </g>
     </g>
    </g>
    <g id="xtick_21">
     <g id="line2d_40">
      <g>
       <use style="stroke:#000000;stroke-width:0.6;" x="195.93615" xlink:href="#m16313ebec9" y="320.4"/>
      </g>
     </g>
    </g>
    <g id="xtick_22">
     <g id="line2d_41">
      <g>
       <use style="stroke:#000000;stroke-width:0.6;" x="198.577484" xlink:href="#m16313ebec9" y="320.4"/>
      </g>
     </g>
    </g>
    <g id="xtick_23">
     <g id="line2d_42">
      <g>
       <use style="stroke:#000000;stroke-width:0.6;" x="200.907306" xlink:href="#m16313ebec9" y="320.4"/>
      </g>
     </g>
    </g>
    <g id="xtick_24">
     <g id="line2d_43">
      <g>
       <use style="stroke:#000000;stroke-width:0.6;" x="216.702286" xlink:href="#m16313ebec9" y="320.4"/>
      </g>
     </g>
    </g>
    <g id="xtick_25">
     <g id="line2d_44">
      <g>
       <use style="stroke:#000000;stroke-width:0.6;" x="224.722638" xlink:href="#m16313ebec9" y="320.4"/>
      </g>
     </g>
    </g>
    <g id="xtick_26">
     <g id="line2d_45">
      <g>
       <use style="stroke:#000000;stroke-width:0.6;" x="230.413169" xlink:href="#m16313ebec9" y="320.4"/>
      </g>
     </g>
    </g>
    <g id="xtick_27">
     <g id="line2d_46">
      <g>
       <use style="stroke:#000000;stroke-width:0.6;" x="234.827088" xlink:href="#m16313ebec9" y="320.4"/>
      </g>
     </g>
    </g>
    <g id="xtick_28">
     <g id="line2d_47">
      <g>
       <use style="stroke:#000000;stroke-width:0.6;" x="238.433522" xlink:href="#m16313ebec9" y="320.4"/>
      </g>
     </g>
    </g>
    <g id="xtick_29">
     <g id="line2d_48">
      <g>
       <use style="stroke:#000000;stroke-width:0.6;" x="241.482718" xlink:href="#m16313ebec9" y="320.4"/>
      </g>
     </g>
    </g>
    <g id="xtick_30">
     <g id="line2d_49">
      <g>
       <use style="stroke:#000000;stroke-width:0.6;" x="244.124052" xlink:href="#m16313ebec9" y="320.4"/>
      </g>
     </g>
    </g>
    <g id="xtick_31">
     <g id="line2d_50">
      <g>
       <use style="stroke:#000000;stroke-width:0.6;" x="246.453874" xlink:href="#m16313ebec9" y="320.4"/>
      </g>
     </g>
    </g>
    <g id="xtick_32">
     <g id="line2d_51">
      <g>
       <use style="stroke:#000000;stroke-width:0.6;" x="262.248854" xlink:href="#m16313ebec9" y="320.4"/>
      </g>
     </g>
    </g>
   </g>
   <g id="matplotlib.axis_4">
    <g id="ytick_17">
     <g id="line2d_52">
      <g>
       <use style="stroke:#000000;stroke-width:0.8;" x="185.657143" xlink:href="#m15ef3ee49e" y="255.057711"/>
      </g>
     </g>
    </g>
    <g id="ytick_18">
     <g id="line2d_53">
      <g>
       <use style="stroke:#000000;stroke-width:0.8;" x="185.657143" xlink:href="#m15ef3ee49e" y="90.856356"/>
      </g>
     </g>
    </g>
    <g id="ytick_19">
     <g id="line2d_54">
      <g>
       <use style="stroke:#000000;stroke-width:0.6;" x="185.657143" xlink:href="#m7c124d8442" y="320.4"/>
      </g>
     </g>
    </g>
    <g id="ytick_20">
     <g id="line2d_55">
      <g>
       <use style="stroke:#000000;stroke-width:0.6;" x="185.657143" xlink:href="#m7c124d8442" y="304.487245"/>
      </g>
     </g>
    </g>
    <g id="ytick_21">
     <g id="line2d_56">
      <g>
       <use style="stroke:#000000;stroke-width:0.6;" x="185.657143" xlink:href="#m7c124d8442" y="291.485577"/>
      </g>
     </g>
    </g>
    <g id="ytick_22">
     <g id="line2d_57">
      <g>
       <use style="stroke:#000000;stroke-width:0.6;" x="185.657143" xlink:href="#m7c124d8442" y="280.492823"/>
      </g>
     </g>
    </g>
    <g id="ytick_23">
     <g id="line2d_58">
      <g>
       <use style="stroke:#000000;stroke-width:0.6;" x="185.657143" xlink:href="#m7c124d8442" y="270.970467"/>
      </g>
     </g>
    </g>
    <g id="ytick_24">
     <g id="line2d_59">
      <g>
       <use style="stroke:#000000;stroke-width:0.6;" x="185.657143" xlink:href="#m7c124d8442" y="262.571153"/>
      </g>
     </g>
    </g>
    <g id="ytick_25">
     <g id="line2d_60">
      <g>
       <use style="stroke:#000000;stroke-width:0.6;" x="185.657143" xlink:href="#m7c124d8442" y="205.628178"/>
      </g>
     </g>
    </g>
    <g id="ytick_26">
     <g id="line2d_61">
      <g>
       <use style="stroke:#000000;stroke-width:0.6;" x="185.657143" xlink:href="#m7c124d8442" y="176.713755"/>
      </g>
     </g>
    </g>
    <g id="ytick_27">
     <g id="line2d_62">
      <g>
       <use style="stroke:#000000;stroke-width:0.6;" x="185.657143" xlink:href="#m7c124d8442" y="156.198645"/>
      </g>
     </g>
    </g>
    <g id="ytick_28">
     <g id="line2d_63">
      <g>
       <use style="stroke:#000000;stroke-width:0.6;" x="185.657143" xlink:href="#m7c124d8442" y="140.285889"/>
      </g>
     </g>
    </g>
    <g id="ytick_29">
     <g id="line2d_64">
      <g>
       <use style="stroke:#000000;stroke-width:0.6;" x="185.657143" xlink:href="#m7c124d8442" y="127.284221"/>
      </g>
     </g>
    </g>
    <g id="ytick_30">
     <g id="line2d_65">
      <g>
       <use style="stroke:#000000;stroke-width:0.6;" x="185.657143" xlink:href="#m7c124d8442" y="116.291468"/>
      </g>
     </g>
    </g>
    <g id="ytick_31">
     <g id="line2d_66">
      <g>
       <use style="stroke:#000000;stroke-width:0.6;" x="185.657143" xlink:href="#m7c124d8442" y="106.769112"/>
      </g>
     </g>
    </g>
    <g id="ytick_32">
     <g id="line2d_67">
      <g>
       <use style="stroke:#000000;stroke-width:0.6;" x="185.657143" xlink:href="#m7c124d8442" y="98.369798"/>
      </g>
     </g>
    </g>
   </g>
   <g id="line2d_68">
    <path clip-path="url(#p19ef33857c)" d="M 189.280519 217.655371 
L 202.991403 195.088834 
L 211.011755 170.474393 
L 216.702286 158.970633 
L 221.116204 150.882159 
L 224.722638 144.249356 
L 227.771835 132.478314 
L 230.413169 115.208815 
L 232.742991 105.777872 
L 234.827088 98.11915 
L 236.712382 100.997026 
L 238.433522 102.054944 
L 240.016816 100.774003 
L 241.482718 99.659539 
L 242.84744 98.15718 
L 244.124052 96.158756 
L 245.323245 91.050056 
L 246.453874 86.428152 
L 247.523357 88.993347 
L 248.537971 88.84069 
L 249.503071 91.287111 
L 250.423266 90.389749 
L 251.302549 89.131415 
L 252.144405 82.484204 
L 252.951889 77.622045 
L 253.727699 77.756868 
L 254.474227 74.422629 
L 255.193601 72.930908 
L 255.887729 68.820989 
L 256.558323 72.895369 
L 257.206926 75.348846 
L 257.834935 72.299247 
L 258.443618 66.428665 
L 259.034128 62.303825 
L 259.60752 62.386355 
L 260.164757 63.762022 
L 260.706726 63.888012 
L 261.234241 62.025307 
L 261.748052 59.535947 
" style="fill:none;stroke:#1f77b4;stroke-linecap:square;stroke-width:1.5;"/>
   </g>
   <g id="line2d_69">
    <path clip-path="url(#p19ef33857c)" d="M 189.280519 306.461144 
L 202.991403 299.926162 
L 211.011755 292.498056 
L 216.702286 289.68818 
L 221.116204 284.393218 
L 224.722638 276.000485 
L 227.771835 268.79733 
L 230.413169 266.168905 
L 232.742991 268.5891 
L 234.827088 269.807679 
L 236.712382 268.672613 
L 238.433522 267.836084 
L 240.016816 267.86838 
L 241.482718 265.713114 
L 242.84744 262.333613 
L 244.124052 259.074354 
L 245.323245 258.248115 
L 246.453874 256.873114 
L 247.523357 255.992717 
L 248.537971 253.606507 
L 249.503071 253.852638 
L 250.423266 253.685104 
L 251.302549 255.715998 
L 252.144405 256.476903 
L 252.951889 254.738587 
L 253.727699 249.535077 
L 254.474227 244.419391 
L 255.193601 244.853829 
L 255.887729 247.195769 
L 256.558323 246.978198 
L 257.206926 244.574808 
L 257.834935 244.089069 
L 258.443618 244.486207 
L 259.034128 242.153887 
L 259.60752 240.990464 
L 260.164757 240.016024 
L 260.706726 242.462248 
L 261.234241 242.684445 
L 261.748052 243.92509 
" style="fill:none;stroke:#ff7f0e;stroke-linecap:square;stroke-width:1.5;"/>
   </g>
   <g id="line2d_70">
    <path clip-path="url(#p19ef33857c)" d="M 189.280519 248.115266 
L 202.991403 240.153823 
L 211.011755 235.000278 
L 216.702286 217.398241 
L 221.116204 201.356157 
L 224.722638 196.824833 
L 227.771835 196.980468 
L 230.413169 211.152261 
L 232.742991 190.421949 
L 234.827088 177.626379 
L 236.712382 151.360057 
L 238.433522 146.429282 
L 240.016816 143.930192 
L 241.482718 152.130661 
L 242.84744 145.388956 
L 244.124052 145.128218 
L 245.323245 144.840818 
L 246.453874 148.610035 
L 247.523357 135.89252 
L 248.537971 130.903766 
L 249.503071 130.05759 
L 250.423266 139.256775 
L 251.302549 142.311368 
L 252.144405 146.346197 
L 252.951889 144.159288 
L 253.727699 132.624354 
L 254.474227 126.925869 
L 255.193601 127.637591 
L 255.887729 135.056772 
L 256.558323 137.671134 
L 257.206926 135.393602 
L 257.834935 133.237907 
L 258.443618 132.918596 
L 259.034128 136.487013 
L 259.60752 141.766006 
L 260.164757 142.135003 
L 260.706726 141.206458 
L 261.234241 137.242437 
L 261.748052 136.609742 
" style="fill:none;stroke:#2ca02c;stroke-linecap:square;stroke-width:1.5;"/>
   </g>
   <g id="patch_8">
    <path d="M 185.657143 320.4 
L 185.657143 43.2 
" style="fill:none;stroke:#000000;stroke-linecap:square;stroke-linejoin:miter;stroke-width:0.8;"/>
   </g>
   <g id="patch_9">
    <path d="M 265.371429 320.4 
L 265.371429 43.2 
" style="fill:none;stroke:#000000;stroke-linecap:square;stroke-linejoin:miter;stroke-width:0.8;"/>
   </g>
   <g id="patch_10">
    <path d="M 185.657143 320.4 
L 265.371429 320.4 
" style="fill:none;stroke:#000000;stroke-linecap:square;stroke-linejoin:miter;stroke-width:0.8;"/>
   </g>
   <g id="patch_11">
    <path d="M 185.657143 43.2 
L 265.371429 43.2 
" style="fill:none;stroke:#000000;stroke-linecap:square;stroke-linejoin:miter;stroke-width:0.8;"/>
   </g>
  </g>
  <g id="axes_3">
   <g id="patch_12">
    <path d="M 281.314286 320.4 
L 361.028571 320.4 
L 361.028571 43.2 
L 281.314286 43.2 
z
" style="fill:#ffffff;"/>
   </g>
   <g id="matplotlib.axis_5">
    <g id="xtick_33">
     <g id="line2d_71">
      <g>
       <use style="stroke:#000000;stroke-width:0.8;" x="298.648546" xlink:href="#ma2f8c12c64" y="320.4"/>
      </g>
     </g>
     <g id="text_8">
      <!-- $\mathdefault{10^{5}}$ -->
      <g transform="translate(287.208546 337.277969)scale(0.13 -0.13)">
       <use transform="translate(0 0.684375)" xlink:href="#DejaVuSans-49"/>
       <use transform="translate(63.623047 0.684375)" xlink:href="#DejaVuSans-48"/>
       <use transform="translate(128.203125 38.965625)scale(0.7)" xlink:href="#DejaVuSans-53"/>
      </g>
     </g>
    </g>
    <g id="xtick_34">
     <g id="line2d_72">
      <g>
       <use style="stroke:#000000;stroke-width:0.8;" x="344.195114" xlink:href="#ma2f8c12c64" y="320.4"/>
      </g>
     </g>
     <g id="text_9">
      <!-- $\mathdefault{10^{6}}$ -->
      <g transform="translate(332.755114 337.277969)scale(0.13 -0.13)">
       <use transform="translate(0 0.765625)" xlink:href="#DejaVuSans-49"/>
       <use transform="translate(63.623047 0.765625)" xlink:href="#DejaVuSans-48"/>
       <use transform="translate(128.203125 39.046875)scale(0.7)" xlink:href="#DejaVuSans-54"/>
      </g>
     </g>
    </g>
    <g id="xtick_35">
     <g id="line2d_73">
      <g>
       <use style="stroke:#000000;stroke-width:0.6;" x="284.937662" xlink:href="#m16313ebec9" y="320.4"/>
      </g>
     </g>
    </g>
    <g id="xtick_36">
     <g id="line2d_74">
      <g>
       <use style="stroke:#000000;stroke-width:0.6;" x="288.544096" xlink:href="#m16313ebec9" y="320.4"/>
      </g>
     </g>
    </g>
    <g id="xtick_37">
     <g id="line2d_75">
      <g>
       <use style="stroke:#000000;stroke-width:0.6;" x="291.593293" xlink:href="#m16313ebec9" y="320.4"/>
      </g>
     </g>
    </g>
    <g id="xtick_38">
     <g id="line2d_76">
      <g>
       <use style="stroke:#000000;stroke-width:0.6;" x="294.234627" xlink:href="#m16313ebec9" y="320.4"/>
      </g>
     </g>
    </g>
    <g id="xtick_39">
     <g id="line2d_77">
      <g>
       <use style="stroke:#000000;stroke-width:0.6;" x="296.564449" xlink:href="#m16313ebec9" y="320.4"/>
      </g>
     </g>
    </g>
    <g id="xtick_40">
     <g id="line2d_78">
      <g>
       <use style="stroke:#000000;stroke-width:0.6;" x="312.359429" xlink:href="#m16313ebec9" y="320.4"/>
      </g>
     </g>
    </g>
    <g id="xtick_41">
     <g id="line2d_79">
      <g>
       <use style="stroke:#000000;stroke-width:0.6;" x="320.379781" xlink:href="#m16313ebec9" y="320.4"/>
      </g>
     </g>
    </g>
    <g id="xtick_42">
     <g id="line2d_80">
      <g>
       <use style="stroke:#000000;stroke-width:0.6;" x="326.070312" xlink:href="#m16313ebec9" y="320.4"/>
      </g>
     </g>
    </g>
    <g id="xtick_43">
     <g id="line2d_81">
      <g>
       <use style="stroke:#000000;stroke-width:0.6;" x="330.48423" xlink:href="#m16313ebec9" y="320.4"/>
      </g>
     </g>
    </g>
    <g id="xtick_44">
     <g id="line2d_82">
      <g>
       <use style="stroke:#000000;stroke-width:0.6;" x="334.090664" xlink:href="#m16313ebec9" y="320.4"/>
      </g>
     </g>
    </g>
    <g id="xtick_45">
     <g id="line2d_83">
      <g>
       <use style="stroke:#000000;stroke-width:0.6;" x="337.139861" xlink:href="#m16313ebec9" y="320.4"/>
      </g>
     </g>
    </g>
    <g id="xtick_46">
     <g id="line2d_84">
      <g>
       <use style="stroke:#000000;stroke-width:0.6;" x="339.781195" xlink:href="#m16313ebec9" y="320.4"/>
      </g>
     </g>
    </g>
    <g id="xtick_47">
     <g id="line2d_85">
      <g>
       <use style="stroke:#000000;stroke-width:0.6;" x="342.111017" xlink:href="#m16313ebec9" y="320.4"/>
      </g>
     </g>
    </g>
    <g id="xtick_48">
     <g id="line2d_86">
      <g>
       <use style="stroke:#000000;stroke-width:0.6;" x="357.905997" xlink:href="#m16313ebec9" y="320.4"/>
      </g>
     </g>
    </g>
   </g>
   <g id="matplotlib.axis_6">
    <g id="ytick_33">
     <g id="line2d_87">
      <g>
       <use style="stroke:#000000;stroke-width:0.8;" x="281.314286" xlink:href="#m15ef3ee49e" y="255.057711"/>
      </g>
     </g>
    </g>
    <g id="ytick_34">
     <g id="line2d_88">
      <g>
       <use style="stroke:#000000;stroke-width:0.8;" x="281.314286" xlink:href="#m15ef3ee49e" y="90.856356"/>
      </g>
     </g>
    </g>
    <g id="ytick_35">
     <g id="line2d_89">
      <g>
       <use style="stroke:#000000;stroke-width:0.6;" x="281.314286" xlink:href="#m7c124d8442" y="320.4"/>
      </g>
     </g>
    </g>
    <g id="ytick_36">
     <g id="line2d_90">
      <g>
       <use style="stroke:#000000;stroke-width:0.6;" x="281.314286" xlink:href="#m7c124d8442" y="304.487245"/>
      </g>
     </g>
    </g>
    <g id="ytick_37">
     <g id="line2d_91">
      <g>
       <use style="stroke:#000000;stroke-width:0.6;" x="281.314286" xlink:href="#m7c124d8442" y="291.485577"/>
      </g>
     </g>
    </g>
    <g id="ytick_38">
     <g id="line2d_92">
      <g>
       <use style="stroke:#000000;stroke-width:0.6;" x="281.314286" xlink:href="#m7c124d8442" y="280.492823"/>
      </g>
     </g>
    </g>
    <g id="ytick_39">
     <g id="line2d_93">
      <g>
       <use style="stroke:#000000;stroke-width:0.6;" x="281.314286" xlink:href="#m7c124d8442" y="270.970467"/>
      </g>
     </g>
    </g>
    <g id="ytick_40">
     <g id="line2d_94">
      <g>
       <use style="stroke:#000000;stroke-width:0.6;" x="281.314286" xlink:href="#m7c124d8442" y="262.571153"/>
      </g>
     </g>
    </g>
    <g id="ytick_41">
     <g id="line2d_95">
      <g>
       <use style="stroke:#000000;stroke-width:0.6;" x="281.314286" xlink:href="#m7c124d8442" y="205.628178"/>
      </g>
     </g>
    </g>
    <g id="ytick_42">
     <g id="line2d_96">
      <g>
       <use style="stroke:#000000;stroke-width:0.6;" x="281.314286" xlink:href="#m7c124d8442" y="176.713755"/>
      </g>
     </g>
    </g>
    <g id="ytick_43">
     <g id="line2d_97">
      <g>
       <use style="stroke:#000000;stroke-width:0.6;" x="281.314286" xlink:href="#m7c124d8442" y="156.198645"/>
      </g>
     </g>
    </g>
    <g id="ytick_44">
     <g id="line2d_98">
      <g>
       <use style="stroke:#000000;stroke-width:0.6;" x="281.314286" xlink:href="#m7c124d8442" y="140.285889"/>
      </g>
     </g>
    </g>
    <g id="ytick_45">
     <g id="line2d_99">
      <g>
       <use style="stroke:#000000;stroke-width:0.6;" x="281.314286" xlink:href="#m7c124d8442" y="127.284221"/>
      </g>
     </g>
    </g>
    <g id="ytick_46">
     <g id="line2d_100">
      <g>
       <use style="stroke:#000000;stroke-width:0.6;" x="281.314286" xlink:href="#m7c124d8442" y="116.291468"/>
      </g>
     </g>
    </g>
    <g id="ytick_47">
     <g id="line2d_101">
      <g>
       <use style="stroke:#000000;stroke-width:0.6;" x="281.314286" xlink:href="#m7c124d8442" y="106.769112"/>
      </g>
     </g>
    </g>
    <g id="ytick_48">
     <g id="line2d_102">
      <g>
       <use style="stroke:#000000;stroke-width:0.6;" x="281.314286" xlink:href="#m7c124d8442" y="98.369798"/>
      </g>
     </g>
    </g>
   </g>
   <g id="line2d_103">
    <path clip-path="url(#p72a1357996)" d="M 284.937662 215.914462 
L 298.648546 204.563548 
L 306.668898 194.0582 
L 312.359429 182.062438 
L 316.773347 161.473479 
L 320.379781 148.725585 
L 323.428978 136.614175 
L 326.070312 127.849766 
L 328.400134 112.677907 
L 330.48423 101.43407 
L 332.369525 99.60161 
L 334.090664 105.03209 
L 335.673959 114.494377 
L 337.139861 112.048821 
L 338.504583 104.52093 
L 339.781195 89.850866 
L 340.980388 85.392422 
L 342.111017 80.304371 
L 343.1805 84.325845 
L 344.195114 84.51288 
L 345.160213 84.758803 
L 346.080408 80.605109 
L 346.959692 77.543956 
L 347.801548 75.326391 
L 348.609032 72.877609 
L 349.384842 70.278496 
L 350.131369 72.559876 
L 350.850744 73.373921 
L 351.544872 73.720441 
L 352.215466 72.428559 
L 352.864069 73.017407 
L 353.492078 73.882 
L 354.100761 67.242755 
L 354.691271 59.510822 
L 355.264663 55.736245 
L 355.8219 59.02872 
L 356.363869 62.494679 
L 356.891383 63.714197 
L 357.405195 62.337079 
" style="fill:none;stroke:#1f77b4;stroke-linecap:square;stroke-width:1.5;"/>
   </g>
   <g id="line2d_104">
    <path clip-path="url(#p72a1357996)" d="M 284.937662 296.484584 
L 298.648546 297.32319 
L 306.668898 295.285251 
L 312.359429 293.304654 
L 316.773347 284.294411 
L 320.379781 281.621344 
L 323.428978 277.465575 
L 326.070312 278.329802 
L 328.400134 273.154245 
L 330.48423 270.746057 
L 332.369525 268.769582 
L 334.090664 267.298159 
L 335.673959 266.664868 
L 337.139861 267.1124 
L 338.504583 267.350496 
L 339.781195 267.532637 
L 340.980388 266.125484 
L 342.111017 264.518513 
L 343.1805 261.864164 
L 344.195114 260.279116 
L 345.160213 260.962389 
L 346.080408 260.727351 
L 346.959692 258.167163 
L 347.801548 255.301835 
L 348.609032 252.639204 
L 349.384842 252.737626 
L 350.131369 254.650089 
L 350.850744 255.995692 
L 351.544872 253.931488 
L 352.215466 253.163275 
L 352.864069 253.185548 
L 353.492078 254.702472 
L 354.100761 253.190367 
L 354.691271 253.903717 
L 355.264663 254.851902 
L 355.8219 254.006983 
L 356.363869 251.295168 
L 356.891383 250.227479 
L 357.405195 251.377127 
" style="fill:none;stroke:#ff7f0e;stroke-linecap:square;stroke-width:1.5;"/>
   </g>
   <g id="line2d_105">
    <path clip-path="url(#p72a1357996)" d="M 284.937662 273.854249 
L 298.648546 270.761867 
L 306.668898 263.615788 
L 312.359429 242.398395 
L 316.773347 231.845913 
L 320.379781 218.555061 
L 323.428978 229.294526 
L 326.070312 212.614965 
L 328.400134 199.073352 
L 330.48423 181.393651 
L 332.369525 173.479151 
L 334.090664 173.312021 
L 335.673959 173.198899 
L 337.139861 170.585475 
L 338.504583 149.26254 
L 339.781195 146.006761 
L 340.980388 146.249891 
L 342.111017 159.543876 
L 343.1805 153.399752 
L 344.195114 159.650062 
L 345.160213 168.199155 
L 346.080408 173.950735 
L 346.959692 156.199337 
L 347.801548 150.685277 
L 348.609032 159.062497 
L 349.384842 180.727826 
L 350.131369 187.127985 
L 350.850744 176.374647 
L 351.544872 171.720084 
L 352.215466 172.645946 
L 352.864069 180.142945 
L 353.492078 179.281803 
L 354.100761 172.972852 
L 354.691271 162.30904 
L 355.264663 144.461016 
L 355.8219 144.958996 
L 356.363869 148.340954 
L 356.891383 166.935672 
L 357.405195 169.809826 
" style="fill:none;stroke:#2ca02c;stroke-linecap:square;stroke-width:1.5;"/>
   </g>
   <g id="patch_13">
    <path d="M 281.314286 320.4 
L 281.314286 43.2 
" style="fill:none;stroke:#000000;stroke-linecap:square;stroke-linejoin:miter;stroke-width:0.8;"/>
   </g>
   <g id="patch_14">
    <path d="M 361.028571 320.4 
L 361.028571 43.2 
" style="fill:none;stroke:#000000;stroke-linecap:square;stroke-linejoin:miter;stroke-width:0.8;"/>
   </g>
   <g id="patch_15">
    <path d="M 281.314286 320.4 
L 361.028571 320.4 
" style="fill:none;stroke:#000000;stroke-linecap:square;stroke-linejoin:miter;stroke-width:0.8;"/>
   </g>
   <g id="patch_16">
    <path d="M 281.314286 43.2 
L 361.028571 43.2 
" style="fill:none;stroke:#000000;stroke-linecap:square;stroke-linejoin:miter;stroke-width:0.8;"/>
   </g>
  </g>
  <g id="axes_4">
   <g id="patch_17">
    <path d="M 376.971429 320.4 
L 456.685714 320.4 
L 456.685714 43.2 
L 376.971429 43.2 
z
" style="fill:#ffffff;"/>
   </g>
   <g id="matplotlib.axis_7">
    <g id="xtick_49">
     <g id="line2d_106">
      <g>
       <use style="stroke:#000000;stroke-width:0.8;" x="394.305688" xlink:href="#ma2f8c12c64" y="320.4"/>
      </g>
     </g>
     <g id="text_10">
      <!-- $\mathdefault{10^{5}}$ -->
      <g transform="translate(382.865688 337.277969)scale(0.13 -0.13)">
       <use transform="translate(0 0.684375)" xlink:href="#DejaVuSans-49"/>
       <use transform="translate(63.623047 0.684375)" xlink:href="#DejaVuSans-48"/>
       <use transform="translate(128.203125 38.965625)scale(0.7)" xlink:href="#DejaVuSans-53"/>
      </g>
     </g>
    </g>
    <g id="xtick_50">
     <g id="line2d_107">
      <g>
       <use style="stroke:#000000;stroke-width:0.8;" x="439.852256" xlink:href="#ma2f8c12c64" y="320.4"/>
      </g>
     </g>
     <g id="text_11">
      <!-- $\mathdefault{10^{6}}$ -->
      <g transform="translate(428.412256 337.277969)scale(0.13 -0.13)">
       <use transform="translate(0 0.765625)" xlink:href="#DejaVuSans-49"/>
       <use transform="translate(63.623047 0.765625)" xlink:href="#DejaVuSans-48"/>
       <use transform="translate(128.203125 39.046875)scale(0.7)" xlink:href="#DejaVuSans-54"/>
      </g>
     </g>
    </g>
    <g id="xtick_51">
     <g id="line2d_108">
      <g>
       <use style="stroke:#000000;stroke-width:0.6;" x="380.594805" xlink:href="#m16313ebec9" y="320.4"/>
      </g>
     </g>
    </g>
    <g id="xtick_52">
     <g id="line2d_109">
      <g>
       <use style="stroke:#000000;stroke-width:0.6;" x="384.201239" xlink:href="#m16313ebec9" y="320.4"/>
      </g>
     </g>
    </g>
    <g id="xtick_53">
     <g id="line2d_110">
      <g>
       <use style="stroke:#000000;stroke-width:0.6;" x="387.250436" xlink:href="#m16313ebec9" y="320.4"/>
      </g>
     </g>
    </g>
    <g id="xtick_54">
     <g id="line2d_111">
      <g>
       <use style="stroke:#000000;stroke-width:0.6;" x="389.89177" xlink:href="#m16313ebec9" y="320.4"/>
      </g>
     </g>
    </g>
    <g id="xtick_55">
     <g id="line2d_112">
      <g>
       <use style="stroke:#000000;stroke-width:0.6;" x="392.221592" xlink:href="#m16313ebec9" y="320.4"/>
      </g>
     </g>
    </g>
    <g id="xtick_56">
     <g id="line2d_113">
      <g>
       <use style="stroke:#000000;stroke-width:0.6;" x="408.016572" xlink:href="#m16313ebec9" y="320.4"/>
      </g>
     </g>
    </g>
    <g id="xtick_57">
     <g id="line2d_114">
      <g>
       <use style="stroke:#000000;stroke-width:0.6;" x="416.036924" xlink:href="#m16313ebec9" y="320.4"/>
      </g>
     </g>
    </g>
    <g id="xtick_58">
     <g id="line2d_115">
      <g>
       <use style="stroke:#000000;stroke-width:0.6;" x="421.727455" xlink:href="#m16313ebec9" y="320.4"/>
      </g>
     </g>
    </g>
    <g id="xtick_59">
     <g id="line2d_116">
      <g>
       <use style="stroke:#000000;stroke-width:0.6;" x="426.141373" xlink:href="#m16313ebec9" y="320.4"/>
      </g>
     </g>
    </g>
    <g id="xtick_60">
     <g id="line2d_117">
      <g>
       <use style="stroke:#000000;stroke-width:0.6;" x="429.747807" xlink:href="#m16313ebec9" y="320.4"/>
      </g>
     </g>
    </g>
    <g id="xtick_61">
     <g id="line2d_118">
      <g>
       <use style="stroke:#000000;stroke-width:0.6;" x="432.797004" xlink:href="#m16313ebec9" y="320.4"/>
      </g>
     </g>
    </g>
    <g id="xtick_62">
     <g id="line2d_119">
      <g>
       <use style="stroke:#000000;stroke-width:0.6;" x="435.438338" xlink:href="#m16313ebec9" y="320.4"/>
      </g>
     </g>
    </g>
    <g id="xtick_63">
     <g id="line2d_120">
      <g>
       <use style="stroke:#000000;stroke-width:0.6;" x="437.76816" xlink:href="#m16313ebec9" y="320.4"/>
      </g>
     </g>
    </g>
    <g id="xtick_64">
     <g id="line2d_121">
      <g>
       <use style="stroke:#000000;stroke-width:0.6;" x="453.56314" xlink:href="#m16313ebec9" y="320.4"/>
      </g>
     </g>
    </g>
    <g id="text_12">
     <!-- Time Step -->
     <g transform="translate(384.058415 353.859531)scale(0.13 -0.13)">
      <defs>
       <path d="M -0.296875 72.90625 
L 61.375 72.90625 
L 61.375 64.59375 
L 35.5 64.59375 
L 35.5 0 
L 25.59375 0 
L 25.59375 64.59375 
L -0.296875 64.59375 
z
" id="DejaVuSans-84"/>
      </defs>
      <use xlink:href="#DejaVuSans-84"/>
      <use x="57.958984" xlink:href="#DejaVuSans-105"/>
      <use x="85.742188" xlink:href="#DejaVuSans-109"/>
      <use x="183.154297" xlink:href="#DejaVuSans-101"/>
      <use x="244.677734" xlink:href="#DejaVuSans-32"/>
      <use x="276.464844" xlink:href="#DejaVuSans-83"/>
      <use x="339.941406" xlink:href="#DejaVuSans-116"/>
      <use x="379.150391" xlink:href="#DejaVuSans-101"/>
      <use x="440.673828" xlink:href="#DejaVuSans-112"/>
     </g>
    </g>
   </g>
   <g id="matplotlib.axis_8">
    <g id="ytick_49">
     <g id="line2d_122">
      <g>
       <use style="stroke:#000000;stroke-width:0.8;" x="376.971429" xlink:href="#m15ef3ee49e" y="255.057711"/>
      </g>
     </g>
    </g>
    <g id="ytick_50">
     <g id="line2d_123">
      <g>
       <use style="stroke:#000000;stroke-width:0.8;" x="376.971429" xlink:href="#m15ef3ee49e" y="90.856356"/>
      </g>
     </g>
    </g>
    <g id="ytick_51">
     <g id="line2d_124">
      <g>
       <use style="stroke:#000000;stroke-width:0.6;" x="376.971429" xlink:href="#m7c124d8442" y="320.4"/>
      </g>
     </g>
    </g>
    <g id="ytick_52">
     <g id="line2d_125">
      <g>
       <use style="stroke:#000000;stroke-width:0.6;" x="376.971429" xlink:href="#m7c124d8442" y="304.487245"/>
      </g>
     </g>
    </g>
    <g id="ytick_53">
     <g id="line2d_126">
      <g>
       <use style="stroke:#000000;stroke-width:0.6;" x="376.971429" xlink:href="#m7c124d8442" y="291.485577"/>
      </g>
     </g>
    </g>
    <g id="ytick_54">
     <g id="line2d_127">
      <g>
       <use style="stroke:#000000;stroke-width:0.6;" x="376.971429" xlink:href="#m7c124d8442" y="280.492823"/>
      </g>
     </g>
    </g>
    <g id="ytick_55">
     <g id="line2d_128">
      <g>
       <use style="stroke:#000000;stroke-width:0.6;" x="376.971429" xlink:href="#m7c124d8442" y="270.970467"/>
      </g>
     </g>
    </g>
    <g id="ytick_56">
     <g id="line2d_129">
      <g>
       <use style="stroke:#000000;stroke-width:0.6;" x="376.971429" xlink:href="#m7c124d8442" y="262.571153"/>
      </g>
     </g>
    </g>
    <g id="ytick_57">
     <g id="line2d_130">
      <g>
       <use style="stroke:#000000;stroke-width:0.6;" x="376.971429" xlink:href="#m7c124d8442" y="205.628178"/>
      </g>
     </g>
    </g>
    <g id="ytick_58">
     <g id="line2d_131">
      <g>
       <use style="stroke:#000000;stroke-width:0.6;" x="376.971429" xlink:href="#m7c124d8442" y="176.713755"/>
      </g>
     </g>
    </g>
    <g id="ytick_59">
     <g id="line2d_132">
      <g>
       <use style="stroke:#000000;stroke-width:0.6;" x="376.971429" xlink:href="#m7c124d8442" y="156.198645"/>
      </g>
     </g>
    </g>
    <g id="ytick_60">
     <g id="line2d_133">
      <g>
       <use style="stroke:#000000;stroke-width:0.6;" x="376.971429" xlink:href="#m7c124d8442" y="140.285889"/>
      </g>
     </g>
    </g>
    <g id="ytick_61">
     <g id="line2d_134">
      <g>
       <use style="stroke:#000000;stroke-width:0.6;" x="376.971429" xlink:href="#m7c124d8442" y="127.284221"/>
      </g>
     </g>
    </g>
    <g id="ytick_62">
     <g id="line2d_135">
      <g>
       <use style="stroke:#000000;stroke-width:0.6;" x="376.971429" xlink:href="#m7c124d8442" y="116.291468"/>
      </g>
     </g>
    </g>
    <g id="ytick_63">
     <g id="line2d_136">
      <g>
       <use style="stroke:#000000;stroke-width:0.6;" x="376.971429" xlink:href="#m7c124d8442" y="106.769112"/>
      </g>
     </g>
    </g>
    <g id="ytick_64">
     <g id="line2d_137">
      <g>
       <use style="stroke:#000000;stroke-width:0.6;" x="376.971429" xlink:href="#m7c124d8442" y="98.369798"/>
      </g>
     </g>
    </g>
   </g>
   <g id="line2d_138">
    <path clip-path="url(#p7870370a4c)" d="M 380.594805 212.068569 
L 394.305688 201.12272 
L 402.326041 188.932045 
L 408.016572 167.335666 
L 412.43049 148.540597 
L 416.036924 133.248779 
L 419.086121 122.48804 
L 421.727455 114.665545 
L 424.057277 106.697919 
L 426.141373 100.105054 
L 428.026668 101.813001 
L 429.747807 100.124287 
L 431.331102 95.398407 
L 432.797004 84.671913 
L 434.161726 82.157352 
L 435.438338 79.490796 
L 436.637531 79.650442 
L 437.76816 74.454546 
L 438.837643 75.846382 
L 439.852256 74.987131 
L 440.817356 78.405005 
L 441.737551 79.155039 
L 442.616835 79.389356 
L 443.458691 77.202705 
L 444.266175 74.481358 
L 445.041985 70.592533 
L 445.788512 68.894849 
L 446.507887 69.203497 
L 447.202015 70.21793 
L 447.872609 69.631113 
L 448.521212 71.922977 
L 449.149221 73.39778 
L 449.757904 76.292035 
L 450.348414 71.521182 
L 450.921806 71.2562 
L 451.479043 68.845984 
L 452.021012 71.026954 
L 452.548526 70.096535 
L 453.062338 70.086881 
" style="fill:none;stroke:#1f77b4;stroke-linecap:square;stroke-width:1.5;"/>
   </g>
   <g id="line2d_139">
    <path clip-path="url(#p7870370a4c)" d="M 380.594805 304.95354 
L 394.305688 303.28165 
L 402.326041 299.597158 
L 408.016572 293.237014 
L 412.43049 286.505128 
L 416.036924 283.103742 
L 419.086121 278.147321 
L 421.727455 278.480049 
L 424.057277 277.440896 
L 426.141373 276.51747 
L 428.026668 276.031701 
L 429.747807 272.609501 
L 431.331102 271.213488 
L 432.797004 264.152322 
L 434.161726 264.581728 
L 435.438338 261.935628 
L 436.637531 262.447476 
L 437.76816 260.576122 
L 438.837643 260.878983 
L 439.852256 259.935843 
L 440.817356 261.351962 
L 441.737551 260.224951 
L 442.616835 263.028863 
L 443.458691 259.423261 
L 444.266175 258.029692 
L 445.041985 255.456538 
L 445.788512 254.509571 
L 446.507887 255.855026 
L 447.202015 255.809137 
L 447.872609 253.724544 
L 448.521212 250.164848 
L 449.149221 249.638612 
L 449.757904 253.430104 
L 450.348414 255.589008 
L 450.921806 254.54396 
L 451.479043 251.623291 
L 452.021012 248.462636 
L 452.548526 249.354034 
L 453.062338 250.149428 
" style="fill:none;stroke:#ff7f0e;stroke-linecap:square;stroke-width:1.5;"/>
   </g>
   <g id="line2d_140">
    <path clip-path="url(#p7870370a4c)" d="M 380.594805 285.872391 
L 394.305688 270.001371 
L 402.326041 246.327633 
L 408.016572 206.022588 
L 412.43049 185.163277 
L 416.036924 172.728988 
L 419.086121 186.835735 
L 421.727455 180.445017 
L 424.057277 178.740451 
L 426.141373 161.204179 
L 428.026668 164.559623 
L 429.747807 177.739546 
L 431.331102 193.684342 
L 432.797004 206.529526 
L 434.161726 170.789072 
L 435.438338 164.737978 
L 436.637531 161.945978 
L 437.76816 181.256143 
L 438.837643 172.161931 
L 439.852256 177.043703 
L 440.817356 185.561259 
L 441.737551 221.013666 
L 442.616835 210.613805 
L 443.458691 211.558996 
L 444.266175 206.702927 
L 445.041985 224.700289 
L 445.788512 227.086283 
L 446.507887 226.097001 
L 447.202015 225.779226 
L 447.872609 224.687702 
L 448.521212 213.870049 
L 449.149221 203.166632 
L 449.757904 190.820837 
L 450.348414 191.579685 
L 450.921806 178.434412 
L 451.479043 170.391034 
L 452.021012 165.009972 
L 452.548526 172.574117 
L 453.062338 181.180379 
" style="fill:none;stroke:#2ca02c;stroke-linecap:square;stroke-width:1.5;"/>
   </g>
   <g id="patch_18">
    <path d="M 376.971429 320.4 
L 376.971429 43.2 
" style="fill:none;stroke:#000000;stroke-linecap:square;stroke-linejoin:miter;stroke-width:0.8;"/>
   </g>
   <g id="patch_19">
    <path d="M 456.685714 320.4 
L 456.685714 43.2 
" style="fill:none;stroke:#000000;stroke-linecap:square;stroke-linejoin:miter;stroke-width:0.8;"/>
   </g>
   <g id="patch_20">
    <path d="M 376.971429 320.4 
L 456.685714 320.4 
" style="fill:none;stroke:#000000;stroke-linecap:square;stroke-linejoin:miter;stroke-width:0.8;"/>
   </g>
   <g id="patch_21">
    <path d="M 376.971429 43.2 
L 456.685714 43.2 
" style="fill:none;stroke:#000000;stroke-linecap:square;stroke-linejoin:miter;stroke-width:0.8;"/>
   </g>
  </g>
  <g id="axes_5">
   <g id="patch_22">
    <path d="M 472.628571 320.4 
L 552.342857 320.4 
L 552.342857 43.2 
L 472.628571 43.2 
z
" style="fill:#ffffff;"/>
   </g>
   <g id="matplotlib.axis_9">
    <g id="xtick_65">
     <g id="line2d_141">
      <g>
       <use style="stroke:#000000;stroke-width:0.8;" x="489.962831" xlink:href="#ma2f8c12c64" y="320.4"/>
      </g>
     </g>
     <g id="text_13">
      <!-- $\mathdefault{10^{5}}$ -->
      <g transform="translate(478.522831 337.277969)scale(0.13 -0.13)">
       <use transform="translate(0 0.684375)" xlink:href="#DejaVuSans-49"/>
       <use transform="translate(63.623047 0.684375)" xlink:href="#DejaVuSans-48"/>
       <use transform="translate(128.203125 38.965625)scale(0.7)" xlink:href="#DejaVuSans-53"/>
      </g>
     </g>
    </g>
    <g id="xtick_66">
     <g id="line2d_142">
      <g>
       <use style="stroke:#000000;stroke-width:0.8;" x="535.509399" xlink:href="#ma2f8c12c64" y="320.4"/>
      </g>
     </g>
     <g id="text_14">
      <!-- $\mathdefault{10^{6}}$ -->
      <g transform="translate(524.069399 337.277969)scale(0.13 -0.13)">
       <use transform="translate(0 0.765625)" xlink:href="#DejaVuSans-49"/>
       <use transform="translate(63.623047 0.765625)" xlink:href="#DejaVuSans-48"/>
       <use transform="translate(128.203125 39.046875)scale(0.7)" xlink:href="#DejaVuSans-54"/>
      </g>
     </g>
    </g>
    <g id="xtick_67">
     <g id="line2d_143">
      <g>
       <use style="stroke:#000000;stroke-width:0.6;" x="476.251948" xlink:href="#m16313ebec9" y="320.4"/>
      </g>
     </g>
    </g>
    <g id="xtick_68">
     <g id="line2d_144">
      <g>
       <use style="stroke:#000000;stroke-width:0.6;" x="479.858382" xlink:href="#m16313ebec9" y="320.4"/>
      </g>
     </g>
    </g>
    <g id="xtick_69">
     <g id="line2d_145">
      <g>
       <use style="stroke:#000000;stroke-width:0.6;" x="482.907579" xlink:href="#m16313ebec9" y="320.4"/>
      </g>
     </g>
    </g>
    <g id="xtick_70">
     <g id="line2d_146">
      <g>
       <use style="stroke:#000000;stroke-width:0.6;" x="485.548913" xlink:href="#m16313ebec9" y="320.4"/>
      </g>
     </g>
    </g>
    <g id="xtick_71">
     <g id="line2d_147">
      <g>
       <use style="stroke:#000000;stroke-width:0.6;" x="487.878735" xlink:href="#m16313ebec9" y="320.4"/>
      </g>
     </g>
    </g>
    <g id="xtick_72">
     <g id="line2d_148">
      <g>
       <use style="stroke:#000000;stroke-width:0.6;" x="503.673714" xlink:href="#m16313ebec9" y="320.4"/>
      </g>
     </g>
    </g>
    <g id="xtick_73">
     <g id="line2d_149">
      <g>
       <use style="stroke:#000000;stroke-width:0.6;" x="511.694067" xlink:href="#m16313ebec9" y="320.4"/>
      </g>
     </g>
    </g>
    <g id="xtick_74">
     <g id="line2d_150">
      <g>
       <use style="stroke:#000000;stroke-width:0.6;" x="517.384598" xlink:href="#m16313ebec9" y="320.4"/>
      </g>
     </g>
    </g>
    <g id="xtick_75">
     <g id="line2d_151">
      <g>
       <use style="stroke:#000000;stroke-width:0.6;" x="521.798516" xlink:href="#m16313ebec9" y="320.4"/>
      </g>
     </g>
    </g>
    <g id="xtick_76">
     <g id="line2d_152">
      <g>
       <use style="stroke:#000000;stroke-width:0.6;" x="525.40495" xlink:href="#m16313ebec9" y="320.4"/>
      </g>
     </g>
    </g>
    <g id="xtick_77">
     <g id="line2d_153">
      <g>
       <use style="stroke:#000000;stroke-width:0.6;" x="528.454147" xlink:href="#m16313ebec9" y="320.4"/>
      </g>
     </g>
    </g>
    <g id="xtick_78">
     <g id="line2d_154">
      <g>
       <use style="stroke:#000000;stroke-width:0.6;" x="531.095481" xlink:href="#m16313ebec9" y="320.4"/>
      </g>
     </g>
    </g>
    <g id="xtick_79">
     <g id="line2d_155">
      <g>
       <use style="stroke:#000000;stroke-width:0.6;" x="533.425303" xlink:href="#m16313ebec9" y="320.4"/>
      </g>
     </g>
    </g>
    <g id="xtick_80">
     <g id="line2d_156">
      <g>
       <use style="stroke:#000000;stroke-width:0.6;" x="549.220283" xlink:href="#m16313ebec9" y="320.4"/>
      </g>
     </g>
    </g>
   </g>
   <g id="matplotlib.axis_10">
    <g id="ytick_65">
     <g id="line2d_157">
      <g>
       <use style="stroke:#000000;stroke-width:0.8;" x="472.628571" xlink:href="#m15ef3ee49e" y="255.057711"/>
      </g>
     </g>
    </g>
    <g id="ytick_66">
     <g id="line2d_158">
      <g>
       <use style="stroke:#000000;stroke-width:0.8;" x="472.628571" xlink:href="#m15ef3ee49e" y="90.856356"/>
      </g>
     </g>
    </g>
    <g id="ytick_67">
     <g id="line2d_159">
      <g>
       <use style="stroke:#000000;stroke-width:0.6;" x="472.628571" xlink:href="#m7c124d8442" y="320.4"/>
      </g>
     </g>
    </g>
    <g id="ytick_68">
     <g id="line2d_160">
      <g>
       <use style="stroke:#000000;stroke-width:0.6;" x="472.628571" xlink:href="#m7c124d8442" y="304.487245"/>
      </g>
     </g>
    </g>
    <g id="ytick_69">
     <g id="line2d_161">
      <g>
       <use style="stroke:#000000;stroke-width:0.6;" x="472.628571" xlink:href="#m7c124d8442" y="291.485577"/>
      </g>
     </g>
    </g>
    <g id="ytick_70">
     <g id="line2d_162">
      <g>
       <use style="stroke:#000000;stroke-width:0.6;" x="472.628571" xlink:href="#m7c124d8442" y="280.492823"/>
      </g>
     </g>
    </g>
    <g id="ytick_71">
     <g id="line2d_163">
      <g>
       <use style="stroke:#000000;stroke-width:0.6;" x="472.628571" xlink:href="#m7c124d8442" y="270.970467"/>
      </g>
     </g>
    </g>
    <g id="ytick_72">
     <g id="line2d_164">
      <g>
       <use style="stroke:#000000;stroke-width:0.6;" x="472.628571" xlink:href="#m7c124d8442" y="262.571153"/>
      </g>
     </g>
    </g>
    <g id="ytick_73">
     <g id="line2d_165">
      <g>
       <use style="stroke:#000000;stroke-width:0.6;" x="472.628571" xlink:href="#m7c124d8442" y="205.628178"/>
      </g>
     </g>
    </g>
    <g id="ytick_74">
     <g id="line2d_166">
      <g>
       <use style="stroke:#000000;stroke-width:0.6;" x="472.628571" xlink:href="#m7c124d8442" y="176.713755"/>
      </g>
     </g>
    </g>
    <g id="ytick_75">
     <g id="line2d_167">
      <g>
       <use style="stroke:#000000;stroke-width:0.6;" x="472.628571" xlink:href="#m7c124d8442" y="156.198645"/>
      </g>
     </g>
    </g>
    <g id="ytick_76">
     <g id="line2d_168">
      <g>
       <use style="stroke:#000000;stroke-width:0.6;" x="472.628571" xlink:href="#m7c124d8442" y="140.285889"/>
      </g>
     </g>
    </g>
    <g id="ytick_77">
     <g id="line2d_169">
      <g>
       <use style="stroke:#000000;stroke-width:0.6;" x="472.628571" xlink:href="#m7c124d8442" y="127.284221"/>
      </g>
     </g>
    </g>
    <g id="ytick_78">
     <g id="line2d_170">
      <g>
       <use style="stroke:#000000;stroke-width:0.6;" x="472.628571" xlink:href="#m7c124d8442" y="116.291468"/>
      </g>
     </g>
    </g>
    <g id="ytick_79">
     <g id="line2d_171">
      <g>
       <use style="stroke:#000000;stroke-width:0.6;" x="472.628571" xlink:href="#m7c124d8442" y="106.769112"/>
      </g>
     </g>
    </g>
    <g id="ytick_80">
     <g id="line2d_172">
      <g>
       <use style="stroke:#000000;stroke-width:0.6;" x="472.628571" xlink:href="#m7c124d8442" y="98.369798"/>
      </g>
     </g>
    </g>
   </g>
   <g id="line2d_173">
    <path clip-path="url(#p641c9741e4)" d="M 476.251948 200.79954 
L 489.962831 183.629928 
L 497.983184 167.314441 
L 503.673714 151.490215 
L 508.087633 136.726737 
L 511.694067 128.39687 
L 514.743263 118.893543 
L 517.384598 111.152501 
L 519.714419 101.291242 
L 521.798516 93.078117 
L 523.683811 95.020238 
L 525.40495 98.914726 
L 526.988245 101.926741 
L 528.454147 90.448291 
L 529.818869 82.460948 
L 531.095481 75.439518 
L 532.294674 75.286451 
L 533.425303 75.21769 
L 534.494786 77.508167 
L 535.509399 79.662225 
L 536.474499 77.433249 
L 537.394694 77.176888 
L 538.273978 75.550377 
L 539.115833 73.12853 
L 539.923318 71.810243 
L 540.699128 68.89364 
L 541.445655 70.185626 
L 542.16503 68.664191 
L 542.859158 70.246934 
L 543.529752 67.161102 
L 544.178355 66.990519 
L 544.806364 64.70781 
L 545.415047 63.280237 
L 546.005557 62.439564 
L 546.578948 62.555364 
L 547.136186 65.192958 
L 547.678155 64.953228 
L 548.205669 65.141778 
L 548.719481 64.682703 
" style="fill:none;stroke:#1f77b4;stroke-linecap:square;stroke-width:1.5;"/>
   </g>
   <g id="line2d_174">
    <path clip-path="url(#p641c9741e4)" d="M 476.251948 294.956675 
L 489.962831 293.198665 
L 497.983184 288.605693 
L 503.673714 280.277888 
L 508.087633 275.962484 
L 511.694067 274.078096 
L 514.743263 272.307209 
L 517.384598 269.933501 
L 519.714419 270.636541 
L 521.798516 267.537778 
L 523.683811 266.864281 
L 525.40495 264.256573 
L 526.988245 267.684389 
L 528.454147 267.976534 
L 529.818869 265.105565 
L 531.095481 261.114799 
L 532.294674 258.465082 
L 533.425303 259.540703 
L 534.494786 261.152866 
L 535.509399 261.223742 
L 536.474499 260.117249 
L 537.394694 254.727065 
L 538.273978 254.300068 
L 539.115833 253.56039 
L 539.923318 252.303095 
L 540.699128 251.070795 
L 541.445655 246.955329 
L 542.16503 249.079877 
L 542.859158 247.216894 
L 543.529752 249.258158 
L 544.178355 246.592899 
L 544.806364 243.26955 
L 545.415047 241.548902 
L 546.005557 243.220778 
L 546.578948 244.752859 
L 547.136186 244.225657 
L 547.678155 243.586977 
L 548.205669 245.120031 
L 548.719481 246.151944 
" style="fill:none;stroke:#ff7f0e;stroke-linecap:square;stroke-width:1.5;"/>
   </g>
   <g id="line2d_175">
    <path clip-path="url(#p641c9741e4)" d="M 476.251948 251.641339 
L 489.962831 245.355969 
L 497.983184 237.883662 
L 503.673714 209.30604 
L 508.087633 183.484597 
L 511.694067 177.807721 
L 514.743263 187.10843 
L 517.384598 197.699059 
L 519.714419 189.575239 
L 521.798516 172.454819 
L 523.683811 167.915169 
L 525.40495 164.473082 
L 526.988245 167.694331 
L 528.454147 171.742392 
L 529.818869 160.778618 
L 531.095481 163.375348 
L 532.294674 167.883197 
L 533.425303 185.210341 
L 534.494786 183.922296 
L 535.509399 173.916318 
L 536.474499 174.076743 
L 537.394694 169.13908 
L 538.273978 170.633596 
L 539.115833 167.537917 
L 539.923318 165.819015 
L 540.699128 164.109855 
L 541.445655 159.315463 
L 542.16503 158.458556 
L 542.859158 156.870021 
L 543.529752 163.191462 
L 544.178355 163.916127 
L 544.806364 161.103389 
L 545.415047 151.424809 
L 546.005557 150.823727 
L 546.578948 146.817383 
L 547.136186 143.590068 
L 547.678155 141.035949 
L 548.205669 139.414972 
L 548.719481 139.568307 
" style="fill:none;stroke:#2ca02c;stroke-linecap:square;stroke-width:1.5;"/>
   </g>
   <g id="patch_23">
    <path d="M 472.628571 320.4 
L 472.628571 43.2 
" style="fill:none;stroke:#000000;stroke-linecap:square;stroke-linejoin:miter;stroke-width:0.8;"/>
   </g>
   <g id="patch_24">
    <path d="M 552.342857 320.4 
L 552.342857 43.2 
" style="fill:none;stroke:#000000;stroke-linecap:square;stroke-linejoin:miter;stroke-width:0.8;"/>
   </g>
   <g id="patch_25">
    <path d="M 472.628571 320.4 
L 552.342857 320.4 
" style="fill:none;stroke:#000000;stroke-linecap:square;stroke-linejoin:miter;stroke-width:0.8;"/>
   </g>
   <g id="patch_26">
    <path d="M 472.628571 43.2 
L 552.342857 43.2 
" style="fill:none;stroke:#000000;stroke-linecap:square;stroke-linejoin:miter;stroke-width:0.8;"/>
   </g>
  </g>
  <g id="axes_6">
   <g id="patch_27">
    <path d="M 568.285714 320.4 
L 648 320.4 
L 648 43.2 
L 568.285714 43.2 
z
" style="fill:#ffffff;"/>
   </g>
   <g id="matplotlib.axis_11">
    <g id="xtick_81">
     <g id="line2d_176">
      <g>
       <use style="stroke:#000000;stroke-width:0.8;" x="585.619974" xlink:href="#ma2f8c12c64" y="320.4"/>
      </g>
     </g>
     <g id="text_15">
      <!-- $\mathdefault{10^{5}}$ -->
      <g transform="translate(574.179974 337.277969)scale(0.13 -0.13)">
       <use transform="translate(0 0.684375)" xlink:href="#DejaVuSans-49"/>
       <use transform="translate(63.623047 0.684375)" xlink:href="#DejaVuSans-48"/>
       <use transform="translate(128.203125 38.965625)scale(0.7)" xlink:href="#DejaVuSans-53"/>
      </g>
     </g>
    </g>
    <g id="xtick_82">
     <g id="line2d_177">
      <g>
       <use style="stroke:#000000;stroke-width:0.8;" x="631.166542" xlink:href="#ma2f8c12c64" y="320.4"/>
      </g>
     </g>
     <g id="text_16">
      <!-- $\mathdefault{10^{6}}$ -->
      <g transform="translate(619.726542 337.277969)scale(0.13 -0.13)">
       <use transform="translate(0 0.765625)" xlink:href="#DejaVuSans-49"/>
       <use transform="translate(63.623047 0.765625)" xlink:href="#DejaVuSans-48"/>
       <use transform="translate(128.203125 39.046875)scale(0.7)" xlink:href="#DejaVuSans-54"/>
      </g>
     </g>
    </g>
    <g id="xtick_83">
     <g id="line2d_178">
      <g>
       <use style="stroke:#000000;stroke-width:0.6;" x="571.909091" xlink:href="#m16313ebec9" y="320.4"/>
      </g>
     </g>
    </g>
    <g id="xtick_84">
     <g id="line2d_179">
      <g>
       <use style="stroke:#000000;stroke-width:0.6;" x="575.515525" xlink:href="#m16313ebec9" y="320.4"/>
      </g>
     </g>
    </g>
    <g id="xtick_85">
     <g id="line2d_180">
      <g>
       <use style="stroke:#000000;stroke-width:0.6;" x="578.564721" xlink:href="#m16313ebec9" y="320.4"/>
      </g>
     </g>
    </g>
    <g id="xtick_86">
     <g id="line2d_181">
      <g>
       <use style="stroke:#000000;stroke-width:0.6;" x="581.206056" xlink:href="#m16313ebec9" y="320.4"/>
      </g>
     </g>
    </g>
    <g id="xtick_87">
     <g id="line2d_182">
      <g>
       <use style="stroke:#000000;stroke-width:0.6;" x="583.535877" xlink:href="#m16313ebec9" y="320.4"/>
      </g>
     </g>
    </g>
    <g id="xtick_88">
     <g id="line2d_183">
      <g>
       <use style="stroke:#000000;stroke-width:0.6;" x="599.330857" xlink:href="#m16313ebec9" y="320.4"/>
      </g>
     </g>
    </g>
    <g id="xtick_89">
     <g id="line2d_184">
      <g>
       <use style="stroke:#000000;stroke-width:0.6;" x="607.35121" xlink:href="#m16313ebec9" y="320.4"/>
      </g>
     </g>
    </g>
    <g id="xtick_90">
     <g id="line2d_185">
      <g>
       <use style="stroke:#000000;stroke-width:0.6;" x="613.04174" xlink:href="#m16313ebec9" y="320.4"/>
      </g>
     </g>
    </g>
    <g id="xtick_91">
     <g id="line2d_186">
      <g>
       <use style="stroke:#000000;stroke-width:0.6;" x="617.455659" xlink:href="#m16313ebec9" y="320.4"/>
      </g>
     </g>
    </g>
    <g id="xtick_92">
     <g id="line2d_187">
      <g>
       <use style="stroke:#000000;stroke-width:0.6;" x="621.062093" xlink:href="#m16313ebec9" y="320.4"/>
      </g>
     </g>
    </g>
    <g id="xtick_93">
     <g id="line2d_188">
      <g>
       <use style="stroke:#000000;stroke-width:0.6;" x="624.11129" xlink:href="#m16313ebec9" y="320.4"/>
      </g>
     </g>
    </g>
    <g id="xtick_94">
     <g id="line2d_189">
      <g>
       <use style="stroke:#000000;stroke-width:0.6;" x="626.752624" xlink:href="#m16313ebec9" y="320.4"/>
      </g>
     </g>
    </g>
    <g id="xtick_95">
     <g id="line2d_190">
      <g>
       <use style="stroke:#000000;stroke-width:0.6;" x="629.082446" xlink:href="#m16313ebec9" y="320.4"/>
      </g>
     </g>
    </g>
    <g id="xtick_96">
     <g id="line2d_191">
      <g>
       <use style="stroke:#000000;stroke-width:0.6;" x="644.877425" xlink:href="#m16313ebec9" y="320.4"/>
      </g>
     </g>
    </g>
   </g>
   <g id="matplotlib.axis_12">
    <g id="ytick_81">
     <g id="line2d_192">
      <g>
       <use style="stroke:#000000;stroke-width:0.8;" x="568.285714" xlink:href="#m15ef3ee49e" y="255.057711"/>
      </g>
     </g>
    </g>
    <g id="ytick_82">
     <g id="line2d_193">
      <g>
       <use style="stroke:#000000;stroke-width:0.8;" x="568.285714" xlink:href="#m15ef3ee49e" y="90.856356"/>
      </g>
     </g>
    </g>
    <g id="ytick_83">
     <g id="line2d_194">
      <g>
       <use style="stroke:#000000;stroke-width:0.6;" x="568.285714" xlink:href="#m7c124d8442" y="320.4"/>
      </g>
     </g>
    </g>
    <g id="ytick_84">
     <g id="line2d_195">
      <g>
       <use style="stroke:#000000;stroke-width:0.6;" x="568.285714" xlink:href="#m7c124d8442" y="304.487245"/>
      </g>
     </g>
    </g>
    <g id="ytick_85">
     <g id="line2d_196">
      <g>
       <use style="stroke:#000000;stroke-width:0.6;" x="568.285714" xlink:href="#m7c124d8442" y="291.485577"/>
      </g>
     </g>
    </g>
    <g id="ytick_86">
     <g id="line2d_197">
      <g>
       <use style="stroke:#000000;stroke-width:0.6;" x="568.285714" xlink:href="#m7c124d8442" y="280.492823"/>
      </g>
     </g>
    </g>
    <g id="ytick_87">
     <g id="line2d_198">
      <g>
       <use style="stroke:#000000;stroke-width:0.6;" x="568.285714" xlink:href="#m7c124d8442" y="270.970467"/>
      </g>
     </g>
    </g>
    <g id="ytick_88">
     <g id="line2d_199">
      <g>
       <use style="stroke:#000000;stroke-width:0.6;" x="568.285714" xlink:href="#m7c124d8442" y="262.571153"/>
      </g>
     </g>
    </g>
    <g id="ytick_89">
     <g id="line2d_200">
      <g>
       <use style="stroke:#000000;stroke-width:0.6;" x="568.285714" xlink:href="#m7c124d8442" y="205.628178"/>
      </g>
     </g>
    </g>
    <g id="ytick_90">
     <g id="line2d_201">
      <g>
       <use style="stroke:#000000;stroke-width:0.6;" x="568.285714" xlink:href="#m7c124d8442" y="176.713755"/>
      </g>
     </g>
    </g>
    <g id="ytick_91">
     <g id="line2d_202">
      <g>
       <use style="stroke:#000000;stroke-width:0.6;" x="568.285714" xlink:href="#m7c124d8442" y="156.198645"/>
      </g>
     </g>
    </g>
    <g id="ytick_92">
     <g id="line2d_203">
      <g>
       <use style="stroke:#000000;stroke-width:0.6;" x="568.285714" xlink:href="#m7c124d8442" y="140.285889"/>
      </g>
     </g>
    </g>
    <g id="ytick_93">
     <g id="line2d_204">
      <g>
       <use style="stroke:#000000;stroke-width:0.6;" x="568.285714" xlink:href="#m7c124d8442" y="127.284221"/>
      </g>
     </g>
    </g>
    <g id="ytick_94">
     <g id="line2d_205">
      <g>
       <use style="stroke:#000000;stroke-width:0.6;" x="568.285714" xlink:href="#m7c124d8442" y="116.291468"/>
      </g>
     </g>
    </g>
    <g id="ytick_95">
     <g id="line2d_206">
      <g>
       <use style="stroke:#000000;stroke-width:0.6;" x="568.285714" xlink:href="#m7c124d8442" y="106.769112"/>
      </g>
     </g>
    </g>
    <g id="ytick_96">
     <g id="line2d_207">
      <g>
       <use style="stroke:#000000;stroke-width:0.6;" x="568.285714" xlink:href="#m7c124d8442" y="98.369798"/>
      </g>
     </g>
    </g>
   </g>
   <g id="line2d_208">
    <path clip-path="url(#p5fcca04dc1)" d="M 571.909091 219.449431 
L 585.619974 209.31376 
L 593.640327 195.565222 
L 599.330857 176.512691 
L 603.744776 158.749719 
L 607.35121 146.320381 
L 610.400406 139.625675 
L 613.04174 131.216858 
L 615.371562 117.975949 
L 617.455659 102.645067 
L 619.340954 94.659354 
L 621.062093 92.096073 
L 622.645388 91.609647 
L 624.11129 86.647768 
L 625.476012 81.63045 
L 626.752624 74.126113 
L 627.951816 72.674143 
L 629.082446 70.344849 
L 630.151929 77.402008 
L 631.166542 76.823478 
L 632.131642 77.941969 
L 633.051837 75.67682 
L 633.931121 78.729068 
L 634.772976 76.185805 
L 635.580461 76.06214 
L 636.356271 73.332914 
L 637.102798 78.529588 
L 637.822173 82.369519 
L 638.516301 88.559373 
L 639.186895 92.258129 
L 639.835498 93.227797 
L 640.463507 91.441381 
L 641.072189 86.448149 
L 641.6627 75.306676 
L 642.236091 69.096202 
L 642.793329 65.977887 
L 643.335298 68.192872 
L 643.862812 71.472411 
L 644.376623 73.665268 
" style="fill:none;stroke:#1f77b4;stroke-linecap:square;stroke-width:1.5;"/>
   </g>
   <g id="line2d_209">
    <path clip-path="url(#p5fcca04dc1)" d="M 571.909091 303.812589 
L 585.619974 300.020402 
L 593.640327 294.42448 
L 599.330857 286.925571 
L 603.744776 280.218481 
L 607.35121 274.98485 
L 610.400406 271.833911 
L 613.04174 271.743069 
L 615.371562 269.829433 
L 617.455659 267.15513 
L 619.340954 264.06255 
L 621.062093 261.953212 
L 622.645388 260.209166 
L 624.11129 260.304701 
L 625.476012 256.626868 
L 626.752624 255.469928 
L 627.951816 251.654822 
L 629.082446 253.243399 
L 630.151929 252.795439 
L 631.166542 248.266823 
L 632.131642 248.178262 
L 633.051837 243.854885 
L 633.931121 245.555795 
L 634.772976 240.806406 
L 635.580461 243.160201 
L 636.356271 241.752943 
L 637.102798 243.772294 
L 637.822173 244.039536 
L 638.516301 246.002295 
L 639.186895 244.175426 
L 639.835498 242.334409 
L 640.463507 239.955783 
L 641.072189 240.157867 
L 641.6627 239.135943 
L 642.236091 238.828384 
L 642.793329 236.394105 
L 643.335298 236.175547 
L 643.862812 234.72329 
L 644.376623 234.713178 
" style="fill:none;stroke:#ff7f0e;stroke-linecap:square;stroke-width:1.5;"/>
   </g>
   <g id="line2d_210">
    <path clip-path="url(#p5fcca04dc1)" d="M 571.909091 274.206778 
L 585.619974 259.768896 
L 593.640327 246.682539 
L 599.330857 215.365407 
L 603.744776 193.252826 
L 607.35121 191.215319 
L 610.400406 204.177841 
L 613.04174 214.776994 
L 615.371562 200.206034 
L 617.455659 183.193771 
L 619.340954 167.64073 
L 621.062093 160.376034 
L 622.645388 153.014068 
L 624.11129 158.046563 
L 625.476012 145.626896 
L 626.752624 148.835902 
L 627.951816 147.051769 
L 629.082446 152.683417 
L 630.151929 146.73497 
L 631.166542 147.025206 
L 632.131642 155.702157 
L 633.051837 164.852385 
L 633.931121 167.303099 
L 634.772976 170.122569 
L 635.580461 178.626172 
L 636.356271 192.234902 
L 637.102798 195.933193 
L 637.822173 180.868477 
L 638.516301 174.560665 
L 639.186895 172.849998 
L 639.835498 181.177654 
L 640.463507 173.87348 
L 641.072189 170.997924 
L 641.6627 170.899071 
L 642.236091 167.762823 
L 642.793329 158.071505 
L 643.335298 148.934133 
L 643.862812 145.585234 
L 644.376623 146.240231 
" style="fill:none;stroke:#2ca02c;stroke-linecap:square;stroke-width:1.5;"/>
   </g>
   <g id="patch_28">
    <path d="M 568.285714 320.4 
L 568.285714 43.2 
" style="fill:none;stroke:#000000;stroke-linecap:square;stroke-linejoin:miter;stroke-width:0.8;"/>
   </g>
   <g id="patch_29">
    <path d="M 648 320.4 
L 648 43.2 
" style="fill:none;stroke:#000000;stroke-linecap:square;stroke-linejoin:miter;stroke-width:0.8;"/>
   </g>
   <g id="patch_30">
    <path d="M 568.285714 320.4 
L 648 320.4 
" style="fill:none;stroke:#000000;stroke-linecap:square;stroke-linejoin:miter;stroke-width:0.8;"/>
   </g>
   <g id="patch_31">
    <path d="M 568.285714 43.2 
L 648 43.2 
" style="fill:none;stroke:#000000;stroke-linecap:square;stroke-linejoin:miter;stroke-width:0.8;"/>
   </g>
  </g>
  <g id="legend_1">
   <g id="patch_32">
    <path d="M 616.455 210.572344 
L 710.9 210.572344 
Q 713.5 210.572344 713.5 207.972344 
L 713.5 152.027656 
Q 713.5 149.427656 710.9 149.427656 
L 616.455 149.427656 
Q 613.855 149.427656 613.855 152.027656 
L 613.855 207.972344 
Q 613.855 210.572344 616.455 210.572344 
z
" style="fill:#ffffff;opacity:0.8;stroke:#cccccc;stroke-linejoin:miter;"/>
   </g>
   <g id="line2d_211">
    <path d="M 619.055 159.955625 
L 645.055 159.955625 
" style="fill:none;stroke:#1f77b4;stroke-linecap:square;stroke-width:1.5;"/>
   </g>
   <g id="line2d_212"/>
   <g id="text_17">
    <!-- Bisector -->
    <g transform="translate(655.455 164.505625)scale(0.13 -0.13)">
     <defs>
      <path d="M 19.671875 34.8125 
L 19.671875 8.109375 
L 35.5 8.109375 
Q 43.453125 8.109375 47.28125 11.40625 
Q 51.125 14.703125 51.125 21.484375 
Q 51.125 28.328125 47.28125 31.5625 
Q 43.453125 34.8125 35.5 34.8125 
z
M 19.671875 64.796875 
L 19.671875 42.828125 
L 34.28125 42.828125 
Q 41.5 42.828125 45.03125 45.53125 
Q 48.578125 48.25 48.578125 53.8125 
Q 48.578125 59.328125 45.03125 62.0625 
Q 41.5 64.796875 34.28125 64.796875 
z
M 9.8125 72.90625 
L 35.015625 72.90625 
Q 46.296875 72.90625 52.390625 68.21875 
Q 58.5 63.53125 58.5 54.890625 
Q 58.5 48.1875 55.375 44.234375 
Q 52.25 40.28125 46.1875 39.3125 
Q 53.46875 37.75 57.5 32.78125 
Q 61.53125 27.828125 61.53125 20.40625 
Q 61.53125 10.640625 54.890625 5.3125 
Q 48.25 0 35.984375 0 
L 9.8125 0 
z
" id="DejaVuSans-66"/>
      <path d="M 30.609375 48.390625 
Q 23.390625 48.390625 19.1875 42.75 
Q 14.984375 37.109375 14.984375 27.296875 
Q 14.984375 17.484375 19.15625 11.84375 
Q 23.34375 6.203125 30.609375 6.203125 
Q 37.796875 6.203125 41.984375 11.859375 
Q 46.1875 17.53125 46.1875 27.296875 
Q 46.1875 37.015625 41.984375 42.703125 
Q 37.796875 48.390625 30.609375 48.390625 
z
M 30.609375 56 
Q 42.328125 56 49.015625 48.375 
Q 55.71875 40.765625 55.71875 27.296875 
Q 55.71875 13.875 49.015625 6.21875 
Q 42.328125 -1.421875 30.609375 -1.421875 
Q 18.84375 -1.421875 12.171875 6.21875 
Q 5.515625 13.875 5.515625 27.296875 
Q 5.515625 40.765625 12.171875 48.375 
Q 18.84375 56 30.609375 56 
z
" id="DejaVuSans-111"/>
      <path d="M 41.109375 46.296875 
Q 39.59375 47.171875 37.8125 47.578125 
Q 36.03125 48 33.890625 48 
Q 26.265625 48 22.1875 43.046875 
Q 18.109375 38.09375 18.109375 28.8125 
L 18.109375 0 
L 9.078125 0 
L 9.078125 54.6875 
L 18.109375 54.6875 
L 18.109375 46.1875 
Q 20.953125 51.171875 25.484375 53.578125 
Q 30.03125 56 36.53125 56 
Q 37.453125 56 38.578125 55.875 
Q 39.703125 55.765625 41.0625 55.515625 
z
" id="DejaVuSans-114"/>
     </defs>
     <use xlink:href="#DejaVuSans-66"/>
     <use x="68.603516" xlink:href="#DejaVuSans-105"/>
     <use x="96.386719" xlink:href="#DejaVuSans-115"/>
     <use x="148.486328" xlink:href="#DejaVuSans-101"/>
     <use x="210.009766" xlink:href="#DejaVuSans-99"/>
     <use x="264.990234" xlink:href="#DejaVuSans-116"/>
     <use x="304.199219" xlink:href="#DejaVuSans-111"/>
     <use x="365.380859" xlink:href="#DejaVuSans-114"/>
    </g>
   </g>
   <g id="line2d_213">
    <path d="M 619.055 179.037187 
L 645.055 179.037187 
" style="fill:none;stroke:#ff7f0e;stroke-linecap:square;stroke-width:1.5;"/>
   </g>
   <g id="line2d_214"/>
   <g id="text_18">
    <!-- Director -->
    <g transform="translate(655.455 183.587187)scale(0.13 -0.13)">
     <use xlink:href="#DejaVuSans-68"/>
     <use x="77.001953" xlink:href="#DejaVuSans-105"/>
     <use x="104.785156" xlink:href="#DejaVuSans-114"/>
     <use x="143.648438" xlink:href="#DejaVuSans-101"/>
     <use x="205.171875" xlink:href="#DejaVuSans-99"/>
     <use x="260.152344" xlink:href="#DejaVuSans-116"/>
     <use x="299.361328" xlink:href="#DejaVuSans-111"/>
     <use x="360.542969" xlink:href="#DejaVuSans-114"/>
    </g>
   </g>
   <g id="line2d_215">
    <path d="M 619.055 198.11875 
L 645.055 198.11875 
" style="fill:none;stroke:#2ca02c;stroke-linecap:square;stroke-width:1.5;"/>
   </g>
   <g id="line2d_216"/>
   <g id="text_19">
    <!-- Normal -->
    <g transform="translate(655.455 202.66875)scale(0.13 -0.13)">
     <defs>
      <path d="M 9.8125 72.90625 
L 23.09375 72.90625 
L 55.421875 11.921875 
L 55.421875 72.90625 
L 64.984375 72.90625 
L 64.984375 0 
L 51.703125 0 
L 19.390625 60.984375 
L 19.390625 0 
L 9.8125 0 
z
" id="DejaVuSans-78"/>
     </defs>
     <use xlink:href="#DejaVuSans-78"/>
     <use x="74.804688" xlink:href="#DejaVuSans-111"/>
     <use x="135.986328" xlink:href="#DejaVuSans-114"/>
     <use x="175.349609" xlink:href="#DejaVuSans-109"/>
     <use x="272.761719" xlink:href="#DejaVuSans-97"/>
     <use x="334.041016" xlink:href="#DejaVuSans-108"/>
    </g>
   </g>
  </g>
 </g>
 <defs>
  <clipPath id="p31e1009e1d">
   <rect height="277.2" width="79.714286" x="90" y="43.2"/>
  </clipPath>
  <clipPath id="p19ef33857c">
   <rect height="277.2" width="79.714286" x="185.657143" y="43.2"/>
  </clipPath>
  <clipPath id="p72a1357996">
   <rect height="277.2" width="79.714286" x="281.314286" y="43.2"/>
  </clipPath>
  <clipPath id="p7870370a4c">
   <rect height="277.2" width="79.714286" x="376.971429" y="43.2"/>
  </clipPath>
  <clipPath id="p641c9741e4">
   <rect height="277.2" width="79.714286" x="472.628571" y="43.2"/>
  </clipPath>
  <clipPath id="p5fcca04dc1">
   <rect height="277.2" width="79.714286" x="568.285714" y="43.2"/>
  </clipPath>
 </defs>
</svg>
