<?xml version="1.0" encoding="utf-8" standalone="no"?>
<!DOCTYPE svg PUBLIC "-//W3C//DTD SVG 1.1//EN"
  "http://www.w3.org/Graphics/SVG/1.1/DTD/svg11.dtd">
<!-- Created with matplotlib (https://matplotlib.org/) -->
<svg height="360pt" version="1.1" viewBox="0 0 720 360" width="720pt" xmlns="http://www.w3.org/2000/svg" xmlns:xlink="http://www.w3.org/1999/xlink">
 <metadata>
  <rdf:RDF xmlns:cc="http://creativecommons.org/ns#" xmlns:dc="http://purl.org/dc/elements/1.1/" xmlns:rdf="http://www.w3.org/1999/02/22-rdf-syntax-ns#">
   <cc:Work>
    <dc:type rdf:resource="http://purl.org/dc/dcmitype/StillImage"/>
    <dc:date>2021-08-10T23:34:58.703081</dc:date>
    <dc:format>image/svg+xml</dc:format>
    <dc:creator>
     <cc:Agent>
      <dc:title>Matplotlib v3.3.3, https://matplotlib.org/</dc:title>
     </cc:Agent>
    </dc:creator>
   </cc:Work>
  </rdf:RDF>
 </metadata>
 <defs>
  <style type="text/css">*{stroke-linecap:butt;stroke-linejoin:round;}</style>
 </defs>
 <g id="figure_1">
  <g id="patch_1">
   <path d="M 0 360 
L 720 360 
L 720 0 
L 0 0 
z
" style="fill:#ffffff;"/>
  </g>
  <g id="axes_1">
   <g id="patch_2">
    <path d="M 90 320.4 
L 211.304348 320.4 
L 211.304348 43.2 
L 90 43.2 
z
" style="fill:#ffffff;"/>
   </g>
   <g id="matplotlib.axis_1">
    <g id="xtick_1">
     <g id="line2d_1">
      <defs>
       <path d="M 0 0 
L 0 3.5 
" id="me6e55fed98" style="stroke:#000000;stroke-width:0.8;"/>
      </defs>
      <g>
       <use style="stroke:#000000;stroke-width:0.8;" x="116.378221" xlink:href="#me6e55fed98" y="320.4"/>
      </g>
     </g>
     <g id="text_1">
      <!-- $\mathdefault{10^{5}}$ -->
      <g transform="translate(104.938221 337.277969)scale(0.13 -0.13)">
       <defs>
        <path d="M 12.40625 8.296875 
L 28.515625 8.296875 
L 28.515625 63.921875 
L 10.984375 60.40625 
L 10.984375 69.390625 
L 28.421875 72.90625 
L 38.28125 72.90625 
L 38.28125 8.296875 
L 54.390625 8.296875 
L 54.390625 0 
L 12.40625 0 
z
" id="DejaVuSans-49"/>
        <path d="M 31.78125 66.40625 
Q 24.171875 66.40625 20.328125 58.90625 
Q 16.5 51.421875 16.5 36.375 
Q 16.5 21.390625 20.328125 13.890625 
Q 24.171875 6.390625 31.78125 6.390625 
Q 39.453125 6.390625 43.28125 13.890625 
Q 47.125 21.390625 47.125 36.375 
Q 47.125 51.421875 43.28125 58.90625 
Q 39.453125 66.40625 31.78125 66.40625 
z
M 31.78125 74.21875 
Q 44.046875 74.21875 50.515625 64.515625 
Q 56.984375 54.828125 56.984375 36.375 
Q 56.984375 17.96875 50.515625 8.265625 
Q 44.046875 -1.421875 31.78125 -1.421875 
Q 19.53125 -1.421875 13.0625 8.265625 
Q 6.59375 17.96875 6.59375 36.375 
Q 6.59375 54.828125 13.0625 64.515625 
Q 19.53125 74.21875 31.78125 74.21875 
z
" id="DejaVuSans-48"/>
        <path d="M 10.796875 72.90625 
L 49.515625 72.90625 
L 49.515625 64.59375 
L 19.828125 64.59375 
L 19.828125 46.734375 
Q 21.96875 47.46875 24.109375 47.828125 
Q 26.265625 48.1875 28.421875 48.1875 
Q 40.625 48.1875 47.75 41.5 
Q 54.890625 34.8125 54.890625 23.390625 
Q 54.890625 11.625 47.5625 5.09375 
Q 40.234375 -1.421875 26.90625 -1.421875 
Q 22.3125 -1.421875 17.546875 -0.640625 
Q 12.796875 0.140625 7.71875 1.703125 
L 7.71875 11.625 
Q 12.109375 9.234375 16.796875 8.0625 
Q 21.484375 6.890625 26.703125 6.890625 
Q 35.15625 6.890625 40.078125 11.328125 
Q 45.015625 15.765625 45.015625 23.390625 
Q 45.015625 31 40.078125 35.4375 
Q 35.15625 39.890625 26.703125 39.890625 
Q 22.75 39.890625 18.8125 39.015625 
Q 14.890625 38.140625 10.796875 36.28125 
z
" id="DejaVuSans-53"/>
       </defs>
       <use transform="translate(0 0.684375)" xlink:href="#DejaVuSans-49"/>
       <use transform="translate(63.623047 0.684375)" xlink:href="#DejaVuSans-48"/>
       <use transform="translate(128.203125 38.965625)scale(0.7)" xlink:href="#DejaVuSans-53"/>
      </g>
     </g>
    </g>
    <g id="xtick_2">
     <g id="line2d_2">
      <g>
       <use style="stroke:#000000;stroke-width:0.8;" x="185.688216" xlink:href="#me6e55fed98" y="320.4"/>
      </g>
     </g>
     <g id="text_2">
      <!-- $\mathdefault{10^{6}}$ -->
      <g transform="translate(174.248216 337.277969)scale(0.13 -0.13)">
       <defs>
        <path d="M 33.015625 40.375 
Q 26.375 40.375 22.484375 35.828125 
Q 18.609375 31.296875 18.609375 23.390625 
Q 18.609375 15.53125 22.484375 10.953125 
Q 26.375 6.390625 33.015625 6.390625 
Q 39.65625 6.390625 43.53125 10.953125 
Q 47.40625 15.53125 47.40625 23.390625 
Q 47.40625 31.296875 43.53125 35.828125 
Q 39.65625 40.375 33.015625 40.375 
z
M 52.59375 71.296875 
L 52.59375 62.3125 
Q 48.875 64.0625 45.09375 64.984375 
Q 41.3125 65.921875 37.59375 65.921875 
Q 27.828125 65.921875 22.671875 59.328125 
Q 17.53125 52.734375 16.796875 39.40625 
Q 19.671875 43.65625 24.015625 45.921875 
Q 28.375 48.1875 33.59375 48.1875 
Q 44.578125 48.1875 50.953125 41.515625 
Q 57.328125 34.859375 57.328125 23.390625 
Q 57.328125 12.15625 50.6875 5.359375 
Q 44.046875 -1.421875 33.015625 -1.421875 
Q 20.359375 -1.421875 13.671875 8.265625 
Q 6.984375 17.96875 6.984375 36.375 
Q 6.984375 53.65625 15.1875 63.9375 
Q 23.390625 74.21875 37.203125 74.21875 
Q 40.921875 74.21875 44.703125 73.484375 
Q 48.484375 72.75 52.59375 71.296875 
z
" id="DejaVuSans-54"/>
       </defs>
       <use transform="translate(0 0.765625)" xlink:href="#DejaVuSans-49"/>
       <use transform="translate(63.623047 0.765625)" xlink:href="#DejaVuSans-48"/>
       <use transform="translate(128.203125 39.046875)scale(0.7)" xlink:href="#DejaVuSans-54"/>
      </g>
     </g>
    </g>
    <g id="xtick_3">
     <g id="line2d_3">
      <defs>
       <path d="M 0 0 
L 0 2 
" id="m22bfbd8223" style="stroke:#000000;stroke-width:0.6;"/>
      </defs>
      <g>
       <use style="stroke:#000000;stroke-width:0.6;" x="95.513834" xlink:href="#m22bfbd8223" y="320.4"/>
      </g>
     </g>
    </g>
    <g id="xtick_4">
     <g id="line2d_4">
      <g>
       <use style="stroke:#000000;stroke-width:0.6;" x="101.001886" xlink:href="#m22bfbd8223" y="320.4"/>
      </g>
     </g>
    </g>
    <g id="xtick_5">
     <g id="line2d_5">
      <g>
       <use style="stroke:#000000;stroke-width:0.6;" x="105.641967" xlink:href="#m22bfbd8223" y="320.4"/>
      </g>
     </g>
    </g>
    <g id="xtick_6">
     <g id="line2d_6">
      <g>
       <use style="stroke:#000000;stroke-width:0.6;" x="109.661389" xlink:href="#m22bfbd8223" y="320.4"/>
      </g>
     </g>
    </g>
    <g id="xtick_7">
     <g id="line2d_7">
      <g>
       <use style="stroke:#000000;stroke-width:0.6;" x="113.20677" xlink:href="#m22bfbd8223" y="320.4"/>
      </g>
     </g>
    </g>
    <g id="xtick_8">
     <g id="line2d_8">
      <g>
       <use style="stroke:#000000;stroke-width:0.6;" x="137.242609" xlink:href="#m22bfbd8223" y="320.4"/>
      </g>
     </g>
    </g>
    <g id="xtick_9">
     <g id="line2d_9">
      <g>
       <use style="stroke:#000000;stroke-width:0.6;" x="149.447493" xlink:href="#m22bfbd8223" y="320.4"/>
      </g>
     </g>
    </g>
    <g id="xtick_10">
     <g id="line2d_10">
      <g>
       <use style="stroke:#000000;stroke-width:0.6;" x="158.106996" xlink:href="#m22bfbd8223" y="320.4"/>
      </g>
     </g>
    </g>
    <g id="xtick_11">
     <g id="line2d_11">
      <g>
       <use style="stroke:#000000;stroke-width:0.6;" x="164.823829" xlink:href="#m22bfbd8223" y="320.4"/>
      </g>
     </g>
    </g>
    <g id="xtick_12">
     <g id="line2d_12">
      <g>
       <use style="stroke:#000000;stroke-width:0.6;" x="170.311881" xlink:href="#m22bfbd8223" y="320.4"/>
      </g>
     </g>
    </g>
    <g id="xtick_13">
     <g id="line2d_13">
      <g>
       <use style="stroke:#000000;stroke-width:0.6;" x="174.951962" xlink:href="#m22bfbd8223" y="320.4"/>
      </g>
     </g>
    </g>
    <g id="xtick_14">
     <g id="line2d_14">
      <g>
       <use style="stroke:#000000;stroke-width:0.6;" x="178.971384" xlink:href="#m22bfbd8223" y="320.4"/>
      </g>
     </g>
    </g>
    <g id="xtick_15">
     <g id="line2d_15">
      <g>
       <use style="stroke:#000000;stroke-width:0.6;" x="182.516765" xlink:href="#m22bfbd8223" y="320.4"/>
      </g>
     </g>
    </g>
    <g id="xtick_16">
     <g id="line2d_16">
      <g>
       <use style="stroke:#000000;stroke-width:0.6;" x="206.552604" xlink:href="#m22bfbd8223" y="320.4"/>
      </g>
     </g>
    </g>
   </g>
   <g id="matplotlib.axis_2">
    <g id="ytick_1">
     <g id="line2d_17">
      <defs>
       <path d="M 0 0 
L -3.5 0 
" id="maaf1644416" style="stroke:#000000;stroke-width:0.8;"/>
      </defs>
      <g>
       <use style="stroke:#000000;stroke-width:0.8;" x="90" xlink:href="#maaf1644416" y="255.057711"/>
      </g>
     </g>
     <g id="text_3">
      <!-- $\mathdefault{10^{-1}}$ -->
      <g transform="translate(52.45 259.996696)scale(0.13 -0.13)">
       <defs>
        <path d="M 10.59375 35.5 
L 73.1875 35.5 
L 73.1875 27.203125 
L 10.59375 27.203125 
z
" id="DejaVuSans-8722"/>
       </defs>
       <use transform="translate(0 0.684375)" xlink:href="#DejaVuSans-49"/>
       <use transform="translate(63.623047 0.684375)" xlink:href="#DejaVuSans-48"/>
       <use transform="translate(128.203125 38.965625)scale(0.7)" xlink:href="#DejaVuSans-8722"/>
       <use transform="translate(186.855469 38.965625)scale(0.7)" xlink:href="#DejaVuSans-49"/>
      </g>
     </g>
    </g>
    <g id="ytick_2">
     <g id="line2d_18">
      <g>
       <use style="stroke:#000000;stroke-width:0.8;" x="90" xlink:href="#maaf1644416" y="90.856356"/>
      </g>
     </g>
     <g id="text_4">
      <!-- $\mathdefault{10^{0}}$ -->
      <g transform="translate(60.12 95.795341)scale(0.13 -0.13)">
       <use transform="translate(0 0.765625)" xlink:href="#DejaVuSans-49"/>
       <use transform="translate(63.623047 0.765625)" xlink:href="#DejaVuSans-48"/>
       <use transform="translate(128.203125 39.046875)scale(0.7)" xlink:href="#DejaVuSans-48"/>
      </g>
     </g>
    </g>
    <g id="ytick_3">
     <g id="line2d_19">
      <defs>
       <path d="M 0 0 
L -2 0 
" id="mc781851e26" style="stroke:#000000;stroke-width:0.6;"/>
      </defs>
      <g>
       <use style="stroke:#000000;stroke-width:0.6;" x="90" xlink:href="#mc781851e26" y="320.4"/>
      </g>
     </g>
    </g>
    <g id="ytick_4">
     <g id="line2d_20">
      <g>
       <use style="stroke:#000000;stroke-width:0.6;" x="90" xlink:href="#mc781851e26" y="304.487245"/>
      </g>
     </g>
    </g>
    <g id="ytick_5">
     <g id="line2d_21">
      <g>
       <use style="stroke:#000000;stroke-width:0.6;" x="90" xlink:href="#mc781851e26" y="291.485577"/>
      </g>
     </g>
    </g>
    <g id="ytick_6">
     <g id="line2d_22">
      <g>
       <use style="stroke:#000000;stroke-width:0.6;" x="90" xlink:href="#mc781851e26" y="280.492823"/>
      </g>
     </g>
    </g>
    <g id="ytick_7">
     <g id="line2d_23">
      <g>
       <use style="stroke:#000000;stroke-width:0.6;" x="90" xlink:href="#mc781851e26" y="270.970467"/>
      </g>
     </g>
    </g>
    <g id="ytick_8">
     <g id="line2d_24">
      <g>
       <use style="stroke:#000000;stroke-width:0.6;" x="90" xlink:href="#mc781851e26" y="262.571153"/>
      </g>
     </g>
    </g>
    <g id="ytick_9">
     <g id="line2d_25">
      <g>
       <use style="stroke:#000000;stroke-width:0.6;" x="90" xlink:href="#mc781851e26" y="205.628178"/>
      </g>
     </g>
    </g>
    <g id="ytick_10">
     <g id="line2d_26">
      <g>
       <use style="stroke:#000000;stroke-width:0.6;" x="90" xlink:href="#mc781851e26" y="176.713755"/>
      </g>
     </g>
    </g>
    <g id="ytick_11">
     <g id="line2d_27">
      <g>
       <use style="stroke:#000000;stroke-width:0.6;" x="90" xlink:href="#mc781851e26" y="156.198645"/>
      </g>
     </g>
    </g>
    <g id="ytick_12">
     <g id="line2d_28">
      <g>
       <use style="stroke:#000000;stroke-width:0.6;" x="90" xlink:href="#mc781851e26" y="140.285889"/>
      </g>
     </g>
    </g>
    <g id="ytick_13">
     <g id="line2d_29">
      <g>
       <use style="stroke:#000000;stroke-width:0.6;" x="90" xlink:href="#mc781851e26" y="127.284221"/>
      </g>
     </g>
    </g>
    <g id="ytick_14">
     <g id="line2d_30">
      <g>
       <use style="stroke:#000000;stroke-width:0.6;" x="90" xlink:href="#mc781851e26" y="116.291468"/>
      </g>
     </g>
    </g>
    <g id="ytick_15">
     <g id="line2d_31">
      <g>
       <use style="stroke:#000000;stroke-width:0.6;" x="90" xlink:href="#mc781851e26" y="106.769112"/>
      </g>
     </g>
    </g>
    <g id="ytick_16">
     <g id="line2d_32">
      <g>
       <use style="stroke:#000000;stroke-width:0.6;" x="90" xlink:href="#mc781851e26" y="98.369798"/>
      </g>
     </g>
    </g>
    <g id="text_5">
     <!-- RMS Displacement ($\langle x_{i}\rangle^{2}$) -->
     <g transform="translate(45.72 263.44)rotate(-90)scale(0.13 -0.13)">
      <defs>
       <path d="M 44.390625 34.1875 
Q 47.5625 33.109375 50.5625 29.59375 
Q 53.5625 26.078125 56.59375 19.921875 
L 66.609375 0 
L 56 0 
L 46.6875 18.703125 
Q 43.0625 26.03125 39.671875 28.421875 
Q 36.28125 30.8125 30.421875 30.8125 
L 19.671875 30.8125 
L 19.671875 0 
L 9.8125 0 
L 9.8125 72.90625 
L 32.078125 72.90625 
Q 44.578125 72.90625 50.734375 67.671875 
Q 56.890625 62.453125 56.890625 51.90625 
Q 56.890625 45.015625 53.6875 40.46875 
Q 50.484375 35.9375 44.390625 34.1875 
z
M 19.671875 64.796875 
L 19.671875 38.921875 
L 32.078125 38.921875 
Q 39.203125 38.921875 42.84375 42.21875 
Q 46.484375 45.515625 46.484375 51.90625 
Q 46.484375 58.296875 42.84375 61.546875 
Q 39.203125 64.796875 32.078125 64.796875 
z
" id="DejaVuSans-82"/>
       <path d="M 9.8125 72.90625 
L 24.515625 72.90625 
L 43.109375 23.296875 
L 61.8125 72.90625 
L 76.515625 72.90625 
L 76.515625 0 
L 66.890625 0 
L 66.890625 64.015625 
L 48.09375 14.015625 
L 38.1875 14.015625 
L 19.390625 64.015625 
L 19.390625 0 
L 9.8125 0 
z
" id="DejaVuSans-77"/>
       <path d="M 53.515625 70.515625 
L 53.515625 60.890625 
Q 47.90625 63.578125 42.921875 64.890625 
Q 37.9375 66.21875 33.296875 66.21875 
Q 25.25 66.21875 20.875 63.09375 
Q 16.5 59.96875 16.5 54.203125 
Q 16.5 49.359375 19.40625 46.890625 
Q 22.3125 44.4375 30.421875 42.921875 
L 36.375 41.703125 
Q 47.40625 39.59375 52.65625 34.296875 
Q 57.90625 29 57.90625 20.125 
Q 57.90625 9.515625 50.796875 4.046875 
Q 43.703125 -1.421875 29.984375 -1.421875 
Q 24.8125 -1.421875 18.96875 -0.25 
Q 13.140625 0.921875 6.890625 3.21875 
L 6.890625 13.375 
Q 12.890625 10.015625 18.65625 8.296875 
Q 24.421875 6.59375 29.984375 6.59375 
Q 38.421875 6.59375 43.015625 9.90625 
Q 47.609375 13.234375 47.609375 19.390625 
Q 47.609375 24.75 44.3125 27.78125 
Q 41.015625 30.8125 33.5 32.328125 
L 27.484375 33.5 
Q 16.453125 35.6875 11.515625 40.375 
Q 6.59375 45.0625 6.59375 53.421875 
Q 6.59375 63.09375 13.40625 68.65625 
Q 20.21875 74.21875 32.171875 74.21875 
Q 37.3125 74.21875 42.625 73.28125 
Q 47.953125 72.359375 53.515625 70.515625 
z
" id="DejaVuSans-83"/>
       <path id="DejaVuSans-32"/>
       <path d="M 19.671875 64.796875 
L 19.671875 8.109375 
L 31.59375 8.109375 
Q 46.6875 8.109375 53.6875 14.9375 
Q 60.6875 21.78125 60.6875 36.53125 
Q 60.6875 51.171875 53.6875 57.984375 
Q 46.6875 64.796875 31.59375 64.796875 
z
M 9.8125 72.90625 
L 30.078125 72.90625 
Q 51.265625 72.90625 61.171875 64.09375 
Q 71.09375 55.28125 71.09375 36.53125 
Q 71.09375 17.671875 61.125 8.828125 
Q 51.171875 0 30.078125 0 
L 9.8125 0 
z
" id="DejaVuSans-68"/>
       <path d="M 9.421875 54.6875 
L 18.40625 54.6875 
L 18.40625 0 
L 9.421875 0 
z
M 9.421875 75.984375 
L 18.40625 75.984375 
L 18.40625 64.59375 
L 9.421875 64.59375 
z
" id="DejaVuSans-105"/>
       <path d="M 44.28125 53.078125 
L 44.28125 44.578125 
Q 40.484375 46.53125 36.375 47.5 
Q 32.28125 48.484375 27.875 48.484375 
Q 21.1875 48.484375 17.84375 46.4375 
Q 14.5 44.390625 14.5 40.28125 
Q 14.5 37.15625 16.890625 35.375 
Q 19.28125 33.59375 26.515625 31.984375 
L 29.59375 31.296875 
Q 39.15625 29.25 43.1875 25.515625 
Q 47.21875 21.78125 47.21875 15.09375 
Q 47.21875 7.46875 41.1875 3.015625 
Q 35.15625 -1.421875 24.609375 -1.421875 
Q 20.21875 -1.421875 15.453125 -0.5625 
Q 10.6875 0.296875 5.421875 2 
L 5.421875 11.28125 
Q 10.40625 8.6875 15.234375 7.390625 
Q 20.0625 6.109375 24.8125 6.109375 
Q 31.15625 6.109375 34.5625 8.28125 
Q 37.984375 10.453125 37.984375 14.40625 
Q 37.984375 18.0625 35.515625 20.015625 
Q 33.0625 21.96875 24.703125 23.78125 
L 21.578125 24.515625 
Q 13.234375 26.265625 9.515625 29.90625 
Q 5.8125 33.546875 5.8125 39.890625 
Q 5.8125 47.609375 11.28125 51.796875 
Q 16.75 56 26.8125 56 
Q 31.78125 56 36.171875 55.265625 
Q 40.578125 54.546875 44.28125 53.078125 
z
" id="DejaVuSans-115"/>
       <path d="M 18.109375 8.203125 
L 18.109375 -20.796875 
L 9.078125 -20.796875 
L 9.078125 54.6875 
L 18.109375 54.6875 
L 18.109375 46.390625 
Q 20.953125 51.265625 25.265625 53.625 
Q 29.59375 56 35.59375 56 
Q 45.5625 56 51.78125 48.09375 
Q 58.015625 40.1875 58.015625 27.296875 
Q 58.015625 14.40625 51.78125 6.484375 
Q 45.5625 -1.421875 35.59375 -1.421875 
Q 29.59375 -1.421875 25.265625 0.953125 
Q 20.953125 3.328125 18.109375 8.203125 
z
M 48.6875 27.296875 
Q 48.6875 37.203125 44.609375 42.84375 
Q 40.53125 48.484375 33.40625 48.484375 
Q 26.265625 48.484375 22.1875 42.84375 
Q 18.109375 37.203125 18.109375 27.296875 
Q 18.109375 17.390625 22.1875 11.75 
Q 26.265625 6.109375 33.40625 6.109375 
Q 40.53125 6.109375 44.609375 11.75 
Q 48.6875 17.390625 48.6875 27.296875 
z
" id="DejaVuSans-112"/>
       <path d="M 9.421875 75.984375 
L 18.40625 75.984375 
L 18.40625 0 
L 9.421875 0 
z
" id="DejaVuSans-108"/>
       <path d="M 34.28125 27.484375 
Q 23.390625 27.484375 19.1875 25 
Q 14.984375 22.515625 14.984375 16.5 
Q 14.984375 11.71875 18.140625 8.90625 
Q 21.296875 6.109375 26.703125 6.109375 
Q 34.1875 6.109375 38.703125 11.40625 
Q 43.21875 16.703125 43.21875 25.484375 
L 43.21875 27.484375 
z
M 52.203125 31.203125 
L 52.203125 0 
L 43.21875 0 
L 43.21875 8.296875 
Q 40.140625 3.328125 35.546875 0.953125 
Q 30.953125 -1.421875 24.3125 -1.421875 
Q 15.921875 -1.421875 10.953125 3.296875 
Q 6 8.015625 6 15.921875 
Q 6 25.140625 12.171875 29.828125 
Q 18.359375 34.515625 30.609375 34.515625 
L 43.21875 34.515625 
L 43.21875 35.40625 
Q 43.21875 41.609375 39.140625 45 
Q 35.0625 48.390625 27.6875 48.390625 
Q 23 48.390625 18.546875 47.265625 
Q 14.109375 46.140625 10.015625 43.890625 
L 10.015625 52.203125 
Q 14.9375 54.109375 19.578125 55.046875 
Q 24.21875 56 28.609375 56 
Q 40.484375 56 46.34375 49.84375 
Q 52.203125 43.703125 52.203125 31.203125 
z
" id="DejaVuSans-97"/>
       <path d="M 48.78125 52.59375 
L 48.78125 44.1875 
Q 44.96875 46.296875 41.140625 47.34375 
Q 37.3125 48.390625 33.40625 48.390625 
Q 24.65625 48.390625 19.8125 42.84375 
Q 14.984375 37.3125 14.984375 27.296875 
Q 14.984375 17.28125 19.8125 11.734375 
Q 24.65625 6.203125 33.40625 6.203125 
Q 37.3125 6.203125 41.140625 7.25 
Q 44.96875 8.296875 48.78125 10.40625 
L 48.78125 2.09375 
Q 45.015625 0.34375 40.984375 -0.53125 
Q 36.96875 -1.421875 32.421875 -1.421875 
Q 20.0625 -1.421875 12.78125 6.34375 
Q 5.515625 14.109375 5.515625 27.296875 
Q 5.515625 40.671875 12.859375 48.328125 
Q 20.21875 56 33.015625 56 
Q 37.15625 56 41.109375 55.140625 
Q 45.0625 54.296875 48.78125 52.59375 
z
" id="DejaVuSans-99"/>
       <path d="M 56.203125 29.59375 
L 56.203125 25.203125 
L 14.890625 25.203125 
Q 15.484375 15.921875 20.484375 11.0625 
Q 25.484375 6.203125 34.421875 6.203125 
Q 39.59375 6.203125 44.453125 7.46875 
Q 49.3125 8.734375 54.109375 11.28125 
L 54.109375 2.78125 
Q 49.265625 0.734375 44.1875 -0.34375 
Q 39.109375 -1.421875 33.890625 -1.421875 
Q 20.796875 -1.421875 13.15625 6.1875 
Q 5.515625 13.8125 5.515625 26.8125 
Q 5.515625 40.234375 12.765625 48.109375 
Q 20.015625 56 32.328125 56 
Q 43.359375 56 49.78125 48.890625 
Q 56.203125 41.796875 56.203125 29.59375 
z
M 47.21875 32.234375 
Q 47.125 39.59375 43.09375 43.984375 
Q 39.0625 48.390625 32.421875 48.390625 
Q 24.90625 48.390625 20.390625 44.140625 
Q 15.875 39.890625 15.1875 32.171875 
z
" id="DejaVuSans-101"/>
       <path d="M 52 44.1875 
Q 55.375 50.25 60.0625 53.125 
Q 64.75 56 71.09375 56 
Q 79.640625 56 84.28125 50.015625 
Q 88.921875 44.046875 88.921875 33.015625 
L 88.921875 0 
L 79.890625 0 
L 79.890625 32.71875 
Q 79.890625 40.578125 77.09375 44.375 
Q 74.3125 48.1875 68.609375 48.1875 
Q 61.625 48.1875 57.5625 43.546875 
Q 53.515625 38.921875 53.515625 30.90625 
L 53.515625 0 
L 44.484375 0 
L 44.484375 32.71875 
Q 44.484375 40.625 41.703125 44.40625 
Q 38.921875 48.1875 33.109375 48.1875 
Q 26.21875 48.1875 22.15625 43.53125 
Q 18.109375 38.875 18.109375 30.90625 
L 18.109375 0 
L 9.078125 0 
L 9.078125 54.6875 
L 18.109375 54.6875 
L 18.109375 46.1875 
Q 21.1875 51.21875 25.484375 53.609375 
Q 29.78125 56 35.6875 56 
Q 41.65625 56 45.828125 52.96875 
Q 50 49.953125 52 44.1875 
z
" id="DejaVuSans-109"/>
       <path d="M 54.890625 33.015625 
L 54.890625 0 
L 45.90625 0 
L 45.90625 32.71875 
Q 45.90625 40.484375 42.875 44.328125 
Q 39.84375 48.1875 33.796875 48.1875 
Q 26.515625 48.1875 22.3125 43.546875 
Q 18.109375 38.921875 18.109375 30.90625 
L 18.109375 0 
L 9.078125 0 
L 9.078125 54.6875 
L 18.109375 54.6875 
L 18.109375 46.1875 
Q 21.34375 51.125 25.703125 53.5625 
Q 30.078125 56 35.796875 56 
Q 45.21875 56 50.046875 50.171875 
Q 54.890625 44.34375 54.890625 33.015625 
z
" id="DejaVuSans-110"/>
       <path d="M 18.3125 70.21875 
L 18.3125 54.6875 
L 36.8125 54.6875 
L 36.8125 47.703125 
L 18.3125 47.703125 
L 18.3125 18.015625 
Q 18.3125 11.328125 20.140625 9.421875 
Q 21.96875 7.515625 27.59375 7.515625 
L 36.8125 7.515625 
L 36.8125 0 
L 27.59375 0 
Q 17.1875 0 13.234375 3.875 
Q 9.28125 7.765625 9.28125 18.015625 
L 9.28125 47.703125 
L 2.6875 47.703125 
L 2.6875 54.6875 
L 9.28125 54.6875 
L 9.28125 70.21875 
z
" id="DejaVuSans-116"/>
       <path d="M 31 75.875 
Q 24.46875 64.65625 21.28125 53.65625 
Q 18.109375 42.671875 18.109375 31.390625 
Q 18.109375 20.125 21.3125 9.0625 
Q 24.515625 -2 31 -13.1875 
L 23.1875 -13.1875 
Q 15.875 -1.703125 12.234375 9.375 
Q 8.59375 20.453125 8.59375 31.390625 
Q 8.59375 42.28125 12.203125 53.3125 
Q 15.828125 64.359375 23.1875 75.875 
z
" id="DejaVuSans-40"/>
       <path d="M 8.9375 31.34375 
L 22.703125 75.875 
L 31 75.875 
L 17.234375 31.34375 
L 31 -13.1875 
L 22.703125 -13.1875 
z
" id="DejaVuSans-10216"/>
       <path d="M 60.015625 54.6875 
L 34.90625 27.875 
L 50.296875 0 
L 39.984375 0 
L 28.421875 21.6875 
L 8.296875 0 
L -2.59375 0 
L 24.3125 28.8125 
L 10.015625 54.6875 
L 20.3125 54.6875 
L 30.8125 34.90625 
L 49.125 54.6875 
z
" id="DejaVuSans-Oblique-120"/>
       <path d="M 18.3125 75.984375 
L 27.296875 75.984375 
L 25.09375 64.59375 
L 16.109375 64.59375 
z
M 14.203125 54.6875 
L 23.1875 54.6875 
L 12.5 0 
L 3.515625 0 
z
" id="DejaVuSans-Oblique-105"/>
       <path d="M 30.078125 31.34375 
L 16.3125 -13.1875 
L 8.015625 -13.1875 
L 21.78125 31.34375 
L 8.015625 75.875 
L 16.3125 75.875 
z
" id="DejaVuSans-10217"/>
       <path d="M 19.1875 8.296875 
L 53.609375 8.296875 
L 53.609375 0 
L 7.328125 0 
L 7.328125 8.296875 
Q 12.9375 14.109375 22.625 23.890625 
Q 32.328125 33.6875 34.8125 36.53125 
Q 39.546875 41.84375 41.421875 45.53125 
Q 43.3125 49.21875 43.3125 52.78125 
Q 43.3125 58.59375 39.234375 62.25 
Q 35.15625 65.921875 28.609375 65.921875 
Q 23.96875 65.921875 18.8125 64.3125 
Q 13.671875 62.703125 7.8125 59.421875 
L 7.8125 69.390625 
Q 13.765625 71.78125 18.9375 73 
Q 24.125 74.21875 28.421875 74.21875 
Q 39.75 74.21875 46.484375 68.546875 
Q 53.21875 62.890625 53.21875 53.421875 
Q 53.21875 48.921875 51.53125 44.890625 
Q 49.859375 40.875 45.40625 35.40625 
Q 44.1875 33.984375 37.640625 27.21875 
Q 31.109375 20.453125 19.1875 8.296875 
z
" id="DejaVuSans-50"/>
       <path d="M 8.015625 75.875 
L 15.828125 75.875 
Q 23.140625 64.359375 26.78125 53.3125 
Q 30.421875 42.28125 30.421875 31.390625 
Q 30.421875 20.453125 26.78125 9.375 
Q 23.140625 -1.703125 15.828125 -13.1875 
L 8.015625 -13.1875 
Q 14.5 -2 17.703125 9.0625 
Q 20.90625 20.125 20.90625 31.390625 
Q 20.90625 42.671875 17.703125 53.65625 
Q 14.5 64.65625 8.015625 75.875 
z
" id="DejaVuSans-41"/>
      </defs>
      <use transform="translate(0 0.765625)" xlink:href="#DejaVuSans-82"/>
      <use transform="translate(69.482422 0.765625)" xlink:href="#DejaVuSans-77"/>
      <use transform="translate(155.761719 0.765625)" xlink:href="#DejaVuSans-83"/>
      <use transform="translate(219.238281 0.765625)" xlink:href="#DejaVuSans-32"/>
      <use transform="translate(251.025391 0.765625)" xlink:href="#DejaVuSans-68"/>
      <use transform="translate(328.027344 0.765625)" xlink:href="#DejaVuSans-105"/>
      <use transform="translate(355.810547 0.765625)" xlink:href="#DejaVuSans-115"/>
      <use transform="translate(407.910156 0.765625)" xlink:href="#DejaVuSans-112"/>
      <use transform="translate(471.386719 0.765625)" xlink:href="#DejaVuSans-108"/>
      <use transform="translate(499.169922 0.765625)" xlink:href="#DejaVuSans-97"/>
      <use transform="translate(560.449219 0.765625)" xlink:href="#DejaVuSans-99"/>
      <use transform="translate(615.429688 0.765625)" xlink:href="#DejaVuSans-101"/>
      <use transform="translate(676.953125 0.765625)" xlink:href="#DejaVuSans-109"/>
      <use transform="translate(774.365234 0.765625)" xlink:href="#DejaVuSans-101"/>
      <use transform="translate(835.888672 0.765625)" xlink:href="#DejaVuSans-110"/>
      <use transform="translate(899.267578 0.765625)" xlink:href="#DejaVuSans-116"/>
      <use transform="translate(938.476562 0.765625)" xlink:href="#DejaVuSans-32"/>
      <use transform="translate(970.263672 0.765625)" xlink:href="#DejaVuSans-40"/>
      <use transform="translate(1009.277344 0.765625)" xlink:href="#DejaVuSans-10216"/>
      <use transform="translate(1048.291016 0.765625)" xlink:href="#DejaVuSans-Oblique-120"/>
      <use transform="translate(1107.470703 -15.640625)scale(0.7)" xlink:href="#DejaVuSans-Oblique-105"/>
      <use transform="translate(1129.65332 0.765625)" xlink:href="#DejaVuSans-10217"/>
      <use transform="translate(1169.624023 39.046875)scale(0.7)" xlink:href="#DejaVuSans-50"/>
      <use transform="translate(1216.894531 0.765625)" xlink:href="#DejaVuSans-41"/>
     </g>
    </g>
   </g>
   <g id="line2d_33">
    <path clip-path="url(#p283e405ee4)" d="M 95.513834 217.655371 
L 116.378221 195.088834 
L 128.583106 170.474393 
L 137.242609 158.970633 
L 143.959441 150.882159 
L 149.447493 144.249356 
L 154.087575 132.478314 
L 158.106996 115.208815 
L 161.652377 105.777872 
L 164.823829 98.11915 
L 167.692756 100.997026 
L 170.311881 102.054944 
L 172.721242 100.774003 
L 174.951962 99.659539 
L 177.028713 98.15718 
L 178.971384 96.158756 
L 180.796242 91.050056 
L 182.516765 86.428152 
L 184.14424 88.993347 
L 185.688216 88.84069 
L 187.156847 91.287111 
L 188.557143 90.389749 
L 189.895183 89.131415 
L 191.176268 82.484204 
L 192.405049 77.622045 
L 193.58563 77.756868 
L 194.721649 74.422629 
L 195.81635 72.930908 
L 196.872632 68.820989 
L 197.893101 72.895369 
L 198.880105 75.348846 
L 199.835771 72.299247 
L 200.762027 66.428665 
L 201.66063 62.303825 
L 202.533182 62.386355 
L 203.381152 63.762022 
L 204.205888 63.888012 
L 205.008627 62.025307 
L 205.790514 59.535947 
" style="fill:none;stroke:#1f77b4;stroke-dasharray:1.5,2.475;stroke-dashoffset:0;stroke-width:1.5;"/>
   </g>
   <g id="line2d_34">
    <path clip-path="url(#p283e405ee4)" d="M 95.513834 306.461144 
L 116.378221 299.926162 
L 128.583106 292.498056 
L 137.242609 289.68818 
L 143.959441 284.393218 
L 149.447493 276.000485 
L 154.087575 268.79733 
L 158.106996 266.168905 
L 161.652377 268.5891 
L 164.823829 269.807679 
L 167.692756 268.672613 
L 170.311881 267.836084 
L 172.721242 267.86838 
L 174.951962 265.713114 
L 177.028713 262.333613 
L 178.971384 259.074354 
L 180.796242 258.248115 
L 182.516765 256.873114 
L 184.14424 255.992717 
L 185.688216 253.606507 
L 187.156847 253.852638 
L 188.557143 253.685104 
L 189.895183 255.715998 
L 191.176268 256.476903 
L 192.405049 254.738587 
L 193.58563 249.535077 
L 194.721649 244.419391 
L 195.81635 244.853829 
L 196.872632 247.195769 
L 197.893101 246.978198 
L 198.880105 244.574808 
L 199.835771 244.089069 
L 200.762027 244.486207 
L 201.66063 242.153887 
L 202.533182 240.990464 
L 203.381152 240.016024 
L 204.205888 242.462248 
L 205.008627 242.684445 
L 205.790514 243.92509 
" style="fill:none;stroke:#ff7f0e;stroke-linecap:square;stroke-width:1.5;"/>
   </g>
   <g id="line2d_35">
    <path clip-path="url(#p283e405ee4)" d="M 95.513834 248.115266 
L 116.378221 240.153823 
L 128.583106 235.000278 
L 137.242609 217.398241 
L 143.959441 201.356157 
L 149.447493 196.824833 
L 154.087575 196.980468 
L 158.106996 211.152261 
L 161.652377 190.421949 
L 164.823829 177.626379 
L 167.692756 151.360057 
L 170.311881 146.429282 
L 172.721242 143.930192 
L 174.951962 152.130661 
L 177.028713 145.388956 
L 178.971384 145.128218 
L 180.796242 144.840818 
L 182.516765 148.610035 
L 184.14424 135.89252 
L 185.688216 130.903766 
L 187.156847 130.05759 
L 188.557143 139.256775 
L 189.895183 142.311368 
L 191.176268 146.346197 
L 192.405049 144.159288 
L 193.58563 132.624354 
L 194.721649 126.925869 
L 195.81635 127.637591 
L 196.872632 135.056772 
L 197.893101 137.671134 
L 198.880105 135.393602 
L 199.835771 133.237907 
L 200.762027 132.918596 
L 201.66063 136.487013 
L 202.533182 141.766006 
L 203.381152 142.135003 
L 204.205888 141.206458 
L 205.008627 137.242437 
L 205.790514 136.609742 
" style="fill:none;stroke:#2ca02c;stroke-dasharray:5.55,2.4;stroke-dashoffset:0;stroke-width:1.5;"/>
   </g>
   <g id="patch_3">
    <path d="M 90 320.4 
L 90 43.2 
" style="fill:none;stroke:#000000;stroke-linecap:square;stroke-linejoin:miter;stroke-width:0.8;"/>
   </g>
   <g id="patch_4">
    <path d="M 211.304348 320.4 
L 211.304348 43.2 
" style="fill:none;stroke:#000000;stroke-linecap:square;stroke-linejoin:miter;stroke-width:0.8;"/>
   </g>
   <g id="patch_5">
    <path d="M 90 320.4 
L 211.304348 320.4 
" style="fill:none;stroke:#000000;stroke-linecap:square;stroke-linejoin:miter;stroke-width:0.8;"/>
   </g>
   <g id="patch_6">
    <path d="M 90 43.2 
L 211.304348 43.2 
" style="fill:none;stroke:#000000;stroke-linecap:square;stroke-linejoin:miter;stroke-width:0.8;"/>
   </g>
  </g>
  <g id="axes_2">
   <g id="patch_7">
    <path d="M 235.565217 320.4 
L 356.869565 320.4 
L 356.869565 43.2 
L 235.565217 43.2 
z
" style="fill:#ffffff;"/>
   </g>
   <g id="matplotlib.axis_3">
    <g id="xtick_17">
     <g id="line2d_36">
      <g>
       <use style="stroke:#000000;stroke-width:0.8;" x="261.943439" xlink:href="#me6e55fed98" y="320.4"/>
      </g>
     </g>
     <g id="text_6">
      <!-- $\mathdefault{10^{5}}$ -->
      <g transform="translate(250.503439 337.277969)scale(0.13 -0.13)">
       <use transform="translate(0 0.684375)" xlink:href="#DejaVuSans-49"/>
       <use transform="translate(63.623047 0.684375)" xlink:href="#DejaVuSans-48"/>
       <use transform="translate(128.203125 38.965625)scale(0.7)" xlink:href="#DejaVuSans-53"/>
      </g>
     </g>
    </g>
    <g id="xtick_18">
     <g id="line2d_37">
      <g>
       <use style="stroke:#000000;stroke-width:0.8;" x="331.253434" xlink:href="#me6e55fed98" y="320.4"/>
      </g>
     </g>
     <g id="text_7">
      <!-- $\mathdefault{10^{6}}$ -->
      <g transform="translate(319.813434 337.277969)scale(0.13 -0.13)">
       <use transform="translate(0 0.765625)" xlink:href="#DejaVuSans-49"/>
       <use transform="translate(63.623047 0.765625)" xlink:href="#DejaVuSans-48"/>
       <use transform="translate(128.203125 39.046875)scale(0.7)" xlink:href="#DejaVuSans-54"/>
      </g>
     </g>
    </g>
    <g id="xtick_19">
     <g id="line2d_38">
      <g>
       <use style="stroke:#000000;stroke-width:0.6;" x="241.079051" xlink:href="#m22bfbd8223" y="320.4"/>
      </g>
     </g>
    </g>
    <g id="xtick_20">
     <g id="line2d_39">
      <g>
       <use style="stroke:#000000;stroke-width:0.6;" x="246.567103" xlink:href="#m22bfbd8223" y="320.4"/>
      </g>
     </g>
    </g>
    <g id="xtick_21">
     <g id="line2d_40">
      <g>
       <use style="stroke:#000000;stroke-width:0.6;" x="251.207185" xlink:href="#m22bfbd8223" y="320.4"/>
      </g>
     </g>
    </g>
    <g id="xtick_22">
     <g id="line2d_41">
      <g>
       <use style="stroke:#000000;stroke-width:0.6;" x="255.226606" xlink:href="#m22bfbd8223" y="320.4"/>
      </g>
     </g>
    </g>
    <g id="xtick_23">
     <g id="line2d_42">
      <g>
       <use style="stroke:#000000;stroke-width:0.6;" x="258.771987" xlink:href="#m22bfbd8223" y="320.4"/>
      </g>
     </g>
    </g>
    <g id="xtick_24">
     <g id="line2d_43">
      <g>
       <use style="stroke:#000000;stroke-width:0.6;" x="282.807826" xlink:href="#m22bfbd8223" y="320.4"/>
      </g>
     </g>
    </g>
    <g id="xtick_25">
     <g id="line2d_44">
      <g>
       <use style="stroke:#000000;stroke-width:0.6;" x="295.012711" xlink:href="#m22bfbd8223" y="320.4"/>
      </g>
     </g>
    </g>
    <g id="xtick_26">
     <g id="line2d_45">
      <g>
       <use style="stroke:#000000;stroke-width:0.6;" x="303.672214" xlink:href="#m22bfbd8223" y="320.4"/>
      </g>
     </g>
    </g>
    <g id="xtick_27">
     <g id="line2d_46">
      <g>
       <use style="stroke:#000000;stroke-width:0.6;" x="310.389046" xlink:href="#m22bfbd8223" y="320.4"/>
      </g>
     </g>
    </g>
    <g id="xtick_28">
     <g id="line2d_47">
      <g>
       <use style="stroke:#000000;stroke-width:0.6;" x="315.877098" xlink:href="#m22bfbd8223" y="320.4"/>
      </g>
     </g>
    </g>
    <g id="xtick_29">
     <g id="line2d_48">
      <g>
       <use style="stroke:#000000;stroke-width:0.6;" x="320.51718" xlink:href="#m22bfbd8223" y="320.4"/>
      </g>
     </g>
    </g>
    <g id="xtick_30">
     <g id="line2d_49">
      <g>
       <use style="stroke:#000000;stroke-width:0.6;" x="324.536601" xlink:href="#m22bfbd8223" y="320.4"/>
      </g>
     </g>
    </g>
    <g id="xtick_31">
     <g id="line2d_50">
      <g>
       <use style="stroke:#000000;stroke-width:0.6;" x="328.081982" xlink:href="#m22bfbd8223" y="320.4"/>
      </g>
     </g>
    </g>
    <g id="xtick_32">
     <g id="line2d_51">
      <g>
       <use style="stroke:#000000;stroke-width:0.6;" x="352.117821" xlink:href="#m22bfbd8223" y="320.4"/>
      </g>
     </g>
    </g>
   </g>
   <g id="matplotlib.axis_4">
    <g id="ytick_17">
     <g id="line2d_52">
      <g>
       <use style="stroke:#000000;stroke-width:0.8;" x="235.565217" xlink:href="#maaf1644416" y="255.057711"/>
      </g>
     </g>
    </g>
    <g id="ytick_18">
     <g id="line2d_53">
      <g>
       <use style="stroke:#000000;stroke-width:0.8;" x="235.565217" xlink:href="#maaf1644416" y="90.856356"/>
      </g>
     </g>
    </g>
    <g id="ytick_19">
     <g id="line2d_54">
      <g>
       <use style="stroke:#000000;stroke-width:0.6;" x="235.565217" xlink:href="#mc781851e26" y="320.4"/>
      </g>
     </g>
    </g>
    <g id="ytick_20">
     <g id="line2d_55">
      <g>
       <use style="stroke:#000000;stroke-width:0.6;" x="235.565217" xlink:href="#mc781851e26" y="304.487245"/>
      </g>
     </g>
    </g>
    <g id="ytick_21">
     <g id="line2d_56">
      <g>
       <use style="stroke:#000000;stroke-width:0.6;" x="235.565217" xlink:href="#mc781851e26" y="291.485577"/>
      </g>
     </g>
    </g>
    <g id="ytick_22">
     <g id="line2d_57">
      <g>
       <use style="stroke:#000000;stroke-width:0.6;" x="235.565217" xlink:href="#mc781851e26" y="280.492823"/>
      </g>
     </g>
    </g>
    <g id="ytick_23">
     <g id="line2d_58">
      <g>
       <use style="stroke:#000000;stroke-width:0.6;" x="235.565217" xlink:href="#mc781851e26" y="270.970467"/>
      </g>
     </g>
    </g>
    <g id="ytick_24">
     <g id="line2d_59">
      <g>
       <use style="stroke:#000000;stroke-width:0.6;" x="235.565217" xlink:href="#mc781851e26" y="262.571153"/>
      </g>
     </g>
    </g>
    <g id="ytick_25">
     <g id="line2d_60">
      <g>
       <use style="stroke:#000000;stroke-width:0.6;" x="235.565217" xlink:href="#mc781851e26" y="205.628178"/>
      </g>
     </g>
    </g>
    <g id="ytick_26">
     <g id="line2d_61">
      <g>
       <use style="stroke:#000000;stroke-width:0.6;" x="235.565217" xlink:href="#mc781851e26" y="176.713755"/>
      </g>
     </g>
    </g>
    <g id="ytick_27">
     <g id="line2d_62">
      <g>
       <use style="stroke:#000000;stroke-width:0.6;" x="235.565217" xlink:href="#mc781851e26" y="156.198645"/>
      </g>
     </g>
    </g>
    <g id="ytick_28">
     <g id="line2d_63">
      <g>
       <use style="stroke:#000000;stroke-width:0.6;" x="235.565217" xlink:href="#mc781851e26" y="140.285889"/>
      </g>
     </g>
    </g>
    <g id="ytick_29">
     <g id="line2d_64">
      <g>
       <use style="stroke:#000000;stroke-width:0.6;" x="235.565217" xlink:href="#mc781851e26" y="127.284221"/>
      </g>
     </g>
    </g>
    <g id="ytick_30">
     <g id="line2d_65">
      <g>
       <use style="stroke:#000000;stroke-width:0.6;" x="235.565217" xlink:href="#mc781851e26" y="116.291468"/>
      </g>
     </g>
    </g>
    <g id="ytick_31">
     <g id="line2d_66">
      <g>
       <use style="stroke:#000000;stroke-width:0.6;" x="235.565217" xlink:href="#mc781851e26" y="106.769112"/>
      </g>
     </g>
    </g>
    <g id="ytick_32">
     <g id="line2d_67">
      <g>
       <use style="stroke:#000000;stroke-width:0.6;" x="235.565217" xlink:href="#mc781851e26" y="98.369798"/>
      </g>
     </g>
    </g>
   </g>
   <g id="line2d_68">
    <path clip-path="url(#p33d95bf62b)" d="M 241.079051 215.914462 
L 261.943439 204.563548 
L 274.148323 194.0582 
L 282.807826 182.062438 
L 289.524659 161.473479 
L 295.012711 148.725585 
L 299.652792 136.614175 
L 303.672214 127.849766 
L 307.217595 112.677907 
L 310.389046 101.43407 
L 313.257973 99.60161 
L 315.877098 105.03209 
L 318.286459 114.494377 
L 320.51718 112.048821 
L 322.593931 104.52093 
L 324.536601 89.850866 
L 326.36146 85.392422 
L 328.081982 80.304371 
L 329.709457 84.325845 
L 331.253434 84.51288 
L 332.722064 84.758803 
L 334.122361 80.605109 
L 335.460401 77.543956 
L 336.741486 75.326391 
L 337.970266 72.877609 
L 339.150847 70.278496 
L 340.286867 72.559876 
L 341.381567 73.373921 
L 342.437849 73.720441 
L 343.458318 72.428559 
L 344.445323 73.017407 
L 345.400989 73.882 
L 346.327245 67.242755 
L 347.225847 59.510822 
L 348.0984 55.736245 
L 348.94637 59.02872 
L 349.771105 62.494679 
L 350.573844 63.714197 
L 351.355731 62.337079 
" style="fill:none;stroke:#1f77b4;stroke-dasharray:1.5,2.475;stroke-dashoffset:0;stroke-width:1.5;"/>
   </g>
   <g id="line2d_69">
    <path clip-path="url(#p33d95bf62b)" d="M 241.079051 296.484584 
L 261.943439 297.32319 
L 274.148323 295.285251 
L 282.807826 293.304654 
L 289.524659 284.294411 
L 295.012711 281.621344 
L 299.652792 277.465575 
L 303.672214 278.329802 
L 307.217595 273.154245 
L 310.389046 270.746057 
L 313.257973 268.769582 
L 315.877098 267.298159 
L 318.286459 266.664868 
L 320.51718 267.1124 
L 322.593931 267.350496 
L 324.536601 267.532637 
L 326.36146 266.125484 
L 328.081982 264.518513 
L 329.709457 261.864164 
L 331.253434 260.279116 
L 332.722064 260.962389 
L 334.122361 260.727351 
L 335.460401 258.167163 
L 336.741486 255.301835 
L 337.970266 252.639204 
L 339.150847 252.737626 
L 340.286867 254.650089 
L 341.381567 255.995692 
L 342.437849 253.931488 
L 343.458318 253.163275 
L 344.445323 253.185548 
L 345.400989 254.702472 
L 346.327245 253.190367 
L 347.225847 253.903717 
L 348.0984 254.851902 
L 348.94637 254.006983 
L 349.771105 251.295168 
L 350.573844 250.227479 
L 351.355731 251.377127 
" style="fill:none;stroke:#ff7f0e;stroke-linecap:square;stroke-width:1.5;"/>
   </g>
   <g id="line2d_70">
    <path clip-path="url(#p33d95bf62b)" d="M 241.079051 273.854249 
L 261.943439 270.761867 
L 274.148323 263.615788 
L 282.807826 242.398395 
L 289.524659 231.845913 
L 295.012711 218.555061 
L 299.652792 229.294526 
L 303.672214 212.614965 
L 307.217595 199.073352 
L 310.389046 181.393651 
L 313.257973 173.479151 
L 315.877098 173.312021 
L 318.286459 173.198899 
L 320.51718 170.585475 
L 322.593931 149.26254 
L 324.536601 146.006761 
L 326.36146 146.249891 
L 328.081982 159.543876 
L 329.709457 153.399752 
L 331.253434 159.650062 
L 332.722064 168.199155 
L 334.122361 173.950735 
L 335.460401 156.199337 
L 336.741486 150.685277 
L 337.970266 159.062497 
L 339.150847 180.727826 
L 340.286867 187.127985 
L 341.381567 176.374647 
L 342.437849 171.720084 
L 343.458318 172.645946 
L 344.445323 180.142945 
L 345.400989 179.281803 
L 346.327245 172.972852 
L 347.225847 162.30904 
L 348.0984 144.461016 
L 348.94637 144.958996 
L 349.771105 148.340954 
L 350.573844 166.935672 
L 351.355731 169.809826 
" style="fill:none;stroke:#2ca02c;stroke-dasharray:5.55,2.4;stroke-dashoffset:0;stroke-width:1.5;"/>
   </g>
   <g id="patch_8">
    <path d="M 235.565217 320.4 
L 235.565217 43.2 
" style="fill:none;stroke:#000000;stroke-linecap:square;stroke-linejoin:miter;stroke-width:0.8;"/>
   </g>
   <g id="patch_9">
    <path d="M 356.869565 320.4 
L 356.869565 43.2 
" style="fill:none;stroke:#000000;stroke-linecap:square;stroke-linejoin:miter;stroke-width:0.8;"/>
   </g>
   <g id="patch_10">
    <path d="M 235.565217 320.4 
L 356.869565 320.4 
" style="fill:none;stroke:#000000;stroke-linecap:square;stroke-linejoin:miter;stroke-width:0.8;"/>
   </g>
   <g id="patch_11">
    <path d="M 235.565217 43.2 
L 356.869565 43.2 
" style="fill:none;stroke:#000000;stroke-linecap:square;stroke-linejoin:miter;stroke-width:0.8;"/>
   </g>
  </g>
  <g id="axes_3">
   <g id="patch_12">
    <path d="M 381.130435 320.4 
L 502.434783 320.4 
L 502.434783 43.2 
L 381.130435 43.2 
z
" style="fill:#ffffff;"/>
   </g>
   <g id="matplotlib.axis_5">
    <g id="xtick_33">
     <g id="line2d_71">
      <g>
       <use style="stroke:#000000;stroke-width:0.8;" x="407.508656" xlink:href="#me6e55fed98" y="320.4"/>
      </g>
     </g>
     <g id="text_8">
      <!-- $\mathdefault{10^{5}}$ -->
      <g transform="translate(396.068656 337.277969)scale(0.13 -0.13)">
       <use transform="translate(0 0.684375)" xlink:href="#DejaVuSans-49"/>
       <use transform="translate(63.623047 0.684375)" xlink:href="#DejaVuSans-48"/>
       <use transform="translate(128.203125 38.965625)scale(0.7)" xlink:href="#DejaVuSans-53"/>
      </g>
     </g>
    </g>
    <g id="xtick_34">
     <g id="line2d_72">
      <g>
       <use style="stroke:#000000;stroke-width:0.8;" x="476.818651" xlink:href="#me6e55fed98" y="320.4"/>
      </g>
     </g>
     <g id="text_9">
      <!-- $\mathdefault{10^{6}}$ -->
      <g transform="translate(465.378651 337.277969)scale(0.13 -0.13)">
       <use transform="translate(0 0.765625)" xlink:href="#DejaVuSans-49"/>
       <use transform="translate(63.623047 0.765625)" xlink:href="#DejaVuSans-48"/>
       <use transform="translate(128.203125 39.046875)scale(0.7)" xlink:href="#DejaVuSans-54"/>
      </g>
     </g>
    </g>
    <g id="xtick_35">
     <g id="line2d_73">
      <g>
       <use style="stroke:#000000;stroke-width:0.6;" x="386.644269" xlink:href="#m22bfbd8223" y="320.4"/>
      </g>
     </g>
    </g>
    <g id="xtick_36">
     <g id="line2d_74">
      <g>
       <use style="stroke:#000000;stroke-width:0.6;" x="392.132321" xlink:href="#m22bfbd8223" y="320.4"/>
      </g>
     </g>
    </g>
    <g id="xtick_37">
     <g id="line2d_75">
      <g>
       <use style="stroke:#000000;stroke-width:0.6;" x="396.772402" xlink:href="#m22bfbd8223" y="320.4"/>
      </g>
     </g>
    </g>
    <g id="xtick_38">
     <g id="line2d_76">
      <g>
       <use style="stroke:#000000;stroke-width:0.6;" x="400.791824" xlink:href="#m22bfbd8223" y="320.4"/>
      </g>
     </g>
    </g>
    <g id="xtick_39">
     <g id="line2d_77">
      <g>
       <use style="stroke:#000000;stroke-width:0.6;" x="404.337205" xlink:href="#m22bfbd8223" y="320.4"/>
      </g>
     </g>
    </g>
    <g id="xtick_40">
     <g id="line2d_78">
      <g>
       <use style="stroke:#000000;stroke-width:0.6;" x="428.373044" xlink:href="#m22bfbd8223" y="320.4"/>
      </g>
     </g>
    </g>
    <g id="xtick_41">
     <g id="line2d_79">
      <g>
       <use style="stroke:#000000;stroke-width:0.6;" x="440.577928" xlink:href="#m22bfbd8223" y="320.4"/>
      </g>
     </g>
    </g>
    <g id="xtick_42">
     <g id="line2d_80">
      <g>
       <use style="stroke:#000000;stroke-width:0.6;" x="449.237431" xlink:href="#m22bfbd8223" y="320.4"/>
      </g>
     </g>
    </g>
    <g id="xtick_43">
     <g id="line2d_81">
      <g>
       <use style="stroke:#000000;stroke-width:0.6;" x="455.954264" xlink:href="#m22bfbd8223" y="320.4"/>
      </g>
     </g>
    </g>
    <g id="xtick_44">
     <g id="line2d_82">
      <g>
       <use style="stroke:#000000;stroke-width:0.6;" x="461.442315" xlink:href="#m22bfbd8223" y="320.4"/>
      </g>
     </g>
    </g>
    <g id="xtick_45">
     <g id="line2d_83">
      <g>
       <use style="stroke:#000000;stroke-width:0.6;" x="466.082397" xlink:href="#m22bfbd8223" y="320.4"/>
      </g>
     </g>
    </g>
    <g id="xtick_46">
     <g id="line2d_84">
      <g>
       <use style="stroke:#000000;stroke-width:0.6;" x="470.101819" xlink:href="#m22bfbd8223" y="320.4"/>
      </g>
     </g>
    </g>
    <g id="xtick_47">
     <g id="line2d_85">
      <g>
       <use style="stroke:#000000;stroke-width:0.6;" x="473.6472" xlink:href="#m22bfbd8223" y="320.4"/>
      </g>
     </g>
    </g>
    <g id="xtick_48">
     <g id="line2d_86">
      <g>
       <use style="stroke:#000000;stroke-width:0.6;" x="497.683039" xlink:href="#m22bfbd8223" y="320.4"/>
      </g>
     </g>
    </g>
    <g id="text_10">
     <!-- Time Step -->
     <g transform="translate(409.012452 353.859531)scale(0.13 -0.13)">
      <defs>
       <path d="M -0.296875 72.90625 
L 61.375 72.90625 
L 61.375 64.59375 
L 35.5 64.59375 
L 35.5 0 
L 25.59375 0 
L 25.59375 64.59375 
L -0.296875 64.59375 
z
" id="DejaVuSans-84"/>
      </defs>
      <use xlink:href="#DejaVuSans-84"/>
      <use x="57.958984" xlink:href="#DejaVuSans-105"/>
      <use x="85.742188" xlink:href="#DejaVuSans-109"/>
      <use x="183.154297" xlink:href="#DejaVuSans-101"/>
      <use x="244.677734" xlink:href="#DejaVuSans-32"/>
      <use x="276.464844" xlink:href="#DejaVuSans-83"/>
      <use x="339.941406" xlink:href="#DejaVuSans-116"/>
      <use x="379.150391" xlink:href="#DejaVuSans-101"/>
      <use x="440.673828" xlink:href="#DejaVuSans-112"/>
     </g>
    </g>
   </g>
   <g id="matplotlib.axis_6">
    <g id="ytick_33">
     <g id="line2d_87">
      <g>
       <use style="stroke:#000000;stroke-width:0.8;" x="381.130435" xlink:href="#maaf1644416" y="255.057711"/>
      </g>
     </g>
    </g>
    <g id="ytick_34">
     <g id="line2d_88">
      <g>
       <use style="stroke:#000000;stroke-width:0.8;" x="381.130435" xlink:href="#maaf1644416" y="90.856356"/>
      </g>
     </g>
    </g>
    <g id="ytick_35">
     <g id="line2d_89">
      <g>
       <use style="stroke:#000000;stroke-width:0.6;" x="381.130435" xlink:href="#mc781851e26" y="320.4"/>
      </g>
     </g>
    </g>
    <g id="ytick_36">
     <g id="line2d_90">
      <g>
       <use style="stroke:#000000;stroke-width:0.6;" x="381.130435" xlink:href="#mc781851e26" y="304.487245"/>
      </g>
     </g>
    </g>
    <g id="ytick_37">
     <g id="line2d_91">
      <g>
       <use style="stroke:#000000;stroke-width:0.6;" x="381.130435" xlink:href="#mc781851e26" y="291.485577"/>
      </g>
     </g>
    </g>
    <g id="ytick_38">
     <g id="line2d_92">
      <g>
       <use style="stroke:#000000;stroke-width:0.6;" x="381.130435" xlink:href="#mc781851e26" y="280.492823"/>
      </g>
     </g>
    </g>
    <g id="ytick_39">
     <g id="line2d_93">
      <g>
       <use style="stroke:#000000;stroke-width:0.6;" x="381.130435" xlink:href="#mc781851e26" y="270.970467"/>
      </g>
     </g>
    </g>
    <g id="ytick_40">
     <g id="line2d_94">
      <g>
       <use style="stroke:#000000;stroke-width:0.6;" x="381.130435" xlink:href="#mc781851e26" y="262.571153"/>
      </g>
     </g>
    </g>
    <g id="ytick_41">
     <g id="line2d_95">
      <g>
       <use style="stroke:#000000;stroke-width:0.6;" x="381.130435" xlink:href="#mc781851e26" y="205.628178"/>
      </g>
     </g>
    </g>
    <g id="ytick_42">
     <g id="line2d_96">
      <g>
       <use style="stroke:#000000;stroke-width:0.6;" x="381.130435" xlink:href="#mc781851e26" y="176.713755"/>
      </g>
     </g>
    </g>
    <g id="ytick_43">
     <g id="line2d_97">
      <g>
       <use style="stroke:#000000;stroke-width:0.6;" x="381.130435" xlink:href="#mc781851e26" y="156.198645"/>
      </g>
     </g>
    </g>
    <g id="ytick_44">
     <g id="line2d_98">
      <g>
       <use style="stroke:#000000;stroke-width:0.6;" x="381.130435" xlink:href="#mc781851e26" y="140.285889"/>
      </g>
     </g>
    </g>
    <g id="ytick_45">
     <g id="line2d_99">
      <g>
       <use style="stroke:#000000;stroke-width:0.6;" x="381.130435" xlink:href="#mc781851e26" y="127.284221"/>
      </g>
     </g>
    </g>
    <g id="ytick_46">
     <g id="line2d_100">
      <g>
       <use style="stroke:#000000;stroke-width:0.6;" x="381.130435" xlink:href="#mc781851e26" y="116.291468"/>
      </g>
     </g>
    </g>
    <g id="ytick_47">
     <g id="line2d_101">
      <g>
       <use style="stroke:#000000;stroke-width:0.6;" x="381.130435" xlink:href="#mc781851e26" y="106.769112"/>
      </g>
     </g>
    </g>
    <g id="ytick_48">
     <g id="line2d_102">
      <g>
       <use style="stroke:#000000;stroke-width:0.6;" x="381.130435" xlink:href="#mc781851e26" y="98.369798"/>
      </g>
     </g>
    </g>
   </g>
   <g id="line2d_103">
    <path clip-path="url(#p30d47cfa03)" d="M 386.644269 200.79954 
L 407.508656 183.629928 
L 419.713541 167.314441 
L 428.373044 151.490215 
L 435.089876 136.726737 
L 440.577928 128.39687 
L 445.21801 118.893543 
L 449.237431 111.152501 
L 452.782812 101.291242 
L 455.954264 93.078117 
L 458.823191 95.020238 
L 461.442315 98.914726 
L 463.851677 101.926741 
L 466.082397 90.448291 
L 468.159148 82.460948 
L 470.101819 75.439518 
L 471.926677 75.286451 
L 473.6472 75.21769 
L 475.274674 77.508167 
L 476.818651 79.662225 
L 478.287281 77.433249 
L 479.687578 77.176888 
L 481.025618 75.550377 
L 482.306703 73.12853 
L 483.535484 71.810243 
L 484.716064 68.89364 
L 485.852084 70.185626 
L 486.946785 68.664191 
L 488.003067 70.246934 
L 489.023535 67.161102 
L 490.01054 66.990519 
L 490.966206 64.70781 
L 491.892462 63.280237 
L 492.791065 62.439564 
L 493.663617 62.555364 
L 494.511587 65.192958 
L 495.336322 64.953228 
L 496.139062 65.141778 
L 496.920949 64.682703 
" style="fill:none;stroke:#1f77b4;stroke-dasharray:1.5,2.475;stroke-dashoffset:0;stroke-width:1.5;"/>
   </g>
   <g id="line2d_104">
    <path clip-path="url(#p30d47cfa03)" d="M 386.644269 294.956675 
L 407.508656 293.198665 
L 419.713541 288.605693 
L 428.373044 280.277888 
L 435.089876 275.962484 
L 440.577928 274.078096 
L 445.21801 272.307209 
L 449.237431 269.933501 
L 452.782812 270.636541 
L 455.954264 267.537778 
L 458.823191 266.864281 
L 461.442315 264.256573 
L 463.851677 267.684389 
L 466.082397 267.976534 
L 468.159148 265.105565 
L 470.101819 261.114799 
L 471.926677 258.465082 
L 473.6472 259.540703 
L 475.274674 261.152866 
L 476.818651 261.223742 
L 478.287281 260.117249 
L 479.687578 254.727065 
L 481.025618 254.300068 
L 482.306703 253.56039 
L 483.535484 252.303095 
L 484.716064 251.070795 
L 485.852084 246.955329 
L 486.946785 249.079877 
L 488.003067 247.216894 
L 489.023535 249.258158 
L 490.01054 246.592899 
L 490.966206 243.26955 
L 491.892462 241.548902 
L 492.791065 243.220778 
L 493.663617 244.752859 
L 494.511587 244.225657 
L 495.336322 243.586977 
L 496.139062 245.120031 
L 496.920949 246.151944 
" style="fill:none;stroke:#ff7f0e;stroke-linecap:square;stroke-width:1.5;"/>
   </g>
   <g id="line2d_105">
    <path clip-path="url(#p30d47cfa03)" d="M 386.644269 251.641339 
L 407.508656 245.355969 
L 419.713541 237.883662 
L 428.373044 209.30604 
L 435.089876 183.484597 
L 440.577928 177.807721 
L 445.21801 187.10843 
L 449.237431 197.699059 
L 452.782812 189.575239 
L 455.954264 172.454819 
L 458.823191 167.915169 
L 461.442315 164.473082 
L 463.851677 167.694331 
L 466.082397 171.742392 
L 468.159148 160.778618 
L 470.101819 163.375348 
L 471.926677 167.883197 
L 473.6472 185.210341 
L 475.274674 183.922296 
L 476.818651 173.916318 
L 478.287281 174.076743 
L 479.687578 169.13908 
L 481.025618 170.633596 
L 482.306703 167.537917 
L 483.535484 165.819015 
L 484.716064 164.109855 
L 485.852084 159.315463 
L 486.946785 158.458556 
L 488.003067 156.870021 
L 489.023535 163.191462 
L 490.01054 163.916127 
L 490.966206 161.103389 
L 491.892462 151.424809 
L 492.791065 150.823727 
L 493.663617 146.817383 
L 494.511587 143.590068 
L 495.336322 141.035949 
L 496.139062 139.414972 
L 496.920949 139.568307 
" style="fill:none;stroke:#2ca02c;stroke-dasharray:5.55,2.4;stroke-dashoffset:0;stroke-width:1.5;"/>
   </g>
   <g id="patch_13">
    <path d="M 381.130435 320.4 
L 381.130435 43.2 
" style="fill:none;stroke:#000000;stroke-linecap:square;stroke-linejoin:miter;stroke-width:0.8;"/>
   </g>
   <g id="patch_14">
    <path d="M 502.434783 320.4 
L 502.434783 43.2 
" style="fill:none;stroke:#000000;stroke-linecap:square;stroke-linejoin:miter;stroke-width:0.8;"/>
   </g>
   <g id="patch_15">
    <path d="M 381.130435 320.4 
L 502.434783 320.4 
" style="fill:none;stroke:#000000;stroke-linecap:square;stroke-linejoin:miter;stroke-width:0.8;"/>
   </g>
   <g id="patch_16">
    <path d="M 381.130435 43.2 
L 502.434783 43.2 
" style="fill:none;stroke:#000000;stroke-linecap:square;stroke-linejoin:miter;stroke-width:0.8;"/>
   </g>
  </g>
  <g id="axes_4">
   <g id="patch_17">
    <path d="M 526.695652 320.4 
L 648 320.4 
L 648 43.2 
L 526.695652 43.2 
z
" style="fill:#ffffff;"/>
   </g>
   <g id="matplotlib.axis_7">
    <g id="xtick_49">
     <g id="line2d_106">
      <g>
       <use style="stroke:#000000;stroke-width:0.8;" x="553.073874" xlink:href="#me6e55fed98" y="320.4"/>
      </g>
     </g>
     <g id="text_11">
      <!-- $\mathdefault{10^{5}}$ -->
      <g transform="translate(541.633874 337.277969)scale(0.13 -0.13)">
       <use transform="translate(0 0.684375)" xlink:href="#DejaVuSans-49"/>
       <use transform="translate(63.623047 0.684375)" xlink:href="#DejaVuSans-48"/>
       <use transform="translate(128.203125 38.965625)scale(0.7)" xlink:href="#DejaVuSans-53"/>
      </g>
     </g>
    </g>
    <g id="xtick_50">
     <g id="line2d_107">
      <g>
       <use style="stroke:#000000;stroke-width:0.8;" x="622.383869" xlink:href="#me6e55fed98" y="320.4"/>
      </g>
     </g>
     <g id="text_12">
      <!-- $\mathdefault{10^{6}}$ -->
      <g transform="translate(610.943869 337.277969)scale(0.13 -0.13)">
       <use transform="translate(0 0.765625)" xlink:href="#DejaVuSans-49"/>
       <use transform="translate(63.623047 0.765625)" xlink:href="#DejaVuSans-48"/>
       <use transform="translate(128.203125 39.046875)scale(0.7)" xlink:href="#DejaVuSans-54"/>
      </g>
     </g>
    </g>
    <g id="xtick_51">
     <g id="line2d_108">
      <g>
       <use style="stroke:#000000;stroke-width:0.6;" x="532.209486" xlink:href="#m22bfbd8223" y="320.4"/>
      </g>
     </g>
    </g>
    <g id="xtick_52">
     <g id="line2d_109">
      <g>
       <use style="stroke:#000000;stroke-width:0.6;" x="537.697538" xlink:href="#m22bfbd8223" y="320.4"/>
      </g>
     </g>
    </g>
    <g id="xtick_53">
     <g id="line2d_110">
      <g>
       <use style="stroke:#000000;stroke-width:0.6;" x="542.33762" xlink:href="#m22bfbd8223" y="320.4"/>
      </g>
     </g>
    </g>
    <g id="xtick_54">
     <g id="line2d_111">
      <g>
       <use style="stroke:#000000;stroke-width:0.6;" x="546.357041" xlink:href="#m22bfbd8223" y="320.4"/>
      </g>
     </g>
    </g>
    <g id="xtick_55">
     <g id="line2d_112">
      <g>
       <use style="stroke:#000000;stroke-width:0.6;" x="549.902422" xlink:href="#m22bfbd8223" y="320.4"/>
      </g>
     </g>
    </g>
    <g id="xtick_56">
     <g id="line2d_113">
      <g>
       <use style="stroke:#000000;stroke-width:0.6;" x="573.938261" xlink:href="#m22bfbd8223" y="320.4"/>
      </g>
     </g>
    </g>
    <g id="xtick_57">
     <g id="line2d_114">
      <g>
       <use style="stroke:#000000;stroke-width:0.6;" x="586.143145" xlink:href="#m22bfbd8223" y="320.4"/>
      </g>
     </g>
    </g>
    <g id="xtick_58">
     <g id="line2d_115">
      <g>
       <use style="stroke:#000000;stroke-width:0.6;" x="594.802649" xlink:href="#m22bfbd8223" y="320.4"/>
      </g>
     </g>
    </g>
    <g id="xtick_59">
     <g id="line2d_116">
      <g>
       <use style="stroke:#000000;stroke-width:0.6;" x="601.519481" xlink:href="#m22bfbd8223" y="320.4"/>
      </g>
     </g>
    </g>
    <g id="xtick_60">
     <g id="line2d_117">
      <g>
       <use style="stroke:#000000;stroke-width:0.6;" x="607.007533" xlink:href="#m22bfbd8223" y="320.4"/>
      </g>
     </g>
    </g>
    <g id="xtick_61">
     <g id="line2d_118">
      <g>
       <use style="stroke:#000000;stroke-width:0.6;" x="611.647615" xlink:href="#m22bfbd8223" y="320.4"/>
      </g>
     </g>
    </g>
    <g id="xtick_62">
     <g id="line2d_119">
      <g>
       <use style="stroke:#000000;stroke-width:0.6;" x="615.667036" xlink:href="#m22bfbd8223" y="320.4"/>
      </g>
     </g>
    </g>
    <g id="xtick_63">
     <g id="line2d_120">
      <g>
       <use style="stroke:#000000;stroke-width:0.6;" x="619.212417" xlink:href="#m22bfbd8223" y="320.4"/>
      </g>
     </g>
    </g>
    <g id="xtick_64">
     <g id="line2d_121">
      <g>
       <use style="stroke:#000000;stroke-width:0.6;" x="643.248256" xlink:href="#m22bfbd8223" y="320.4"/>
      </g>
     </g>
    </g>
   </g>
   <g id="matplotlib.axis_8">
    <g id="ytick_49">
     <g id="line2d_122">
      <g>
       <use style="stroke:#000000;stroke-width:0.8;" x="526.695652" xlink:href="#maaf1644416" y="255.057711"/>
      </g>
     </g>
    </g>
    <g id="ytick_50">
     <g id="line2d_123">
      <g>
       <use style="stroke:#000000;stroke-width:0.8;" x="526.695652" xlink:href="#maaf1644416" y="90.856356"/>
      </g>
     </g>
    </g>
    <g id="ytick_51">
     <g id="line2d_124">
      <g>
       <use style="stroke:#000000;stroke-width:0.6;" x="526.695652" xlink:href="#mc781851e26" y="320.4"/>
      </g>
     </g>
    </g>
    <g id="ytick_52">
     <g id="line2d_125">
      <g>
       <use style="stroke:#000000;stroke-width:0.6;" x="526.695652" xlink:href="#mc781851e26" y="304.487245"/>
      </g>
     </g>
    </g>
    <g id="ytick_53">
     <g id="line2d_126">
      <g>
       <use style="stroke:#000000;stroke-width:0.6;" x="526.695652" xlink:href="#mc781851e26" y="291.485577"/>
      </g>
     </g>
    </g>
    <g id="ytick_54">
     <g id="line2d_127">
      <g>
       <use style="stroke:#000000;stroke-width:0.6;" x="526.695652" xlink:href="#mc781851e26" y="280.492823"/>
      </g>
     </g>
    </g>
    <g id="ytick_55">
     <g id="line2d_128">
      <g>
       <use style="stroke:#000000;stroke-width:0.6;" x="526.695652" xlink:href="#mc781851e26" y="270.970467"/>
      </g>
     </g>
    </g>
    <g id="ytick_56">
     <g id="line2d_129">
      <g>
       <use style="stroke:#000000;stroke-width:0.6;" x="526.695652" xlink:href="#mc781851e26" y="262.571153"/>
      </g>
     </g>
    </g>
    <g id="ytick_57">
     <g id="line2d_130">
      <g>
       <use style="stroke:#000000;stroke-width:0.6;" x="526.695652" xlink:href="#mc781851e26" y="205.628178"/>
      </g>
     </g>
    </g>
    <g id="ytick_58">
     <g id="line2d_131">
      <g>
       <use style="stroke:#000000;stroke-width:0.6;" x="526.695652" xlink:href="#mc781851e26" y="176.713755"/>
      </g>
     </g>
    </g>
    <g id="ytick_59">
     <g id="line2d_132">
      <g>
       <use style="stroke:#000000;stroke-width:0.6;" x="526.695652" xlink:href="#mc781851e26" y="156.198645"/>
      </g>
     </g>
    </g>
    <g id="ytick_60">
     <g id="line2d_133">
      <g>
       <use style="stroke:#000000;stroke-width:0.6;" x="526.695652" xlink:href="#mc781851e26" y="140.285889"/>
      </g>
     </g>
    </g>
    <g id="ytick_61">
     <g id="line2d_134">
      <g>
       <use style="stroke:#000000;stroke-width:0.6;" x="526.695652" xlink:href="#mc781851e26" y="127.284221"/>
      </g>
     </g>
    </g>
    <g id="ytick_62">
     <g id="line2d_135">
      <g>
       <use style="stroke:#000000;stroke-width:0.6;" x="526.695652" xlink:href="#mc781851e26" y="116.291468"/>
      </g>
     </g>
    </g>
    <g id="ytick_63">
     <g id="line2d_136">
      <g>
       <use style="stroke:#000000;stroke-width:0.6;" x="526.695652" xlink:href="#mc781851e26" y="106.769112"/>
      </g>
     </g>
    </g>
    <g id="ytick_64">
     <g id="line2d_137">
      <g>
       <use style="stroke:#000000;stroke-width:0.6;" x="526.695652" xlink:href="#mc781851e26" y="98.369798"/>
      </g>
     </g>
    </g>
   </g>
   <g id="line2d_138">
    <path clip-path="url(#p0f3c1c6130)" d="M 532.209486 219.449431 
L 553.073874 209.31376 
L 565.278758 195.565222 
L 573.938261 176.512691 
L 580.655094 158.749719 
L 586.143145 146.320381 
L 590.783227 139.625675 
L 594.802649 131.216858 
L 598.34803 117.975949 
L 601.519481 102.645067 
L 604.388408 94.659354 
L 607.007533 92.096073 
L 609.416894 91.609647 
L 611.647615 86.647768 
L 613.724365 81.63045 
L 615.667036 74.126113 
L 617.491895 72.674143 
L 619.212417 70.344849 
L 620.839892 77.402008 
L 622.383869 76.823478 
L 623.852499 77.941969 
L 625.252795 75.67682 
L 626.590836 78.729068 
L 627.87192 76.185805 
L 629.100701 76.06214 
L 630.281282 73.332914 
L 631.417301 78.529588 
L 632.512002 82.369519 
L 633.568284 88.559373 
L 634.588753 92.258129 
L 635.575758 93.227797 
L 636.531424 91.441381 
L 637.45768 86.448149 
L 638.356282 75.306676 
L 639.228834 69.096202 
L 640.076805 65.977887 
L 640.90154 68.192872 
L 641.704279 71.472411 
L 642.486166 73.665268 
" style="fill:none;stroke:#1f77b4;stroke-dasharray:1.5,2.475;stroke-dashoffset:0;stroke-width:1.5;"/>
   </g>
   <g id="line2d_139">
    <path clip-path="url(#p0f3c1c6130)" d="M 532.209486 303.812589 
L 553.073874 300.020402 
L 565.278758 294.42448 
L 573.938261 286.925571 
L 580.655094 280.218481 
L 586.143145 274.98485 
L 590.783227 271.833911 
L 594.802649 271.743069 
L 598.34803 269.829433 
L 601.519481 267.15513 
L 604.388408 264.06255 
L 607.007533 261.953212 
L 609.416894 260.209166 
L 611.647615 260.304701 
L 613.724365 256.626868 
L 615.667036 255.469928 
L 617.491895 251.654822 
L 619.212417 253.243399 
L 620.839892 252.795439 
L 622.383869 248.266823 
L 623.852499 248.178262 
L 625.252795 243.854885 
L 626.590836 245.555795 
L 627.87192 240.806406 
L 629.100701 243.160201 
L 630.281282 241.752943 
L 631.417301 243.772294 
L 632.512002 244.039536 
L 633.568284 246.002295 
L 634.588753 244.175426 
L 635.575758 242.334409 
L 636.531424 239.955783 
L 637.45768 240.157867 
L 638.356282 239.135943 
L 639.228834 238.828384 
L 640.076805 236.394105 
L 640.90154 236.175547 
L 641.704279 234.72329 
L 642.486166 234.713178 
" style="fill:none;stroke:#ff7f0e;stroke-linecap:square;stroke-width:1.5;"/>
   </g>
   <g id="line2d_140">
    <path clip-path="url(#p0f3c1c6130)" d="M 532.209486 274.206778 
L 553.073874 259.768896 
L 565.278758 246.682539 
L 573.938261 215.365407 
L 580.655094 193.252826 
L 586.143145 191.215319 
L 590.783227 204.177841 
L 594.802649 214.776994 
L 598.34803 200.206034 
L 601.519481 183.193771 
L 604.388408 167.64073 
L 607.007533 160.376034 
L 609.416894 153.014068 
L 611.647615 158.046563 
L 613.724365 145.626896 
L 615.667036 148.835902 
L 617.491895 147.051769 
L 619.212417 152.683417 
L 620.839892 146.73497 
L 622.383869 147.025206 
L 623.852499 155.702157 
L 625.252795 164.852385 
L 626.590836 167.303099 
L 627.87192 170.122569 
L 629.100701 178.626172 
L 630.281282 192.234902 
L 631.417301 195.933193 
L 632.512002 180.868477 
L 633.568284 174.560665 
L 634.588753 172.849998 
L 635.575758 181.177654 
L 636.531424 173.87348 
L 637.45768 170.997924 
L 638.356282 170.899071 
L 639.228834 167.762823 
L 640.076805 158.071505 
L 640.90154 148.934133 
L 641.704279 145.585234 
L 642.486166 146.240231 
" style="fill:none;stroke:#2ca02c;stroke-dasharray:5.55,2.4;stroke-dashoffset:0;stroke-width:1.5;"/>
   </g>
   <g id="patch_18">
    <path d="M 526.695652 320.4 
L 526.695652 43.2 
" style="fill:none;stroke:#000000;stroke-linecap:square;stroke-linejoin:miter;stroke-width:0.8;"/>
   </g>
   <g id="patch_19">
    <path d="M 648 320.4 
L 648 43.2 
" style="fill:none;stroke:#000000;stroke-linecap:square;stroke-linejoin:miter;stroke-width:0.8;"/>
   </g>
   <g id="patch_20">
    <path d="M 526.695652 320.4 
L 648 320.4 
" style="fill:none;stroke:#000000;stroke-linecap:square;stroke-linejoin:miter;stroke-width:0.8;"/>
   </g>
   <g id="patch_21">
    <path d="M 526.695652 43.2 
L 648 43.2 
" style="fill:none;stroke:#000000;stroke-linecap:square;stroke-linejoin:miter;stroke-width:0.8;"/>
   </g>
  </g>
 </g>
 <defs>
  <clipPath id="p283e405ee4">
   <rect height="277.2" width="121.304348" x="90" y="43.2"/>
  </clipPath>
  <clipPath id="p33d95bf62b">
   <rect height="277.2" width="121.304348" x="235.565217" y="43.2"/>
  </clipPath>
  <clipPath id="p30d47cfa03">
   <rect height="277.2" width="121.304348" x="381.130435" y="43.2"/>
  </clipPath>
  <clipPath id="p0f3c1c6130">
   <rect height="277.2" width="121.304348" x="526.695652" y="43.2"/>
  </clipPath>
 </defs>
</svg>
