<?xml version="1.0" encoding="utf-8" standalone="no"?>
<!DOCTYPE svg PUBLIC "-//W3C//DTD SVG 1.1//EN"
  "http://www.w3.org/Graphics/SVG/1.1/DTD/svg11.dtd">
<!-- Created with matplotlib (https://matplotlib.org/) -->
<svg height="547.92pt" version="1.1" viewBox="0 0 1105.92 547.92" width="1105.92pt" xmlns="http://www.w3.org/2000/svg" xmlns:xlink="http://www.w3.org/1999/xlink">
 <metadata>
  <rdf:RDF xmlns:cc="http://creativecommons.org/ns#" xmlns:dc="http://purl.org/dc/elements/1.1/" xmlns:rdf="http://www.w3.org/1999/02/22-rdf-syntax-ns#">
   <cc:Work>
    <dc:type rdf:resource="http://purl.org/dc/dcmitype/StillImage"/>
    <dc:date>2021-08-10T23:43:37.341329</dc:date>
    <dc:format>image/svg+xml</dc:format>
    <dc:creator>
     <cc:Agent>
      <dc:title>Matplotlib v3.3.3, https://matplotlib.org/</dc:title>
     </cc:Agent>
    </dc:creator>
   </cc:Work>
  </rdf:RDF>
 </metadata>
 <defs>
  <style type="text/css">*{stroke-linecap:butt;stroke-linejoin:round;}</style>
 </defs>
 <g id="figure_1">
  <g id="patch_1">
   <path d="M 0 547.92 
L 1105.92 547.92 
L 1105.92 0 
L 0 0 
z
" style="fill:#ffffff;"/>
  </g>
  <g id="axes_1">
   <g id="patch_2">
    <path d="M 138.24 487.6488 
L 324.563478 487.6488 
L 324.563478 65.7504 
L 138.24 65.7504 
z
" style="fill:#ffffff;"/>
   </g>
   <g id="matplotlib.axis_1">
    <g id="xtick_1">
     <g id="line2d_1">
      <defs>
       <path d="M 0 0 
L 0 3.5 
" id="m30aad8c357" style="stroke:#000000;stroke-width:0.8;"/>
      </defs>
      <g>
       <use style="stroke:#000000;stroke-width:0.8;" x="178.756948" xlink:href="#m30aad8c357" y="487.6488"/>
      </g>
     </g>
     <g id="text_1">
      <!-- $\mathdefault{10^{5}}$ -->
      <g transform="translate(167.316948 504.526769)scale(0.13 -0.13)">
       <defs>
        <path d="M 12.40625 8.296875 
L 28.515625 8.296875 
L 28.515625 63.921875 
L 10.984375 60.40625 
L 10.984375 69.390625 
L 28.421875 72.90625 
L 38.28125 72.90625 
L 38.28125 8.296875 
L 54.390625 8.296875 
L 54.390625 0 
L 12.40625 0 
z
" id="DejaVuSans-49"/>
        <path d="M 31.78125 66.40625 
Q 24.171875 66.40625 20.328125 58.90625 
Q 16.5 51.421875 16.5 36.375 
Q 16.5 21.390625 20.328125 13.890625 
Q 24.171875 6.390625 31.78125 6.390625 
Q 39.453125 6.390625 43.28125 13.890625 
Q 47.125 21.390625 47.125 36.375 
Q 47.125 51.421875 43.28125 58.90625 
Q 39.453125 66.40625 31.78125 66.40625 
z
M 31.78125 74.21875 
Q 44.046875 74.21875 50.515625 64.515625 
Q 56.984375 54.828125 56.984375 36.375 
Q 56.984375 17.96875 50.515625 8.265625 
Q 44.046875 -1.421875 31.78125 -1.421875 
Q 19.53125 -1.421875 13.0625 8.265625 
Q 6.59375 17.96875 6.59375 36.375 
Q 6.59375 54.828125 13.0625 64.515625 
Q 19.53125 74.21875 31.78125 74.21875 
z
" id="DejaVuSans-48"/>
        <path d="M 10.796875 72.90625 
L 49.515625 72.90625 
L 49.515625 64.59375 
L 19.828125 64.59375 
L 19.828125 46.734375 
Q 21.96875 47.46875 24.109375 47.828125 
Q 26.265625 48.1875 28.421875 48.1875 
Q 40.625 48.1875 47.75 41.5 
Q 54.890625 34.8125 54.890625 23.390625 
Q 54.890625 11.625 47.5625 5.09375 
Q 40.234375 -1.421875 26.90625 -1.421875 
Q 22.3125 -1.421875 17.546875 -0.640625 
Q 12.796875 0.140625 7.71875 1.703125 
L 7.71875 11.625 
Q 12.109375 9.234375 16.796875 8.0625 
Q 21.484375 6.890625 26.703125 6.890625 
Q 35.15625 6.890625 40.078125 11.328125 
Q 45.015625 15.765625 45.015625 23.390625 
Q 45.015625 31 40.078125 35.4375 
Q 35.15625 39.890625 26.703125 39.890625 
Q 22.75 39.890625 18.8125 39.015625 
Q 14.890625 38.140625 10.796875 36.28125 
z
" id="DejaVuSans-53"/>
       </defs>
       <use transform="translate(0 0.684375)" xlink:href="#DejaVuSans-49"/>
       <use transform="translate(63.623047 0.684375)" xlink:href="#DejaVuSans-48"/>
       <use transform="translate(128.203125 38.965625)scale(0.7)" xlink:href="#DejaVuSans-53"/>
      </g>
     </g>
    </g>
    <g id="xtick_2">
     <g id="line2d_2">
      <g>
       <use style="stroke:#000000;stroke-width:0.8;" x="285.2171" xlink:href="#m30aad8c357" y="487.6488"/>
      </g>
     </g>
     <g id="text_2">
      <!-- $\mathdefault{10^{6}}$ -->
      <g transform="translate(273.7771 504.526769)scale(0.13 -0.13)">
       <defs>
        <path d="M 33.015625 40.375 
Q 26.375 40.375 22.484375 35.828125 
Q 18.609375 31.296875 18.609375 23.390625 
Q 18.609375 15.53125 22.484375 10.953125 
Q 26.375 6.390625 33.015625 6.390625 
Q 39.65625 6.390625 43.53125 10.953125 
Q 47.40625 15.53125 47.40625 23.390625 
Q 47.40625 31.296875 43.53125 35.828125 
Q 39.65625 40.375 33.015625 40.375 
z
M 52.59375 71.296875 
L 52.59375 62.3125 
Q 48.875 64.0625 45.09375 64.984375 
Q 41.3125 65.921875 37.59375 65.921875 
Q 27.828125 65.921875 22.671875 59.328125 
Q 17.53125 52.734375 16.796875 39.40625 
Q 19.671875 43.65625 24.015625 45.921875 
Q 28.375 48.1875 33.59375 48.1875 
Q 44.578125 48.1875 50.953125 41.515625 
Q 57.328125 34.859375 57.328125 23.390625 
Q 57.328125 12.15625 50.6875 5.359375 
Q 44.046875 -1.421875 33.015625 -1.421875 
Q 20.359375 -1.421875 13.671875 8.265625 
Q 6.984375 17.96875 6.984375 36.375 
Q 6.984375 53.65625 15.1875 63.9375 
Q 23.390625 74.21875 37.203125 74.21875 
Q 40.921875 74.21875 44.703125 73.484375 
Q 48.484375 72.75 52.59375 71.296875 
z
" id="DejaVuSans-54"/>
       </defs>
       <use transform="translate(0 0.765625)" xlink:href="#DejaVuSans-49"/>
       <use transform="translate(63.623047 0.765625)" xlink:href="#DejaVuSans-48"/>
       <use transform="translate(128.203125 39.046875)scale(0.7)" xlink:href="#DejaVuSans-54"/>
      </g>
     </g>
    </g>
    <g id="xtick_3">
     <g id="line2d_3">
      <defs>
       <path d="M 0 0 
L 0 2 
" id="m0f3a2bd00b" style="stroke:#000000;stroke-width:0.6;"/>
      </defs>
      <g>
       <use style="stroke:#000000;stroke-width:0.6;" x="146.709249" xlink:href="#m0f3a2bd00b" y="487.6488"/>
      </g>
     </g>
    </g>
    <g id="xtick_4">
     <g id="line2d_4">
      <g>
       <use style="stroke:#000000;stroke-width:0.6;" x="155.138897" xlink:href="#m0f3a2bd00b" y="487.6488"/>
      </g>
     </g>
    </g>
    <g id="xtick_5">
     <g id="line2d_5">
      <g>
       <use style="stroke:#000000;stroke-width:0.6;" x="162.266062" xlink:href="#m0f3a2bd00b" y="487.6488"/>
      </g>
     </g>
    </g>
    <g id="xtick_6">
     <g id="line2d_6">
      <g>
       <use style="stroke:#000000;stroke-width:0.6;" x="168.439893" xlink:href="#m0f3a2bd00b" y="487.6488"/>
      </g>
     </g>
    </g>
    <g id="xtick_7">
     <g id="line2d_7">
      <g>
       <use style="stroke:#000000;stroke-width:0.6;" x="173.885599" xlink:href="#m0f3a2bd00b" y="487.6488"/>
      </g>
     </g>
    </g>
    <g id="xtick_8">
     <g id="line2d_8">
      <g>
       <use style="stroke:#000000;stroke-width:0.6;" x="210.804647" xlink:href="#m0f3a2bd00b" y="487.6488"/>
      </g>
     </g>
    </g>
    <g id="xtick_9">
     <g id="line2d_9">
      <g>
       <use style="stroke:#000000;stroke-width:0.6;" x="229.55135" xlink:href="#m0f3a2bd00b" y="487.6488"/>
      </g>
     </g>
    </g>
    <g id="xtick_10">
     <g id="line2d_10">
      <g>
       <use style="stroke:#000000;stroke-width:0.6;" x="242.852346" xlink:href="#m0f3a2bd00b" y="487.6488"/>
      </g>
     </g>
    </g>
    <g id="xtick_11">
     <g id="line2d_11">
      <g>
       <use style="stroke:#000000;stroke-width:0.6;" x="253.169401" xlink:href="#m0f3a2bd00b" y="487.6488"/>
      </g>
     </g>
    </g>
    <g id="xtick_12">
     <g id="line2d_12">
      <g>
       <use style="stroke:#000000;stroke-width:0.6;" x="261.599049" xlink:href="#m0f3a2bd00b" y="487.6488"/>
      </g>
     </g>
    </g>
    <g id="xtick_13">
     <g id="line2d_13">
      <g>
       <use style="stroke:#000000;stroke-width:0.6;" x="268.726214" xlink:href="#m0f3a2bd00b" y="487.6488"/>
      </g>
     </g>
    </g>
    <g id="xtick_14">
     <g id="line2d_14">
      <g>
       <use style="stroke:#000000;stroke-width:0.6;" x="274.900046" xlink:href="#m0f3a2bd00b" y="487.6488"/>
      </g>
     </g>
    </g>
    <g id="xtick_15">
     <g id="line2d_15">
      <g>
       <use style="stroke:#000000;stroke-width:0.6;" x="280.345751" xlink:href="#m0f3a2bd00b" y="487.6488"/>
      </g>
     </g>
    </g>
    <g id="xtick_16">
     <g id="line2d_16">
      <g>
       <use style="stroke:#000000;stroke-width:0.6;" x="317.2648" xlink:href="#m0f3a2bd00b" y="487.6488"/>
      </g>
     </g>
    </g>
   </g>
   <g id="matplotlib.axis_2">
    <g id="ytick_1">
     <g id="line2d_17">
      <defs>
       <path d="M 0 0 
L -3.5 0 
" id="m11f7e98db5" style="stroke:#000000;stroke-width:0.8;"/>
      </defs>
      <g>
       <use style="stroke:#000000;stroke-width:0.8;" x="138.24" xlink:href="#m11f7e98db5" y="388.197837"/>
      </g>
     </g>
     <g id="text_3">
      <!-- $\mathdefault{10^{-1}}$ -->
      <g transform="translate(100.69 393.136821)scale(0.13 -0.13)">
       <defs>
        <path d="M 10.59375 35.5 
L 73.1875 35.5 
L 73.1875 27.203125 
L 10.59375 27.203125 
z
" id="DejaVuSans-8722"/>
       </defs>
       <use transform="translate(0 0.684375)" xlink:href="#DejaVuSans-49"/>
       <use transform="translate(63.623047 0.684375)" xlink:href="#DejaVuSans-48"/>
       <use transform="translate(128.203125 38.965625)scale(0.7)" xlink:href="#DejaVuSans-8722"/>
       <use transform="translate(186.855469 38.965625)scale(0.7)" xlink:href="#DejaVuSans-49"/>
      </g>
     </g>
    </g>
    <g id="ytick_2">
     <g id="line2d_18">
      <g>
       <use style="stroke:#000000;stroke-width:0.8;" x="138.24" xlink:href="#m11f7e98db5" y="138.283374"/>
      </g>
     </g>
     <g id="text_4">
      <!-- $\mathdefault{10^{0}}$ -->
      <g transform="translate(108.36 143.222358)scale(0.13 -0.13)">
       <use transform="translate(0 0.765625)" xlink:href="#DejaVuSans-49"/>
       <use transform="translate(63.623047 0.765625)" xlink:href="#DejaVuSans-48"/>
       <use transform="translate(128.203125 39.046875)scale(0.7)" xlink:href="#DejaVuSans-48"/>
      </g>
     </g>
    </g>
    <g id="ytick_3">
     <g id="line2d_19">
      <defs>
       <path d="M 0 0 
L -2 0 
" id="m3a32e6e4be" style="stroke:#000000;stroke-width:0.6;"/>
      </defs>
      <g>
       <use style="stroke:#000000;stroke-width:0.6;" x="138.24" xlink:href="#m3a32e6e4be" y="487.6488"/>
      </g>
     </g>
    </g>
    <g id="ytick_4">
     <g id="line2d_20">
      <g>
       <use style="stroke:#000000;stroke-width:0.6;" x="138.24" xlink:href="#m3a32e6e4be" y="463.429586"/>
      </g>
     </g>
    </g>
    <g id="ytick_5">
     <g id="line2d_21">
      <g>
       <use style="stroke:#000000;stroke-width:0.6;" x="138.24" xlink:href="#m3a32e6e4be" y="443.641048"/>
      </g>
     </g>
    </g>
    <g id="ytick_6">
     <g id="line2d_22">
      <g>
       <use style="stroke:#000000;stroke-width:0.6;" x="138.24" xlink:href="#m3a32e6e4be" y="426.910077"/>
      </g>
     </g>
    </g>
    <g id="ytick_7">
     <g id="line2d_23">
      <g>
       <use style="stroke:#000000;stroke-width:0.6;" x="138.24" xlink:href="#m3a32e6e4be" y="412.41705"/>
      </g>
     </g>
    </g>
    <g id="ytick_8">
     <g id="line2d_24">
      <g>
       <use style="stroke:#000000;stroke-width:0.6;" x="138.24" xlink:href="#m3a32e6e4be" y="399.633295"/>
      </g>
     </g>
    </g>
    <g id="ytick_9">
     <g id="line2d_25">
      <g>
       <use style="stroke:#000000;stroke-width:0.6;" x="138.24" xlink:href="#m3a32e6e4be" y="312.966087"/>
      </g>
     </g>
    </g>
    <g id="ytick_10">
     <g id="line2d_26">
      <g>
       <use style="stroke:#000000;stroke-width:0.6;" x="138.24" xlink:href="#m3a32e6e4be" y="268.958335"/>
      </g>
     </g>
    </g>
    <g id="ytick_11">
     <g id="line2d_27">
      <g>
       <use style="stroke:#000000;stroke-width:0.6;" x="138.24" xlink:href="#m3a32e6e4be" y="237.734337"/>
      </g>
     </g>
    </g>
    <g id="ytick_12">
     <g id="line2d_28">
      <g>
       <use style="stroke:#000000;stroke-width:0.6;" x="138.24" xlink:href="#m3a32e6e4be" y="213.515124"/>
      </g>
     </g>
    </g>
    <g id="ytick_13">
     <g id="line2d_29">
      <g>
       <use style="stroke:#000000;stroke-width:0.6;" x="138.24" xlink:href="#m3a32e6e4be" y="193.726585"/>
      </g>
     </g>
    </g>
    <g id="ytick_14">
     <g id="line2d_30">
      <g>
       <use style="stroke:#000000;stroke-width:0.6;" x="138.24" xlink:href="#m3a32e6e4be" y="176.995614"/>
      </g>
     </g>
    </g>
    <g id="ytick_15">
     <g id="line2d_31">
      <g>
       <use style="stroke:#000000;stroke-width:0.6;" x="138.24" xlink:href="#m3a32e6e4be" y="162.502588"/>
      </g>
     </g>
    </g>
    <g id="ytick_16">
     <g id="line2d_32">
      <g>
       <use style="stroke:#000000;stroke-width:0.6;" x="138.24" xlink:href="#m3a32e6e4be" y="149.718833"/>
      </g>
     </g>
    </g>
    <g id="text_5">
     <!-- RMS Displacement ($\langle x_{i}\rangle^{2}$) -->
     <g transform="translate(93.96 358.3396)rotate(-90)scale(0.13 -0.13)">
      <defs>
       <path d="M 44.390625 34.1875 
Q 47.5625 33.109375 50.5625 29.59375 
Q 53.5625 26.078125 56.59375 19.921875 
L 66.609375 0 
L 56 0 
L 46.6875 18.703125 
Q 43.0625 26.03125 39.671875 28.421875 
Q 36.28125 30.8125 30.421875 30.8125 
L 19.671875 30.8125 
L 19.671875 0 
L 9.8125 0 
L 9.8125 72.90625 
L 32.078125 72.90625 
Q 44.578125 72.90625 50.734375 67.671875 
Q 56.890625 62.453125 56.890625 51.90625 
Q 56.890625 45.015625 53.6875 40.46875 
Q 50.484375 35.9375 44.390625 34.1875 
z
M 19.671875 64.796875 
L 19.671875 38.921875 
L 32.078125 38.921875 
Q 39.203125 38.921875 42.84375 42.21875 
Q 46.484375 45.515625 46.484375 51.90625 
Q 46.484375 58.296875 42.84375 61.546875 
Q 39.203125 64.796875 32.078125 64.796875 
z
" id="DejaVuSans-82"/>
       <path d="M 9.8125 72.90625 
L 24.515625 72.90625 
L 43.109375 23.296875 
L 61.8125 72.90625 
L 76.515625 72.90625 
L 76.515625 0 
L 66.890625 0 
L 66.890625 64.015625 
L 48.09375 14.015625 
L 38.1875 14.015625 
L 19.390625 64.015625 
L 19.390625 0 
L 9.8125 0 
z
" id="DejaVuSans-77"/>
       <path d="M 53.515625 70.515625 
L 53.515625 60.890625 
Q 47.90625 63.578125 42.921875 64.890625 
Q 37.9375 66.21875 33.296875 66.21875 
Q 25.25 66.21875 20.875 63.09375 
Q 16.5 59.96875 16.5 54.203125 
Q 16.5 49.359375 19.40625 46.890625 
Q 22.3125 44.4375 30.421875 42.921875 
L 36.375 41.703125 
Q 47.40625 39.59375 52.65625 34.296875 
Q 57.90625 29 57.90625 20.125 
Q 57.90625 9.515625 50.796875 4.046875 
Q 43.703125 -1.421875 29.984375 -1.421875 
Q 24.8125 -1.421875 18.96875 -0.25 
Q 13.140625 0.921875 6.890625 3.21875 
L 6.890625 13.375 
Q 12.890625 10.015625 18.65625 8.296875 
Q 24.421875 6.59375 29.984375 6.59375 
Q 38.421875 6.59375 43.015625 9.90625 
Q 47.609375 13.234375 47.609375 19.390625 
Q 47.609375 24.75 44.3125 27.78125 
Q 41.015625 30.8125 33.5 32.328125 
L 27.484375 33.5 
Q 16.453125 35.6875 11.515625 40.375 
Q 6.59375 45.0625 6.59375 53.421875 
Q 6.59375 63.09375 13.40625 68.65625 
Q 20.21875 74.21875 32.171875 74.21875 
Q 37.3125 74.21875 42.625 73.28125 
Q 47.953125 72.359375 53.515625 70.515625 
z
" id="DejaVuSans-83"/>
       <path id="DejaVuSans-32"/>
       <path d="M 19.671875 64.796875 
L 19.671875 8.109375 
L 31.59375 8.109375 
Q 46.6875 8.109375 53.6875 14.9375 
Q 60.6875 21.78125 60.6875 36.53125 
Q 60.6875 51.171875 53.6875 57.984375 
Q 46.6875 64.796875 31.59375 64.796875 
z
M 9.8125 72.90625 
L 30.078125 72.90625 
Q 51.265625 72.90625 61.171875 64.09375 
Q 71.09375 55.28125 71.09375 36.53125 
Q 71.09375 17.671875 61.125 8.828125 
Q 51.171875 0 30.078125 0 
L 9.8125 0 
z
" id="DejaVuSans-68"/>
       <path d="M 9.421875 54.6875 
L 18.40625 54.6875 
L 18.40625 0 
L 9.421875 0 
z
M 9.421875 75.984375 
L 18.40625 75.984375 
L 18.40625 64.59375 
L 9.421875 64.59375 
z
" id="DejaVuSans-105"/>
       <path d="M 44.28125 53.078125 
L 44.28125 44.578125 
Q 40.484375 46.53125 36.375 47.5 
Q 32.28125 48.484375 27.875 48.484375 
Q 21.1875 48.484375 17.84375 46.4375 
Q 14.5 44.390625 14.5 40.28125 
Q 14.5 37.15625 16.890625 35.375 
Q 19.28125 33.59375 26.515625 31.984375 
L 29.59375 31.296875 
Q 39.15625 29.25 43.1875 25.515625 
Q 47.21875 21.78125 47.21875 15.09375 
Q 47.21875 7.46875 41.1875 3.015625 
Q 35.15625 -1.421875 24.609375 -1.421875 
Q 20.21875 -1.421875 15.453125 -0.5625 
Q 10.6875 0.296875 5.421875 2 
L 5.421875 11.28125 
Q 10.40625 8.6875 15.234375 7.390625 
Q 20.0625 6.109375 24.8125 6.109375 
Q 31.15625 6.109375 34.5625 8.28125 
Q 37.984375 10.453125 37.984375 14.40625 
Q 37.984375 18.0625 35.515625 20.015625 
Q 33.0625 21.96875 24.703125 23.78125 
L 21.578125 24.515625 
Q 13.234375 26.265625 9.515625 29.90625 
Q 5.8125 33.546875 5.8125 39.890625 
Q 5.8125 47.609375 11.28125 51.796875 
Q 16.75 56 26.8125 56 
Q 31.78125 56 36.171875 55.265625 
Q 40.578125 54.546875 44.28125 53.078125 
z
" id="DejaVuSans-115"/>
       <path d="M 18.109375 8.203125 
L 18.109375 -20.796875 
L 9.078125 -20.796875 
L 9.078125 54.6875 
L 18.109375 54.6875 
L 18.109375 46.390625 
Q 20.953125 51.265625 25.265625 53.625 
Q 29.59375 56 35.59375 56 
Q 45.5625 56 51.78125 48.09375 
Q 58.015625 40.1875 58.015625 27.296875 
Q 58.015625 14.40625 51.78125 6.484375 
Q 45.5625 -1.421875 35.59375 -1.421875 
Q 29.59375 -1.421875 25.265625 0.953125 
Q 20.953125 3.328125 18.109375 8.203125 
z
M 48.6875 27.296875 
Q 48.6875 37.203125 44.609375 42.84375 
Q 40.53125 48.484375 33.40625 48.484375 
Q 26.265625 48.484375 22.1875 42.84375 
Q 18.109375 37.203125 18.109375 27.296875 
Q 18.109375 17.390625 22.1875 11.75 
Q 26.265625 6.109375 33.40625 6.109375 
Q 40.53125 6.109375 44.609375 11.75 
Q 48.6875 17.390625 48.6875 27.296875 
z
" id="DejaVuSans-112"/>
       <path d="M 9.421875 75.984375 
L 18.40625 75.984375 
L 18.40625 0 
L 9.421875 0 
z
" id="DejaVuSans-108"/>
       <path d="M 34.28125 27.484375 
Q 23.390625 27.484375 19.1875 25 
Q 14.984375 22.515625 14.984375 16.5 
Q 14.984375 11.71875 18.140625 8.90625 
Q 21.296875 6.109375 26.703125 6.109375 
Q 34.1875 6.109375 38.703125 11.40625 
Q 43.21875 16.703125 43.21875 25.484375 
L 43.21875 27.484375 
z
M 52.203125 31.203125 
L 52.203125 0 
L 43.21875 0 
L 43.21875 8.296875 
Q 40.140625 3.328125 35.546875 0.953125 
Q 30.953125 -1.421875 24.3125 -1.421875 
Q 15.921875 -1.421875 10.953125 3.296875 
Q 6 8.015625 6 15.921875 
Q 6 25.140625 12.171875 29.828125 
Q 18.359375 34.515625 30.609375 34.515625 
L 43.21875 34.515625 
L 43.21875 35.40625 
Q 43.21875 41.609375 39.140625 45 
Q 35.0625 48.390625 27.6875 48.390625 
Q 23 48.390625 18.546875 47.265625 
Q 14.109375 46.140625 10.015625 43.890625 
L 10.015625 52.203125 
Q 14.9375 54.109375 19.578125 55.046875 
Q 24.21875 56 28.609375 56 
Q 40.484375 56 46.34375 49.84375 
Q 52.203125 43.703125 52.203125 31.203125 
z
" id="DejaVuSans-97"/>
       <path d="M 48.78125 52.59375 
L 48.78125 44.1875 
Q 44.96875 46.296875 41.140625 47.34375 
Q 37.3125 48.390625 33.40625 48.390625 
Q 24.65625 48.390625 19.8125 42.84375 
Q 14.984375 37.3125 14.984375 27.296875 
Q 14.984375 17.28125 19.8125 11.734375 
Q 24.65625 6.203125 33.40625 6.203125 
Q 37.3125 6.203125 41.140625 7.25 
Q 44.96875 8.296875 48.78125 10.40625 
L 48.78125 2.09375 
Q 45.015625 0.34375 40.984375 -0.53125 
Q 36.96875 -1.421875 32.421875 -1.421875 
Q 20.0625 -1.421875 12.78125 6.34375 
Q 5.515625 14.109375 5.515625 27.296875 
Q 5.515625 40.671875 12.859375 48.328125 
Q 20.21875 56 33.015625 56 
Q 37.15625 56 41.109375 55.140625 
Q 45.0625 54.296875 48.78125 52.59375 
z
" id="DejaVuSans-99"/>
       <path d="M 56.203125 29.59375 
L 56.203125 25.203125 
L 14.890625 25.203125 
Q 15.484375 15.921875 20.484375 11.0625 
Q 25.484375 6.203125 34.421875 6.203125 
Q 39.59375 6.203125 44.453125 7.46875 
Q 49.3125 8.734375 54.109375 11.28125 
L 54.109375 2.78125 
Q 49.265625 0.734375 44.1875 -0.34375 
Q 39.109375 -1.421875 33.890625 -1.421875 
Q 20.796875 -1.421875 13.15625 6.1875 
Q 5.515625 13.8125 5.515625 26.8125 
Q 5.515625 40.234375 12.765625 48.109375 
Q 20.015625 56 32.328125 56 
Q 43.359375 56 49.78125 48.890625 
Q 56.203125 41.796875 56.203125 29.59375 
z
M 47.21875 32.234375 
Q 47.125 39.59375 43.09375 43.984375 
Q 39.0625 48.390625 32.421875 48.390625 
Q 24.90625 48.390625 20.390625 44.140625 
Q 15.875 39.890625 15.1875 32.171875 
z
" id="DejaVuSans-101"/>
       <path d="M 52 44.1875 
Q 55.375 50.25 60.0625 53.125 
Q 64.75 56 71.09375 56 
Q 79.640625 56 84.28125 50.015625 
Q 88.921875 44.046875 88.921875 33.015625 
L 88.921875 0 
L 79.890625 0 
L 79.890625 32.71875 
Q 79.890625 40.578125 77.09375 44.375 
Q 74.3125 48.1875 68.609375 48.1875 
Q 61.625 48.1875 57.5625 43.546875 
Q 53.515625 38.921875 53.515625 30.90625 
L 53.515625 0 
L 44.484375 0 
L 44.484375 32.71875 
Q 44.484375 40.625 41.703125 44.40625 
Q 38.921875 48.1875 33.109375 48.1875 
Q 26.21875 48.1875 22.15625 43.53125 
Q 18.109375 38.875 18.109375 30.90625 
L 18.109375 0 
L 9.078125 0 
L 9.078125 54.6875 
L 18.109375 54.6875 
L 18.109375 46.1875 
Q 21.1875 51.21875 25.484375 53.609375 
Q 29.78125 56 35.6875 56 
Q 41.65625 56 45.828125 52.96875 
Q 50 49.953125 52 44.1875 
z
" id="DejaVuSans-109"/>
       <path d="M 54.890625 33.015625 
L 54.890625 0 
L 45.90625 0 
L 45.90625 32.71875 
Q 45.90625 40.484375 42.875 44.328125 
Q 39.84375 48.1875 33.796875 48.1875 
Q 26.515625 48.1875 22.3125 43.546875 
Q 18.109375 38.921875 18.109375 30.90625 
L 18.109375 0 
L 9.078125 0 
L 9.078125 54.6875 
L 18.109375 54.6875 
L 18.109375 46.1875 
Q 21.34375 51.125 25.703125 53.5625 
Q 30.078125 56 35.796875 56 
Q 45.21875 56 50.046875 50.171875 
Q 54.890625 44.34375 54.890625 33.015625 
z
" id="DejaVuSans-110"/>
       <path d="M 18.3125 70.21875 
L 18.3125 54.6875 
L 36.8125 54.6875 
L 36.8125 47.703125 
L 18.3125 47.703125 
L 18.3125 18.015625 
Q 18.3125 11.328125 20.140625 9.421875 
Q 21.96875 7.515625 27.59375 7.515625 
L 36.8125 7.515625 
L 36.8125 0 
L 27.59375 0 
Q 17.1875 0 13.234375 3.875 
Q 9.28125 7.765625 9.28125 18.015625 
L 9.28125 47.703125 
L 2.6875 47.703125 
L 2.6875 54.6875 
L 9.28125 54.6875 
L 9.28125 70.21875 
z
" id="DejaVuSans-116"/>
       <path d="M 31 75.875 
Q 24.46875 64.65625 21.28125 53.65625 
Q 18.109375 42.671875 18.109375 31.390625 
Q 18.109375 20.125 21.3125 9.0625 
Q 24.515625 -2 31 -13.1875 
L 23.1875 -13.1875 
Q 15.875 -1.703125 12.234375 9.375 
Q 8.59375 20.453125 8.59375 31.390625 
Q 8.59375 42.28125 12.203125 53.3125 
Q 15.828125 64.359375 23.1875 75.875 
z
" id="DejaVuSans-40"/>
       <path d="M 8.9375 31.34375 
L 22.703125 75.875 
L 31 75.875 
L 17.234375 31.34375 
L 31 -13.1875 
L 22.703125 -13.1875 
z
" id="DejaVuSans-10216"/>
       <path d="M 60.015625 54.6875 
L 34.90625 27.875 
L 50.296875 0 
L 39.984375 0 
L 28.421875 21.6875 
L 8.296875 0 
L -2.59375 0 
L 24.3125 28.8125 
L 10.015625 54.6875 
L 20.3125 54.6875 
L 30.8125 34.90625 
L 49.125 54.6875 
z
" id="DejaVuSans-Oblique-120"/>
       <path d="M 18.3125 75.984375 
L 27.296875 75.984375 
L 25.09375 64.59375 
L 16.109375 64.59375 
z
M 14.203125 54.6875 
L 23.1875 54.6875 
L 12.5 0 
L 3.515625 0 
z
" id="DejaVuSans-Oblique-105"/>
       <path d="M 30.078125 31.34375 
L 16.3125 -13.1875 
L 8.015625 -13.1875 
L 21.78125 31.34375 
L 8.015625 75.875 
L 16.3125 75.875 
z
" id="DejaVuSans-10217"/>
       <path d="M 19.1875 8.296875 
L 53.609375 8.296875 
L 53.609375 0 
L 7.328125 0 
L 7.328125 8.296875 
Q 12.9375 14.109375 22.625 23.890625 
Q 32.328125 33.6875 34.8125 36.53125 
Q 39.546875 41.84375 41.421875 45.53125 
Q 43.3125 49.21875 43.3125 52.78125 
Q 43.3125 58.59375 39.234375 62.25 
Q 35.15625 65.921875 28.609375 65.921875 
Q 23.96875 65.921875 18.8125 64.3125 
Q 13.671875 62.703125 7.8125 59.421875 
L 7.8125 69.390625 
Q 13.765625 71.78125 18.9375 73 
Q 24.125 74.21875 28.421875 74.21875 
Q 39.75 74.21875 46.484375 68.546875 
Q 53.21875 62.890625 53.21875 53.421875 
Q 53.21875 48.921875 51.53125 44.890625 
Q 49.859375 40.875 45.40625 35.40625 
Q 44.1875 33.984375 37.640625 27.21875 
Q 31.109375 20.453125 19.1875 8.296875 
z
" id="DejaVuSans-50"/>
       <path d="M 8.015625 75.875 
L 15.828125 75.875 
Q 23.140625 64.359375 26.78125 53.3125 
Q 30.421875 42.28125 30.421875 31.390625 
Q 30.421875 20.453125 26.78125 9.375 
Q 23.140625 -1.703125 15.828125 -13.1875 
L 8.015625 -13.1875 
Q 14.5 -2 17.703125 9.0625 
Q 20.90625 20.125 20.90625 31.390625 
Q 20.90625 42.671875 17.703125 53.65625 
Q 14.5 64.65625 8.015625 75.875 
z
" id="DejaVuSans-41"/>
      </defs>
      <use transform="translate(0 0.765625)" xlink:href="#DejaVuSans-82"/>
      <use transform="translate(69.482422 0.765625)" xlink:href="#DejaVuSans-77"/>
      <use transform="translate(155.761719 0.765625)" xlink:href="#DejaVuSans-83"/>
      <use transform="translate(219.238281 0.765625)" xlink:href="#DejaVuSans-32"/>
      <use transform="translate(251.025391 0.765625)" xlink:href="#DejaVuSans-68"/>
      <use transform="translate(328.027344 0.765625)" xlink:href="#DejaVuSans-105"/>
      <use transform="translate(355.810547 0.765625)" xlink:href="#DejaVuSans-115"/>
      <use transform="translate(407.910156 0.765625)" xlink:href="#DejaVuSans-112"/>
      <use transform="translate(471.386719 0.765625)" xlink:href="#DejaVuSans-108"/>
      <use transform="translate(499.169922 0.765625)" xlink:href="#DejaVuSans-97"/>
      <use transform="translate(560.449219 0.765625)" xlink:href="#DejaVuSans-99"/>
      <use transform="translate(615.429688 0.765625)" xlink:href="#DejaVuSans-101"/>
      <use transform="translate(676.953125 0.765625)" xlink:href="#DejaVuSans-109"/>
      <use transform="translate(774.365234 0.765625)" xlink:href="#DejaVuSans-101"/>
      <use transform="translate(835.888672 0.765625)" xlink:href="#DejaVuSans-110"/>
      <use transform="translate(899.267578 0.765625)" xlink:href="#DejaVuSans-116"/>
      <use transform="translate(938.476562 0.765625)" xlink:href="#DejaVuSans-32"/>
      <use transform="translate(970.263672 0.765625)" xlink:href="#DejaVuSans-40"/>
      <use transform="translate(1009.277344 0.765625)" xlink:href="#DejaVuSans-10216"/>
      <use transform="translate(1048.291016 0.765625)" xlink:href="#DejaVuSans-Oblique-120"/>
      <use transform="translate(1107.470703 -15.640625)scale(0.7)" xlink:href="#DejaVuSans-Oblique-105"/>
      <use transform="translate(1129.65332 0.765625)" xlink:href="#DejaVuSans-10217"/>
      <use transform="translate(1169.624023 39.046875)scale(0.7)" xlink:href="#DejaVuSans-50"/>
      <use transform="translate(1216.894531 0.765625)" xlink:href="#DejaVuSans-41"/>
     </g>
    </g>
   </g>
   <g id="line2d_33">
    <path clip-path="url(#p9958cec040)" d="M 146.709249 331.271475 
L 178.756948 296.925205 
L 197.50365 259.462026 
L 210.804647 241.953303 
L 221.121702 229.642646 
L 229.55135 219.54752 
L 236.678515 201.631994 
L 242.852346 175.347817 
L 248.298052 160.993921 
L 253.169401 149.337347 
L 257.576073 153.717473 
L 261.599049 155.327625 
L 265.299828 153.378032 
L 268.726214 151.681819 
L 271.916103 149.395228 
L 274.900046 146.353627 
L 277.703028 138.578185 
L 280.345751 131.543647 
L 282.845552 135.447875 
L 285.2171 135.21553 
L 287.472916 138.938983 
L 289.623772 137.573197 
L 291.679002 135.658013 
L 293.646748 125.540958 
L 295.534155 118.140753 
L 297.347527 118.345954 
L 299.092453 113.271242 
L 300.773913 111.000843 
L 302.396362 104.745545 
L 303.963803 110.946751 
L 305.479842 114.680944 
L 306.947745 110.039453 
L 308.370474 101.104428 
L 309.750728 94.826421 
L 311.090968 94.952032 
L 312.39345 97.045797 
L 313.660243 97.237554 
L 314.893251 94.402517 
L 316.094229 90.613711 
" style="fill:none;stroke:#1f77b4;stroke-dasharray:1.5,2.475;stroke-dashoffset:0;stroke-width:1.5;"/>
   </g>
   <g id="line2d_34">
    <path clip-path="url(#p9958cec040)" d="M 146.709249 466.433861 
L 178.756948 456.487619 
L 197.50365 445.182041 
L 210.804647 440.905409 
L 221.121702 432.846478 
L 229.55135 420.072738 
L 236.678515 409.109536 
L 242.852346 405.109074 
L 248.298052 408.79261 
L 253.169401 410.647287 
L 257.576073 408.919716 
L 261.599049 407.64652 
L 265.299828 407.695674 
L 268.726214 404.41536 
L 271.916103 399.271758 
L 274.900046 394.311167 
L 277.703028 393.053631 
L 280.345751 390.96088 
L 282.845552 389.620915 
L 285.2171 385.989103 
L 287.472916 386.363714 
L 289.623772 386.108729 
L 291.679002 389.199749 
L 293.646748 390.357847 
L 295.534155 387.71213 
L 297.347527 379.792387 
L 299.092453 372.006313 
L 300.773913 372.667527 
L 302.396362 376.23196 
L 303.963803 375.900817 
L 305.479842 372.242858 
L 306.947745 371.503562 
L 308.370474 372.108007 
L 309.750728 368.558216 
L 311.090968 366.787486 
L 312.39345 365.304389 
L 313.660243 369.027542 
L 314.893251 369.365725 
L 316.094229 371.253986 
" style="fill:none;stroke:#ff7f0e;stroke-linecap:square;stroke-width:1.5;"/>
   </g>
   <g id="line2d_35">
    <path clip-path="url(#p9958cec040)" d="M 146.709249 377.631434 
L 178.756948 365.514119 
L 197.50365 357.670424 
L 210.804647 330.880123 
L 221.121702 306.464071 
L 229.55135 299.567395 
L 236.678515 299.804273 
L 242.852346 321.373741 
L 248.298052 289.822207 
L 253.169401 270.347349 
L 257.576073 230.370007 
L 261.599049 222.865367 
L 265.299828 219.061753 
L 268.726214 231.542865 
L 271.916103 221.281991 
L 274.900046 220.885148 
L 277.703028 220.447725 
L 280.345751 226.184474 
L 282.845552 206.828416 
L 285.2171 199.235532 
L 287.472916 197.947651 
L 289.623772 211.948812 
L 291.679002 216.597901 
L 293.646748 222.738912 
L 295.534155 219.410436 
L 297.347527 201.854267 
L 299.092453 193.181172 
L 300.773913 194.264413 
L 302.396362 205.556407 
L 303.963803 209.535467 
L 305.479842 206.069063 
L 306.947745 202.788095 
L 308.370474 202.302103 
L 309.750728 207.733234 
L 311.090968 215.767861 
L 312.39345 216.329475 
L 313.660243 214.91623 
L 314.893251 208.882988 
L 316.094229 207.920027 
" style="fill:none;stroke:#2ca02c;stroke-dasharray:5.55,2.4;stroke-dashoffset:0;stroke-width:1.5;"/>
   </g>
   <g id="patch_3">
    <path d="M 138.24 487.6488 
L 138.24 65.7504 
" style="fill:none;stroke:#000000;stroke-linecap:square;stroke-linejoin:miter;stroke-width:0.8;"/>
   </g>
   <g id="patch_4">
    <path d="M 324.563478 487.6488 
L 324.563478 65.7504 
" style="fill:none;stroke:#000000;stroke-linecap:square;stroke-linejoin:miter;stroke-width:0.8;"/>
   </g>
   <g id="patch_5">
    <path d="M 138.24 487.6488 
L 324.563478 487.6488 
" style="fill:none;stroke:#000000;stroke-linecap:square;stroke-linejoin:miter;stroke-width:0.8;"/>
   </g>
   <g id="patch_6">
    <path d="M 138.24 65.7504 
L 324.563478 65.7504 
" style="fill:none;stroke:#000000;stroke-linecap:square;stroke-linejoin:miter;stroke-width:0.8;"/>
   </g>
  </g>
  <g id="axes_2">
   <g id="patch_7">
    <path d="M 361.828174 487.6488 
L 548.151652 487.6488 
L 548.151652 65.7504 
L 361.828174 65.7504 
z
" style="fill:#ffffff;"/>
   </g>
   <g id="matplotlib.axis_3">
    <g id="xtick_17">
     <g id="line2d_36">
      <g>
       <use style="stroke:#000000;stroke-width:0.8;" x="402.345122" xlink:href="#m30aad8c357" y="487.6488"/>
      </g>
     </g>
     <g id="text_6">
      <!-- $\mathdefault{10^{5}}$ -->
      <g transform="translate(390.905122 504.526769)scale(0.13 -0.13)">
       <use transform="translate(0 0.684375)" xlink:href="#DejaVuSans-49"/>
       <use transform="translate(63.623047 0.684375)" xlink:href="#DejaVuSans-48"/>
       <use transform="translate(128.203125 38.965625)scale(0.7)" xlink:href="#DejaVuSans-53"/>
      </g>
     </g>
    </g>
    <g id="xtick_18">
     <g id="line2d_37">
      <g>
       <use style="stroke:#000000;stroke-width:0.8;" x="508.805274" xlink:href="#m30aad8c357" y="487.6488"/>
      </g>
     </g>
     <g id="text_7">
      <!-- $\mathdefault{10^{6}}$ -->
      <g transform="translate(497.365274 504.526769)scale(0.13 -0.13)">
       <use transform="translate(0 0.765625)" xlink:href="#DejaVuSans-49"/>
       <use transform="translate(63.623047 0.765625)" xlink:href="#DejaVuSans-48"/>
       <use transform="translate(128.203125 39.046875)scale(0.7)" xlink:href="#DejaVuSans-54"/>
      </g>
     </g>
    </g>
    <g id="xtick_19">
     <g id="line2d_38">
      <g>
       <use style="stroke:#000000;stroke-width:0.6;" x="370.297423" xlink:href="#m0f3a2bd00b" y="487.6488"/>
      </g>
     </g>
    </g>
    <g id="xtick_20">
     <g id="line2d_39">
      <g>
       <use style="stroke:#000000;stroke-width:0.6;" x="378.72707" xlink:href="#m0f3a2bd00b" y="487.6488"/>
      </g>
     </g>
    </g>
    <g id="xtick_21">
     <g id="line2d_40">
      <g>
       <use style="stroke:#000000;stroke-width:0.6;" x="385.854236" xlink:href="#m0f3a2bd00b" y="487.6488"/>
      </g>
     </g>
    </g>
    <g id="xtick_22">
     <g id="line2d_41">
      <g>
       <use style="stroke:#000000;stroke-width:0.6;" x="392.028067" xlink:href="#m0f3a2bd00b" y="487.6488"/>
      </g>
     </g>
    </g>
    <g id="xtick_23">
     <g id="line2d_42">
      <g>
       <use style="stroke:#000000;stroke-width:0.6;" x="397.473773" xlink:href="#m0f3a2bd00b" y="487.6488"/>
      </g>
     </g>
    </g>
    <g id="xtick_24">
     <g id="line2d_43">
      <g>
       <use style="stroke:#000000;stroke-width:0.6;" x="434.392821" xlink:href="#m0f3a2bd00b" y="487.6488"/>
      </g>
     </g>
    </g>
    <g id="xtick_25">
     <g id="line2d_44">
      <g>
       <use style="stroke:#000000;stroke-width:0.6;" x="453.139523" xlink:href="#m0f3a2bd00b" y="487.6488"/>
      </g>
     </g>
    </g>
    <g id="xtick_26">
     <g id="line2d_45">
      <g>
       <use style="stroke:#000000;stroke-width:0.6;" x="466.44052" xlink:href="#m0f3a2bd00b" y="487.6488"/>
      </g>
     </g>
    </g>
    <g id="xtick_27">
     <g id="line2d_46">
      <g>
       <use style="stroke:#000000;stroke-width:0.6;" x="476.757575" xlink:href="#m0f3a2bd00b" y="487.6488"/>
      </g>
     </g>
    </g>
    <g id="xtick_28">
     <g id="line2d_47">
      <g>
       <use style="stroke:#000000;stroke-width:0.6;" x="485.187223" xlink:href="#m0f3a2bd00b" y="487.6488"/>
      </g>
     </g>
    </g>
    <g id="xtick_29">
     <g id="line2d_48">
      <g>
       <use style="stroke:#000000;stroke-width:0.6;" x="492.314388" xlink:href="#m0f3a2bd00b" y="487.6488"/>
      </g>
     </g>
    </g>
    <g id="xtick_30">
     <g id="line2d_49">
      <g>
       <use style="stroke:#000000;stroke-width:0.6;" x="498.48822" xlink:href="#m0f3a2bd00b" y="487.6488"/>
      </g>
     </g>
    </g>
    <g id="xtick_31">
     <g id="line2d_50">
      <g>
       <use style="stroke:#000000;stroke-width:0.6;" x="503.933925" xlink:href="#m0f3a2bd00b" y="487.6488"/>
      </g>
     </g>
    </g>
    <g id="xtick_32">
     <g id="line2d_51">
      <g>
       <use style="stroke:#000000;stroke-width:0.6;" x="540.852973" xlink:href="#m0f3a2bd00b" y="487.6488"/>
      </g>
     </g>
    </g>
   </g>
   <g id="matplotlib.axis_4">
    <g id="ytick_17">
     <g id="line2d_52">
      <g>
       <use style="stroke:#000000;stroke-width:0.8;" x="361.828174" xlink:href="#m11f7e98db5" y="388.197837"/>
      </g>
     </g>
    </g>
    <g id="ytick_18">
     <g id="line2d_53">
      <g>
       <use style="stroke:#000000;stroke-width:0.8;" x="361.828174" xlink:href="#m11f7e98db5" y="138.283374"/>
      </g>
     </g>
    </g>
    <g id="ytick_19">
     <g id="line2d_54">
      <g>
       <use style="stroke:#000000;stroke-width:0.6;" x="361.828174" xlink:href="#m3a32e6e4be" y="487.6488"/>
      </g>
     </g>
    </g>
    <g id="ytick_20">
     <g id="line2d_55">
      <g>
       <use style="stroke:#000000;stroke-width:0.6;" x="361.828174" xlink:href="#m3a32e6e4be" y="463.429586"/>
      </g>
     </g>
    </g>
    <g id="ytick_21">
     <g id="line2d_56">
      <g>
       <use style="stroke:#000000;stroke-width:0.6;" x="361.828174" xlink:href="#m3a32e6e4be" y="443.641048"/>
      </g>
     </g>
    </g>
    <g id="ytick_22">
     <g id="line2d_57">
      <g>
       <use style="stroke:#000000;stroke-width:0.6;" x="361.828174" xlink:href="#m3a32e6e4be" y="426.910077"/>
      </g>
     </g>
    </g>
    <g id="ytick_23">
     <g id="line2d_58">
      <g>
       <use style="stroke:#000000;stroke-width:0.6;" x="361.828174" xlink:href="#m3a32e6e4be" y="412.41705"/>
      </g>
     </g>
    </g>
    <g id="ytick_24">
     <g id="line2d_59">
      <g>
       <use style="stroke:#000000;stroke-width:0.6;" x="361.828174" xlink:href="#m3a32e6e4be" y="399.633295"/>
      </g>
     </g>
    </g>
    <g id="ytick_25">
     <g id="line2d_60">
      <g>
       <use style="stroke:#000000;stroke-width:0.6;" x="361.828174" xlink:href="#m3a32e6e4be" y="312.966087"/>
      </g>
     </g>
    </g>
    <g id="ytick_26">
     <g id="line2d_61">
      <g>
       <use style="stroke:#000000;stroke-width:0.6;" x="361.828174" xlink:href="#m3a32e6e4be" y="268.958335"/>
      </g>
     </g>
    </g>
    <g id="ytick_27">
     <g id="line2d_62">
      <g>
       <use style="stroke:#000000;stroke-width:0.6;" x="361.828174" xlink:href="#m3a32e6e4be" y="237.734337"/>
      </g>
     </g>
    </g>
    <g id="ytick_28">
     <g id="line2d_63">
      <g>
       <use style="stroke:#000000;stroke-width:0.6;" x="361.828174" xlink:href="#m3a32e6e4be" y="213.515124"/>
      </g>
     </g>
    </g>
    <g id="ytick_29">
     <g id="line2d_64">
      <g>
       <use style="stroke:#000000;stroke-width:0.6;" x="361.828174" xlink:href="#m3a32e6e4be" y="193.726585"/>
      </g>
     </g>
    </g>
    <g id="ytick_30">
     <g id="line2d_65">
      <g>
       <use style="stroke:#000000;stroke-width:0.6;" x="361.828174" xlink:href="#m3a32e6e4be" y="176.995614"/>
      </g>
     </g>
    </g>
    <g id="ytick_31">
     <g id="line2d_66">
      <g>
       <use style="stroke:#000000;stroke-width:0.6;" x="361.828174" xlink:href="#m3a32e6e4be" y="162.502588"/>
      </g>
     </g>
    </g>
    <g id="ytick_32">
     <g id="line2d_67">
      <g>
       <use style="stroke:#000000;stroke-width:0.6;" x="361.828174" xlink:href="#m3a32e6e4be" y="149.718833"/>
      </g>
     </g>
    </g>
   </g>
   <g id="line2d_68">
    <path clip-path="url(#p45c24df6c6)" d="M 370.297423 328.621811 
L 402.345122 311.34572 
L 421.091824 295.356581 
L 434.392821 277.09903 
L 444.709876 245.762635 
L 453.139523 226.36034 
L 460.266689 207.926775 
L 466.44052 194.587343 
L 471.886226 171.495774 
L 476.757575 154.382655 
L 481.164247 151.59365 
L 485.187223 159.858841 
L 488.888002 174.260442 
L 492.314388 170.538305 
L 495.504277 159.080855 
L 498.48822 136.753018 
L 501.291202 129.967266 
L 503.933925 122.223253 
L 506.433726 128.343936 
L 508.805274 128.628604 
L 511.06109 129.002899 
L 513.211946 122.680976 
L 515.267176 118.0219 
L 517.234922 114.646768 
L 519.122329 110.91972 
L 520.935701 106.96387 
L 522.680627 110.436131 
L 524.362087 111.675107 
L 525.984536 112.202511 
L 527.551977 110.236267 
L 529.068016 111.132494 
L 530.535919 112.448404 
L 531.958648 102.343474 
L 533.338902 90.575471 
L 534.679142 84.830565 
L 535.981624 89.841713 
L 537.248417 95.116901 
L 538.481425 96.973008 
L 539.682403 94.877035 
" style="fill:none;stroke:#1f77b4;stroke-dasharray:1.5,2.475;stroke-dashoffset:0;stroke-width:1.5;"/>
   </g>
   <g id="line2d_69">
    <path clip-path="url(#p45c24df6c6)" d="M 370.297423 451.249538 
L 402.345122 452.525895 
L 421.091824 449.424152 
L 434.392821 446.409683 
L 444.709876 432.696094 
L 453.139523 428.627685 
L 460.266689 422.302606 
L 466.44052 423.617958 
L 471.886226 415.740761 
L 476.757575 412.075499 
L 481.164247 409.067304 
L 485.187223 406.827798 
L 488.888002 405.86393 
L 492.314388 406.545073 
L 495.504277 406.907455 
L 498.48822 407.184674 
L 501.291202 405.042986 
L 503.933925 402.597177 
L 506.433726 398.557258 
L 508.805274 396.144814 
L 511.06109 397.184757 
L 513.211946 396.827029 
L 515.267176 392.930422 
L 517.234922 388.569393 
L 519.122329 384.516868 
L 520.935701 384.666667 
L 522.680627 387.577435 
L 524.362087 389.625443 
L 525.984536 386.483725 
L 527.551977 385.314504 
L 529.068016 385.348404 
L 530.535919 387.657162 
L 531.958648 385.355739 
L 533.338902 386.441457 
L 534.679142 387.884595 
L 535.981624 386.598629 
L 537.248417 382.471246 
L 538.481425 380.846223 
L 539.682403 382.595987 
" style="fill:none;stroke:#ff7f0e;stroke-linecap:square;stroke-width:1.5;"/>
   </g>
   <g id="line2d_70">
    <path clip-path="url(#p45c24df6c6)" d="M 370.297423 416.806167 
L 402.345122 412.099561 
L 421.091824 401.22323 
L 434.392821 368.930357 
L 444.709876 352.86948 
L 453.139523 332.640802 
L 460.266689 348.986268 
L 466.44052 323.599976 
L 471.886226 302.989642 
L 476.757575 276.081136 
L 481.164247 264.035268 
L 485.187223 263.780896 
L 488.888002 263.608724 
L 492.314388 259.631092 
L 495.504277 227.177585 
L 498.48822 222.22229 
L 501.291202 222.592335 
L 503.933925 242.825779 
L 506.433726 233.474423 
L 508.805274 242.987395 
L 511.06109 255.999114 
L 513.211946 264.753019 
L 515.267176 237.735391 
L 517.234922 229.342992 
L 519.122329 242.09312 
L 520.935701 275.067752 
L 522.680627 284.808793 
L 524.362087 268.442213 
L 525.984536 261.357967 
L 527.551977 262.767129 
L 529.068016 274.177562 
L 530.535919 272.866904 
L 531.958648 263.26468 
L 533.338902 247.034359 
L 534.679142 219.869666 
L 535.981624 220.627592 
L 537.248417 225.774931 
L 538.481425 254.076093 
L 539.682403 258.450555 
" style="fill:none;stroke:#2ca02c;stroke-dasharray:5.55,2.4;stroke-dashoffset:0;stroke-width:1.5;"/>
   </g>
   <g id="patch_8">
    <path d="M 361.828174 487.6488 
L 361.828174 65.7504 
" style="fill:none;stroke:#000000;stroke-linecap:square;stroke-linejoin:miter;stroke-width:0.8;"/>
   </g>
   <g id="patch_9">
    <path d="M 548.151652 487.6488 
L 548.151652 65.7504 
" style="fill:none;stroke:#000000;stroke-linecap:square;stroke-linejoin:miter;stroke-width:0.8;"/>
   </g>
   <g id="patch_10">
    <path d="M 361.828174 487.6488 
L 548.151652 487.6488 
" style="fill:none;stroke:#000000;stroke-linecap:square;stroke-linejoin:miter;stroke-width:0.8;"/>
   </g>
   <g id="patch_11">
    <path d="M 361.828174 65.7504 
L 548.151652 65.7504 
" style="fill:none;stroke:#000000;stroke-linecap:square;stroke-linejoin:miter;stroke-width:0.8;"/>
   </g>
  </g>
  <g id="axes_3">
   <g id="patch_12">
    <path d="M 585.416348 487.6488 
L 771.739826 487.6488 
L 771.739826 65.7504 
L 585.416348 65.7504 
z
" style="fill:#ffffff;"/>
   </g>
   <g id="matplotlib.axis_5">
    <g id="xtick_33">
     <g id="line2d_71">
      <g>
       <use style="stroke:#000000;stroke-width:0.8;" x="625.933296" xlink:href="#m30aad8c357" y="487.6488"/>
      </g>
     </g>
     <g id="text_8">
      <!-- $\mathdefault{10^{5}}$ -->
      <g transform="translate(614.493296 504.526769)scale(0.13 -0.13)">
       <use transform="translate(0 0.684375)" xlink:href="#DejaVuSans-49"/>
       <use transform="translate(63.623047 0.684375)" xlink:href="#DejaVuSans-48"/>
       <use transform="translate(128.203125 38.965625)scale(0.7)" xlink:href="#DejaVuSans-53"/>
      </g>
     </g>
    </g>
    <g id="xtick_34">
     <g id="line2d_72">
      <g>
       <use style="stroke:#000000;stroke-width:0.8;" x="732.393448" xlink:href="#m30aad8c357" y="487.6488"/>
      </g>
     </g>
     <g id="text_9">
      <!-- $\mathdefault{10^{6}}$ -->
      <g transform="translate(720.953448 504.526769)scale(0.13 -0.13)">
       <use transform="translate(0 0.765625)" xlink:href="#DejaVuSans-49"/>
       <use transform="translate(63.623047 0.765625)" xlink:href="#DejaVuSans-48"/>
       <use transform="translate(128.203125 39.046875)scale(0.7)" xlink:href="#DejaVuSans-54"/>
      </g>
     </g>
    </g>
    <g id="xtick_35">
     <g id="line2d_73">
      <g>
       <use style="stroke:#000000;stroke-width:0.6;" x="593.885597" xlink:href="#m0f3a2bd00b" y="487.6488"/>
      </g>
     </g>
    </g>
    <g id="xtick_36">
     <g id="line2d_74">
      <g>
       <use style="stroke:#000000;stroke-width:0.6;" x="602.315244" xlink:href="#m0f3a2bd00b" y="487.6488"/>
      </g>
     </g>
    </g>
    <g id="xtick_37">
     <g id="line2d_75">
      <g>
       <use style="stroke:#000000;stroke-width:0.6;" x="609.44241" xlink:href="#m0f3a2bd00b" y="487.6488"/>
      </g>
     </g>
    </g>
    <g id="xtick_38">
     <g id="line2d_76">
      <g>
       <use style="stroke:#000000;stroke-width:0.6;" x="615.616241" xlink:href="#m0f3a2bd00b" y="487.6488"/>
      </g>
     </g>
    </g>
    <g id="xtick_39">
     <g id="line2d_77">
      <g>
       <use style="stroke:#000000;stroke-width:0.6;" x="621.061947" xlink:href="#m0f3a2bd00b" y="487.6488"/>
      </g>
     </g>
    </g>
    <g id="xtick_40">
     <g id="line2d_78">
      <g>
       <use style="stroke:#000000;stroke-width:0.6;" x="657.980995" xlink:href="#m0f3a2bd00b" y="487.6488"/>
      </g>
     </g>
    </g>
    <g id="xtick_41">
     <g id="line2d_79">
      <g>
       <use style="stroke:#000000;stroke-width:0.6;" x="676.727697" xlink:href="#m0f3a2bd00b" y="487.6488"/>
      </g>
     </g>
    </g>
    <g id="xtick_42">
     <g id="line2d_80">
      <g>
       <use style="stroke:#000000;stroke-width:0.6;" x="690.028694" xlink:href="#m0f3a2bd00b" y="487.6488"/>
      </g>
     </g>
    </g>
    <g id="xtick_43">
     <g id="line2d_81">
      <g>
       <use style="stroke:#000000;stroke-width:0.6;" x="700.345749" xlink:href="#m0f3a2bd00b" y="487.6488"/>
      </g>
     </g>
    </g>
    <g id="xtick_44">
     <g id="line2d_82">
      <g>
       <use style="stroke:#000000;stroke-width:0.6;" x="708.775397" xlink:href="#m0f3a2bd00b" y="487.6488"/>
      </g>
     </g>
    </g>
    <g id="xtick_45">
     <g id="line2d_83">
      <g>
       <use style="stroke:#000000;stroke-width:0.6;" x="715.902562" xlink:href="#m0f3a2bd00b" y="487.6488"/>
      </g>
     </g>
    </g>
    <g id="xtick_46">
     <g id="line2d_84">
      <g>
       <use style="stroke:#000000;stroke-width:0.6;" x="722.076393" xlink:href="#m0f3a2bd00b" y="487.6488"/>
      </g>
     </g>
    </g>
    <g id="xtick_47">
     <g id="line2d_85">
      <g>
       <use style="stroke:#000000;stroke-width:0.6;" x="727.522099" xlink:href="#m0f3a2bd00b" y="487.6488"/>
      </g>
     </g>
    </g>
    <g id="xtick_48">
     <g id="line2d_86">
      <g>
       <use style="stroke:#000000;stroke-width:0.6;" x="764.441147" xlink:href="#m0f3a2bd00b" y="487.6488"/>
      </g>
     </g>
    </g>
    <g id="text_10">
     <!-- Time Step -->
     <g transform="translate(645.807931 521.108331)scale(0.13 -0.13)">
      <defs>
       <path d="M -0.296875 72.90625 
L 61.375 72.90625 
L 61.375 64.59375 
L 35.5 64.59375 
L 35.5 0 
L 25.59375 0 
L 25.59375 64.59375 
L -0.296875 64.59375 
z
" id="DejaVuSans-84"/>
      </defs>
      <use xlink:href="#DejaVuSans-84"/>
      <use x="57.958984" xlink:href="#DejaVuSans-105"/>
      <use x="85.742188" xlink:href="#DejaVuSans-109"/>
      <use x="183.154297" xlink:href="#DejaVuSans-101"/>
      <use x="244.677734" xlink:href="#DejaVuSans-32"/>
      <use x="276.464844" xlink:href="#DejaVuSans-83"/>
      <use x="339.941406" xlink:href="#DejaVuSans-116"/>
      <use x="379.150391" xlink:href="#DejaVuSans-101"/>
      <use x="440.673828" xlink:href="#DejaVuSans-112"/>
     </g>
    </g>
   </g>
   <g id="matplotlib.axis_6">
    <g id="ytick_33">
     <g id="line2d_87">
      <g>
       <use style="stroke:#000000;stroke-width:0.8;" x="585.416348" xlink:href="#m11f7e98db5" y="388.197837"/>
      </g>
     </g>
    </g>
    <g id="ytick_34">
     <g id="line2d_88">
      <g>
       <use style="stroke:#000000;stroke-width:0.8;" x="585.416348" xlink:href="#m11f7e98db5" y="138.283374"/>
      </g>
     </g>
    </g>
    <g id="ytick_35">
     <g id="line2d_89">
      <g>
       <use style="stroke:#000000;stroke-width:0.6;" x="585.416348" xlink:href="#m3a32e6e4be" y="487.6488"/>
      </g>
     </g>
    </g>
    <g id="ytick_36">
     <g id="line2d_90">
      <g>
       <use style="stroke:#000000;stroke-width:0.6;" x="585.416348" xlink:href="#m3a32e6e4be" y="463.429586"/>
      </g>
     </g>
    </g>
    <g id="ytick_37">
     <g id="line2d_91">
      <g>
       <use style="stroke:#000000;stroke-width:0.6;" x="585.416348" xlink:href="#m3a32e6e4be" y="443.641048"/>
      </g>
     </g>
    </g>
    <g id="ytick_38">
     <g id="line2d_92">
      <g>
       <use style="stroke:#000000;stroke-width:0.6;" x="585.416348" xlink:href="#m3a32e6e4be" y="426.910077"/>
      </g>
     </g>
    </g>
    <g id="ytick_39">
     <g id="line2d_93">
      <g>
       <use style="stroke:#000000;stroke-width:0.6;" x="585.416348" xlink:href="#m3a32e6e4be" y="412.41705"/>
      </g>
     </g>
    </g>
    <g id="ytick_40">
     <g id="line2d_94">
      <g>
       <use style="stroke:#000000;stroke-width:0.6;" x="585.416348" xlink:href="#m3a32e6e4be" y="399.633295"/>
      </g>
     </g>
    </g>
    <g id="ytick_41">
     <g id="line2d_95">
      <g>
       <use style="stroke:#000000;stroke-width:0.6;" x="585.416348" xlink:href="#m3a32e6e4be" y="312.966087"/>
      </g>
     </g>
    </g>
    <g id="ytick_42">
     <g id="line2d_96">
      <g>
       <use style="stroke:#000000;stroke-width:0.6;" x="585.416348" xlink:href="#m3a32e6e4be" y="268.958335"/>
      </g>
     </g>
    </g>
    <g id="ytick_43">
     <g id="line2d_97">
      <g>
       <use style="stroke:#000000;stroke-width:0.6;" x="585.416348" xlink:href="#m3a32e6e4be" y="237.734337"/>
      </g>
     </g>
    </g>
    <g id="ytick_44">
     <g id="line2d_98">
      <g>
       <use style="stroke:#000000;stroke-width:0.6;" x="585.416348" xlink:href="#m3a32e6e4be" y="213.515124"/>
      </g>
     </g>
    </g>
    <g id="ytick_45">
     <g id="line2d_99">
      <g>
       <use style="stroke:#000000;stroke-width:0.6;" x="585.416348" xlink:href="#m3a32e6e4be" y="193.726585"/>
      </g>
     </g>
    </g>
    <g id="ytick_46">
     <g id="line2d_100">
      <g>
       <use style="stroke:#000000;stroke-width:0.6;" x="585.416348" xlink:href="#m3a32e6e4be" y="176.995614"/>
      </g>
     </g>
    </g>
    <g id="ytick_47">
     <g id="line2d_101">
      <g>
       <use style="stroke:#000000;stroke-width:0.6;" x="585.416348" xlink:href="#m3a32e6e4be" y="162.502588"/>
      </g>
     </g>
    </g>
    <g id="ytick_48">
     <g id="line2d_102">
      <g>
       <use style="stroke:#000000;stroke-width:0.6;" x="585.416348" xlink:href="#m3a32e6e4be" y="149.718833"/>
      </g>
     </g>
    </g>
   </g>
   <g id="line2d_103">
    <path clip-path="url(#pe8813125d6)" d="M 593.885597 305.6169 
L 625.933296 279.48475 
L 644.679998 254.65258 
L 657.980995 230.568107 
L 668.29805 208.098094 
L 676.727697 195.420036 
L 683.854863 180.955972 
L 690.028694 169.174106 
L 695.4744 154.165271 
L 700.345749 141.664894 
L 704.752421 144.620802 
L 708.775397 150.548213 
L 712.476176 155.132499 
L 715.902562 137.662299 
L 719.092451 125.505564 
L 722.076393 114.818946 
L 724.879376 114.585978 
L 727.522099 114.481324 
L 730.0219 117.96743 
L 732.393448 121.245907 
L 734.649264 117.853404 
L 736.80012 117.463223 
L 738.85535 114.987674 
L 740.823096 111.301623 
L 742.710503 109.29519 
L 744.523875 104.856119 
L 746.268801 106.822523 
L 747.950261 104.506898 
L 749.57271 106.915834 
L 751.14015 102.219198 
L 752.65619 101.959569 
L 754.124093 98.485287 
L 755.546822 96.312521 
L 756.927075 95.033016 
L 758.267316 95.209264 
L 759.569798 99.223682 
L 760.836591 98.858812 
L 762.069599 99.145786 
L 763.270577 98.447075 
" style="fill:none;stroke:#1f77b4;stroke-dasharray:1.5,2.475;stroke-dashoffset:0;stroke-width:1.5;"/>
   </g>
   <g id="line2d_104">
    <path clip-path="url(#pe8813125d6)" d="M 593.885597 448.924059 
L 625.933296 446.248368 
L 644.679998 439.257864 
L 657.980995 426.582946 
L 668.29805 420.014901 
L 676.727697 417.146862 
L 683.854863 414.451571 
L 690.028694 410.838789 
L 695.4744 411.908816 
L 700.345749 407.192498 
L 704.752421 406.167436 
L 708.775397 402.198504 
L 712.476176 407.41564 
L 715.902562 407.860284 
L 719.092451 403.490669 
L 722.076393 397.416723 
L 724.879376 393.383855 
L 727.522099 395.02095 
L 730.0219 397.474663 
L 732.393448 397.582535 
L 734.649264 395.898454 
L 736.80012 387.694592 
L 738.85535 387.044704 
L 740.823096 385.918914 
L 742.710503 384.005311 
L 744.523875 382.12975 
L 746.268801 375.866011 
L 747.950261 379.099572 
L 749.57271 376.264112 
L 751.14015 379.370917 
L 752.65619 375.314392 
L 754.124093 370.256255 
L 755.546822 367.637429 
L 756.927075 370.182024 
L 758.267316 372.513852 
L 759.569798 371.711449 
L 760.836591 370.739379 
L 762.069599 373.072687 
L 763.270577 374.643259 
" style="fill:none;stroke:#ff7f0e;stroke-linecap:square;stroke-width:1.5;"/>
   </g>
   <g id="line2d_105">
    <path clip-path="url(#pe8813125d6)" d="M 593.885597 382.998117 
L 625.933296 373.431785 
L 644.679998 362.058934 
L 657.980995 318.563793 
L 668.29805 279.263556 
L 676.727697 270.623351 
L 683.854863 284.77903 
L 690.028694 300.897968 
L 695.4744 288.533514 
L 700.345749 262.476234 
L 704.752421 255.566887 
L 708.775397 250.32803 
L 712.476176 255.230772 
L 715.902562 261.391921 
L 719.092451 244.705056 
L 722.076393 248.657279 
L 724.879376 255.518225 
L 727.522099 281.890139 
L 730.0219 279.929735 
L 732.393448 264.700636 
L 734.649264 264.944803 
L 736.80012 257.429679 
L 738.85535 259.704334 
L 740.823096 254.99271 
L 742.710503 252.37654 
L 744.523875 249.775199 
L 746.268801 242.478135 
L 747.950261 241.173922 
L 749.57271 238.756172 
L 751.14015 248.377406 
L 752.65619 249.480345 
L 754.124093 245.199358 
L 755.546822 230.468559 
L 756.927075 229.553713 
L 758.267316 223.456057 
L 759.569798 218.544083 
L 760.836591 214.656715 
L 762.069599 212.189587 
L 763.270577 212.422964 
" style="fill:none;stroke:#2ca02c;stroke-dasharray:5.55,2.4;stroke-dashoffset:0;stroke-width:1.5;"/>
   </g>
   <g id="patch_13">
    <path d="M 585.416348 487.6488 
L 585.416348 65.7504 
" style="fill:none;stroke:#000000;stroke-linecap:square;stroke-linejoin:miter;stroke-width:0.8;"/>
   </g>
   <g id="patch_14">
    <path d="M 771.739826 487.6488 
L 771.739826 65.7504 
" style="fill:none;stroke:#000000;stroke-linecap:square;stroke-linejoin:miter;stroke-width:0.8;"/>
   </g>
   <g id="patch_15">
    <path d="M 585.416348 487.6488 
L 771.739826 487.6488 
" style="fill:none;stroke:#000000;stroke-linecap:square;stroke-linejoin:miter;stroke-width:0.8;"/>
   </g>
   <g id="patch_16">
    <path d="M 585.416348 65.7504 
L 771.739826 65.7504 
" style="fill:none;stroke:#000000;stroke-linecap:square;stroke-linejoin:miter;stroke-width:0.8;"/>
   </g>
  </g>
  <g id="axes_4">
   <g id="patch_17">
    <path d="M 809.004522 487.6488 
L 995.328 487.6488 
L 995.328 65.7504 
L 809.004522 65.7504 
z
" style="fill:#ffffff;"/>
   </g>
   <g id="matplotlib.axis_7">
    <g id="xtick_49">
     <g id="line2d_106">
      <g>
       <use style="stroke:#000000;stroke-width:0.8;" x="849.52147" xlink:href="#m30aad8c357" y="487.6488"/>
      </g>
     </g>
     <g id="text_11">
      <!-- $\mathdefault{10^{5}}$ -->
      <g transform="translate(838.08147 504.526769)scale(0.13 -0.13)">
       <use transform="translate(0 0.684375)" xlink:href="#DejaVuSans-49"/>
       <use transform="translate(63.623047 0.684375)" xlink:href="#DejaVuSans-48"/>
       <use transform="translate(128.203125 38.965625)scale(0.7)" xlink:href="#DejaVuSans-53"/>
      </g>
     </g>
    </g>
    <g id="xtick_50">
     <g id="line2d_107">
      <g>
       <use style="stroke:#000000;stroke-width:0.8;" x="955.981622" xlink:href="#m30aad8c357" y="487.6488"/>
      </g>
     </g>
     <g id="text_12">
      <!-- $\mathdefault{10^{6}}$ -->
      <g transform="translate(944.541622 504.526769)scale(0.13 -0.13)">
       <use transform="translate(0 0.765625)" xlink:href="#DejaVuSans-49"/>
       <use transform="translate(63.623047 0.765625)" xlink:href="#DejaVuSans-48"/>
       <use transform="translate(128.203125 39.046875)scale(0.7)" xlink:href="#DejaVuSans-54"/>
      </g>
     </g>
    </g>
    <g id="xtick_51">
     <g id="line2d_108">
      <g>
       <use style="stroke:#000000;stroke-width:0.6;" x="817.473771" xlink:href="#m0f3a2bd00b" y="487.6488"/>
      </g>
     </g>
    </g>
    <g id="xtick_52">
     <g id="line2d_109">
      <g>
       <use style="stroke:#000000;stroke-width:0.6;" x="825.903418" xlink:href="#m0f3a2bd00b" y="487.6488"/>
      </g>
     </g>
    </g>
    <g id="xtick_53">
     <g id="line2d_110">
      <g>
       <use style="stroke:#000000;stroke-width:0.6;" x="833.030584" xlink:href="#m0f3a2bd00b" y="487.6488"/>
      </g>
     </g>
    </g>
    <g id="xtick_54">
     <g id="line2d_111">
      <g>
       <use style="stroke:#000000;stroke-width:0.6;" x="839.204415" xlink:href="#m0f3a2bd00b" y="487.6488"/>
      </g>
     </g>
    </g>
    <g id="xtick_55">
     <g id="line2d_112">
      <g>
       <use style="stroke:#000000;stroke-width:0.6;" x="844.65012" xlink:href="#m0f3a2bd00b" y="487.6488"/>
      </g>
     </g>
    </g>
    <g id="xtick_56">
     <g id="line2d_113">
      <g>
       <use style="stroke:#000000;stroke-width:0.6;" x="881.569169" xlink:href="#m0f3a2bd00b" y="487.6488"/>
      </g>
     </g>
    </g>
    <g id="xtick_57">
     <g id="line2d_114">
      <g>
       <use style="stroke:#000000;stroke-width:0.6;" x="900.315871" xlink:href="#m0f3a2bd00b" y="487.6488"/>
      </g>
     </g>
    </g>
    <g id="xtick_58">
     <g id="line2d_115">
      <g>
       <use style="stroke:#000000;stroke-width:0.6;" x="913.616868" xlink:href="#m0f3a2bd00b" y="487.6488"/>
      </g>
     </g>
    </g>
    <g id="xtick_59">
     <g id="line2d_116">
      <g>
       <use style="stroke:#000000;stroke-width:0.6;" x="923.933923" xlink:href="#m0f3a2bd00b" y="487.6488"/>
      </g>
     </g>
    </g>
    <g id="xtick_60">
     <g id="line2d_117">
      <g>
       <use style="stroke:#000000;stroke-width:0.6;" x="932.36357" xlink:href="#m0f3a2bd00b" y="487.6488"/>
      </g>
     </g>
    </g>
    <g id="xtick_61">
     <g id="line2d_118">
      <g>
       <use style="stroke:#000000;stroke-width:0.6;" x="939.490736" xlink:href="#m0f3a2bd00b" y="487.6488"/>
      </g>
     </g>
    </g>
    <g id="xtick_62">
     <g id="line2d_119">
      <g>
       <use style="stroke:#000000;stroke-width:0.6;" x="945.664567" xlink:href="#m0f3a2bd00b" y="487.6488"/>
      </g>
     </g>
    </g>
    <g id="xtick_63">
     <g id="line2d_120">
      <g>
       <use style="stroke:#000000;stroke-width:0.6;" x="951.110273" xlink:href="#m0f3a2bd00b" y="487.6488"/>
      </g>
     </g>
    </g>
    <g id="xtick_64">
     <g id="line2d_121">
      <g>
       <use style="stroke:#000000;stroke-width:0.6;" x="988.029321" xlink:href="#m0f3a2bd00b" y="487.6488"/>
      </g>
     </g>
    </g>
   </g>
   <g id="matplotlib.axis_8">
    <g id="ytick_49">
     <g id="line2d_122">
      <g>
       <use style="stroke:#000000;stroke-width:0.8;" x="809.004522" xlink:href="#m11f7e98db5" y="388.197837"/>
      </g>
     </g>
    </g>
    <g id="ytick_50">
     <g id="line2d_123">
      <g>
       <use style="stroke:#000000;stroke-width:0.8;" x="809.004522" xlink:href="#m11f7e98db5" y="138.283374"/>
      </g>
     </g>
    </g>
    <g id="ytick_51">
     <g id="line2d_124">
      <g>
       <use style="stroke:#000000;stroke-width:0.6;" x="809.004522" xlink:href="#m3a32e6e4be" y="487.6488"/>
      </g>
     </g>
    </g>
    <g id="ytick_52">
     <g id="line2d_125">
      <g>
       <use style="stroke:#000000;stroke-width:0.6;" x="809.004522" xlink:href="#m3a32e6e4be" y="463.429586"/>
      </g>
     </g>
    </g>
    <g id="ytick_53">
     <g id="line2d_126">
      <g>
       <use style="stroke:#000000;stroke-width:0.6;" x="809.004522" xlink:href="#m3a32e6e4be" y="443.641048"/>
      </g>
     </g>
    </g>
    <g id="ytick_54">
     <g id="line2d_127">
      <g>
       <use style="stroke:#000000;stroke-width:0.6;" x="809.004522" xlink:href="#m3a32e6e4be" y="426.910077"/>
      </g>
     </g>
    </g>
    <g id="ytick_55">
     <g id="line2d_128">
      <g>
       <use style="stroke:#000000;stroke-width:0.6;" x="809.004522" xlink:href="#m3a32e6e4be" y="412.41705"/>
      </g>
     </g>
    </g>
    <g id="ytick_56">
     <g id="line2d_129">
      <g>
       <use style="stroke:#000000;stroke-width:0.6;" x="809.004522" xlink:href="#m3a32e6e4be" y="399.633295"/>
      </g>
     </g>
    </g>
    <g id="ytick_57">
     <g id="line2d_130">
      <g>
       <use style="stroke:#000000;stroke-width:0.6;" x="809.004522" xlink:href="#m3a32e6e4be" y="312.966087"/>
      </g>
     </g>
    </g>
    <g id="ytick_58">
     <g id="line2d_131">
      <g>
       <use style="stroke:#000000;stroke-width:0.6;" x="809.004522" xlink:href="#m3a32e6e4be" y="268.958335"/>
      </g>
     </g>
    </g>
    <g id="ytick_59">
     <g id="line2d_132">
      <g>
       <use style="stroke:#000000;stroke-width:0.6;" x="809.004522" xlink:href="#m3a32e6e4be" y="237.734337"/>
      </g>
     </g>
    </g>
    <g id="ytick_60">
     <g id="line2d_133">
      <g>
       <use style="stroke:#000000;stroke-width:0.6;" x="809.004522" xlink:href="#m3a32e6e4be" y="213.515124"/>
      </g>
     </g>
    </g>
    <g id="ytick_61">
     <g id="line2d_134">
      <g>
       <use style="stroke:#000000;stroke-width:0.6;" x="809.004522" xlink:href="#m3a32e6e4be" y="193.726585"/>
      </g>
     </g>
    </g>
    <g id="ytick_62">
     <g id="line2d_135">
      <g>
       <use style="stroke:#000000;stroke-width:0.6;" x="809.004522" xlink:href="#m3a32e6e4be" y="176.995614"/>
      </g>
     </g>
    </g>
    <g id="ytick_63">
     <g id="line2d_136">
      <g>
       <use style="stroke:#000000;stroke-width:0.6;" x="809.004522" xlink:href="#m3a32e6e4be" y="162.502588"/>
      </g>
     </g>
    </g>
    <g id="ytick_64">
     <g id="line2d_137">
      <g>
       <use style="stroke:#000000;stroke-width:0.6;" x="809.004522" xlink:href="#m3a32e6e4be" y="149.718833"/>
      </g>
     </g>
    </g>
   </g>
   <g id="line2d_138">
    <path clip-path="url(#p0b246417eb)" d="M 817.473771 334.002033 
L 849.52147 318.575543 
L 868.268172 297.650268 
L 881.569169 268.652315 
L 891.886224 241.617073 
L 900.315871 222.69962 
L 907.443037 212.510277 
L 913.616868 199.712059 
L 919.062574 179.559395 
L 923.933923 156.225793 
L 928.340595 144.071537 
L 932.36357 140.170223 
L 936.06435 139.429883 
L 939.490736 131.877902 
L 942.680625 124.241545 
L 945.664567 112.819944 
L 948.46755 110.610046 
L 951.110273 107.06486 
L 953.610074 117.805857 
L 955.981622 116.925334 
L 958.237438 118.627676 
L 960.388294 115.180119 
L 962.443523 119.825642 
L 964.41127 115.954795 
L 966.298677 115.766577 
L 968.112049 111.612695 
L 969.856975 119.522033 
L 971.538435 125.366407 
L 973.160884 134.787365 
L 974.728324 140.416873 
L 976.244364 141.892707 
L 977.712267 139.173781 
L 979.134996 131.574083 
L 980.515249 114.616761 
L 981.85549 105.164419 
L 983.157972 100.418344 
L 984.424765 103.789551 
L 985.657773 108.78101 
L 986.858751 112.118537 
" style="fill:none;stroke:#1f77b4;stroke-dasharray:1.5,2.475;stroke-dashoffset:0;stroke-width:1.5;"/>
   </g>
   <g id="line2d_139">
    <path clip-path="url(#p0b246417eb)" d="M 817.473771 462.402761 
L 849.52147 456.631052 
L 868.268172 448.114058 
L 881.569169 436.70072 
L 891.886224 426.492528 
L 900.315871 418.526942 
L 907.443037 413.731213 
L 913.616868 413.592951 
L 919.062574 410.680397 
L 923.933923 406.610108 
L 928.340595 401.903202 
L 932.36357 398.692789 
L 936.06435 396.038351 
L 939.490736 396.183755 
L 942.680625 390.586093 
L 945.664567 388.825231 
L 948.46755 383.018639 
L 951.110273 385.436453 
L 953.610074 384.754657 
L 955.981622 377.862105 
L 958.237438 377.727314 
L 960.388294 371.147136 
L 962.443523 373.73592 
L 964.41127 366.507349 
L 966.298677 370.089826 
L 968.112049 367.947979 
L 969.856975 371.021432 
L 971.538435 371.428174 
L 973.160884 374.415493 
L 974.728324 371.634999 
L 976.244364 368.832971 
L 977.712267 365.212702 
L 979.134996 365.520273 
L 980.515249 363.964905 
L 981.85549 363.4968 
L 983.157972 359.791828 
L 984.424765 359.459182 
L 985.657773 357.248848 
L 986.858751 357.233457 
" style="fill:none;stroke:#ff7f0e;stroke-linecap:square;stroke-width:1.5;"/>
   </g>
   <g id="line2d_140">
    <path clip-path="url(#p0b246417eb)" d="M 817.473771 417.342716 
L 849.52147 395.368259 
L 868.268172 375.450825 
L 881.569169 327.78615 
L 891.886224 294.130802 
L 900.315871 291.029715 
L 907.443037 310.758674 
L 913.616868 326.890585 
L 919.062574 304.713584 
L 923.933923 278.82092 
L 928.340595 255.149192 
L 932.36357 244.092324 
L 936.06435 232.887411 
L 939.490736 240.54687 
L 942.680625 221.644136 
L 945.664567 226.528242 
L 948.46755 223.812793 
L 951.110273 232.38416 
L 953.610074 223.330624 
L 955.981622 223.772363 
L 958.237438 236.978683 
L 960.388294 250.905331 
L 962.443523 254.635316 
L 964.41127 258.92655 
L 966.298677 271.869033 
L 968.112049 292.58152 
L 969.856975 298.21032 
L 971.538435 275.281822 
L 973.160884 265.681332 
L 974.728324 263.077697 
L 976.244364 275.752389 
L 977.712267 264.635437 
L 979.134996 260.258841 
L 980.515249 260.108386 
L 981.85549 255.335017 
L 983.157972 240.58483 
L 984.424765 226.67775 
L 985.657773 221.580727 
L 986.858751 222.577632 
" style="fill:none;stroke:#2ca02c;stroke-dasharray:5.55,2.4;stroke-dashoffset:0;stroke-width:1.5;"/>
   </g>
   <g id="patch_18">
    <path d="M 809.004522 487.6488 
L 809.004522 65.7504 
" style="fill:none;stroke:#000000;stroke-linecap:square;stroke-linejoin:miter;stroke-width:0.8;"/>
   </g>
   <g id="patch_19">
    <path d="M 995.328 487.6488 
L 995.328 65.7504 
" style="fill:none;stroke:#000000;stroke-linecap:square;stroke-linejoin:miter;stroke-width:0.8;"/>
   </g>
   <g id="patch_20">
    <path d="M 809.004522 487.6488 
L 995.328 487.6488 
" style="fill:none;stroke:#000000;stroke-linecap:square;stroke-linejoin:miter;stroke-width:0.8;"/>
   </g>
   <g id="patch_21">
    <path d="M 809.004522 65.7504 
L 995.328 65.7504 
" style="fill:none;stroke:#000000;stroke-linecap:square;stroke-linejoin:miter;stroke-width:0.8;"/>
   </g>
  </g>
  <g id="legend_1">
   <g id="patch_22">
    <path d="M 1002.375 304.532344 
L 1096.82 304.532344 
Q 1099.42 304.532344 1099.42 301.932344 
L 1099.42 245.987656 
Q 1099.42 243.387656 1096.82 243.387656 
L 1002.375 243.387656 
Q 999.775 243.387656 999.775 245.987656 
L 999.775 301.932344 
Q 999.775 304.532344 1002.375 304.532344 
z
" style="fill:#ffffff;opacity:0.8;stroke:#cccccc;stroke-linejoin:miter;"/>
   </g>
   <g id="line2d_141">
    <path d="M 1004.975 253.915625 
L 1030.975 253.915625 
" style="fill:none;stroke:#1f77b4;stroke-dasharray:1.5,2.475;stroke-dashoffset:0;stroke-width:1.5;"/>
   </g>
   <g id="line2d_142"/>
   <g id="text_13">
    <!-- Bisector -->
    <g transform="translate(1041.375 258.465625)scale(0.13 -0.13)">
     <defs>
      <path d="M 19.671875 34.8125 
L 19.671875 8.109375 
L 35.5 8.109375 
Q 43.453125 8.109375 47.28125 11.40625 
Q 51.125 14.703125 51.125 21.484375 
Q 51.125 28.328125 47.28125 31.5625 
Q 43.453125 34.8125 35.5 34.8125 
z
M 19.671875 64.796875 
L 19.671875 42.828125 
L 34.28125 42.828125 
Q 41.5 42.828125 45.03125 45.53125 
Q 48.578125 48.25 48.578125 53.8125 
Q 48.578125 59.328125 45.03125 62.0625 
Q 41.5 64.796875 34.28125 64.796875 
z
M 9.8125 72.90625 
L 35.015625 72.90625 
Q 46.296875 72.90625 52.390625 68.21875 
Q 58.5 63.53125 58.5 54.890625 
Q 58.5 48.1875 55.375 44.234375 
Q 52.25 40.28125 46.1875 39.3125 
Q 53.46875 37.75 57.5 32.78125 
Q 61.53125 27.828125 61.53125 20.40625 
Q 61.53125 10.640625 54.890625 5.3125 
Q 48.25 0 35.984375 0 
L 9.8125 0 
z
" id="DejaVuSans-66"/>
      <path d="M 30.609375 48.390625 
Q 23.390625 48.390625 19.1875 42.75 
Q 14.984375 37.109375 14.984375 27.296875 
Q 14.984375 17.484375 19.15625 11.84375 
Q 23.34375 6.203125 30.609375 6.203125 
Q 37.796875 6.203125 41.984375 11.859375 
Q 46.1875 17.53125 46.1875 27.296875 
Q 46.1875 37.015625 41.984375 42.703125 
Q 37.796875 48.390625 30.609375 48.390625 
z
M 30.609375 56 
Q 42.328125 56 49.015625 48.375 
Q 55.71875 40.765625 55.71875 27.296875 
Q 55.71875 13.875 49.015625 6.21875 
Q 42.328125 -1.421875 30.609375 -1.421875 
Q 18.84375 -1.421875 12.171875 6.21875 
Q 5.515625 13.875 5.515625 27.296875 
Q 5.515625 40.765625 12.171875 48.375 
Q 18.84375 56 30.609375 56 
z
" id="DejaVuSans-111"/>
      <path d="M 41.109375 46.296875 
Q 39.59375 47.171875 37.8125 47.578125 
Q 36.03125 48 33.890625 48 
Q 26.265625 48 22.1875 43.046875 
Q 18.109375 38.09375 18.109375 28.8125 
L 18.109375 0 
L 9.078125 0 
L 9.078125 54.6875 
L 18.109375 54.6875 
L 18.109375 46.1875 
Q 20.953125 51.171875 25.484375 53.578125 
Q 30.03125 56 36.53125 56 
Q 37.453125 56 38.578125 55.875 
Q 39.703125 55.765625 41.0625 55.515625 
z
" id="DejaVuSans-114"/>
     </defs>
     <use xlink:href="#DejaVuSans-66"/>
     <use x="68.603516" xlink:href="#DejaVuSans-105"/>
     <use x="96.386719" xlink:href="#DejaVuSans-115"/>
     <use x="148.486328" xlink:href="#DejaVuSans-101"/>
     <use x="210.009766" xlink:href="#DejaVuSans-99"/>
     <use x="264.990234" xlink:href="#DejaVuSans-116"/>
     <use x="304.199219" xlink:href="#DejaVuSans-111"/>
     <use x="365.380859" xlink:href="#DejaVuSans-114"/>
    </g>
   </g>
   <g id="line2d_143">
    <path d="M 1004.975 272.997188 
L 1030.975 272.997188 
" style="fill:none;stroke:#ff7f0e;stroke-linecap:square;stroke-width:1.5;"/>
   </g>
   <g id="line2d_144"/>
   <g id="text_14">
    <!-- Director -->
    <g transform="translate(1041.375 277.547188)scale(0.13 -0.13)">
     <use xlink:href="#DejaVuSans-68"/>
     <use x="77.001953" xlink:href="#DejaVuSans-105"/>
     <use x="104.785156" xlink:href="#DejaVuSans-114"/>
     <use x="143.648438" xlink:href="#DejaVuSans-101"/>
     <use x="205.171875" xlink:href="#DejaVuSans-99"/>
     <use x="260.152344" xlink:href="#DejaVuSans-116"/>
     <use x="299.361328" xlink:href="#DejaVuSans-111"/>
     <use x="360.542969" xlink:href="#DejaVuSans-114"/>
    </g>
   </g>
   <g id="line2d_145">
    <path d="M 1004.975 292.07875 
L 1030.975 292.07875 
" style="fill:none;stroke:#2ca02c;stroke-dasharray:5.55,2.4;stroke-dashoffset:0;stroke-width:1.5;"/>
   </g>
   <g id="line2d_146"/>
   <g id="text_15">
    <!-- Normal -->
    <g transform="translate(1041.375 296.62875)scale(0.13 -0.13)">
     <defs>
      <path d="M 9.8125 72.90625 
L 23.09375 72.90625 
L 55.421875 11.921875 
L 55.421875 72.90625 
L 64.984375 72.90625 
L 64.984375 0 
L 51.703125 0 
L 19.390625 60.984375 
L 19.390625 0 
L 9.8125 0 
z
" id="DejaVuSans-78"/>
     </defs>
     <use xlink:href="#DejaVuSans-78"/>
     <use x="74.804688" xlink:href="#DejaVuSans-111"/>
     <use x="135.986328" xlink:href="#DejaVuSans-114"/>
     <use x="175.349609" xlink:href="#DejaVuSans-109"/>
     <use x="272.761719" xlink:href="#DejaVuSans-97"/>
     <use x="334.041016" xlink:href="#DejaVuSans-108"/>
    </g>
   </g>
  </g>
 </g>
 <defs>
  <clipPath id="p9958cec040">
   <rect height="421.8984" width="186.323478" x="138.24" y="65.7504"/>
  </clipPath>
  <clipPath id="p45c24df6c6">
   <rect height="421.8984" width="186.323478" x="361.828174" y="65.7504"/>
  </clipPath>
  <clipPath id="pe8813125d6">
   <rect height="421.8984" width="186.323478" x="585.416348" y="65.7504"/>
  </clipPath>
  <clipPath id="p0b246417eb">
   <rect height="421.8984" width="186.323478" x="809.004522" y="65.7504"/>
  </clipPath>
 </defs>
</svg>
