<?xml version="1.0" encoding="utf-8" standalone="no"?>
<!DOCTYPE svg PUBLIC "-//W3C//DTD SVG 1.1//EN"
  "http://www.w3.org/Graphics/SVG/1.1/DTD/svg11.dtd">
<!-- Created with matplotlib (https://matplotlib.org/) -->
<svg height="345.6pt" version="1.1" viewBox="0 0 460.8 345.6" width="460.8pt" xmlns="http://www.w3.org/2000/svg" xmlns:xlink="http://www.w3.org/1999/xlink">
 <metadata>
  <rdf:RDF xmlns:cc="http://creativecommons.org/ns#" xmlns:dc="http://purl.org/dc/elements/1.1/" xmlns:rdf="http://www.w3.org/1999/02/22-rdf-syntax-ns#">
   <cc:Work>
    <dc:type rdf:resource="http://purl.org/dc/dcmitype/StillImage"/>
    <dc:date>2021-08-07T14:59:50.480583</dc:date>
    <dc:format>image/svg+xml</dc:format>
    <dc:creator>
     <cc:Agent>
      <dc:title>Matplotlib v3.3.3, https://matplotlib.org/</dc:title>
     </cc:Agent>
    </dc:creator>
   </cc:Work>
  </rdf:RDF>
 </metadata>
 <defs>
  <style type="text/css">*{stroke-linecap:butt;stroke-linejoin:round;}</style>
 </defs>
 <g id="figure_1">
  <g id="patch_1">
   <path d="M 0 345.6 
L 460.8 345.6 
L 460.8 0 
L 0 0 
z
" style="fill:#ffffff;"/>
  </g>
  <g id="axes_1">
   <g id="patch_2">
    <path d="M 68.96 294.64 
L 399.4 294.64 
L 399.4 14.04 
L 68.96 14.04 
z
" style="fill:#ffffff;"/>
   </g>
   <g id="matplotlib.axis_1">
    <g id="xtick_1">
     <g id="line2d_1">
      <defs>
       <path d="M 0 0 
L 0 3.5 
" id="mc63c975bf6" style="stroke:#000000;stroke-width:0.8;"/>
      </defs>
      <g>
       <use style="stroke:#000000;stroke-width:0.8;" x="83.98" xlink:href="#mc63c975bf6" y="294.64"/>
      </g>
     </g>
     <g id="text_1">
      <!-- 0.0 -->
      <g transform="translate(73.642969 311.517969)scale(0.13 -0.13)">
       <defs>
        <path d="M 31.78125 66.40625 
Q 24.171875 66.40625 20.328125 58.90625 
Q 16.5 51.421875 16.5 36.375 
Q 16.5 21.390625 20.328125 13.890625 
Q 24.171875 6.390625 31.78125 6.390625 
Q 39.453125 6.390625 43.28125 13.890625 
Q 47.125 21.390625 47.125 36.375 
Q 47.125 51.421875 43.28125 58.90625 
Q 39.453125 66.40625 31.78125 66.40625 
z
M 31.78125 74.21875 
Q 44.046875 74.21875 50.515625 64.515625 
Q 56.984375 54.828125 56.984375 36.375 
Q 56.984375 17.96875 50.515625 8.265625 
Q 44.046875 -1.421875 31.78125 -1.421875 
Q 19.53125 -1.421875 13.0625 8.265625 
Q 6.59375 17.96875 6.59375 36.375 
Q 6.59375 54.828125 13.0625 64.515625 
Q 19.53125 74.21875 31.78125 74.21875 
z
" id="DejaVuSans-48"/>
        <path d="M 10.6875 12.40625 
L 21 12.40625 
L 21 0 
L 10.6875 0 
z
" id="DejaVuSans-46"/>
       </defs>
       <use xlink:href="#DejaVuSans-48"/>
       <use x="63.623047" xlink:href="#DejaVuSans-46"/>
       <use x="95.410156" xlink:href="#DejaVuSans-48"/>
      </g>
     </g>
    </g>
    <g id="xtick_2">
     <g id="line2d_2">
      <g>
       <use style="stroke:#000000;stroke-width:0.8;" x="158.226169" xlink:href="#mc63c975bf6" y="294.64"/>
      </g>
     </g>
     <g id="text_2">
      <!-- 0.5 -->
      <g transform="translate(147.889138 311.517969)scale(0.13 -0.13)">
       <defs>
        <path d="M 10.796875 72.90625 
L 49.515625 72.90625 
L 49.515625 64.59375 
L 19.828125 64.59375 
L 19.828125 46.734375 
Q 21.96875 47.46875 24.109375 47.828125 
Q 26.265625 48.1875 28.421875 48.1875 
Q 40.625 48.1875 47.75 41.5 
Q 54.890625 34.8125 54.890625 23.390625 
Q 54.890625 11.625 47.5625 5.09375 
Q 40.234375 -1.421875 26.90625 -1.421875 
Q 22.3125 -1.421875 17.546875 -0.640625 
Q 12.796875 0.140625 7.71875 1.703125 
L 7.71875 11.625 
Q 12.109375 9.234375 16.796875 8.0625 
Q 21.484375 6.890625 26.703125 6.890625 
Q 35.15625 6.890625 40.078125 11.328125 
Q 45.015625 15.765625 45.015625 23.390625 
Q 45.015625 31 40.078125 35.4375 
Q 35.15625 39.890625 26.703125 39.890625 
Q 22.75 39.890625 18.8125 39.015625 
Q 14.890625 38.140625 10.796875 36.28125 
z
" id="DejaVuSans-53"/>
       </defs>
       <use xlink:href="#DejaVuSans-48"/>
       <use x="63.623047" xlink:href="#DejaVuSans-46"/>
       <use x="95.410156" xlink:href="#DejaVuSans-53"/>
      </g>
     </g>
    </g>
    <g id="xtick_3">
     <g id="line2d_3">
      <g>
       <use style="stroke:#000000;stroke-width:0.8;" x="232.472338" xlink:href="#mc63c975bf6" y="294.64"/>
      </g>
     </g>
     <g id="text_3">
      <!-- 1.0 -->
      <g transform="translate(222.135307 311.517969)scale(0.13 -0.13)">
       <defs>
        <path d="M 12.40625 8.296875 
L 28.515625 8.296875 
L 28.515625 63.921875 
L 10.984375 60.40625 
L 10.984375 69.390625 
L 28.421875 72.90625 
L 38.28125 72.90625 
L 38.28125 8.296875 
L 54.390625 8.296875 
L 54.390625 0 
L 12.40625 0 
z
" id="DejaVuSans-49"/>
       </defs>
       <use xlink:href="#DejaVuSans-49"/>
       <use x="63.623047" xlink:href="#DejaVuSans-46"/>
       <use x="95.410156" xlink:href="#DejaVuSans-48"/>
      </g>
     </g>
    </g>
    <g id="xtick_4">
     <g id="line2d_4">
      <g>
       <use style="stroke:#000000;stroke-width:0.8;" x="306.718507" xlink:href="#mc63c975bf6" y="294.64"/>
      </g>
     </g>
     <g id="text_4">
      <!-- 1.5 -->
      <g transform="translate(296.381476 311.517969)scale(0.13 -0.13)">
       <use xlink:href="#DejaVuSans-49"/>
       <use x="63.623047" xlink:href="#DejaVuSans-46"/>
       <use x="95.410156" xlink:href="#DejaVuSans-53"/>
      </g>
     </g>
    </g>
    <g id="xtick_5">
     <g id="line2d_5">
      <g>
       <use style="stroke:#000000;stroke-width:0.8;" x="380.964676" xlink:href="#mc63c975bf6" y="294.64"/>
      </g>
     </g>
     <g id="text_5">
      <!-- 2.0 -->
      <g transform="translate(370.627645 311.517969)scale(0.13 -0.13)">
       <defs>
        <path d="M 19.1875 8.296875 
L 53.609375 8.296875 
L 53.609375 0 
L 7.328125 0 
L 7.328125 8.296875 
Q 12.9375 14.109375 22.625 23.890625 
Q 32.328125 33.6875 34.8125 36.53125 
Q 39.546875 41.84375 41.421875 45.53125 
Q 43.3125 49.21875 43.3125 52.78125 
Q 43.3125 58.59375 39.234375 62.25 
Q 35.15625 65.921875 28.609375 65.921875 
Q 23.96875 65.921875 18.8125 64.3125 
Q 13.671875 62.703125 7.8125 59.421875 
L 7.8125 69.390625 
Q 13.765625 71.78125 18.9375 73 
Q 24.125 74.21875 28.421875 74.21875 
Q 39.75 74.21875 46.484375 68.546875 
Q 53.21875 62.890625 53.21875 53.421875 
Q 53.21875 48.921875 51.53125 44.890625 
Q 49.859375 40.875 45.40625 35.40625 
Q 44.1875 33.984375 37.640625 27.21875 
Q 31.109375 20.453125 19.1875 8.296875 
z
" id="DejaVuSans-50"/>
       </defs>
       <use xlink:href="#DejaVuSans-50"/>
       <use x="63.623047" xlink:href="#DejaVuSans-46"/>
       <use x="95.410156" xlink:href="#DejaVuSans-48"/>
      </g>
     </g>
    </g>
    <g id="text_6">
     <!-- Time (arbitrary units) -->
     <g transform="translate(164.783359 328.099531)scale(0.13 -0.13)">
      <defs>
       <path d="M -0.296875 72.90625 
L 61.375 72.90625 
L 61.375 64.59375 
L 35.5 64.59375 
L 35.5 0 
L 25.59375 0 
L 25.59375 64.59375 
L -0.296875 64.59375 
z
" id="DejaVuSans-84"/>
       <path d="M 9.421875 54.6875 
L 18.40625 54.6875 
L 18.40625 0 
L 9.421875 0 
z
M 9.421875 75.984375 
L 18.40625 75.984375 
L 18.40625 64.59375 
L 9.421875 64.59375 
z
" id="DejaVuSans-105"/>
       <path d="M 52 44.1875 
Q 55.375 50.25 60.0625 53.125 
Q 64.75 56 71.09375 56 
Q 79.640625 56 84.28125 50.015625 
Q 88.921875 44.046875 88.921875 33.015625 
L 88.921875 0 
L 79.890625 0 
L 79.890625 32.71875 
Q 79.890625 40.578125 77.09375 44.375 
Q 74.3125 48.1875 68.609375 48.1875 
Q 61.625 48.1875 57.5625 43.546875 
Q 53.515625 38.921875 53.515625 30.90625 
L 53.515625 0 
L 44.484375 0 
L 44.484375 32.71875 
Q 44.484375 40.625 41.703125 44.40625 
Q 38.921875 48.1875 33.109375 48.1875 
Q 26.21875 48.1875 22.15625 43.53125 
Q 18.109375 38.875 18.109375 30.90625 
L 18.109375 0 
L 9.078125 0 
L 9.078125 54.6875 
L 18.109375 54.6875 
L 18.109375 46.1875 
Q 21.1875 51.21875 25.484375 53.609375 
Q 29.78125 56 35.6875 56 
Q 41.65625 56 45.828125 52.96875 
Q 50 49.953125 52 44.1875 
z
" id="DejaVuSans-109"/>
       <path d="M 56.203125 29.59375 
L 56.203125 25.203125 
L 14.890625 25.203125 
Q 15.484375 15.921875 20.484375 11.0625 
Q 25.484375 6.203125 34.421875 6.203125 
Q 39.59375 6.203125 44.453125 7.46875 
Q 49.3125 8.734375 54.109375 11.28125 
L 54.109375 2.78125 
Q 49.265625 0.734375 44.1875 -0.34375 
Q 39.109375 -1.421875 33.890625 -1.421875 
Q 20.796875 -1.421875 13.15625 6.1875 
Q 5.515625 13.8125 5.515625 26.8125 
Q 5.515625 40.234375 12.765625 48.109375 
Q 20.015625 56 32.328125 56 
Q 43.359375 56 49.78125 48.890625 
Q 56.203125 41.796875 56.203125 29.59375 
z
M 47.21875 32.234375 
Q 47.125 39.59375 43.09375 43.984375 
Q 39.0625 48.390625 32.421875 48.390625 
Q 24.90625 48.390625 20.390625 44.140625 
Q 15.875 39.890625 15.1875 32.171875 
z
" id="DejaVuSans-101"/>
       <path id="DejaVuSans-32"/>
       <path d="M 31 75.875 
Q 24.46875 64.65625 21.28125 53.65625 
Q 18.109375 42.671875 18.109375 31.390625 
Q 18.109375 20.125 21.3125 9.0625 
Q 24.515625 -2 31 -13.1875 
L 23.1875 -13.1875 
Q 15.875 -1.703125 12.234375 9.375 
Q 8.59375 20.453125 8.59375 31.390625 
Q 8.59375 42.28125 12.203125 53.3125 
Q 15.828125 64.359375 23.1875 75.875 
z
" id="DejaVuSans-40"/>
       <path d="M 34.28125 27.484375 
Q 23.390625 27.484375 19.1875 25 
Q 14.984375 22.515625 14.984375 16.5 
Q 14.984375 11.71875 18.140625 8.90625 
Q 21.296875 6.109375 26.703125 6.109375 
Q 34.1875 6.109375 38.703125 11.40625 
Q 43.21875 16.703125 43.21875 25.484375 
L 43.21875 27.484375 
z
M 52.203125 31.203125 
L 52.203125 0 
L 43.21875 0 
L 43.21875 8.296875 
Q 40.140625 3.328125 35.546875 0.953125 
Q 30.953125 -1.421875 24.3125 -1.421875 
Q 15.921875 -1.421875 10.953125 3.296875 
Q 6 8.015625 6 15.921875 
Q 6 25.140625 12.171875 29.828125 
Q 18.359375 34.515625 30.609375 34.515625 
L 43.21875 34.515625 
L 43.21875 35.40625 
Q 43.21875 41.609375 39.140625 45 
Q 35.0625 48.390625 27.6875 48.390625 
Q 23 48.390625 18.546875 47.265625 
Q 14.109375 46.140625 10.015625 43.890625 
L 10.015625 52.203125 
Q 14.9375 54.109375 19.578125 55.046875 
Q 24.21875 56 28.609375 56 
Q 40.484375 56 46.34375 49.84375 
Q 52.203125 43.703125 52.203125 31.203125 
z
" id="DejaVuSans-97"/>
       <path d="M 41.109375 46.296875 
Q 39.59375 47.171875 37.8125 47.578125 
Q 36.03125 48 33.890625 48 
Q 26.265625 48 22.1875 43.046875 
Q 18.109375 38.09375 18.109375 28.8125 
L 18.109375 0 
L 9.078125 0 
L 9.078125 54.6875 
L 18.109375 54.6875 
L 18.109375 46.1875 
Q 20.953125 51.171875 25.484375 53.578125 
Q 30.03125 56 36.53125 56 
Q 37.453125 56 38.578125 55.875 
Q 39.703125 55.765625 41.0625 55.515625 
z
" id="DejaVuSans-114"/>
       <path d="M 48.6875 27.296875 
Q 48.6875 37.203125 44.609375 42.84375 
Q 40.53125 48.484375 33.40625 48.484375 
Q 26.265625 48.484375 22.1875 42.84375 
Q 18.109375 37.203125 18.109375 27.296875 
Q 18.109375 17.390625 22.1875 11.75 
Q 26.265625 6.109375 33.40625 6.109375 
Q 40.53125 6.109375 44.609375 11.75 
Q 48.6875 17.390625 48.6875 27.296875 
z
M 18.109375 46.390625 
Q 20.953125 51.265625 25.265625 53.625 
Q 29.59375 56 35.59375 56 
Q 45.5625 56 51.78125 48.09375 
Q 58.015625 40.1875 58.015625 27.296875 
Q 58.015625 14.40625 51.78125 6.484375 
Q 45.5625 -1.421875 35.59375 -1.421875 
Q 29.59375 -1.421875 25.265625 0.953125 
Q 20.953125 3.328125 18.109375 8.203125 
L 18.109375 0 
L 9.078125 0 
L 9.078125 75.984375 
L 18.109375 75.984375 
z
" id="DejaVuSans-98"/>
       <path d="M 18.3125 70.21875 
L 18.3125 54.6875 
L 36.8125 54.6875 
L 36.8125 47.703125 
L 18.3125 47.703125 
L 18.3125 18.015625 
Q 18.3125 11.328125 20.140625 9.421875 
Q 21.96875 7.515625 27.59375 7.515625 
L 36.8125 7.515625 
L 36.8125 0 
L 27.59375 0 
Q 17.1875 0 13.234375 3.875 
Q 9.28125 7.765625 9.28125 18.015625 
L 9.28125 47.703125 
L 2.6875 47.703125 
L 2.6875 54.6875 
L 9.28125 54.6875 
L 9.28125 70.21875 
z
" id="DejaVuSans-116"/>
       <path d="M 32.171875 -5.078125 
Q 28.375 -14.84375 24.75 -17.8125 
Q 21.140625 -20.796875 15.09375 -20.796875 
L 7.90625 -20.796875 
L 7.90625 -13.28125 
L 13.1875 -13.28125 
Q 16.890625 -13.28125 18.9375 -11.515625 
Q 21 -9.765625 23.484375 -3.21875 
L 25.09375 0.875 
L 2.984375 54.6875 
L 12.5 54.6875 
L 29.59375 11.921875 
L 46.6875 54.6875 
L 56.203125 54.6875 
z
" id="DejaVuSans-121"/>
       <path d="M 8.5 21.578125 
L 8.5 54.6875 
L 17.484375 54.6875 
L 17.484375 21.921875 
Q 17.484375 14.15625 20.5 10.265625 
Q 23.53125 6.390625 29.59375 6.390625 
Q 36.859375 6.390625 41.078125 11.03125 
Q 45.3125 15.671875 45.3125 23.6875 
L 45.3125 54.6875 
L 54.296875 54.6875 
L 54.296875 0 
L 45.3125 0 
L 45.3125 8.40625 
Q 42.046875 3.421875 37.71875 1 
Q 33.40625 -1.421875 27.6875 -1.421875 
Q 18.265625 -1.421875 13.375 4.4375 
Q 8.5 10.296875 8.5 21.578125 
z
M 31.109375 56 
z
" id="DejaVuSans-117"/>
       <path d="M 54.890625 33.015625 
L 54.890625 0 
L 45.90625 0 
L 45.90625 32.71875 
Q 45.90625 40.484375 42.875 44.328125 
Q 39.84375 48.1875 33.796875 48.1875 
Q 26.515625 48.1875 22.3125 43.546875 
Q 18.109375 38.921875 18.109375 30.90625 
L 18.109375 0 
L 9.078125 0 
L 9.078125 54.6875 
L 18.109375 54.6875 
L 18.109375 46.1875 
Q 21.34375 51.125 25.703125 53.5625 
Q 30.078125 56 35.796875 56 
Q 45.21875 56 50.046875 50.171875 
Q 54.890625 44.34375 54.890625 33.015625 
z
" id="DejaVuSans-110"/>
       <path d="M 44.28125 53.078125 
L 44.28125 44.578125 
Q 40.484375 46.53125 36.375 47.5 
Q 32.28125 48.484375 27.875 48.484375 
Q 21.1875 48.484375 17.84375 46.4375 
Q 14.5 44.390625 14.5 40.28125 
Q 14.5 37.15625 16.890625 35.375 
Q 19.28125 33.59375 26.515625 31.984375 
L 29.59375 31.296875 
Q 39.15625 29.25 43.1875 25.515625 
Q 47.21875 21.78125 47.21875 15.09375 
Q 47.21875 7.46875 41.1875 3.015625 
Q 35.15625 -1.421875 24.609375 -1.421875 
Q 20.21875 -1.421875 15.453125 -0.5625 
Q 10.6875 0.296875 5.421875 2 
L 5.421875 11.28125 
Q 10.40625 8.6875 15.234375 7.390625 
Q 20.0625 6.109375 24.8125 6.109375 
Q 31.15625 6.109375 34.5625 8.28125 
Q 37.984375 10.453125 37.984375 14.40625 
Q 37.984375 18.0625 35.515625 20.015625 
Q 33.0625 21.96875 24.703125 23.78125 
L 21.578125 24.515625 
Q 13.234375 26.265625 9.515625 29.90625 
Q 5.8125 33.546875 5.8125 39.890625 
Q 5.8125 47.609375 11.28125 51.796875 
Q 16.75 56 26.8125 56 
Q 31.78125 56 36.171875 55.265625 
Q 40.578125 54.546875 44.28125 53.078125 
z
" id="DejaVuSans-115"/>
       <path d="M 8.015625 75.875 
L 15.828125 75.875 
Q 23.140625 64.359375 26.78125 53.3125 
Q 30.421875 42.28125 30.421875 31.390625 
Q 30.421875 20.453125 26.78125 9.375 
Q 23.140625 -1.703125 15.828125 -13.1875 
L 8.015625 -13.1875 
Q 14.5 -2 17.703125 9.0625 
Q 20.90625 20.125 20.90625 31.390625 
Q 20.90625 42.671875 17.703125 53.65625 
Q 14.5 64.65625 8.015625 75.875 
z
" id="DejaVuSans-41"/>
      </defs>
      <use xlink:href="#DejaVuSans-84"/>
      <use x="57.958984" xlink:href="#DejaVuSans-105"/>
      <use x="85.742188" xlink:href="#DejaVuSans-109"/>
      <use x="183.154297" xlink:href="#DejaVuSans-101"/>
      <use x="244.677734" xlink:href="#DejaVuSans-32"/>
      <use x="276.464844" xlink:href="#DejaVuSans-40"/>
      <use x="315.478516" xlink:href="#DejaVuSans-97"/>
      <use x="376.757812" xlink:href="#DejaVuSans-114"/>
      <use x="417.871094" xlink:href="#DejaVuSans-98"/>
      <use x="481.347656" xlink:href="#DejaVuSans-105"/>
      <use x="509.130859" xlink:href="#DejaVuSans-116"/>
      <use x="548.339844" xlink:href="#DejaVuSans-114"/>
      <use x="589.453125" xlink:href="#DejaVuSans-97"/>
      <use x="650.732422" xlink:href="#DejaVuSans-114"/>
      <use x="691.845703" xlink:href="#DejaVuSans-121"/>
      <use x="751.025391" xlink:href="#DejaVuSans-32"/>
      <use x="782.8125" xlink:href="#DejaVuSans-117"/>
      <use x="846.191406" xlink:href="#DejaVuSans-110"/>
      <use x="909.570312" xlink:href="#DejaVuSans-105"/>
      <use x="937.353516" xlink:href="#DejaVuSans-116"/>
      <use x="976.5625" xlink:href="#DejaVuSans-115"/>
      <use x="1028.662109" xlink:href="#DejaVuSans-41"/>
     </g>
    </g>
    <g id="text_7">
     <!-- 1e7 -->
     <g transform="translate(374.858438 327.099531)scale(0.13 -0.13)">
      <defs>
       <path d="M 8.203125 72.90625 
L 55.078125 72.90625 
L 55.078125 68.703125 
L 28.609375 0 
L 18.3125 0 
L 43.21875 64.59375 
L 8.203125 64.59375 
z
" id="DejaVuSans-55"/>
      </defs>
      <use xlink:href="#DejaVuSans-49"/>
      <use x="63.623047" xlink:href="#DejaVuSans-101"/>
      <use x="125.146484" xlink:href="#DejaVuSans-55"/>
     </g>
    </g>
   </g>
   <g id="matplotlib.axis_2">
    <g id="ytick_1">
     <g id="line2d_6">
      <defs>
       <path d="M 0 0 
L -3.5 0 
" id="mda427011d9" style="stroke:#000000;stroke-width:0.8;"/>
      </defs>
      <g>
       <use style="stroke:#000000;stroke-width:0.8;" x="68.96" xlink:href="#mda427011d9" y="266.917413"/>
      </g>
     </g>
     <g id="text_8">
      <!-- 0.05 -->
      <g style="fill:#d62728;" transform="translate(33.014688 271.856398)scale(0.13 -0.13)">
       <use xlink:href="#DejaVuSans-48"/>
       <use x="63.623047" xlink:href="#DejaVuSans-46"/>
       <use x="95.410156" xlink:href="#DejaVuSans-48"/>
       <use x="159.033203" xlink:href="#DejaVuSans-53"/>
      </g>
     </g>
    </g>
    <g id="ytick_2">
     <g id="line2d_7">
      <g>
       <use style="stroke:#000000;stroke-width:0.8;" x="68.96" xlink:href="#mda427011d9" y="232.736462"/>
      </g>
     </g>
     <g id="text_9">
      <!-- 0.10 -->
      <g style="fill:#d62728;" transform="translate(33.014688 237.675447)scale(0.13 -0.13)">
       <use xlink:href="#DejaVuSans-48"/>
       <use x="63.623047" xlink:href="#DejaVuSans-46"/>
       <use x="95.410156" xlink:href="#DejaVuSans-49"/>
       <use x="159.033203" xlink:href="#DejaVuSans-48"/>
      </g>
     </g>
    </g>
    <g id="ytick_3">
     <g id="line2d_8">
      <g>
       <use style="stroke:#000000;stroke-width:0.8;" x="68.96" xlink:href="#mda427011d9" y="198.555511"/>
      </g>
     </g>
     <g id="text_10">
      <!-- 0.15 -->
      <g style="fill:#d62728;" transform="translate(33.014688 203.494495)scale(0.13 -0.13)">
       <use xlink:href="#DejaVuSans-48"/>
       <use x="63.623047" xlink:href="#DejaVuSans-46"/>
       <use x="95.410156" xlink:href="#DejaVuSans-49"/>
       <use x="159.033203" xlink:href="#DejaVuSans-53"/>
      </g>
     </g>
    </g>
    <g id="ytick_4">
     <g id="line2d_9">
      <g>
       <use style="stroke:#000000;stroke-width:0.8;" x="68.96" xlink:href="#mda427011d9" y="164.37456"/>
      </g>
     </g>
     <g id="text_11">
      <!-- 0.20 -->
      <g style="fill:#d62728;" transform="translate(33.014688 169.313544)scale(0.13 -0.13)">
       <use xlink:href="#DejaVuSans-48"/>
       <use x="63.623047" xlink:href="#DejaVuSans-46"/>
       <use x="95.410156" xlink:href="#DejaVuSans-50"/>
       <use x="159.033203" xlink:href="#DejaVuSans-48"/>
      </g>
     </g>
    </g>
    <g id="ytick_5">
     <g id="line2d_10">
      <g>
       <use style="stroke:#000000;stroke-width:0.8;" x="68.96" xlink:href="#mda427011d9" y="130.193609"/>
      </g>
     </g>
     <g id="text_12">
      <!-- 0.25 -->
      <g style="fill:#d62728;" transform="translate(33.014688 135.132593)scale(0.13 -0.13)">
       <use xlink:href="#DejaVuSans-48"/>
       <use x="63.623047" xlink:href="#DejaVuSans-46"/>
       <use x="95.410156" xlink:href="#DejaVuSans-50"/>
       <use x="159.033203" xlink:href="#DejaVuSans-53"/>
      </g>
     </g>
    </g>
    <g id="ytick_6">
     <g id="line2d_11">
      <g>
       <use style="stroke:#000000;stroke-width:0.8;" x="68.96" xlink:href="#mda427011d9" y="96.012658"/>
      </g>
     </g>
     <g id="text_13">
      <!-- 0.30 -->
      <g style="fill:#d62728;" transform="translate(33.014688 100.951642)scale(0.13 -0.13)">
       <defs>
        <path d="M 40.578125 39.3125 
Q 47.65625 37.796875 51.625 33 
Q 55.609375 28.21875 55.609375 21.1875 
Q 55.609375 10.40625 48.1875 4.484375 
Q 40.765625 -1.421875 27.09375 -1.421875 
Q 22.515625 -1.421875 17.65625 -0.515625 
Q 12.796875 0.390625 7.625 2.203125 
L 7.625 11.71875 
Q 11.71875 9.328125 16.59375 8.109375 
Q 21.484375 6.890625 26.8125 6.890625 
Q 36.078125 6.890625 40.9375 10.546875 
Q 45.796875 14.203125 45.796875 21.1875 
Q 45.796875 27.640625 41.28125 31.265625 
Q 36.765625 34.90625 28.71875 34.90625 
L 20.21875 34.90625 
L 20.21875 43.015625 
L 29.109375 43.015625 
Q 36.375 43.015625 40.234375 45.921875 
Q 44.09375 48.828125 44.09375 54.296875 
Q 44.09375 59.90625 40.109375 62.90625 
Q 36.140625 65.921875 28.71875 65.921875 
Q 24.65625 65.921875 20.015625 65.03125 
Q 15.375 64.15625 9.8125 62.3125 
L 9.8125 71.09375 
Q 15.4375 72.65625 20.34375 73.4375 
Q 25.25 74.21875 29.59375 74.21875 
Q 40.828125 74.21875 47.359375 69.109375 
Q 53.90625 64.015625 53.90625 55.328125 
Q 53.90625 49.265625 50.4375 45.09375 
Q 46.96875 40.921875 40.578125 39.3125 
z
" id="DejaVuSans-51"/>
       </defs>
       <use xlink:href="#DejaVuSans-48"/>
       <use x="63.623047" xlink:href="#DejaVuSans-46"/>
       <use x="95.410156" xlink:href="#DejaVuSans-51"/>
       <use x="159.033203" xlink:href="#DejaVuSans-48"/>
      </g>
     </g>
    </g>
    <g id="ytick_7">
     <g id="line2d_12">
      <g>
       <use style="stroke:#000000;stroke-width:0.8;" x="68.96" xlink:href="#mda427011d9" y="61.831707"/>
      </g>
     </g>
     <g id="text_14">
      <!-- 0.35 -->
      <g style="fill:#d62728;" transform="translate(33.014688 66.770691)scale(0.13 -0.13)">
       <use xlink:href="#DejaVuSans-48"/>
       <use x="63.623047" xlink:href="#DejaVuSans-46"/>
       <use x="95.410156" xlink:href="#DejaVuSans-51"/>
       <use x="159.033203" xlink:href="#DejaVuSans-53"/>
      </g>
     </g>
    </g>
    <g id="ytick_8">
     <g id="line2d_13">
      <g>
       <use style="stroke:#000000;stroke-width:0.8;" x="68.96" xlink:href="#mda427011d9" y="27.650756"/>
      </g>
     </g>
     <g id="text_15">
      <!-- 0.40 -->
      <g style="fill:#d62728;" transform="translate(33.014688 32.58974)scale(0.13 -0.13)">
       <defs>
        <path d="M 37.796875 64.3125 
L 12.890625 25.390625 
L 37.796875 25.390625 
z
M 35.203125 72.90625 
L 47.609375 72.90625 
L 47.609375 25.390625 
L 58.015625 25.390625 
L 58.015625 17.1875 
L 47.609375 17.1875 
L 47.609375 0 
L 37.796875 0 
L 37.796875 17.1875 
L 4.890625 17.1875 
L 4.890625 26.703125 
z
" id="DejaVuSans-52"/>
       </defs>
       <use xlink:href="#DejaVuSans-48"/>
       <use x="63.623047" xlink:href="#DejaVuSans-46"/>
       <use x="95.410156" xlink:href="#DejaVuSans-52"/>
       <use x="159.033203" xlink:href="#DejaVuSans-48"/>
      </g>
     </g>
    </g>
    <g id="text_16">
     <!-- Order Parameter ($S_{n}$) -->
     <g style="fill:#d62728;" transform="translate(26.311094 223.435)rotate(-90)scale(0.13 -0.13)">
      <defs>
       <path d="M 39.40625 66.21875 
Q 28.65625 66.21875 22.328125 58.203125 
Q 16.015625 50.203125 16.015625 36.375 
Q 16.015625 22.609375 22.328125 14.59375 
Q 28.65625 6.59375 39.40625 6.59375 
Q 50.140625 6.59375 56.421875 14.59375 
Q 62.703125 22.609375 62.703125 36.375 
Q 62.703125 50.203125 56.421875 58.203125 
Q 50.140625 66.21875 39.40625 66.21875 
z
M 39.40625 74.21875 
Q 54.734375 74.21875 63.90625 63.9375 
Q 73.09375 53.65625 73.09375 36.375 
Q 73.09375 19.140625 63.90625 8.859375 
Q 54.734375 -1.421875 39.40625 -1.421875 
Q 24.03125 -1.421875 14.8125 8.828125 
Q 5.609375 19.09375 5.609375 36.375 
Q 5.609375 53.65625 14.8125 63.9375 
Q 24.03125 74.21875 39.40625 74.21875 
z
" id="DejaVuSans-79"/>
       <path d="M 45.40625 46.390625 
L 45.40625 75.984375 
L 54.390625 75.984375 
L 54.390625 0 
L 45.40625 0 
L 45.40625 8.203125 
Q 42.578125 3.328125 38.25 0.953125 
Q 33.9375 -1.421875 27.875 -1.421875 
Q 17.96875 -1.421875 11.734375 6.484375 
Q 5.515625 14.40625 5.515625 27.296875 
Q 5.515625 40.1875 11.734375 48.09375 
Q 17.96875 56 27.875 56 
Q 33.9375 56 38.25 53.625 
Q 42.578125 51.265625 45.40625 46.390625 
z
M 14.796875 27.296875 
Q 14.796875 17.390625 18.875 11.75 
Q 22.953125 6.109375 30.078125 6.109375 
Q 37.203125 6.109375 41.296875 11.75 
Q 45.40625 17.390625 45.40625 27.296875 
Q 45.40625 37.203125 41.296875 42.84375 
Q 37.203125 48.484375 30.078125 48.484375 
Q 22.953125 48.484375 18.875 42.84375 
Q 14.796875 37.203125 14.796875 27.296875 
z
" id="DejaVuSans-100"/>
       <path d="M 19.671875 64.796875 
L 19.671875 37.40625 
L 32.078125 37.40625 
Q 38.96875 37.40625 42.71875 40.96875 
Q 46.484375 44.53125 46.484375 51.125 
Q 46.484375 57.671875 42.71875 61.234375 
Q 38.96875 64.796875 32.078125 64.796875 
z
M 9.8125 72.90625 
L 32.078125 72.90625 
Q 44.34375 72.90625 50.609375 67.359375 
Q 56.890625 61.8125 56.890625 51.125 
Q 56.890625 40.328125 50.609375 34.8125 
Q 44.34375 29.296875 32.078125 29.296875 
L 19.671875 29.296875 
L 19.671875 0 
L 9.8125 0 
z
" id="DejaVuSans-80"/>
       <path d="M 60.296875 70.515625 
L 58.40625 60.890625 
Q 53.46875 63.53125 48.609375 64.875 
Q 43.75 66.21875 39.203125 66.21875 
Q 30.375 66.21875 25.140625 62.359375 
Q 19.921875 58.5 19.921875 52.09375 
Q 19.921875 48.578125 21.84375 46.703125 
Q 23.78125 44.828125 31.78125 42.671875 
L 37.703125 41.21875 
Q 47.703125 38.625 51.609375 34.640625 
Q 55.515625 30.671875 55.515625 23.484375 
Q 55.515625 12.453125 46.84375 5.515625 
Q 38.1875 -1.421875 24.03125 -1.421875 
Q 18.21875 -1.421875 12.359375 -0.265625 
Q 6.5 0.875 0.59375 3.21875 
L 2.59375 13.375 
Q 8.015625 10.015625 13.453125 8.296875 
Q 18.890625 6.59375 24.3125 6.59375 
Q 33.546875 6.59375 39.109375 10.6875 
Q 44.671875 14.796875 44.671875 21.390625 
Q 44.671875 25.78125 42.453125 28.046875 
Q 40.234375 30.328125 32.90625 32.171875 
L 27 33.6875 
Q 16.890625 36.328125 13.203125 39.765625 
Q 9.515625 43.21875 9.515625 49.421875 
Q 9.515625 60.296875 17.890625 67.25 
Q 26.265625 74.21875 39.703125 74.21875 
Q 44.921875 74.21875 50.046875 73.28125 
Q 55.171875 72.359375 60.296875 70.515625 
z
" id="DejaVuSans-Oblique-83"/>
       <path d="M 55.71875 33.015625 
L 49.3125 0 
L 40.28125 0 
L 46.6875 32.671875 
Q 47.125 34.96875 47.359375 36.71875 
Q 47.609375 38.484375 47.609375 39.5 
Q 47.609375 43.609375 45.015625 45.890625 
Q 42.4375 48.1875 37.796875 48.1875 
Q 30.5625 48.1875 25.34375 43.375 
Q 20.125 38.578125 18.5 30.328125 
L 12.5 0 
L 3.515625 0 
L 14.109375 54.6875 
L 23.09375 54.6875 
L 21.296875 46.09375 
Q 25.046875 50.828125 30.3125 53.40625 
Q 35.59375 56 41.40625 56 
Q 48.640625 56 52.609375 52.09375 
Q 56.59375 48.1875 56.59375 41.109375 
Q 56.59375 39.359375 56.375 37.359375 
Q 56.15625 35.359375 55.71875 33.015625 
z
" id="DejaVuSans-Oblique-110"/>
      </defs>
      <use transform="translate(0 0.015625)" xlink:href="#DejaVuSans-79"/>
      <use transform="translate(78.710938 0.015625)" xlink:href="#DejaVuSans-114"/>
      <use transform="translate(119.824219 0.015625)" xlink:href="#DejaVuSans-100"/>
      <use transform="translate(183.300781 0.015625)" xlink:href="#DejaVuSans-101"/>
      <use transform="translate(244.824219 0.015625)" xlink:href="#DejaVuSans-114"/>
      <use transform="translate(285.9375 0.015625)" xlink:href="#DejaVuSans-32"/>
      <use transform="translate(317.724609 0.015625)" xlink:href="#DejaVuSans-80"/>
      <use transform="translate(378.027344 0.015625)" xlink:href="#DejaVuSans-97"/>
      <use transform="translate(439.306641 0.015625)" xlink:href="#DejaVuSans-114"/>
      <use transform="translate(480.419922 0.015625)" xlink:href="#DejaVuSans-97"/>
      <use transform="translate(541.699219 0.015625)" xlink:href="#DejaVuSans-109"/>
      <use transform="translate(639.111328 0.015625)" xlink:href="#DejaVuSans-101"/>
      <use transform="translate(700.634766 0.015625)" xlink:href="#DejaVuSans-116"/>
      <use transform="translate(739.84375 0.015625)" xlink:href="#DejaVuSans-101"/>
      <use transform="translate(801.367188 0.015625)" xlink:href="#DejaVuSans-114"/>
      <use transform="translate(842.480469 0.015625)" xlink:href="#DejaVuSans-32"/>
      <use transform="translate(874.267578 0.015625)" xlink:href="#DejaVuSans-40"/>
      <use transform="translate(913.28125 0.015625)" xlink:href="#DejaVuSans-Oblique-83"/>
      <use transform="translate(976.757812 -16.390625)scale(0.7)" xlink:href="#DejaVuSans-Oblique-110"/>
      <use transform="translate(1023.857422 0.015625)" xlink:href="#DejaVuSans-41"/>
     </g>
    </g>
   </g>
   <g id="line2d_14">
    <path clip-path="url(#p19c545867e)" d="M 83.98 278.85357 
L 84.128492 278.546504 
L 84.276985 276.926799 
L 84.425477 277.295197 
L 84.573969 276.460612 
L 84.870954 276.474376 
L 85.019446 277.018287 
L 85.464923 274.978555 
L 85.761908 276.876358 
L 85.9104 276.413073 
L 86.058893 277.636934 
L 86.207385 276.314888 
L 86.355877 276.594038 
L 86.50437 276.320249 
L 86.801354 277.538793 
L 86.949847 277.651211 
L 87.098339 278.119374 
L 87.395324 277.858799 
L 87.543816 276.878963 
L 87.692308 277.693421 
L 87.840801 275.846069 
L 88.137785 275.590698 
L 88.583262 278.687024 
L 88.731755 277.255732 
L 88.880247 277.226012 
L 89.028739 278.244398 
L 89.177232 278.283597 
L 89.325724 280.061754 
L 89.474217 280.173385 
L 89.622709 279.553984 
L 89.919694 276.916861 
L 90.068186 276.058134 
L 90.216678 276.844851 
L 90.365171 276.459506 
L 90.513663 274.814919 
L 90.662155 274.416253 
L 90.810648 273.090099 
L 90.95914 273.20925 
L 91.107632 274.341013 
L 91.256125 274.244938 
L 91.404617 274.448306 
L 91.553109 273.983492 
L 91.701602 274.134094 
L 91.850094 274.939935 
L 92.147079 278.218579 
L 92.295571 277.28921 
L 92.444063 277.38007 
L 92.592556 276.978007 
L 92.741048 278.293891 
L 92.88954 277.832884 
L 93.186525 279.257125 
L 93.335017 278.079926 
L 93.48351 278.554563 
L 93.780494 278.534257 
L 93.928987 278.634985 
L 94.522956 276.357957 
L 94.671448 273.485328 
L 94.819941 273.857472 
L 95.116925 271.823341 
L 95.265418 272.776042 
L 95.41391 272.618934 
L 95.562402 272.642584 
L 95.710895 273.03632 
L 95.859387 273.093687 
L 96.007879 272.411254 
L 96.304864 274.120348 
L 96.453356 273.596419 
L 96.601849 273.977794 
L 96.898833 273.740026 
L 97.047326 272.554617 
L 97.34431 272.170473 
L 97.641295 272.735693 
L 97.789787 272.157296 
L 97.93828 272.506909 
L 98.086772 271.498076 
L 98.383757 272.395044 
L 98.532249 274.51827 
L 98.680741 273.753628 
L 98.829234 274.701381 
L 98.977726 273.893059 
L 99.274711 275.166406 
L 99.423203 275.10889 
L 99.571696 277.007011 
L 99.86868 276.760119 
L 100.017173 277.769159 
L 100.165665 277.745419 
L 100.314157 277.307178 
L 100.46265 278.867555 
L 100.759634 278.82225 
L 100.908127 279.449389 
L 101.056619 277.173052 
L 101.205111 277.623162 
L 101.353604 277.582351 
L 101.502096 275.25745 
L 101.650588 277.008392 
L 101.799081 277.335496 
L 101.947573 277.340862 
L 102.244558 274.452153 
L 102.541542 275.216054 
L 102.690035 273.960815 
L 102.838527 274.03283 
L 102.987019 275.060623 
L 103.432496 272.532883 
L 103.729481 275.738766 
L 103.877973 274.533901 
L 104.174958 277.212838 
L 104.32345 276.099478 
L 104.471943 276.199364 
L 104.620435 276.488926 
L 104.768927 278.074179 
L 104.91742 278.134445 
L 105.362897 279.798771 
L 105.659881 280.445887 
L 105.808374 280.47697 
L 106.253851 279.342856 
L 106.402343 279.949515 
L 106.699328 278.73865 
L 106.84782 280.194985 
L 106.996312 279.211215 
L 107.144805 279.696708 
L 107.293297 280.953768 
L 107.590282 280.416843 
L 107.738774 278.854986 
L 107.887266 278.953356 
L 108.332743 274.956337 
L 108.481236 275.685237 
L 108.926713 274.437373 
L 109.075205 274.381452 
L 109.37219 276.054974 
L 109.520682 276.273962 
L 109.669174 275.640655 
L 109.966159 275.624345 
L 110.114652 274.642393 
L 110.411636 275.71134 
L 110.708621 273.432885 
L 110.857113 272.085117 
L 111.154098 272.595722 
L 111.30259 273.77971 
L 111.451083 273.874689 
L 111.599575 275.027786 
L 111.89656 274.090528 
L 112.045052 276.140985 
L 112.193544 276.02166 
L 112.342037 276.547459 
L 112.639021 278.602026 
L 112.936006 277.315107 
L 113.084498 274.648088 
L 113.232991 274.254085 
L 113.381483 274.277872 
L 113.529975 273.254227 
L 113.678468 273.931537 
L 113.82696 273.372133 
L 113.975452 270.593847 
L 114.123945 271.002463 
L 114.420929 270.164653 
L 114.569422 271.187746 
L 114.717914 271.072588 
L 114.866406 271.622493 
L 115.014899 271.448097 
L 115.163391 271.445438 
L 115.311883 269.923354 
L 115.460376 270.93186 
L 115.608868 269.738523 
L 115.75736 270.630807 
L 116.054345 268.964923 
L 116.202837 269.058532 
L 116.35133 268.93492 
L 116.499822 269.041168 
L 116.648314 269.499685 
L 116.945299 271.322445 
L 117.093791 270.155933 
L 117.390776 271.796862 
L 117.687761 274.746718 
L 117.984745 275.006264 
L 118.133238 273.597042 
L 118.28173 273.473416 
L 118.430222 272.901291 
L 118.578715 274.95041 
L 118.727207 275.229443 
L 118.875699 276.513113 
L 119.024192 273.74476 
L 119.172684 273.428997 
L 119.321176 273.401885 
L 119.469669 272.559993 
L 119.766653 273.682291 
L 119.915146 272.797 
L 120.063638 272.994686 
L 120.21213 272.950868 
L 120.360623 272.346688 
L 120.509115 273.324681 
L 120.657608 273.201319 
L 120.8061 272.382514 
L 120.954592 272.904147 
L 121.251577 270.71144 
L 121.400069 272.065188 
L 121.548562 271.99584 
L 121.845546 271.413216 
L 121.994039 272.97853 
L 122.142531 272.64995 
L 122.588008 274.471858 
L 122.7365 276.595867 
L 122.884993 275.89124 
L 123.181977 272.521742 
L 123.33047 271.976783 
L 123.478962 270.731706 
L 123.627454 270.758745 
L 123.775947 271.070758 
L 123.924439 272.258932 
L 124.369916 269.52912 
L 124.518408 271.142255 
L 124.666901 271.193572 
L 124.963885 273.282663 
L 125.26087 273.723375 
L 125.409362 273.138345 
L 125.854839 276.442798 
L 126.597301 274.164427 
L 126.745793 275.261273 
L 126.894286 273.829501 
L 127.042778 273.651884 
L 127.339763 270.452186 
L 127.488255 270.515037 
L 127.636747 270.861431 
L 127.78524 269.82494 
L 127.933732 269.708887 
L 128.082224 270.026732 
L 128.230717 268.838258 
L 128.379209 269.987525 
L 128.527701 270.254087 
L 128.973178 274.760591 
L 129.121671 274.826705 
L 129.270163 276.310436 
L 129.418655 276.287687 
L 129.71564 273.25087 
L 129.864132 273.564677 
L 130.012625 274.685641 
L 130.309609 273.595568 
L 130.458102 272.702999 
L 130.755087 270.480063 
L 131.052071 270.906641 
L 131.200564 273.393057 
L 131.349056 274.00628 
L 131.497548 271.474164 
L 131.794533 272.211271 
L 131.943025 271.53156 
L 132.091518 272.902784 
L 132.536995 271.861753 
L 132.833979 267.103827 
L 132.982472 267.800385 
L 133.130964 267.660244 
L 133.279456 265.833854 
L 133.427949 265.979974 
L 133.576441 265.577175 
L 133.724933 266.547616 
L 133.873426 266.438354 
L 134.17041 268.01994 
L 134.318903 268.046625 
L 134.467395 269.616173 
L 134.615887 269.472293 
L 134.912872 272.253785 
L 135.061364 272.667503 
L 135.358349 271.494015 
L 135.803826 274.313401 
L 136.100811 271.154784 
L 136.249303 270.612799 
L 136.397795 270.636645 
L 136.546288 270.361351 
L 136.843272 268.757158 
L 136.991765 266.174886 
L 137.140257 265.744797 
L 137.437242 263.905439 
L 137.585734 263.895376 
L 137.734226 264.661149 
L 137.882719 262.595932 
L 138.031211 262.49624 
L 138.179703 262.694202 
L 138.62518 264.864046 
L 138.773673 266.976656 
L 138.922165 266.954844 
L 139.21915 269.961469 
L 139.961611 275.932812 
L 140.110104 275.704023 
L 140.258596 274.747337 
L 140.407088 276.170566 
L 140.704073 274.636099 
L 141.001058 274.237251 
L 141.446535 271.088392 
L 141.595027 269.955387 
L 141.74352 267.966877 
L 141.892012 267.616226 
L 142.040504 267.579633 
L 142.188997 267.338941 
L 142.485981 265.103846 
L 142.634474 265.069152 
L 142.931458 266.253529 
L 143.079951 267.568818 
L 143.376935 271.688683 
L 143.525428 272.811815 
L 143.67392 272.204661 
L 143.970905 275.368136 
L 144.119397 275.18258 
L 144.267889 276.061689 
L 144.416382 275.93929 
L 144.564874 275.465772 
L 145.010351 270.233533 
L 145.158843 269.896071 
L 145.455828 269.953496 
L 145.752813 269.199171 
L 146.19829 270.602513 
L 146.346782 270.013936 
L 146.495274 270.090176 
L 146.792259 268.728484 
L 146.940751 267.90247 
L 147.089244 267.758645 
L 147.237736 267.256496 
L 147.386228 267.152681 
L 147.534721 266.786206 
L 147.831705 269.29784 
L 147.980198 271.105725 
L 148.12869 271.391194 
L 148.574167 274.575822 
L 148.722659 275.706426 
L 148.871152 274.92824 
L 149.019644 275.319931 
L 149.762106 270.349677 
L 149.910598 269.980376 
L 150.05909 269.032113 
L 150.356075 265.23437 
L 150.65306 263.812472 
L 150.801552 263.549701 
L 150.950044 264.518097 
L 151.098537 264.515575 
L 151.247029 265.748109 
L 151.395522 265.732624 
L 151.544014 264.428869 
L 151.692506 267.590314 
L 151.989491 268.595092 
L 152.137983 268.599158 
L 152.286476 268.266529 
L 152.434968 268.320951 
L 152.58346 267.910199 
L 152.880445 265.384966 
L 153.028937 265.719061 
L 153.17743 263.893311 
L 153.325922 265.5578 
L 153.474414 265.313174 
L 153.771399 268.632359 
L 153.919891 268.592579 
L 154.068384 270.576184 
L 154.216876 269.659068 
L 154.365368 270.023961 
L 154.662353 272.871263 
L 154.810845 271.633351 
L 154.959338 271.740688 
L 155.404815 271.048318 
L 155.553307 270.061863 
L 155.701799 270.382125 
L 155.850292 272.584643 
L 156.147276 273.382169 
L 156.295769 272.88173 
L 156.444261 271.964016 
L 156.741246 269.866842 
L 156.889738 269.096572 
L 157.186723 271.185222 
L 157.483707 269.949871 
L 157.6322 267.708489 
L 157.780692 268.471813 
L 157.929184 268.489054 
L 158.374661 270.022047 
L 158.671646 268.1583 
L 158.820138 267.032577 
L 158.968631 264.830443 
L 159.117123 265.600217 
L 159.265615 265.54655 
L 159.711092 268.938589 
L 159.859585 269.884625 
L 160.008077 269.538196 
L 160.156569 271.608983 
L 160.305062 271.914348 
L 160.602046 275.412052 
L 160.750539 276.201398 
L 161.047523 274.297638 
L 161.196016 274.001647 
L 161.344508 271.806281 
L 161.493 273.012816 
L 161.789985 270.727588 
L 162.08697 269.498562 
L 162.235462 269.849629 
L 162.383955 269.910264 
L 162.532447 269.507814 
L 162.680939 268.695052 
L 162.829432 269.566684 
L 162.977924 269.21474 
L 163.423401 271.99262 
L 163.571893 272.01804 
L 163.720386 270.414792 
L 163.868878 271.496592 
L 164.01737 271.682812 
L 164.165863 272.462253 
L 164.314355 273.920762 
L 164.462847 274.02284 
L 164.61134 273.177755 
L 164.759832 273.09433 
L 165.056817 272.602912 
L 165.205309 272.995948 
L 165.353801 271.58644 
L 165.502294 272.032163 
L 165.947771 267.338079 
L 166.244755 269.289954 
L 166.393248 269.569488 
L 166.690232 272.239851 
L 167.284202 277.388784 
L 167.432694 277.754778 
L 167.581186 277.594276 
L 167.878171 279.407603 
L 168.026663 279.68574 
L 168.175156 278.498824 
L 168.323648 279.123183 
L 169.06611 270.017185 
L 169.511587 260.976033 
L 169.808571 258.364065 
L 169.957064 257.663176 
L 170.105556 256.03791 
L 170.848018 262.456013 
L 170.99651 262.81818 
L 171.145002 263.491085 
L 171.293495 261.277806 
L 171.441987 260.785078 
L 171.887464 263.606345 
L 172.035957 262.308115 
L 172.332941 265.316331 
L 172.629926 267.506622 
L 173.075403 273.402933 
L 173.223895 273.632348 
L 173.372388 275.477717 
L 173.52088 279.164081 
L 173.669372 279.190531 
L 173.817865 280.020914 
L 173.966357 280.022617 
L 174.114849 279.144767 
L 174.560326 279.975911 
L 174.708819 280.549601 
L 175.302788 271.984185 
L 175.45128 271.87274 
L 175.599773 273.640282 
L 175.748265 273.434839 
L 175.896757 272.481729 
L 176.342234 266.468048 
L 176.490727 264.422509 
L 176.639219 264.89174 
L 176.936204 262.639197 
L 177.084696 260.300397 
L 177.233188 260.450811 
L 177.381681 260.304336 
L 177.530173 260.855603 
L 177.97565 266.494798 
L 178.124142 266.067082 
L 178.272635 266.800134 
L 178.421127 266.536231 
L 178.569619 268.257994 
L 178.718112 267.602708 
L 178.866604 268.085732 
L 179.015096 268.029534 
L 179.312081 265.778466 
L 179.460573 265.353249 
L 179.757558 265.517909 
L 179.90605 266.971404 
L 180.054543 266.88827 
L 180.351527 268.691053 
L 181.390974 275.125479 
L 181.539466 273.316139 
L 181.687958 273.213412 
L 181.836451 272.656368 
L 182.281928 273.953508 
L 182.578913 274.078275 
L 182.727405 271.857465 
L 182.875897 267.897221 
L 183.02439 267.010727 
L 183.172882 264.655265 
L 183.321374 264.425925 
L 183.618359 262.0046 
L 183.766851 262.03969 
L 183.915344 261.132676 
L 184.063836 259.102367 
L 184.212328 259.445957 
L 184.657805 264.595503 
L 184.806298 265.377602 
L 184.95479 265.45482 
L 185.845744 277.619628 
L 185.994236 278.176499 
L 186.142729 278.247156 
L 186.291221 277.894288 
L 186.439713 277.837855 
L 187.033683 269.577331 
L 187.182175 268.508515 
L 187.627652 260.052237 
L 187.776144 260.158704 
L 187.924637 260.449011 
L 188.221621 263.880716 
L 188.370114 262.304585 
L 188.518606 262.55059 
L 188.667098 263.071807 
L 188.815591 264.705653 
L 189.112575 269.479298 
L 189.261068 269.128516 
L 189.706545 266.073598 
L 189.855037 267.134252 
L 190.152022 266.947823 
L 190.300514 266.403726 
L 190.449006 266.434326 
L 190.597499 266.970536 
L 190.745991 266.122881 
L 191.042976 267.852511 
L 191.191468 267.740305 
L 191.488453 270.4138 
L 191.785437 272.555136 
L 191.93393 272.723615 
L 192.082422 271.034247 
L 192.230914 270.775895 
L 192.379407 269.2933 
L 192.527899 269.052237 
L 192.676391 270.230361 
L 193.121869 265.727115 
L 193.418853 264.927527 
L 193.715838 266.435001 
L 193.86433 268.100218 
L 194.012823 268.448444 
L 194.161315 268.099408 
L 194.309807 269.084069 
L 194.4583 269.321522 
L 194.606792 268.939034 
L 194.755284 270.132983 
L 194.903777 270.109909 
L 195.052269 270.698048 
L 195.200761 272.371068 
L 195.349254 272.029453 
L 195.943223 277.166623 
L 196.240208 276.676612 
L 196.3887 277.505111 
L 196.982669 274.961081 
L 197.131162 273.815775 
L 197.279654 273.690549 
L 197.428146 271.853972 
L 197.576639 272.980766 
L 197.725131 272.565759 
L 197.873623 273.131221 
L 198.022116 274.352073 
L 198.3191 270.411596 
L 198.764577 266.073129 
L 199.061562 268.279606 
L 199.358547 265.068596 
L 199.507039 265.534812 
L 200.101008 275.365286 
L 200.249501 275.79945 
L 200.397993 275.52011 
L 200.546485 274.546552 
L 200.84347 277.350451 
L 201.140455 272.934239 
L 201.585932 268.05169 
L 201.734424 267.707772 
L 202.031409 268.780358 
L 202.179901 268.425982 
L 202.328393 267.552493 
L 202.476886 269.915188 
L 202.625378 270.450764 
L 202.922363 271.906975 
L 203.070855 272.226328 
L 203.219348 273.090555 
L 203.36784 272.839766 
L 203.516332 273.044216 
L 203.664825 272.565668 
L 203.961809 273.2416 
L 204.110302 273.628174 
L 204.555779 275.902193 
L 204.704271 276.040387 
L 204.852763 275.888695 
L 205.001256 275.083859 
L 205.446733 270.841913 
L 205.595225 270.298645 
L 206.189194 264.112091 
L 206.337687 264.8609 
L 206.486179 264.60901 
L 206.931656 269.975289 
L 207.080148 269.949618 
L 207.228641 270.286572 
L 207.377133 269.999138 
L 207.674118 271.892093 
L 207.82261 271.209031 
L 207.971102 272.53661 
L 208.268087 270.788207 
L 208.416579 270.205913 
L 208.713564 271.743632 
L 208.862056 271.419359 
L 209.159041 269.664632 
L 209.307533 270.913993 
L 209.456026 269.974162 
L 209.75301 272.925625 
L 210.198487 275.356375 
L 210.34698 275.970363 
L 210.643964 277.921595 
L 211.089441 275.598978 
L 211.534918 268.911033 
L 211.683411 268.523786 
L 211.831903 268.703129 
L 212.128888 267.087493 
L 212.27738 265.950818 
L 212.425872 266.044476 
L 212.574365 266.658071 
L 213.019842 270.567326 
L 213.168334 269.300403 
L 213.316826 269.514286 
L 213.613811 271.119622 
L 213.762304 271.46823 
L 213.910796 271.187678 
L 214.207781 269.543401 
L 214.504765 266.749643 
L 214.80175 265.216475 
L 215.247227 262.227638 
L 215.395719 263.001208 
L 215.544212 262.483538 
L 215.841196 259.969798 
L 216.138181 261.575952 
L 216.286673 261.862609 
L 216.435166 262.509165 
L 216.583658 261.609768 
L 216.73215 262.745551 
L 216.880643 262.281406 
L 217.029135 263.449727 
L 217.623104 271.263733 
L 217.920089 274.673257 
L 218.365566 281.198216 
L 218.514058 281.28212 
L 218.662551 280.96933 
L 218.811043 280.240051 
L 218.959535 280.406629 
L 219.108028 281.369039 
L 219.25652 281.13222 
L 219.850489 273.953164 
L 220.147474 276.06541 
L 220.295966 275.887757 
L 220.444459 275.495902 
L 220.592951 275.537096 
L 220.741443 276.599317 
L 221.038428 280.32157 
L 221.18692 280.709482 
L 221.335413 281.549377 
L 221.632397 280.646002 
L 221.78089 280.551897 
L 221.929382 280.843324 
L 222.077874 279.647565 
L 222.226367 277.500312 
L 222.523351 270.448366 
L 222.671844 269.038535 
L 223.117321 261.579343 
L 223.265813 260.874007 
L 223.414305 259.223768 
L 223.71129 260.169993 
L 224.156767 265.207136 
L 224.899229 272.130428 
L 225.196214 272.785983 
L 225.344706 273.439627 
L 225.641691 272.249343 
L 225.790183 272.068761 
L 226.23566 267.640366 
L 226.829629 258.470393 
L 226.978122 259.342008 
L 227.126614 258.312849 
L 227.423599 254.583595 
L 227.572091 254.210189 
L 228.017568 256.329164 
L 228.314553 260.465793 
L 228.463045 260.23543 
L 229.353999 275.956083 
L 229.502491 275.927885 
L 229.799476 274.888325 
L 230.096461 273.609223 
L 230.244953 273.27148 
L 230.541938 270.893562 
L 230.838922 267.616743 
L 230.987415 268.014112 
L 231.284399 265.733604 
L 231.432892 266.28466 
L 231.729876 264.219269 
L 231.878369 264.387963 
L 232.175353 263.503636 
L 232.472338 264.347729 
L 232.769323 268.147894 
L 233.066307 267.664192 
L 233.2148 268.110643 
L 233.660277 266.44671 
L 233.808769 264.5194 
L 233.957261 264.482374 
L 234.402739 259.04639 
L 234.848216 260.854676 
L 235.293693 267.508713 
L 235.442185 266.895879 
L 235.590677 267.716587 
L 236.630124 277.008723 
L 236.778616 276.287981 
L 237.521078 279.96785 
L 237.66957 280.125296 
L 238.412032 271.21135 
L 238.560524 270.176819 
L 238.709016 269.989275 
L 238.857509 270.158708 
L 239.154493 271.612923 
L 239.302986 272.61321 
L 239.59997 277.578282 
L 240.045447 281.885455 
L 240.490924 273.718719 
L 240.639417 270.773201 
L 240.787909 270.881987 
L 241.233386 267.66436 
L 241.530371 267.458887 
L 241.678863 268.566342 
L 242.12434 273.408257 
L 242.272832 272.478338 
L 242.421325 272.504699 
L 242.569817 273.435171 
L 242.718309 272.985271 
L 242.866802 273.186133 
L 243.015294 273.817355 
L 243.312279 271.400198 
L 243.460771 271.277589 
L 243.609263 268.709809 
L 243.757756 268.362486 
L 244.351725 258.826367 
L 244.64871 256.291124 
L 244.797202 256.411767 
L 245.242679 254.588698 
L 245.391172 254.700924 
L 245.539664 253.854576 
L 245.688156 256.193174 
L 245.836649 256.667779 
L 245.985141 257.70063 
L 246.133633 259.576043 
L 246.282126 259.863248 
L 246.430618 259.895674 
L 246.727603 261.772663 
L 247.024587 263.229151 
L 248.509511 244.647178 
L 248.658003 243.487997 
L 248.806495 244.123877 
L 248.954988 243.432411 
L 249.10348 243.483095 
L 249.400465 247.809612 
L 249.697449 250.53691 
L 249.994434 255.010761 
L 250.439911 259.103831 
L 250.588403 258.781401 
L 250.885388 257.011046 
L 251.03388 258.292632 
L 251.330865 255.78449 
L 251.479357 257.350749 
L 251.62785 257.347722 
L 251.924834 258.885976 
L 252.221819 262.329965 
L 252.518804 264.893899 
L 252.667296 265.231656 
L 253.112773 267.620507 
L 253.261265 265.98183 
L 253.409758 265.705962 
L 253.55825 265.762707 
L 253.706742 266.753873 
L 253.855235 265.674093 
L 254.003727 265.416565 
L 254.152219 266.921301 
L 254.449204 267.000787 
L 254.746189 268.490898 
L 254.894681 269.908397 
L 255.934128 259.358221 
L 256.973574 243.502419 
L 257.122066 243.65889 
L 257.270559 244.068659 
L 257.419051 243.847049 
L 257.567543 244.131199 
L 257.716036 245.249363 
L 258.458497 258.931301 
L 258.755482 261.535079 
L 258.903974 261.5106 
L 259.349451 266.969622 
L 259.497944 268.01804 
L 259.646436 267.884341 
L 259.943421 265.300028 
L 260.240405 260.836957 
L 260.388898 260.735848 
L 260.53739 259.824968 
L 260.834375 257.691524 
L 261.131359 256.044746 
L 261.576836 260.641333 
L 262.022313 265.767242 
L 262.170806 265.699992 
L 262.319298 266.689484 
L 262.616283 272.444103 
L 262.913267 274.617102 
L 263.06176 276.29708 
L 263.210252 275.851093 
L 263.358744 276.407137 
L 263.507237 276.086186 
L 263.655729 278.08921 
L 263.804221 278.475647 
L 263.952714 277.794351 
L 264.546683 271.651011 
L 264.695175 271.041252 
L 264.99216 268.026711 
L 265.289145 265.045215 
L 265.437637 265.754657 
L 265.58613 267.525655 
L 265.734622 266.485181 
L 265.883114 266.649259 
L 266.328591 269.067973 
L 266.477084 269.097612 
L 266.625576 268.975547 
L 266.774068 267.924941 
L 267.071053 264.645782 
L 267.219545 264.659266 
L 267.368038 263.685196 
L 268.704469 246.273883 
L 268.852961 245.818757 
L 269.001453 245.765812 
L 269.44693 244.287583 
L 269.595423 244.451298 
L 269.743915 245.701016 
L 270.189392 242.794169 
L 270.486377 238.959512 
L 270.634869 238.676264 
L 270.931854 236.228027 
L 271.080346 236.053764 
L 271.674315 239.986181 
L 271.9713 244.811763 
L 272.119792 245.702188 
L 272.565269 253.401147 
L 272.713762 254.031158 
L 273.010746 253.328685 
L 273.159239 253.418757 
L 273.456223 251.060592 
L 273.604716 251.095064 
L 273.753208 250.497811 
L 274.050193 247.439359 
L 274.347177 249.098214 
L 274.644162 252.9223 
L 275.535116 269.704139 
L 275.980593 273.249275 
L 276.574563 269.613749 
L 277.317024 255.782032 
L 278.059486 246.176604 
L 278.207978 245.997554 
L 278.356471 246.132857 
L 278.653455 247.046428 
L 278.801948 248.880417 
L 279.247425 250.046877 
L 279.395917 250.759733 
L 279.544409 249.981583 
L 279.692902 250.151786 
L 280.138379 243.427794 
L 280.286871 242.298205 
L 280.435363 242.330921 
L 280.583856 241.918391 
L 280.88084 240.558081 
L 281.029333 240.06648 
L 281.177825 236.6805 
L 281.326317 236.746353 
L 281.47481 235.906656 
L 281.623302 235.707735 
L 281.771794 234.491619 
L 282.068779 230.903198 
L 282.514256 234.195172 
L 282.959733 243.305719 
L 283.108225 245.180564 
L 283.553702 253.881892 
L 283.850687 252.495229 
L 284.147672 253.73099 
L 284.593149 252.073272 
L 284.890133 249.550707 
L 285.038626 248.335829 
L 285.187118 249.01868 
L 285.632595 248.235174 
L 285.92958 250.681803 
L 286.078072 249.873871 
L 286.226565 249.885791 
L 286.375057 247.865125 
L 286.523549 247.76125 
L 287.117519 253.146479 
L 287.414503 257.427793 
L 288.008473 267.296731 
L 288.305457 270.77411 
L 288.899427 266.930144 
L 289.196411 263.729955 
L 289.344904 263.729313 
L 289.641888 260.916862 
L 289.790381 258.138772 
L 289.938873 257.522429 
L 290.087365 255.973026 
L 290.829827 239.663085 
L 291.572289 223.210593 
L 291.720781 220.986364 
L 291.869273 220.828529 
L 292.017766 221.502365 
L 292.463243 225.25893 
L 292.611735 225.86602 
L 292.760227 227.177502 
L 292.90872 229.595249 
L 293.057212 229.927572 
L 293.205704 232.42535 
L 293.354197 232.358002 
L 293.502689 232.427061 
L 293.651181 232.179779 
L 293.948166 229.824524 
L 294.83912 207.490593 
L 295.433089 191.93872 
L 295.878566 187.326754 
L 296.027059 187.985582 
L 296.175551 186.518103 
L 296.324043 186.878272 
L 296.472536 185.595893 
L 296.769521 181.500859 
L 297.214998 175.356887 
L 297.511982 169.711795 
L 298.105952 152.777436 
L 298.551429 137.691399 
L 299.29389 117.426814 
L 299.442383 116.865254 
L 299.590875 116.976755 
L 299.88786 119.66242 
L 300.036352 119.66708 
L 300.184844 119.941669 
L 300.333337 118.712776 
L 300.481829 119.981312 
L 300.630321 119.788849 
L 301.075798 116.2469 
L 301.372783 112.663181 
L 301.669768 113.065181 
L 301.81826 114.452447 
L 302.412229 107.568637 
L 302.709214 100.418295 
L 303.600168 82.83776 
L 303.74866 81.828633 
L 303.897153 79.349554 
L 304.045645 79.014213 
L 304.936599 67.852773 
L 305.085091 67.759227 
L 305.382076 65.179769 
L 305.530568 64.040274 
L 305.679061 64.764029 
L 305.827553 66.178728 
L 306.124538 66.424947 
L 306.27303 67.297142 
L 306.421522 67.255313 
L 306.718507 62.284182 
L 307.015492 60.698308 
L 307.312477 57.272768 
L 307.460969 56.957096 
L 307.906446 54.733002 
L 308.945892 71.231772 
L 309.094385 72.100946 
L 309.242877 71.973418 
L 309.391369 72.636694 
L 310.579308 62.489906 
L 310.7278 63.579772 
L 311.024785 63.033584 
L 311.470262 61.31534 
L 311.767247 58.306455 
L 311.915739 60.357028 
L 312.064231 60.660807 
L 312.361216 59.004616 
L 312.509708 59.786177 
L 312.658201 59.042116 
L 313.103678 62.965302 
L 313.25217 62.851624 
L 313.400662 61.54699 
L 313.846139 64.331937 
L 313.994632 64.024776 
L 314.143124 65.301593 
L 314.291616 65.063608 
L 314.737093 68.822471 
L 314.885586 69.49542 
L 315.18257 66.894261 
L 315.331063 67.389859 
L 315.479555 68.62307 
L 315.628047 68.535875 
L 315.77654 67.864086 
L 315.925032 66.463478 
L 316.073524 66.446455 
L 316.222017 65.983185 
L 316.519001 66.820052 
L 316.667494 69.391083 
L 316.964478 68.37326 
L 317.112971 68.749323 
L 317.261463 70.82783 
L 317.409956 70.936584 
L 317.70694 70.370052 
L 317.855433 69.164104 
L 318.003925 69.796773 
L 318.152417 67.738047 
L 318.30091 68.297868 
L 318.597894 65.127022 
L 318.894879 58.369289 
L 319.191864 55.611583 
L 319.340356 55.591825 
L 319.637341 51.531431 
L 320.082818 46.498131 
L 320.23131 46.48818 
L 320.528295 44.074493 
L 320.676787 43.691464 
L 320.973772 41.188182 
L 321.122264 41.331435 
L 321.419249 42.331617 
L 321.567741 45.755431 
L 321.716233 46.55037 
L 322.013218 50.438519 
L 322.310203 50.111649 
L 322.458695 50.289536 
L 322.607187 48.959489 
L 322.75568 45.605396 
L 322.904172 44.784379 
L 323.052664 41.69379 
L 323.349649 40.371051 
L 323.498141 39.158475 
L 323.646634 39.320021 
L 323.795126 38.702572 
L 324.240603 41.736407 
L 324.834572 40.445466 
L 324.983065 40.979563 
L 325.280049 39.961618 
L 325.725526 35.083278 
L 325.874019 34.671745 
L 326.022511 33.477582 
L 326.319496 29.290466 
L 326.61648 27.092596 
L 326.764973 26.794545 
L 326.913465 27.141931 
L 327.061957 26.955245 
L 327.358942 29.327722 
L 327.507435 29.042384 
L 327.655927 31.285342 
L 328.101404 28.091882 
L 328.249896 27.868123 
L 328.546881 30.825208 
L 328.695373 30.722679 
L 328.843866 30.788284 
L 328.992358 33.394542 
L 329.14085 32.085024 
L 329.73482 39.424517 
L 329.883312 39.460326 
L 330.031804 38.430992 
L 330.180297 39.056299 
L 330.328789 38.511752 
L 330.477281 36.778669 
L 330.625774 38.682295 
L 330.774266 38.837164 
L 330.922758 38.184169 
L 331.071251 36.943813 
L 331.368235 37.368799 
L 331.516728 38.778208 
L 331.66522 38.564148 
L 331.813712 38.867667 
L 331.962205 38.903466 
L 332.110697 39.234232 
L 332.259189 40.052724 
L 332.704666 45.670336 
L 332.853159 46.053441 
L 333.298636 52.781531 
L 333.59562 57.579396 
L 333.892605 59.928525 
L 334.18959 58.111607 
L 334.338082 58.310115 
L 334.635067 55.229401 
L 334.783559 54.195799 
L 334.932051 50.441668 
L 335.080544 50.027454 
L 335.377528 45.429289 
L 335.526021 45.878965 
L 335.823005 45.299445 
L 335.971498 45.56962 
L 336.11999 44.643832 
L 336.268482 42.496381 
L 336.416975 43.371547 
L 336.565467 43.061405 
L 336.713959 43.458156 
L 336.862452 44.689289 
L 337.159436 42.173076 
L 337.307929 41.189854 
L 337.456421 41.496562 
L 337.604913 41.293589 
L 337.901898 43.066533 
L 338.347375 42.192171 
L 338.64436 40.240005 
L 338.941345 37.650443 
L 339.238329 38.300371 
L 339.535314 38.050954 
L 340.426268 46.599577 
L 340.57476 46.117618 
L 340.723253 47.63488 
L 340.871745 47.040327 
L 341.020237 47.19896 
L 341.317222 44.924458 
L 341.614207 46.801986 
L 341.762699 49.802875 
L 341.911191 49.29027 
L 342.059684 51.076894 
L 342.208176 51.357119 
L 342.802145 60.059701 
L 342.950638 59.644929 
L 343.09913 60.024125 
L 343.247622 58.746609 
L 343.544607 62.349133 
L 343.693099 62.63695 
L 343.841592 63.658824 
L 344.138576 62.772984 
L 344.287069 60.52766 
L 344.435561 60.424151 
L 344.584053 59.704755 
L 344.732546 59.94826 
L 345.02953 54.998212 
L 345.178023 53.439146 
L 345.475007 49.364509 
L 346.217469 60.134443 
L 346.365961 64.071152 
L 346.662946 66.05082 
L 346.811438 67.271806 
L 346.959931 66.961848 
L 349.187316 37.93717 
L 349.335808 38.053686 
L 349.484301 36.37537 
L 349.632793 36.571643 
L 350.375255 44.06059 
L 350.523747 42.867826 
L 350.672239 43.137207 
L 350.820732 42.387036 
L 350.969224 43.150214 
L 351.266209 40.88384 
L 351.563193 39.31922 
L 351.860178 40.935105 
L 352.00867 43.042473 
L 352.157163 43.087654 
L 352.305655 42.820443 
L 353.048117 51.100865 
L 353.196609 51.074913 
L 353.493594 48.881908 
L 353.642086 49.702249 
L 353.939071 52.974757 
L 354.087563 54.538436 
L 354.236055 54.549408 
L 354.384548 54.419193 
L 354.681532 56.255162 
L 354.830025 56.046471 
L 354.978517 57.119005 
L 355.275502 61.571141 
L 355.423994 61.525325 
L 355.720979 64.239626 
L 356.017963 67.828264 
L 356.166456 69.197801 
L 356.46344 74.198369 
L 356.611933 73.401046 
L 356.908917 70.970358 
L 357.502887 66.509407 
L 358.096856 57.492353 
L 358.542333 54.738352 
L 358.690826 54.943361 
L 358.98781 52.328018 
L 359.136303 52.113991 
L 359.284795 52.862114 
L 359.433287 54.645056 
L 359.730272 52.596779 
L 359.878764 53.656506 
L 360.324241 50.856341 
L 360.472734 51.163924 
L 360.621226 50.954046 
L 360.769718 49.965144 
L 360.918211 47.890717 
L 361.066703 49.186023 
L 361.215195 49.227475 
L 361.363688 47.610654 
L 361.660672 47.501762 
L 361.957657 45.328078 
L 362.106149 46.184491 
L 362.254642 48.244514 
L 362.403134 48.207987 
L 362.551626 47.83913 
L 362.700119 50.237105 
L 363.145596 47.300218 
L 363.294088 48.494937 
L 363.44258 48.396705 
L 363.888057 43.616274 
L 364.03655 43.638875 
L 364.185042 41.964971 
L 364.333534 43.083436 
L 364.630519 46.404996 
L 364.927504 45.195809 
L 365.372981 49.355827 
L 365.669965 45.43178 
L 365.818458 45.497053 
L 365.96695 44.55758 
L 366.115442 44.66089 
L 366.560919 47.665818 
L 366.857904 46.83153 
L 367.154889 49.740521 
L 367.303381 49.835115 
L 367.451873 48.704956 
L 367.748858 50.954139 
L 367.89735 49.689926 
L 368.194335 52.625276 
L 368.342827 52.974521 
L 368.49132 52.573417 
L 368.639812 53.739781 
L 368.788304 52.482681 
L 368.936797 53.545086 
L 369.233782 50.57056 
L 369.382274 51.015239 
L 369.679259 46.725788 
L 370.124736 44.158767 
L 370.273228 45.56119 
L 370.42172 44.331136 
L 370.570213 44.721856 
L 370.867197 42.685487 
L 371.01569 42.904701 
L 371.164182 41.90658 
L 371.312674 42.198368 
L 371.461167 42.241267 
L 371.609659 42.155792 
L 371.906644 39.120003 
L 372.055136 38.738647 
L 372.203628 38.962837 
L 372.352121 38.91185 
L 372.797598 36.432088 
L 373.391567 41.455135 
L 373.540059 43.537623 
L 373.837044 43.399823 
L 374.134029 42.277786 
L 374.282521 42.028508 
L 374.431013 39.537153 
L 374.579506 39.623427 
L 374.727998 38.834159 
L 374.87649 38.776283 
L 375.024983 35.544273 
L 375.173475 34.992701 
L 375.321967 35.240399 
L 375.767444 40.369034 
L 375.915937 42.276621 
L 376.064429 41.42073 
L 376.212921 42.141429 
L 376.361414 41.329909 
L 376.509906 43.409388 
L 376.658398 43.519621 
L 376.806891 43.984944 
L 376.955383 42.959898 
L 377.103875 42.904918 
L 377.252368 41.939146 
L 377.549352 37.10945 
L 377.697845 37.372575 
L 377.994829 38.551499 
L 378.143322 39.352185 
L 378.440306 37.168609 
L 378.737291 37.89826 
L 378.885783 38.301275 
L 379.034276 41.108499 
L 379.182768 41.454919 
L 379.331261 42.375802 
L 379.479753 40.164312 
L 379.628245 39.947362 
L 379.776738 39.977004 
L 379.92523 41.08302 
L 380.222215 38.61574 
L 380.370707 39.957896 
L 380.519199 39.85798 
L 380.816184 37.401798 
L 380.964676 38.45056 
L 381.113169 37.33167 
L 381.261661 38.574331 
L 381.410153 36.452678 
L 381.558646 36.723079 
L 381.707138 39.000181 
L 381.85563 38.954904 
L 382.004123 40.464466 
L 382.152615 43.185035 
L 382.301107 42.641783 
L 382.4496 44.148564 
L 382.598092 46.833929 
L 382.746584 47.231036 
L 383.043569 50.153118 
L 383.192061 50.242877 
L 384.231508 39.552289 
L 384.38 38.629122 
L 384.38 38.629122 
" style="fill:none;stroke:#d62728;stroke-linecap:square;stroke-width:1.5;"/>
   </g>
   <g id="patch_3">
    <path d="M 68.96 294.64 
L 68.96 14.04 
" style="fill:none;stroke:#000000;stroke-linecap:square;stroke-linejoin:miter;stroke-width:0.8;"/>
   </g>
   <g id="patch_4">
    <path d="M 399.4 294.64 
L 399.4 14.04 
" style="fill:none;stroke:#000000;stroke-linecap:square;stroke-linejoin:miter;stroke-width:0.8;"/>
   </g>
   <g id="patch_5">
    <path d="M 68.96 294.64 
L 399.4 294.64 
" style="fill:none;stroke:#000000;stroke-linecap:square;stroke-linejoin:miter;stroke-width:0.8;"/>
   </g>
   <g id="patch_6">
    <path d="M 68.96 14.04 
L 399.4 14.04 
" style="fill:none;stroke:#000000;stroke-linecap:square;stroke-linejoin:miter;stroke-width:0.8;"/>
   </g>
  </g>
  <g id="axes_2">
   <g id="matplotlib.axis_3">
    <g id="ytick_9">
     <g id="line2d_15">
      <defs>
       <path d="M 0 0 
L 3.5 0 
" id="m785bb9513e" style="stroke:#000000;stroke-width:0.8;"/>
      </defs>
      <g>
       <use style="stroke:#000000;stroke-width:0.8;" x="399.4" xlink:href="#m785bb9513e" y="283.238177"/>
      </g>
     </g>
     <g id="text_17">
      <!-- 0.0 -->
      <g style="fill:#1f77b4;" transform="translate(406.4 288.177161)scale(0.13 -0.13)">
       <use xlink:href="#DejaVuSans-48"/>
       <use x="63.623047" xlink:href="#DejaVuSans-46"/>
       <use x="95.410156" xlink:href="#DejaVuSans-48"/>
      </g>
     </g>
    </g>
    <g id="ytick_10">
     <g id="line2d_16">
      <g>
       <use style="stroke:#000000;stroke-width:0.8;" x="399.4" xlink:href="#m785bb9513e" y="241.206386"/>
      </g>
     </g>
     <g id="text_18">
      <!-- 0.1 -->
      <g style="fill:#1f77b4;" transform="translate(406.4 246.145371)scale(0.13 -0.13)">
       <use xlink:href="#DejaVuSans-48"/>
       <use x="63.623047" xlink:href="#DejaVuSans-46"/>
       <use x="95.410156" xlink:href="#DejaVuSans-49"/>
      </g>
     </g>
    </g>
    <g id="ytick_11">
     <g id="line2d_17">
      <g>
       <use style="stroke:#000000;stroke-width:0.8;" x="399.4" xlink:href="#m785bb9513e" y="199.174596"/>
      </g>
     </g>
     <g id="text_19">
      <!-- 0.2 -->
      <g style="fill:#1f77b4;" transform="translate(406.4 204.11358)scale(0.13 -0.13)">
       <use xlink:href="#DejaVuSans-48"/>
       <use x="63.623047" xlink:href="#DejaVuSans-46"/>
       <use x="95.410156" xlink:href="#DejaVuSans-50"/>
      </g>
     </g>
    </g>
    <g id="ytick_12">
     <g id="line2d_18">
      <g>
       <use style="stroke:#000000;stroke-width:0.8;" x="399.4" xlink:href="#m785bb9513e" y="157.142805"/>
      </g>
     </g>
     <g id="text_20">
      <!-- 0.3 -->
      <g style="fill:#1f77b4;" transform="translate(406.4 162.081789)scale(0.13 -0.13)">
       <use xlink:href="#DejaVuSans-48"/>
       <use x="63.623047" xlink:href="#DejaVuSans-46"/>
       <use x="95.410156" xlink:href="#DejaVuSans-51"/>
      </g>
     </g>
    </g>
    <g id="ytick_13">
     <g id="line2d_19">
      <g>
       <use style="stroke:#000000;stroke-width:0.8;" x="399.4" xlink:href="#m785bb9513e" y="115.111014"/>
      </g>
     </g>
     <g id="text_21">
      <!-- 0.4 -->
      <g style="fill:#1f77b4;" transform="translate(406.4 120.049999)scale(0.13 -0.13)">
       <use xlink:href="#DejaVuSans-48"/>
       <use x="63.623047" xlink:href="#DejaVuSans-46"/>
       <use x="95.410156" xlink:href="#DejaVuSans-52"/>
      </g>
     </g>
    </g>
    <g id="ytick_14">
     <g id="line2d_20">
      <g>
       <use style="stroke:#000000;stroke-width:0.8;" x="399.4" xlink:href="#m785bb9513e" y="73.079224"/>
      </g>
     </g>
     <g id="text_22">
      <!-- 0.5 -->
      <g style="fill:#1f77b4;" transform="translate(406.4 78.018208)scale(0.13 -0.13)">
       <use xlink:href="#DejaVuSans-48"/>
       <use x="63.623047" xlink:href="#DejaVuSans-46"/>
       <use x="95.410156" xlink:href="#DejaVuSans-53"/>
      </g>
     </g>
    </g>
    <g id="ytick_15">
     <g id="line2d_21">
      <g>
       <use style="stroke:#000000;stroke-width:0.8;" x="399.4" xlink:href="#m785bb9513e" y="31.047433"/>
      </g>
     </g>
     <g id="text_23">
      <!-- 0.6 -->
      <g style="fill:#1f77b4;" transform="translate(406.4 35.986418)scale(0.13 -0.13)">
       <defs>
        <path d="M 33.015625 40.375 
Q 26.375 40.375 22.484375 35.828125 
Q 18.609375 31.296875 18.609375 23.390625 
Q 18.609375 15.53125 22.484375 10.953125 
Q 26.375 6.390625 33.015625 6.390625 
Q 39.65625 6.390625 43.53125 10.953125 
Q 47.40625 15.53125 47.40625 23.390625 
Q 47.40625 31.296875 43.53125 35.828125 
Q 39.65625 40.375 33.015625 40.375 
z
M 52.59375 71.296875 
L 52.59375 62.3125 
Q 48.875 64.0625 45.09375 64.984375 
Q 41.3125 65.921875 37.59375 65.921875 
Q 27.828125 65.921875 22.671875 59.328125 
Q 17.53125 52.734375 16.796875 39.40625 
Q 19.671875 43.65625 24.015625 45.921875 
Q 28.375 48.1875 33.59375 48.1875 
Q 44.578125 48.1875 50.953125 41.515625 
Q 57.328125 34.859375 57.328125 23.390625 
Q 57.328125 12.15625 50.6875 5.359375 
Q 44.046875 -1.421875 33.015625 -1.421875 
Q 20.359375 -1.421875 13.671875 8.265625 
Q 6.984375 17.96875 6.984375 36.375 
Q 6.984375 53.65625 15.1875 63.9375 
Q 23.390625 74.21875 37.203125 74.21875 
Q 40.921875 74.21875 44.703125 73.484375 
Q 48.484375 72.75 52.59375 71.296875 
z
" id="DejaVuSans-54"/>
       </defs>
       <use xlink:href="#DejaVuSans-48"/>
       <use x="63.623047" xlink:href="#DejaVuSans-46"/>
       <use x="95.410156" xlink:href="#DejaVuSans-54"/>
      </g>
     </g>
    </g>
    <g id="text_24">
     <!-- Volume Fraction ($\phi$) -->
     <g style="fill:#1f77b4;" transform="translate(440.954063 218.95)rotate(-90)scale(0.13 -0.13)">
      <defs>
       <path d="M 28.609375 0 
L 0.78125 72.90625 
L 11.078125 72.90625 
L 34.1875 11.53125 
L 57.328125 72.90625 
L 67.578125 72.90625 
L 39.796875 0 
z
" id="DejaVuSans-86"/>
       <path d="M 30.609375 48.390625 
Q 23.390625 48.390625 19.1875 42.75 
Q 14.984375 37.109375 14.984375 27.296875 
Q 14.984375 17.484375 19.15625 11.84375 
Q 23.34375 6.203125 30.609375 6.203125 
Q 37.796875 6.203125 41.984375 11.859375 
Q 46.1875 17.53125 46.1875 27.296875 
Q 46.1875 37.015625 41.984375 42.703125 
Q 37.796875 48.390625 30.609375 48.390625 
z
M 30.609375 56 
Q 42.328125 56 49.015625 48.375 
Q 55.71875 40.765625 55.71875 27.296875 
Q 55.71875 13.875 49.015625 6.21875 
Q 42.328125 -1.421875 30.609375 -1.421875 
Q 18.84375 -1.421875 12.171875 6.21875 
Q 5.515625 13.875 5.515625 27.296875 
Q 5.515625 40.765625 12.171875 48.375 
Q 18.84375 56 30.609375 56 
z
" id="DejaVuSans-111"/>
       <path d="M 9.421875 75.984375 
L 18.40625 75.984375 
L 18.40625 0 
L 9.421875 0 
z
" id="DejaVuSans-108"/>
       <path d="M 9.8125 72.90625 
L 51.703125 72.90625 
L 51.703125 64.59375 
L 19.671875 64.59375 
L 19.671875 43.109375 
L 48.578125 43.109375 
L 48.578125 34.8125 
L 19.671875 34.8125 
L 19.671875 0 
L 9.8125 0 
z
" id="DejaVuSans-70"/>
       <path d="M 48.78125 52.59375 
L 48.78125 44.1875 
Q 44.96875 46.296875 41.140625 47.34375 
Q 37.3125 48.390625 33.40625 48.390625 
Q 24.65625 48.390625 19.8125 42.84375 
Q 14.984375 37.3125 14.984375 27.296875 
Q 14.984375 17.28125 19.8125 11.734375 
Q 24.65625 6.203125 33.40625 6.203125 
Q 37.3125 6.203125 41.140625 7.25 
Q 44.96875 8.296875 48.78125 10.40625 
L 48.78125 2.09375 
Q 45.015625 0.34375 40.984375 -0.53125 
Q 36.96875 -1.421875 32.421875 -1.421875 
Q 20.0625 -1.421875 12.78125 6.34375 
Q 5.515625 14.109375 5.515625 27.296875 
Q 5.515625 40.671875 12.859375 48.328125 
Q 20.21875 56 33.015625 56 
Q 37.15625 56 41.109375 55.140625 
Q 45.0625 54.296875 48.78125 52.59375 
z
" id="DejaVuSans-99"/>
       <path d="M 46.734375 75.984375 
L 42.78125 55.8125 
Q 52.546875 55.8125 57.5625 48.34375 
Q 62.75 40.71875 60.15625 27.296875 
Q 57.515625 13.875 49.359375 6.25 
Q 41.453125 -1.21875 31.6875 -1.21875 
L 27.875 -20.796875 
L 18.953125 -20.796875 
L 22.75 -1.21875 
Q 13.03125 -1.21875 7.953125 6.25 
Q 2.78125 13.875 5.421875 27.296875 
Q 8.015625 40.71875 16.15625 48.34375 
Q 24.125 55.8125 33.84375 55.8125 
L 37.796875 75.984375 
z
M 33.25 6.78125 
Q 38.765625 6.78125 43.5 11.8125 
Q 48.6875 17.4375 50.6875 27.296875 
Q 52.640625 37.0625 49.515625 42.78125 
Q 46.734375 47.796875 41.21875 47.796875 
z
M 24.3125 6.78125 
L 32.28125 47.796875 
Q 26.8125 47.796875 22.078125 42.78125 
Q 16.75 37.0625 14.890625 27.296875 
Q 13.03125 17.4375 16.0625 11.8125 
Q 18.796875 6.78125 24.3125 6.78125 
z
" id="DejaVuSans-Oblique-981"/>
      </defs>
      <use transform="translate(0 0.015625)" xlink:href="#DejaVuSans-86"/>
      <use transform="translate(68.408203 0.015625)" xlink:href="#DejaVuSans-111"/>
      <use transform="translate(129.589844 0.015625)" xlink:href="#DejaVuSans-108"/>
      <use transform="translate(157.373047 0.015625)" xlink:href="#DejaVuSans-117"/>
      <use transform="translate(220.751953 0.015625)" xlink:href="#DejaVuSans-109"/>
      <use transform="translate(318.164062 0.015625)" xlink:href="#DejaVuSans-101"/>
      <use transform="translate(379.6875 0.015625)" xlink:href="#DejaVuSans-32"/>
      <use transform="translate(411.474609 0.015625)" xlink:href="#DejaVuSans-70"/>
      <use transform="translate(468.994141 0.015625)" xlink:href="#DejaVuSans-114"/>
      <use transform="translate(510.107422 0.015625)" xlink:href="#DejaVuSans-97"/>
      <use transform="translate(571.386719 0.015625)" xlink:href="#DejaVuSans-99"/>
      <use transform="translate(626.367188 0.015625)" xlink:href="#DejaVuSans-116"/>
      <use transform="translate(665.576172 0.015625)" xlink:href="#DejaVuSans-105"/>
      <use transform="translate(693.359375 0.015625)" xlink:href="#DejaVuSans-111"/>
      <use transform="translate(754.541016 0.015625)" xlink:href="#DejaVuSans-110"/>
      <use transform="translate(817.919922 0.015625)" xlink:href="#DejaVuSans-32"/>
      <use transform="translate(849.707031 0.015625)" xlink:href="#DejaVuSans-40"/>
      <use transform="translate(888.720703 0.015625)" xlink:href="#DejaVuSans-Oblique-981"/>
      <use transform="translate(954.6875 0.015625)" xlink:href="#DejaVuSans-41"/>
     </g>
    </g>
   </g>
   <g id="line2d_22">
    <path clip-path="url(#p19c545867e)" d="M 83.98 281.885455 
L 84.425477 276.251668 
L 84.722462 271.087249 
L 114.420929 271.087249 
L 115.311883 233.6291 
L 144.861859 233.6291 
L 145.307336 194.407092 
L 175.005803 194.407092 
L 175.154296 176.746605 
L 204.852763 176.746605 
L 205.001256 157.963924 
L 234.699723 157.963924 
L 234.848216 138.433511 
L 264.546683 138.433511 
L 264.695175 118.750281 
L 294.393643 118.750281 
L 294.542135 99.017965 
L 324.240603 99.017965 
L 324.68608 51.338414 
L 354.384548 51.338414 
L 354.681532 29.808128 
L 354.830025 26.794545 
L 384.38 26.794545 
L 384.38 26.794545 
" style="fill:none;stroke:#1f77b4;stroke-dasharray:5.55,2.4;stroke-dashoffset:0;stroke-width:1.5;"/>
   </g>
   <g id="patch_7">
    <path d="M 68.96 294.64 
L 68.96 14.04 
" style="fill:none;stroke:#000000;stroke-linecap:square;stroke-linejoin:miter;stroke-width:0.8;"/>
   </g>
   <g id="patch_8">
    <path d="M 399.4 294.64 
L 399.4 14.04 
" style="fill:none;stroke:#000000;stroke-linecap:square;stroke-linejoin:miter;stroke-width:0.8;"/>
   </g>
   <g id="patch_9">
    <path d="M 68.96 294.64 
L 399.4 294.64 
" style="fill:none;stroke:#000000;stroke-linecap:square;stroke-linejoin:miter;stroke-width:0.8;"/>
   </g>
   <g id="patch_10">
    <path d="M 68.96 14.04 
L 399.4 14.04 
" style="fill:none;stroke:#000000;stroke-linecap:square;stroke-linejoin:miter;stroke-width:0.8;"/>
   </g>
  </g>
  <g id="legend_1">
   <g id="patch_11">
    <path d="M 78.632 63.936 
L 228.942469 63.936 
Q 231.542469 63.936 231.542469 61.336 
L 231.542469 24.472875 
Q 231.542469 21.872875 228.942469 21.872875 
L 78.632 21.872875 
Q 76.032 21.872875 76.032 24.472875 
L 76.032 61.336 
Q 76.032 63.936 78.632 63.936 
z
" style="fill:#ffffff;opacity:0.8;stroke:#cccccc;stroke-linejoin:miter;"/>
   </g>
   <g id="line2d_23">
    <path d="M 81.232 32.400844 
L 107.232 32.400844 
" style="fill:none;stroke:#d62728;stroke-linecap:square;stroke-width:1.5;"/>
   </g>
   <g id="line2d_24"/>
   <g id="text_25">
    <!-- Order Parameter -->
    <g transform="translate(117.632 36.950844)scale(0.13 -0.13)">
     <use xlink:href="#DejaVuSans-79"/>
     <use x="78.710938" xlink:href="#DejaVuSans-114"/>
     <use x="118.074219" xlink:href="#DejaVuSans-100"/>
     <use x="181.550781" xlink:href="#DejaVuSans-101"/>
     <use x="243.074219" xlink:href="#DejaVuSans-114"/>
     <use x="284.1875" xlink:href="#DejaVuSans-32"/>
     <use x="315.974609" xlink:href="#DejaVuSans-80"/>
     <use x="371.777344" xlink:href="#DejaVuSans-97"/>
     <use x="433.056641" xlink:href="#DejaVuSans-114"/>
     <use x="474.169922" xlink:href="#DejaVuSans-97"/>
     <use x="535.449219" xlink:href="#DejaVuSans-109"/>
     <use x="632.861328" xlink:href="#DejaVuSans-101"/>
     <use x="694.384766" xlink:href="#DejaVuSans-116"/>
     <use x="733.59375" xlink:href="#DejaVuSans-101"/>
     <use x="795.117188" xlink:href="#DejaVuSans-114"/>
    </g>
   </g>
   <g id="line2d_25">
    <path d="M 81.232 51.482406 
L 107.232 51.482406 
" style="fill:none;stroke:#1f77b4;stroke-dasharray:5.55,2.4;stroke-dashoffset:0;stroke-width:1.5;"/>
   </g>
   <g id="line2d_26"/>
   <g id="text_26">
    <!-- Volume Fraction -->
    <g transform="translate(117.632 56.032406)scale(0.13 -0.13)">
     <use xlink:href="#DejaVuSans-86"/>
     <use x="60.658203" xlink:href="#DejaVuSans-111"/>
     <use x="121.839844" xlink:href="#DejaVuSans-108"/>
     <use x="149.623047" xlink:href="#DejaVuSans-117"/>
     <use x="213.001953" xlink:href="#DejaVuSans-109"/>
     <use x="310.414062" xlink:href="#DejaVuSans-101"/>
     <use x="371.9375" xlink:href="#DejaVuSans-32"/>
     <use x="403.724609" xlink:href="#DejaVuSans-70"/>
     <use x="453.994141" xlink:href="#DejaVuSans-114"/>
     <use x="495.107422" xlink:href="#DejaVuSans-97"/>
     <use x="556.386719" xlink:href="#DejaVuSans-99"/>
     <use x="611.367188" xlink:href="#DejaVuSans-116"/>
     <use x="650.576172" xlink:href="#DejaVuSans-105"/>
     <use x="678.359375" xlink:href="#DejaVuSans-111"/>
     <use x="739.541016" xlink:href="#DejaVuSans-110"/>
    </g>
   </g>
  </g>
 </g>
 <defs>
  <clipPath id="p19c545867e">
   <rect height="280.6" width="330.44" x="68.96" y="14.04"/>
  </clipPath>
 </defs>
</svg>
